<svg width="40" height="40" viewBox="0 0 40 40" fill="none" xmlns="http://www.w3.org/2000/svg">
<g clip-path="url(#clip0_3158_11829)">
<path d="M29.0875 40.0001C28.8075 40.0001 28.5209 39.9651 28.2375 39.8901L2.46588 32.9884C0.699212 32.5017 -0.354122 30.6717 0.109212 28.9051L3.36088 16.7851C3.48088 16.3401 3.93755 16.0817 4.38088 16.1951C4.82588 16.3134 5.08921 16.7717 4.97088 17.2151L1.72088 29.3317C1.48921 30.2151 2.01921 31.1351 2.90421 31.3801L28.6659 38.2784C29.5509 38.5117 30.4642 37.9851 30.6942 37.1051L31.9959 32.2817C32.1159 31.8367 32.5725 31.5717 33.0175 31.6934C33.4625 31.8134 33.7242 32.2717 33.6059 32.7151L32.3059 37.5317C31.9142 39.0151 30.5642 40.0001 29.0875 40.0001Z" fill="#666666"/>
<path d="M36.668 29.9999H10.0013C8.16297 29.9999 6.66797 28.5049 6.66797 26.6666V6.66659C6.66797 4.82825 8.16297 3.33325 10.0013 3.33325H36.668C38.5063 3.33325 40.0013 4.82825 40.0013 6.66659V26.6666C40.0013 28.5049 38.5063 29.9999 36.668 29.9999ZM10.0013 4.99992C9.08297 4.99992 8.33464 5.74825 8.33464 6.66659V26.6666C8.33464 27.5849 9.08297 28.3333 10.0013 28.3333H36.668C37.5863 28.3333 38.3346 27.5849 38.3346 26.6666V6.66659C38.3346 5.74825 37.5863 4.99992 36.668 4.99992H10.0013Z" fill="#666666"/>
<path d="M15.0013 14.9999C13.163 14.9999 11.668 13.5049 11.668 11.6666C11.668 9.82825 13.163 8.33325 15.0013 8.33325C16.8396 8.33325 18.3346 9.82825 18.3346 11.6666C18.3346 13.5049 16.8396 14.9999 15.0013 14.9999ZM15.0013 9.99992C14.083 9.99992 13.3346 10.7483 13.3346 11.6666C13.3346 12.5849 14.083 13.3333 15.0013 13.3333C15.9196 13.3333 16.668 12.5849 16.668 11.6666C16.668 10.7483 15.9196 9.99992 15.0013 9.99992Z" fill="#666666"/>
<path d="M7.615 28.2166C7.40167 28.2166 7.18833 28.1349 7.025 27.9733C6.7 27.6483 6.7 27.1199 7.025 26.7949L14.8967 18.9233C15.84 17.9799 17.4883 17.9799 18.4317 18.9233L20.775 21.2666L27.2617 13.4833C27.7333 12.9183 28.4267 12.5899 29.165 12.5833H29.1833C29.9133 12.5833 30.605 12.8999 31.0817 13.4549L39.7983 23.6249C40.0983 23.9733 40.0583 24.4999 39.7083 24.7999C39.36 25.0999 38.835 25.0616 38.5333 24.7099L29.8167 14.5399C29.655 14.3533 29.4317 14.2499 29.1833 14.2499C29.01 14.2349 28.705 14.3549 28.5433 14.5499L21.4717 23.0349C21.3217 23.2149 21.1033 23.3233 20.8683 23.3333C20.6317 23.3499 20.4067 23.2566 20.2417 23.0899L17.2533 20.1016C16.9383 19.7883 16.39 19.7883 16.075 20.1016L8.20333 27.9733C8.04167 28.1349 7.82833 28.2166 7.615 28.2166Z" fill="#666666"/>
</g>
<defs>
<clipPath id="clip0_3158_11829">
<rect width="40" height="40" fill="white"/>
</clipPath>
</defs>
</svg>
