<svg width="40" height="40" viewBox="0 0 40 40" fill="none" xmlns="http://www.w3.org/2000/svg">
<path d="M39.9618 39.206L34.1024 23.7708C34.0537 23.6426 33.9616 23.5356 33.8423 23.4683L27.6012 19.9522L29.4233 17.0632C30.5416 15.2887 31.1327 13.238 31.1327 11.1328C31.1327 4.99414 26.1386 0 19.9999 0C13.8613 0 8.86715 4.99414 8.86715 11.1328C8.86715 13.2385 9.45855 15.2893 10.5775 17.0633C10.6074 17.1109 12.3991 19.9524 12.3991 19.9524L6.15778 23.4683C6.03833 23.5356 5.94622 23.6426 5.89754 23.7708L0.0381805 39.206C-0.0493975 39.4366 0.0169305 39.6974 0.203883 39.8582C0.39107 40.0192 0.658648 40.0457 0.87357 39.9245L10.2929 34.6178L19.7123 39.9245C19.8908 40.025 20.109 40.025 20.2875 39.9245L29.7069 34.6178L39.1262 39.9245C39.2161 39.9751 39.3152 40 39.4138 40C39.551 40 39.6871 39.9519 39.796 39.8583C39.9831 39.6974 40.0494 39.4366 39.9618 39.206ZM20.586 30.368C20.9525 30.2386 21.2703 29.9894 21.486 29.6479C21.5158 29.6011 26.5039 21.6922 26.5039 21.6922L29.0445 33.6459L20.586 38.4112V30.368ZM11.5687 16.4381C10.568 14.8514 10.0391 13.0169 10.0391 11.1327C10.0391 5.64023 14.5075 1.1718 20 1.1718C25.4925 1.1718 29.9609 5.64023 29.9609 11.1327C29.9609 13.0165 29.4322 14.8512 28.4321 16.4381C28.3539 16.5621 20.6335 28.8052 20.4988 29.0167C20.4975 29.0185 20.4964 29.0204 20.4953 29.0222C20.3866 29.194 20.2015 29.2968 20 29.2968C19.7984 29.2968 19.6124 29.1936 19.5036 29.0225C19.4253 28.8983 11.6895 16.631 11.5714 16.4424C11.5705 16.441 11.5696 16.4396 11.5687 16.4381ZM6.91778 24.3851L12.38 21.308L11.4284 25.7849C11.3611 26.1015 11.5632 26.4125 11.8796 26.4799C11.9207 26.4886 11.9618 26.4929 12.0021 26.4929C12.2728 26.4929 12.516 26.304 12.5746 26.0286L13.4962 21.6926L18.5135 29.6495C18.7299 29.99 19.048 30.2387 19.4139 30.3679V38.4114L10.9556 33.646L12.0874 28.3211C12.1546 28.0045 11.9526 27.6934 11.6361 27.6261C11.3193 27.5584 11.0084 27.7609 10.9411 28.0773L9.7748 33.5645L1.70794 38.1093L6.91778 24.3851ZM30.2252 33.5646L27.6202 21.3079L33.0822 24.3851L38.2921 38.1093L30.2252 33.5646Z" fill="#666666"/>
<path d="M26.4453 11.1328C26.4453 7.57891 23.5539 4.6875 20 4.6875C16.4461 4.6875 13.5547 7.57891 13.5547 11.1328C13.5547 14.6867 16.4461 17.5781 20 17.5781C23.5539 17.5781 26.4453 14.6867 26.4453 11.1328ZM14.7266 11.1328C14.7266 8.225 17.0922 5.85938 20 5.85938C22.9078 5.85938 25.2734 8.225 25.2734 11.1328C25.2734 14.0406 22.9078 16.4063 20 16.4063C17.0922 16.4063 14.7266 14.0406 14.7266 11.1328Z" fill="#666666"/>
<path d="M24.1016 11.1328C24.1016 8.87125 22.2616 7.03125 20 7.03125C17.7384 7.03125 15.8984 8.87125 15.8984 11.1328C15.8984 13.3944 17.7384 15.2344 20 15.2344C22.2616 15.2344 24.1016 13.3944 24.1016 11.1328ZM17.0703 11.1328C17.0703 9.51735 18.3845 8.20313 20 8.20313C21.6155 8.20313 22.9297 9.51735 22.9297 11.1328C22.9297 12.7483 21.6155 14.0625 20 14.0625C18.3845 14.0625 17.0703 12.7483 17.0703 11.1328Z" fill="#666666"/>
</svg>
