<svg width="32" height="33" viewBox="0 0 32 33" fill="none" xmlns="http://www.w3.org/2000/svg">
<path d="M29.9334 21.6316L7.92538 25.5122C6.56563 25.752 5.26901 24.8441 5.02926 23.4844L2.60676 9.74581C2.36701 8.38606 3.27494 7.08944 4.63463 6.84968L26.6426 2.96906C28.0024 2.72931 29.299 3.63725 29.5388 4.99694L31.9613 18.7355C32.2011 20.0952 31.2931 21.3919 29.9334 21.6316Z" fill="#3555A2"/>
<path d="M26.6427 2.96906L15.6387 4.90937L18.9294 23.572L29.9334 21.6317C31.2931 21.3919 32.201 20.0953 31.9612 18.7356L29.5387 4.997C29.299 3.63725 28.0024 2.72931 26.6427 2.96906Z" fill="#1B3555"/>
<path d="M24.375 30.0693H2.5C1.11931 30.0693 0 28.95 0 27.5693V13.9619C0 12.5812 1.11931 11.4619 2.5 11.4619H24.375C25.7557 11.4619 26.875 12.5812 26.875 13.9619V27.5693C26.875 28.95 25.7557 30.0693 24.375 30.0693Z" fill="#53D8E3"/>
<path d="M24.375 11.4619H13.4375V30.0693H24.375C25.7557 30.0693 26.875 28.95 26.875 27.5693V13.9619C26.875 12.5812 25.7557 11.4619 24.375 11.4619Z" fill="#18A8C9"/>
<path d="M0 15.7148H26.875V19.968H0V15.7148Z" fill="#ECF6FD"/>
<path d="M7.44258 25.9414H3.18945C2.6717 25.9414 2.25195 26.3612 2.25195 26.8789C2.25195 27.3967 2.6717 27.8164 3.18945 27.8164H7.44258C7.96033 27.8164 8.38008 27.3967 8.38008 26.8789C8.38008 26.3612 7.96033 25.9414 7.44258 25.9414Z" fill="#EAF6FF"/>
<path d="M13.4375 15.7148H26.875V19.968H13.4375V15.7148Z" fill="#D6E8FE"/>
</svg>
