<svg width="32" height="33" viewBox="0 0 32 33" fill="none" xmlns="http://www.w3.org/2000/svg">
<g clip-path="url(#clip0_3897_7067)">
<path d="M25.7307 28.5H3.60267C1.616 28.5 0 26.8893 0 24.912V8.088C0 6.11067 1.616 4.5 3.60267 4.5H25.7307C27.7173 4.5 29.3333 6.11067 29.3333 8.088V24.9107C29.3333 26.8893 27.7173 28.5 25.7307 28.5Z" fill="#CFD8DC"/>
<path d="M29.7775 21.8333H22.0002C19.4268 21.8333 17.3335 19.74 17.3335 17.1667C17.3335 14.5933 19.4268 12.5 22.0002 12.5H29.7775C31.0028 12.5 32.0002 13.4973 32.0002 14.7227V19.612C32.0002 20.836 31.0028 21.8333 29.7775 21.8333Z" fill="#607D8B"/>
<path d="M23.3332 17.1663C23.3332 17.9023 22.7358 18.4997 21.9998 18.4997C21.2638 18.4997 20.6665 17.9023 20.6665 17.1663C20.6665 16.4303 21.2638 15.833 21.9998 15.833C22.7358 15.833 23.3332 16.4303 23.3332 17.1663Z" fill="#42A5F5"/>
<path d="M17.34 17.4121H0V24.9121C0 26.8894 1.616 28.5001 3.60267 28.5001H25.7307C27.7173 28.5001 29.3333 26.8894 29.3333 24.9121V21.8334H22C19.5093 21.8334 17.468 19.8708 17.34 17.4121Z" fill="#B4BCC0"/>
<path d="M31.9998 17.4121H23.3105C23.1958 18.0308 22.6532 18.5001 21.9998 18.5001C21.3465 18.5001 20.8038 18.0308 20.6892 17.4121H17.3398C17.4678 19.8708 19.5092 21.8334 21.9998 21.8334H29.3332H29.7772C31.0025 21.8334 31.9998 20.8361 31.9998 19.6108V17.4121Z" fill="#546D79"/>
<path d="M23.3108 17.4121H20.6895C20.8041 18.0308 21.3468 18.5001 22.0001 18.5001C22.6535 18.5001 23.1961 18.0308 23.3108 17.4121Z" fill="#3990D5"/>
</g>
<defs>
<clipPath id="clip0_3897_7067">
<rect width="32" height="32" fill="white" transform="translate(0 0.5)"/>
</clipPath>
</defs>
</svg>
