<svg width="24" height="28" viewBox="0 0 24 28" fill="none" xmlns="http://www.w3.org/2000/svg">
<g id="about">
<path id="Path 6566" d="M19.252 4.21263e-07H4.75201C4.1279 -0.00026242 3.50982 0.122474 2.93317 0.361191C2.35651 0.599908 1.83255 0.949927 1.39124 1.39124C0.949919 1.83256 0.599924 2.35652 0.361206 2.93318C0.122489 3.50984 -0.00026242 4.12788 4.21211e-07 4.752V26.5C0.000786367 26.7092 0.0596495 26.914 0.170044 27.0916C0.280439 27.2693 0.438001 27.4128 0.625184 27.5061C0.812366 27.5995 1.02178 27.639 1.2301 27.6202C1.43842 27.6015 1.63747 27.5252 1.80499 27.4L6.336 24H19.248C19.8721 24.0005 20.4902 23.878 21.0669 23.6394C21.6436 23.4009 22.1677 23.051 22.609 22.6097C23.0504 22.1684 23.4004 21.6445 23.639 21.0678C23.8777 20.4912 24.0004 19.8731 24 19.249V4.749C24 3.48966 23.4998 2.28189 22.6094 1.3913C21.719 0.500723 20.5114 0.000265601 19.252 4.21263e-07ZM14.31 19.629C13.8971 20.0508 13.3675 20.3394 12.7892 20.4576C12.211 20.5759 11.6105 20.5184 11.0652 20.2925C10.5199 20.0666 10.0547 19.6828 9.72943 19.1903C9.40414 18.6978 9.23369 18.1192 9.23999 17.529C9.23176 17.155 9.2994 16.7832 9.43878 16.436C9.57817 16.0888 9.78638 15.7735 10.051 15.509C10.3364 15.2022 10.6834 14.9592 11.0692 14.7958C11.4551 14.6325 11.8711 14.5524 12.29 14.561C12.6749 14.5571 13.0562 14.6346 13.409 14.7885C13.7618 14.9424 14.078 15.1692 14.337 15.454C14.6096 15.7293 14.8252 16.0556 14.9714 16.4144C15.1176 16.7731 15.1916 17.1572 15.1891 17.5446C15.1866 17.932 15.1076 18.3151 14.9568 18.6719C14.8059 19.0287 14.5861 19.3523 14.31 19.624V19.629ZM17.882 9.222C17.2405 9.64803 16.5649 10.0203 15.862 10.335C15.5356 10.4855 15.2324 10.6822 14.962 10.919C14.7458 11.1349 14.5712 11.3888 14.447 11.668C14.2675 12.1501 13.9864 12.5879 13.623 12.952C13.2521 13.1636 12.8254 13.2571 12.4 13.22C12.162 13.232 11.9241 13.1955 11.7006 13.1129C11.4772 13.0302 11.2728 12.903 11.1 12.739C10.9346 12.5632 10.8066 12.3557 10.7239 12.1289C10.6412 11.9022 10.6056 11.661 10.619 11.42C10.6308 10.8645 10.7571 10.3174 10.99 9.813C11.0567 9.675 11.4093 9.12533 12.048 8.164C12.5882 7.42773 12.8989 6.54825 12.941 5.636C12.9558 5.29316 12.862 4.95438 12.673 4.668C12.6012 4.55234 12.501 4.45692 12.382 4.39077C12.263 4.32462 12.1291 4.28994 11.993 4.29C11.8784 4.27928 11.7629 4.2983 11.6578 4.34525C11.5527 4.3922 11.4615 4.46548 11.393 4.558C11.2352 4.87198 11.1459 5.21591 11.131 5.567C11.0998 6.3667 10.7719 7.1261 10.211 7.697C9.6533 8.20474 8.91751 8.47145 8.164 8.439C7.64136 8.46047 7.13023 8.28163 6.73499 7.939C6.528 7.76162 6.36288 7.54056 6.25153 7.29175C6.14017 7.04293 6.08538 6.77254 6.091 6.5C6.10797 5.56062 6.42863 4.65198 7.00501 3.91C7.5983 3.08455 8.40904 2.43996 9.34698 2.048C10.3728 1.61433 11.4763 1.39483 12.59 1.403C13.6628 1.41304 14.7229 1.63708 15.708 2.062C16.7208 2.46189 17.6079 3.12593 18.277 3.985C18.8596 4.70995 19.1794 5.61096 19.184 6.541C19.1887 7.05835 19.0736 7.56977 18.8477 8.03522C18.6218 8.50068 18.2913 8.90755 17.882 9.224V9.222Z" fill="#5C5A5A"/>
</g>
</svg>
