<svg width="93" height="82" viewBox="0 0 93 82" fill="none" xmlns="http://www.w3.org/2000/svg">
<mask id="mask0_1059_2602" style="mask-type:alpha" maskUnits="userSpaceOnUse" x="0" y="0" width="93" height="82">
<rect width="93" height="81.4779" fill="#D9D9D9"/>
</mask>
<g mask="url(#mask0_1059_2602)">
<path d="M18.0833 71.293C16.3072 71.293 14.7868 70.739 13.5221 69.6309C12.2574 68.5229 11.625 67.1908 11.625 65.6348V15.8427C11.625 14.2867 12.2574 12.9547 13.5221 11.8466C14.7868 10.7386 16.3072 10.1846 18.0833 10.1846H56.123V15.8427H18.0833V65.6348H74.9167V32.3646H81.375V65.6348C81.375 67.1908 80.7426 68.5229 79.4779 69.6309C78.2132 70.739 76.6928 71.293 74.9167 71.293H18.0833ZM67.1667 29.5356V22.6891H59.3521V17.031H67.1667V10.1846H73.625V17.031H81.4396V22.6891H73.625V29.5356H67.1667ZM23.25 57.6002H69.75L55.6063 41.0783L43.5291 55.054L34.5521 44.6429L23.25 57.6002Z" fill="#CCCCCC"/>
</g>
</svg>
