<svg width="25" height="24" viewBox="0 0 25 24" fill="none" xmlns="http://www.w3.org/2000/svg">
<g clip-path="url(#clip0_104_4846)">
<path d="M20.7496 5.6249C21.1638 5.6249 21.4996 5.28909 21.4996 4.87491V4.12493H22.6246C23.6586 4.12493 24.4995 3.28401 24.4995 2.24996C24.4995 1.21592 23.6586 0.375 22.6246 0.375H20.7496C20.3353 0.375 19.9996 0.710618 19.9996 1.12499V4.87491C19.9996 5.28909 20.3354 5.6249 20.7496 5.6249ZM21.4996 1.87497H22.6246C22.8313 1.87497 22.9996 2.04325 22.9996 2.24996C22.9996 2.45668 22.8313 2.62496 22.6246 2.62496H21.4996V1.87497Z" fill="#FDFCFC"/>
<path d="M22.6246 6.375H20.7496C20.3353 6.375 19.9996 6.71062 19.9996 7.12499V10.8749C19.9996 11.2891 20.3354 11.6249 20.7496 11.6249C21.1638 11.6249 21.4996 11.2891 21.4996 10.8749V10.1249H22.6246C22.8313 10.1249 22.9996 10.2932 22.9996 10.4999V10.8749C22.9996 11.2891 23.3353 11.6249 23.7496 11.6249C24.1638 11.6249 24.4995 11.2891 24.4995 10.8749V10.4999C24.4995 9.79507 24.118 9.3861 24.1236 9.37494C25.043 8.15462 24.1765 6.375 22.6246 6.375ZM22.6246 8.62496H21.4996V7.87497H22.6246C22.8313 7.87497 22.9996 8.04325 22.9996 8.24996C22.9996 8.45668 22.8313 8.62496 22.6246 8.62496Z" fill="#FDFCFC"/>
<path d="M22.6246 12.375H20.7496C20.3353 12.375 19.9996 12.7106 19.9996 13.125V16.8749C19.9996 17.2893 20.3353 17.6249 20.7496 17.6249H22.6246C23.6586 17.6249 24.4995 16.784 24.4995 15.7499V14.25C24.4995 13.2159 23.6586 12.375 22.6246 12.375ZM22.9996 15.7499C22.9996 15.9566 22.8313 16.1249 22.6246 16.1249H21.4996V13.875H22.6246C22.8313 13.875 22.9996 14.0432 22.9996 14.25V15.7499Z" fill="#FDFCFC"/>
<path d="M23.7496 18.3749C23.3353 18.3749 22.9996 18.7107 22.9996 19.1249V20.7368L21.3353 18.6564C20.8936 18.1043 19.9996 18.4177 19.9996 19.1249V22.8748C19.9996 23.289 20.3354 23.6248 20.7496 23.6248C21.1638 23.6248 21.4996 23.289 21.4996 22.8748V21.2629L23.1639 23.3433C23.6057 23.8955 24.4995 23.582 24.4995 22.8748V19.1249C24.4995 18.7107 24.1638 18.3749 23.7496 18.3749Z" fill="#FDFCFC"/>
<path d="M6.12485 4.12492C6.12485 1.77967 8.96579 0.630081 10.606 2.26871C11.1015 2.76463 11.3747 3.42368 11.3747 4.12492V9.74981H12.8747V4.12492C12.8747 1.84534 11.0293 0 8.7498 0C6.47547 0 4.62488 1.85059 4.62488 4.12492V9.74981H6.12485V4.12492Z" fill="#FDFCFC"/>
<path d="M8.7498 22.4999C7.30233 22.4999 6.12485 21.3225 6.12485 19.875H4.62488C4.62488 22.1493 6.47547 23.9999 8.7498 23.9999C11.0241 23.9999 12.8747 22.1493 12.8747 19.875H11.3747C11.3747 21.3225 10.1973 22.4999 8.7498 22.4999Z" fill="#FDFCFC"/>
<path d="M2.78886 12.75H2.32809C1.3203 12.75 0.5 13.5703 0.5 14.5781V15.0468C0.5 16.0546 1.3203 16.8749 2.32809 16.8749H2.78886C2.76308 16.7052 2.74996 16.5318 2.74996 16.3556C2.74996 13.0513 2.73575 13.0996 2.78886 12.75Z" fill="#FDFCFC"/>
<path d="M12.8747 11.2557C12.8747 11.2448 6.12484 11.2491 6.12484 11.2557C5.07814 11.3293 4.24988 12.2044 4.24988 13.2694V16.3556C4.24988 17.4206 5.07814 18.2957 6.12484 18.3693C6.12484 18.3802 12.8747 18.3759 12.8747 18.3693C13.9214 18.2957 14.7497 17.4206 14.7497 16.3556V13.2694C14.7497 12.2044 13.9214 11.3293 12.8747 11.2557Z" fill="#FDFCFC"/>
<path d="M17.3747 2.25H16.2497C15.8355 2.25 15.4998 2.58581 15.4998 2.99999C15.4998 3.41416 15.8355 3.74997 16.2497 3.74997H17.3747C17.7889 3.74997 18.1247 3.41416 18.1247 2.99999C18.1247 2.58581 17.7889 2.25 17.3747 2.25Z" fill="#FDFCFC"/>
<path d="M17.3747 8.25H16.2497C15.8355 8.25 15.4998 8.58581 15.4998 8.99999C15.4998 9.41416 15.8355 9.74997 16.2497 9.74997H17.3747C17.7889 9.74997 18.1247 9.41416 18.1247 8.99999C18.1247 8.58581 17.7889 8.25 17.3747 8.25Z" fill="#FDFCFC"/>
<path d="M17.3747 20.25H16.2497C15.8355 20.25 15.4998 20.5858 15.4998 21C15.4998 21.4142 15.8355 21.75 16.2497 21.75H17.3747C17.7889 21.75 18.1247 21.4142 18.1247 21C18.1247 20.5858 17.7889 20.25 17.3747 20.25Z" fill="#FDFCFC"/>
<path d="M7.24988 4.12497V9.74986H10.2498V4.12497C10.2498 3.29788 9.57694 2.625 8.74985 2.625C7.92276 2.625 7.24988 3.29788 7.24988 4.12497Z" fill="#FDFCFC"/>
<path d="M10.2498 20.25V19.875C9.20265 19.875 8.29803 19.875 7.24988 19.875V20.25C7.24988 21.0771 7.92276 21.75 8.74985 21.75C9.57694 21.75 10.2498 21.0771 10.2498 20.25Z" fill="#FDFCFC"/>
</g>
<defs>
<clipPath id="clip0_104_4846">
<rect width="24" height="24" fill="white" transform="translate(0.5)"/>
</clipPath>
</defs>
</svg>
