<svg width="25" height="24" viewBox="0 0 25 24" fill="none" xmlns="http://www.w3.org/2000/svg">
<g clip-path="url(#clip0_1_7350)">
<path d="M20.7495 5.6249C21.1637 5.6249 21.4995 5.28909 21.4995 4.87491V4.12493H22.6245C23.6585 4.12493 24.4994 3.28401 24.4994 2.24996C24.4994 1.21592 23.6585 0.375 22.6245 0.375H20.7495C20.3351 0.375 19.9995 0.710618 19.9995 1.12499V4.87491C19.9995 5.28909 20.3353 5.6249 20.7495 5.6249ZM21.4995 1.87497H22.6245C22.8312 1.87497 22.9995 2.04325 22.9995 2.24996C22.9995 2.45668 22.8312 2.62496 22.6245 2.62496H21.4995V1.87497Z" fill="#666666"/>
<path d="M22.6245 6.375H20.7495C20.3351 6.375 19.9995 6.71062 19.9995 7.12499V10.8749C19.9995 11.2891 20.3353 11.6249 20.7495 11.6249C21.1637 11.6249 21.4995 11.2891 21.4995 10.8749V10.1249H22.6245C22.8312 10.1249 22.9995 10.2932 22.9995 10.4999V10.8749C22.9995 11.2891 23.3352 11.6249 23.7494 11.6249C24.1637 11.6249 24.4994 11.2891 24.4994 10.8749V10.4999C24.4994 9.79507 24.1179 9.3861 24.1235 9.37494C25.0428 8.15462 24.1764 6.375 22.6245 6.375ZM22.6245 8.62496H21.4995V7.87497H22.6245C22.8312 7.87497 22.9995 8.04325 22.9995 8.24996C22.9995 8.45668 22.8312 8.62496 22.6245 8.62496Z" fill="#666666"/>
<path d="M22.6245 12.375H20.7495C20.3351 12.375 19.9995 12.7106 19.9995 13.125V16.8749C19.9995 17.2893 20.3351 17.6249 20.7495 17.6249H22.6245C23.6585 17.6249 24.4994 16.784 24.4994 15.7499V14.25C24.4994 13.2159 23.6585 12.375 22.6245 12.375ZM22.9995 15.7499C22.9995 15.9566 22.8312 16.1249 22.6245 16.1249H21.4995V13.875H22.6245C22.8312 13.875 22.9995 14.0432 22.9995 14.25V15.7499Z" fill="#666666"/>
<path d="M23.7494 18.3749C23.3352 18.3749 22.9995 18.7107 22.9995 19.1249V20.7368L21.3351 18.6564C20.8934 18.1043 19.9995 18.4177 19.9995 19.1249V22.8748C19.9995 23.289 20.3353 23.6248 20.7495 23.6248C21.1637 23.6248 21.4995 23.289 21.4995 22.8748V21.2629L23.1638 23.3433C23.6056 23.8955 24.4994 23.582 24.4994 22.8748V19.1249C24.4994 18.7107 24.1637 18.3749 23.7494 18.3749Z" fill="#666666"/>
<path d="M6.12497 4.12492C6.12497 1.77967 8.96592 0.630081 10.6061 2.26871C11.1016 2.76463 11.3749 3.42368 11.3749 4.12492V9.74981H12.8748V4.12492C12.8748 1.84534 11.0294 0 8.74992 0C6.47559 0 4.625 1.85059 4.625 4.12492V9.74981H6.12497V4.12492Z" fill="#666666"/>
<path d="M8.74992 22.4999C7.30245 22.4999 6.12497 21.3225 6.12497 19.875H4.625C4.625 22.1493 6.47559 23.9999 8.74992 23.9999C11.0242 23.9999 12.8748 22.1493 12.8748 19.875H11.3749C11.3749 21.3225 10.1974 22.4999 8.74992 22.4999Z" fill="#666666"/>
<path d="M2.78886 12.75H2.32809C1.3203 12.75 0.5 13.5703 0.5 14.5781V15.0468C0.5 16.0546 1.3203 16.8749 2.32809 16.8749H2.78886C2.76308 16.7052 2.74996 16.5318 2.74996 16.3556C2.74996 13.0513 2.73575 13.0996 2.78886 12.75Z" fill="#666666"/>
<path d="M12.8748 11.2557C12.8748 11.2448 6.12496 11.2491 6.12496 11.2557C5.07826 11.3293 4.25 12.2044 4.25 13.2694V16.3556C4.25 17.4206 5.07826 18.2957 6.12496 18.3693C6.12496 18.3802 12.8748 18.3759 12.8748 18.3693C13.9215 18.2957 14.7498 17.4206 14.7498 16.3556V13.2694C14.7498 12.2044 13.9215 11.3293 12.8748 11.2557Z" fill="#666666"/>
<path d="M17.3745 2.25H16.2495C15.8353 2.25 15.4995 2.58581 15.4995 2.99999C15.4995 3.41416 15.8353 3.74997 16.2495 3.74997H17.3745C17.7887 3.74997 18.1245 3.41416 18.1245 2.99999C18.1245 2.58581 17.7887 2.25 17.3745 2.25Z" fill="#666666"/>
<path d="M17.3745 8.25H16.2495C15.8353 8.25 15.4995 8.58581 15.4995 8.99999C15.4995 9.41416 15.8353 9.74997 16.2495 9.74997H17.3745C17.7887 9.74997 18.1245 9.41416 18.1245 8.99999C18.1245 8.58581 17.7887 8.25 17.3745 8.25Z" fill="#666666"/>
<path d="M17.3745 20.25H16.2495C15.8353 20.25 15.4995 20.5858 15.4995 21C15.4995 21.4142 15.8353 21.75 16.2495 21.75H17.3745C17.7887 21.75 18.1245 21.4142 18.1245 21C18.1245 20.5858 17.7887 20.25 17.3745 20.25Z" fill="#666666"/>
<path d="M7.25 4.12497V9.74986H10.2499V4.12497C10.2499 3.29788 9.57706 2.625 8.74997 2.625C7.92288 2.625 7.25 3.29788 7.25 4.12497Z" fill="#666666"/>
<path d="M10.2499 20.25V19.875C9.20277 19.875 8.29815 19.875 7.25 19.875V20.25C7.25 21.0771 7.92288 21.75 8.74997 21.75C9.57706 21.75 10.2499 21.0771 10.2499 20.25Z" fill="#666666"/>
</g>
<defs>
<clipPath id="clip0_1_7350">
<rect width="24" height="24" fill="white" transform="translate(0.5)"/>
</clipPath>
</defs>
</svg>
