<svg width="31" height="31" viewBox="0 0 31 31" fill="none" xmlns="http://www.w3.org/2000/svg">
<path d="M30.26 22.2061L24.2718 17.4092C24.0323 17.2293 23.7329 17.2293 23.4934 17.4092L20.1999 20.0475C18.7627 18.2486 16.7866 16.9295 14.2716 16.3299V15.5504C16.0681 14.7709 17.3854 13.1519 17.7447 11.2331C19.8406 11.0532 20.3795 8.17509 18.4633 7.27566V5.29693C18.4633 2.65862 16.3076 0.5 13.6728 0.5C12.5949 0.5 10.559 0.5 9.48109 0.5C7.14571 0.5 5.28938 2.35881 5.28938 4.69731C5.28938 8.17509 5.46902 6.97586 4.69056 7.6954C3.43305 8.95459 4.21151 11.1132 6.00796 11.2331C6.36725 13.1519 7.68464 14.7709 9.48109 15.5504C9.48109 16.8695 9.84038 15.9101 7.44512 17.0494C4.39116 18.4285 2.05578 21.3067 1.39708 24.8444C0.438977 30.121 0.379095 29.9412 0.618621 30.241C0.977911 30.6007 -0.938297 30.4808 28.1042 30.4808C28.4635 30.4808 28.7031 30.241 28.7031 29.8812V23.2854H29.9007C30.4396 23.2854 30.739 22.5659 30.26 22.2061ZM23.9125 18.6684C28.7031 22.5059 28.224 22.0862 28.1042 22.0862C23.3736 22.0862 24.3916 22.0862 19.6609 22.0862C20.14 21.6665 18.2238 23.2255 23.9125 18.6684ZM19.3017 20.827C17.5052 22.2661 17.2058 22.386 17.3854 22.8657C17.5651 23.3454 17.9843 23.2854 19.122 23.2854V29.2816H14.8704C13.4931 20.2873 13.6728 22.6258 14.2117 21.4266C15.9483 22.6858 15.9483 22.6858 16.1878 22.6858C16.4872 22.6858 16.7866 22.446 16.7866 22.0862V18.6084C17.6849 19.208 18.5831 19.9276 19.3017 20.827ZM13.1339 15.9701C13.1339 16.6896 13.3135 16.2699 11.9362 18.0688C10.559 16.2099 10.7386 16.6896 10.7386 15.9701C11.5769 16.15 12.4153 16.09 13.1339 15.9701ZM10.7386 20.7071L11.9362 19.8676L13.1339 20.7071C13.074 21.1868 12.7147 21.4866 12.2356 21.4866H11.6368C11.1578 21.4866 10.7985 21.1268 10.7386 20.7071ZM15.5291 18.0088V20.9469C14.2117 19.9875 17.0262 22.0262 12.7746 18.9682L13.9123 17.5291C14.5111 17.649 14.9902 17.7689 15.5291 18.0088ZM17.9244 10.0339V8.35497C18.7028 8.65478 18.7028 9.73409 17.9244 10.0339ZM17.3256 5.29693V7.09578H13.1339C11.4572 7.09578 10.1398 5.71666 10.1398 4.0977V1.69923H13.7327C15.7088 1.69923 17.3256 3.3182 17.3256 5.29693ZM8.94215 1.75919C8.94215 3.73793 9.18168 4.99712 8.16369 6.13639C7.74452 6.61609 7.14571 6.91589 6.54689 7.03582V4.69731C6.54689 3.25823 7.56488 2.059 8.94215 1.75919ZM5.94808 8.35497V10.0339C5.16962 9.73409 5.16962 8.59482 5.94808 8.35497ZM7.14571 10.0939C7.14571 7.9952 7.08583 8.11513 7.14571 8.11513C8.16369 7.81532 9.00203 7.15574 9.54097 6.25632C10.3194 7.51551 11.6368 8.29501 13.1339 8.29501H16.7267V10.0939C16.7267 13.0919 14.0321 15.3105 11.0979 14.8308C8.82239 14.4111 7.14571 12.4324 7.14571 10.0939ZM9.96014 17.4691L11.038 18.9682C3.67258 24.2448 16.1878 15.3105 8.28346 20.9469V18.0088C8.82239 17.7689 9.30144 17.649 9.96014 17.4691ZM2.65459 25.0843C3.13365 22.386 4.81033 20.0475 7.14571 18.6084V22.0862C7.14571 22.446 7.44512 22.6858 7.74452 22.6858C8.04393 22.6858 8.10381 22.5659 9.72061 21.4266C10.2595 22.6258 10.4392 20.2873 9.06192 29.2816H1.87613L2.65459 25.0843ZM10.2595 29.2816L11.2775 22.6858H12.6548L13.6728 29.2816H10.2595ZM23.3137 29.2816V26.2835H24.5113V29.2816H23.3137ZM27.5054 29.2816H25.709V25.6839C25.709 25.3241 25.4695 25.0843 25.1102 25.0843H22.7149C22.3556 25.0843 22.1161 25.3241 22.1161 25.6839V29.2816H20.3196V23.2854H27.5054V29.2816Z" fill="#656565"/>
</svg>
