<svg width="25" height="25" viewBox="0 0 25 25" fill="none" xmlns="http://www.w3.org/2000/svg">
<g id="buy">
<g id="Group 9984">
<g id="Group 9981">
<g id="Group 9980">
<g id="Group 9979">
<path id="Path 6563" d="M13.01 14.7111V13.7111C13.4487 13.6447 13.8495 13.4245 14.1407 13.0898C14.432 12.7551 14.5948 12.3277 14.6 11.8841C14.6 10.9741 14.108 10.4021 12.96 9.97109C12.187 9.66209 11.939 9.48009 11.939 9.22209C11.939 8.92209 12.2031 8.75009 12.6461 8.75009C13.0455 8.75166 13.439 8.84688 13.795 9.02809L14.043 9.14209L14.401 7.92209L14.262 7.85209C13.8876 7.66588 13.4794 7.55705 13.062 7.53209V6.64709H11.92V7.6031C11.5009 7.66743 11.1182 7.87882 10.8406 8.19945C10.5631 8.52008 10.4087 8.92902 10.405 9.3531C10.405 10.4321 11.29 10.8981 12.155 11.2111C12.948 11.5011 13.0551 11.7551 13.0551 11.9861C13.0551 12.3251 12.736 12.5441 12.243 12.5441C11.763 12.5341 11.2936 12.4008 10.88 12.1571L10.673 12.0351L10.315 13.2801L10.428 13.3551C10.8674 13.6116 11.3611 13.7606 11.869 13.7901V14.7131H13.011L13.01 14.7111Z" fill="#5C5A5A"/>
<path id="Path 6564" d="M24.2 18.5661C24.1359 18.2699 24.0114 17.99 23.8344 17.744C23.6574 17.4979 23.4315 17.291 23.171 17.1361C22.5661 16.6843 21.833 16.4366 21.078 16.4291C20.5222 16.4394 19.9778 16.5884 19.4942 16.8625C19.0106 17.1367 18.6032 17.5274 18.309 17.9991C17.635 18.8694 16.663 19.4599 15.58 19.6571C15.6695 19.4205 15.7126 19.169 15.707 18.9161C15.7028 18.4797 15.6096 18.0487 15.433 17.6495C15.2565 17.2504 15.0004 16.8914 14.6803 16.5947C14.3602 16.298 13.983 16.0696 13.5717 15.9237C13.1603 15.7778 12.7235 15.7174 12.288 15.7461L5.18805 15.7521C4.52322 15.7537 3.87269 15.9452 3.31305 16.3041V15.3811H0V24.9571H3.31305V23.9401C3.41725 23.9954 3.51748 24.0579 3.61304 24.1271C4.32991 24.5474 5.13797 24.7876 5.96802 24.8271H12.489C14.529 24.8169 16.546 24.3949 18.4189 23.5864C20.2919 22.778 21.9824 21.5996 23.389 20.1221C23.6233 19.9319 23.8161 19.6957 23.9556 19.4281C24.0951 19.1605 24.1783 18.8671 24.2 18.5661ZM2.20905 17.4961H1.05103V16.3381H2.20905V17.4961ZM22.535 19.3461C21.237 20.7041 19.6788 21.7867 17.9534 22.5294C16.2279 23.2722 14.3705 23.6598 12.492 23.6691H5.97101C5.14092 23.5875 4.34731 23.2873 3.67102 22.7991C3.57104 22.7256 3.45017 22.6859 3.32605 22.6861H3.31805V17.5861C3.44676 17.5891 3.57275 17.549 3.67603 17.4721L3.802 17.3721C4.20215 17.0711 4.68927 16.9082 5.19 16.9081L12.29 16.9021C12.5729 16.8741 12.8585 16.9048 13.129 16.9923C13.3994 17.0798 13.6489 17.2222 13.8617 17.4106C14.0745 17.5991 14.2462 17.8294 14.3658 18.0873C14.4855 18.3451 14.5505 18.6249 14.557 18.9091C14.557 19.6901 14.0361 19.7301 14.0081 19.7371H8.80804C8.73005 19.7339 8.65218 19.7464 8.57916 19.774C8.50615 19.8016 8.43951 19.8437 8.38318 19.8978C8.32685 19.9518 8.28202 20.0167 8.2514 20.0885C8.22078 20.1603 8.20496 20.2375 8.20496 20.3156C8.20496 20.3937 8.22078 20.4709 8.2514 20.5427C8.28202 20.6145 8.32685 20.6794 8.38318 20.7334C8.43951 20.7875 8.50615 20.8296 8.57916 20.8572C8.65218 20.8848 8.73005 20.8973 8.80804 20.8941H14.636C15.5192 20.9028 16.3927 20.7096 17.1899 20.3294C17.9871 19.9492 18.6869 19.3919 19.236 18.7001L19.251 18.6791C19.4413 18.3585 19.7086 18.0905 20.0287 17.8995C20.3488 17.7084 20.7116 17.6004 21.084 17.5851C21.5769 17.5924 22.0556 17.7512 22.455 18.0401C23.035 18.5031 23.0551 18.6541 23.0551 18.6601C23.0481 18.7771 22.68 19.1901 22.535 19.3461Z" fill="#5C5A5A"/>
</g>
</g>
</g>
<g id="Group 9983">
<g id="Group 9982">
<path id="Path 6565" d="M21.345 7.93713L13.9 0.492126C13.744 0.336106 13.5588 0.212338 13.355 0.127899C13.1511 0.0434605 12.9327 0 12.712 0C12.4914 0 12.2729 0.0434605 12.0691 0.127899C11.8652 0.212338 11.68 0.336106 11.524 0.492126L4.08001 7.93212L4.07305 7.94012C3.84332 8.1709 3.6856 8.4635 3.6192 8.78228C3.55279 9.10106 3.58055 9.43227 3.69903 9.73558C3.81751 10.0389 4.02165 10.3012 4.28656 10.4906C4.55146 10.6799 4.86571 10.7882 5.19104 10.8021C5.20835 10.8031 5.22572 10.8031 5.24304 10.8021H5.54303V14.7091H6.61303V10.2701C6.61277 10.1283 6.55632 9.99239 6.45605 9.89211C6.35578 9.79184 6.21981 9.73539 6.078 9.73512H5.25701C5.13711 9.73324 5.02045 9.69605 4.92157 9.62821C4.82268 9.56037 4.74597 9.4649 4.70105 9.35371C4.65612 9.24253 4.64493 9.12057 4.66894 9.00307C4.69295 8.88558 4.75111 8.77777 4.83606 8.69312L12.28 1.24712C12.3946 1.13256 12.55 1.06821 12.712 1.06821C12.8741 1.06821 13.0295 1.13256 13.144 1.24712L20.587 8.69012C20.701 8.80479 20.765 8.95992 20.765 9.12162C20.765 9.28332 20.701 9.43845 20.587 9.55312C20.5307 9.61036 20.4634 9.65569 20.3892 9.68644C20.3149 9.71719 20.2353 9.73272 20.155 9.73212H19.345C19.2033 9.73239 19.0675 9.78887 18.9673 9.88918C18.8672 9.98948 18.811 10.1254 18.811 10.2671V15.7371L19.88 14.8571V10.8071H20.155C20.4872 10.8069 20.8118 10.7082 21.0879 10.5236C21.3641 10.339 21.5794 10.0767 21.7066 9.76989C21.8338 9.46305 21.8673 9.1254 21.8027 8.79957C21.7382 8.47373 21.5786 8.17432 21.3441 7.93913L21.345 7.93713Z" fill="#5C5A5A"/>
</g>
</g>
</g>
</g>
</svg>
