<svg width="50" height="50" viewBox="0 0 50 50" fill="none" xmlns="http://www.w3.org/2000/svg">
<g clip-path="url(#clip0_142_1377)">
<path d="M25 50.0001C38.8071 50.0001 50 38.8072 50 25.0001C50 11.1929 38.8071 6.10352e-05 25 6.10352e-05C11.1929 6.10352e-05 0 11.1929 0 25.0001C0 38.8072 11.1929 50.0001 25 50.0001Z" fill="#F2F8F9"/>
<path fill-rule="evenodd" clip-rule="evenodd" d="M38.4095 30.5976L33.9199 27.9259C33.436 27.6374 32.8697 27.5185 32.3106 27.5881C31.7516 27.6576 31.2317 27.9117 30.8332 28.3099C30.2919 28.8505 29.8605 29.2627 29.5515 29.5339C29.4826 29.5982 29.4006 29.6469 29.3111 29.6766C29.2216 29.7064 29.1268 29.7164 29.033 29.7061C27.3548 29.5743 25.2592 28.4026 23.4287 26.5719C21.5983 24.7411 20.4263 22.6461 20.294 20.9674C20.2836 20.8736 20.2937 20.7787 20.3234 20.6892C20.3531 20.5997 20.4018 20.5177 20.4662 20.4488C20.7381 20.1395 21.1498 19.7083 21.6902 19.1669C22.0884 18.7685 22.3423 18.2488 22.4119 17.6898C22.4814 17.1309 22.3626 16.5647 22.0742 16.0809L19.402 11.5908C19.0834 11.0537 18.5773 10.6534 17.9812 10.4671C17.3852 10.2808 16.7413 10.3216 16.1735 10.5816L11.8343 12.5611C11.342 12.7837 10.9342 13.1585 10.6709 13.6303C10.4076 14.102 10.3028 14.6459 10.3717 15.1817C11.1031 21.0174 14.0391 26.7638 18.6374 31.3634C23.2358 35.963 28.9825 38.8977 34.8191 39.6291C34.9254 39.6427 35.0324 39.6494 35.1396 39.6491C35.6249 39.6495 36.1 39.5099 36.5079 39.247C36.9158 38.9842 37.2392 38.6092 37.4393 38.1671L39.4192 33.8278C39.6792 33.2597 39.72 32.6155 39.5336 32.0192C39.3472 31.4228 38.9468 30.9165 38.4095 30.5976Z" fill="#5F98D1"/>
</g>
<defs>
<clipPath id="clip0_142_1377">
<rect width="50" height="50" fill="white"/>
</clipPath>
</defs>
</svg>
