<svg width="32" height="32" viewBox="0 0 32 32" fill="none" xmlns="http://www.w3.org/2000/svg">
<path d="M20.091 31.0997H1.32756C1.08553 31.0997 0.9 30.8923 0.9 30.6504L0.900019 25.9703C0.900019 22.7345 3.36911 20.0914 6.41803 20.0914H9.62684C9.86876 20.0914 10.0543 20.298 10.0543 20.5407L20.091 31.0997ZM20.091 31.0997C20.3338 31.0997 20.5186 30.8922 20.5185 30.6504C20.5185 30.4086 20.3339 30.2011 20.091 30.2011H1.75506L1.75501 25.9703C1.75501 23.2176 3.85317 20.99 6.41807 20.99H9.62684C9.86882 20.99 10.0543 20.7826 10.0543 20.5407L20.091 31.0997ZM19.9853 21.1387L19.9854 21.1387L20.409 20.7889L20.5063 20.812C20.5063 20.812 20.5063 20.8119 20.5063 20.8119C20.5619 20.5772 20.4299 20.3307 20.1976 20.2681L20.1974 20.268C19.7592 20.1508 19.3084 20.0914 18.8561 20.0914H15.6473C15.4054 20.0914 15.2198 20.2979 15.2198 20.5407C15.2198 20.7827 15.4053 20.99 15.6474 20.99H18.8561C19.237 20.99 19.6172 21.0398 19.9853 21.1387Z" fill="#656565" stroke="#656565" stroke-width="0.2"/>
<path d="M9.62682 20.9899C9.38485 20.9899 9.19932 20.7826 9.19932 20.5406L9.19937 18.0641L9.62682 20.9899ZM9.62682 20.9899C9.86881 20.9899 10.0543 20.7825 10.0543 20.5406L10.0543 18.0641L9.62682 20.9899ZM9.62682 17.6148C9.38479 17.6148 9.19938 17.8222 9.19937 18.0641L10.0543 18.0641C10.0543 17.8223 9.86887 17.6148 9.62682 17.6148Z" fill="#656565" stroke="#656565" stroke-width="0.2"/>
<path d="M15.6474 20.9899C15.4053 20.9899 15.2198 20.7826 15.2198 20.5406L15.2198 18.0641L15.6474 20.9899ZM15.6474 20.9899C15.8893 20.9899 16.0749 20.7825 16.0749 20.5406L16.0748 18.0641L15.6474 20.9899ZM15.6473 17.6148C15.4053 17.6148 15.2198 17.8222 15.2198 18.0641L16.0748 18.0641C16.0748 17.8223 15.8894 17.6148 15.6473 17.6148Z" fill="#656565" stroke="#656565" stroke-width="0.2"/>
<path d="M12.8174 19.5236H12.4571C9.60677 19.5236 7.29795 17.0522 7.29795 14.0275V11.2927C7.29795 11.0507 7.48347 10.8434 7.72545 10.8434C7.96754 10.8434 8.15295 11.0508 8.15295 11.2927L12.8174 19.5236ZM12.8174 19.5236C15.6677 19.5236 17.9765 17.0522 17.9765 14.0275L17.9765 11.2927C17.9765 11.0508 17.7911 10.8434 17.549 10.8434C17.3062 10.8434 17.1216 11.0509 17.1216 11.2927L17.1215 14.0275C17.1215 16.5684 15.1844 18.625 12.8174 18.625H12.4571C10.0901 18.625 8.15301 16.5684 8.15301 14.0275L8.15295 11.2927L12.8174 19.5236Z" fill="#656565" stroke="#656565" stroke-width="0.2"/>
<path d="M7.32926 10.4972V10.4971L7.32921 9.64791C7.32921 9.64791 7.32921 9.6479 7.32921 9.6479C7.32921 9.451 7.47737 9.30252 7.64682 9.30252H17.6272C17.7967 9.30252 17.9448 9.45101 17.9448 9.64788L17.9448 10.4972C17.9448 10.6935 17.7966 10.8425 17.6273 10.8425H7.64676C7.47748 10.8425 7.32926 10.6935 7.32926 10.4972ZM6.47422 10.4972V10.4972C6.47422 11.1772 6.99405 11.7412 7.64682 11.7412H17.6273C18.28 11.7412 18.7998 11.1772 18.7998 10.4972L18.7998 9.64791C18.7998 8.96791 18.28 8.40391 17.6273 8.40391H7.64676C6.994 8.40391 6.47428 8.96791 6.47428 9.64788C6.47428 9.64788 6.47428 9.64789 6.47428 9.64789L6.47422 10.4972Z" fill="#656565" stroke="#656565" stroke-width="0.2"/>
<path d="M13.8874 1.95041C13.6521 1.88895 13.4233 2.0447 13.3697 2.28191C13.3159 2.51649 13.4496 2.76225 13.6829 2.82223C15.6923 3.34327 17.1028 5.24651 17.1028 7.45857L17.1027 8.85366C17.1027 9.09558 17.2883 9.30294 17.5302 9.30294C17.7722 9.30294 17.9577 9.09558 17.9577 8.85367L17.9577 7.45859C17.9577 6.18571 17.5457 4.93472 16.797 3.93465L16.797 3.93463C16.0602 2.951 15.0274 2.24527 13.8874 1.95041ZM13.8874 1.95041C13.8875 1.95042 13.8875 1.95044 13.8876 1.95045L13.8623 2.0472L13.8873 1.95038C13.8873 1.95039 13.8874 1.9504 13.8874 1.95041ZM11.5907 2.82226C11.8241 2.76234 11.9578 2.51653 11.904 2.28195C11.8505 2.04476 11.6218 1.88897 11.3864 1.95038C10.2465 2.24524 9.21365 2.95024 8.47674 3.93465C7.72802 4.93474 7.31604 6.18571 7.31604 7.45857L7.31602 8.85366C7.31602 9.09557 7.50152 9.30294 7.74354 9.30294C7.98549 9.30294 8.17106 9.09558 8.17106 8.85367L8.171 7.45859C8.171 5.24655 9.58141 3.34333 11.5907 2.82226ZM11.5907 2.82226C11.5906 2.82227 11.5906 2.82228 11.5905 2.8223L11.5657 2.72543M11.5907 2.82226C11.5907 2.82225 11.5907 2.82224 11.5908 2.82223L11.5657 2.72543M11.5657 2.72543C11.7417 2.6803 11.8495 2.49108 11.8065 2.30408L11.4115 2.0472C10.2946 2.33608 9.28077 3.02744 8.5568 3.99458C7.82128 4.97702 7.41604 6.20687 7.41604 7.45857L7.41602 8.85367C7.41602 9.0465 7.56271 9.20294 7.74354 9.20294C7.92431 9.20294 8.07106 9.0465 8.07106 8.85367L8.071 7.45859C8.071 5.20478 9.50865 3.25882 11.5657 2.72543Z" fill="#656565" stroke="#656565" stroke-width="0.2"/>
<path d="M11.9161 2.29756C11.9161 2.01624 12.1291 1.79863 12.3777 1.79863H12.8962C13.1448 1.79863 13.3578 2.01624 13.3578 2.29754L13.3577 5.6553C13.3577 5.93665 13.1447 6.15422 12.8962 6.15422L12.3776 6.15425C12.1291 6.15425 11.9162 5.93664 11.9162 5.6553L11.9161 2.29756ZM12.3777 7.05284H12.8962C13.6281 7.05286 14.2127 6.41971 14.2127 5.6553L14.2127 2.29756C14.2127 1.53315 13.6281 0.9 12.8962 0.9H12.3776C11.6458 0.9 11.0611 1.53313 11.0611 2.29754V5.6553C11.0611 6.41974 11.6458 7.05284 12.3777 7.05284Z" fill="#656565" stroke="#656565" stroke-width="0.2"/>
<path d="M9.02787 3.57451L9.02787 3.57451C8.99361 3.33557 9.14698 3.10233 9.38499 3.06355L9.38506 3.06354C9.62562 3.02452 9.8389 3.20062 9.87328 3.4406C9.87328 3.44061 9.87328 3.44061 9.87329 3.44062L10.6402 8.78723L10.6402 8.78728C10.6744 9.02594 10.5213 9.25898 10.2837 9.2981C10.2835 9.29814 10.2832 9.29818 10.283 9.29822L9.02787 3.57451ZM9.02787 3.57451L9.7947 8.92101C9.7947 8.92104 9.7947 8.92106 9.79471 8.92109M9.02787 3.57451L9.79471 8.92109M9.79471 8.92109L9.79472 8.92117L9.89371 8.90698L9.79471 8.92109Z" fill="#656565" stroke="#656565" stroke-width="0.2"/>
<path d="M14.6338 8.78728L14.6338 8.78726L15.4007 3.44064C15.4007 3.44063 15.4007 3.44061 15.4007 3.4406C15.4351 3.20061 15.6484 3.02452 15.8889 3.06354L15.889 3.06355C16.127 3.1023 16.2804 3.33561 16.2462 3.57451L16.2462 3.57454L15.4793 8.92103C15.4793 8.92105 15.4793 8.92107 15.4793 8.9211L15.4793 8.92117L14.6338 8.78728ZM14.6338 8.78728C14.5996 9.02607 14.7528 9.25916 14.9906 9.29815L14.6338 8.78728Z" fill="#656565" stroke="#656565" stroke-width="0.2"/>
<path d="M5.66855 14.0945V14.0945L5.66861 13.1018C5.66861 13.1018 5.66861 13.1018 5.66861 13.1018C5.66862 12.2843 6.29271 11.609 7.07376 11.609H7.72538C7.96742 11.609 8.15283 11.8164 8.15284 12.0582L5.66855 14.0945ZM5.66855 14.0945C5.66855 14.9113 6.29274 15.5866 7.07378 15.5866H7.84203M5.66855 14.0945L7.84203 15.5866M6.52358 14.0945V14.0945C6.52358 14.4276 6.77616 14.688 7.07376 14.688H7.84203C8.0841 14.688 8.26949 14.8954 8.26951 15.1373L6.52358 14.0945ZM6.52358 14.0945L6.52354 13.1018C6.52354 13.1018 6.52354 13.1018 6.52354 13.1018C6.52354 12.768 6.77626 12.5076 7.07378 12.5076H7.72534C7.96732 12.5076 8.1529 12.3002 8.15284 12.0583L6.52358 14.0945ZM7.84203 15.5866C8.08396 15.5866 8.26957 15.3793 8.26951 15.1373L7.84203 15.5866Z" fill="#656565" stroke="#656565" stroke-width="0.2"/>
<path d="M17.0045 15.1373V15.1373C17.0046 14.8954 17.19 14.688 17.432 14.688H18.2003C18.4979 14.688 18.7505 14.4276 18.7505 14.0945L18.7505 13.1018L17.0045 15.1373ZM17.0045 15.1373C17.0045 15.3793 17.1901 15.5866 17.432 15.5866H18.2003C18.9813 15.5866 19.6055 14.9113 19.6055 14.0945V14.0945L19.6054 13.1018C19.6054 13.1018 19.6054 13.1018 19.6054 13.1018C19.6054 12.2843 18.9813 11.609 18.2003 11.609H17.5487C17.3058 11.609 17.1213 11.8165 17.1212 12.0582V12.0583M17.0045 15.1373L17.1212 12.0583M17.1212 12.0583C17.1212 12.3001 17.3059 12.5076 17.5487 12.5076H18.2003C18.4978 12.5076 18.7505 12.768 18.7505 13.1018L17.1212 12.0583Z" fill="#656565" stroke="#656565" stroke-width="0.2"/>
<path d="M4.9113 20.6571C4.77532 20.4538 4.50529 20.4034 4.31037 20.5525L4.31031 20.5526C4.12023 20.6979 4.07896 20.9757 4.2122 21.1751L4.21233 21.1753C4.87507 22.1624 5.03046 23.5845 5.05571 25.5958V30.65C5.05571 30.8919 5.2413 31.0993 5.48325 31.0993C5.72601 31.0993 5.91075 30.8917 5.91075 30.65L5.91072 25.59L5.9107 25.5888C5.88342 23.442 5.71096 21.8482 4.9113 20.6571ZM4.9113 20.6571C4.91132 20.6572 4.91134 20.6572 4.91136 20.6572L4.82822 20.7128L4.91125 20.6571C4.91126 20.6571 4.91128 20.6571 4.9113 20.6571Z" fill="#656565" stroke="#656565" stroke-width="0.2"/>
<path d="M11.9829 22.3164L9.43107 20.9404L9.43101 20.9404C9.21954 20.8262 9.14113 20.5577 9.24341 20.3404L9.24363 20.34C9.34841 20.1203 9.60572 20.0252 9.82117 20.1406L9.82142 20.1407L12.8324 21.7643L12.8325 21.7644C12.947 21.8264 13.0279 21.9385 13.0548 22.0686M11.9829 22.3164L13.0548 22.0686M11.9829 22.3164L11.3349 23.1922L7.6725 20.1864L7.6725 20.1864L7.67218 20.1861C7.48254 20.0318 7.2116 20.0709 7.06819 20.2691L7.06819 20.2691L7.06801 20.2694C6.92825 20.4638 6.96064 20.7424 7.14575 20.8947L7.14584 20.8948L11.146 24.1776C11.146 24.1776 11.146 24.1776 11.1461 24.1776M11.9829 22.3164L11.1461 24.1776M13.0548 22.0686C13.0816 22.198 13.0523 22.334 12.9745 22.4393L12.9745 22.4394L11.747 24.0993L11.7469 24.0995C11.6636 24.2118 11.5384 24.2731 11.4094 24.2731C11.316 24.2731 11.2233 24.241 11.1461 24.1776M13.0548 22.0686L11.1461 24.1776" fill="#656565" stroke="#656565" stroke-width="0.2"/>
<path d="M12.441 21.7644L12.4412 21.7643L15.4522 20.1407L15.4524 20.1406C15.6679 20.0252 15.9252 20.1203 16.0299 20.34L16.0302 20.3404C16.1324 20.5577 16.0541 20.8262 15.8426 20.9404L15.8425 20.9404L13.2907 22.3164L13.9387 23.1922L17.6018 20.1864L17.6019 20.1863C17.7911 20.0316 18.0621 20.071 18.2054 20.2691L18.2055 20.2693C18.3454 20.4638 18.3129 20.7425 18.1278 20.8947L18.1277 20.8948L14.1276 24.1776L14.1276 24.1776L14.0641 24.1003L12.441 21.7644ZM12.441 21.7644C12.3266 21.8264 12.2457 21.9385 12.2188 22.0685L12.441 21.7644ZM13.5265 24.0993L13.5267 24.0995L12.2188 22.0686C12.192 22.1979 12.2213 22.3339 12.2991 22.4393L12.2991 22.4394L13.5265 24.0993Z" fill="#656565" stroke="#656565" stroke-width="0.2"/>
<path d="M13.1358 25.6659L13.1358 25.6658C13.0999 25.428 13.2504 25.1927 13.4887 25.152M13.1358 25.6659L14.3943 31.094L14.3943 31.094L14.3955 31.0938C14.6322 31.0522 14.7839 30.8184 14.7479 30.5794L14.7479 30.5793L13.9803 25.5245L13.9803 25.5243C13.9433 25.2843 13.7283 25.111 13.4887 25.152M13.1358 25.6659L13.9033 30.7214C13.9033 30.7214 13.9033 30.7214 13.9033 30.7214M13.1358 25.6659L13.9033 30.7214M13.4887 25.152L13.5055 25.2506L13.4887 25.152ZM13.9033 30.7214C13.9361 30.9373 14.114 31.0996 14.3248 31.0997L13.9033 30.7214Z" fill="#656565" stroke="#656565" stroke-width="0.2"/>
<path d="M10.8783 31.0938L10.8783 31.0938C10.6416 31.0522 10.49 30.8184 10.5259 30.5795L10.5259 30.5793L11.2942 25.5247C11.2942 25.5246 11.2942 25.5246 11.2942 25.5246L11.2942 25.5245L10.8783 31.0938ZM10.8783 31.0938L10.8802 31.0941M10.8783 31.0938L10.8802 31.0941M10.8802 31.0941C10.9032 31.0977 10.9254 31.0996 10.9489 31.0997L10.8802 31.0941ZM10.9489 31.0997C11.1598 31.0997 11.3378 30.9374 11.3705 30.7214C11.3705 30.7214 11.3705 30.7214 11.3705 30.7214L12.138 25.6661C12.138 25.6661 12.138 25.666 12.138 25.666L12.138 25.6659L10.9489 31.0997Z" fill="#656565" stroke="#656565" stroke-width="0.2"/>
<path d="M11.2953 25.6764L11.2953 25.6763L10.989 23.9043L10.989 23.9042C10.948 23.6664 11.0941 23.4288 11.3309 23.3823L11.3309 23.3823C11.5697 23.3355 11.7888 23.5042 11.8301 23.7436M11.2953 25.6764L11.7316 23.7606M11.2953 25.6764C11.3315 25.8848 11.5051 26.0453 11.7159 26.0453H13.5581C13.7689 26.0453 13.9425 25.8848 13.9787 25.6764L13.9787 25.6763L14.285 23.9043L14.285 23.9042C14.326 23.6664 14.1799 23.4288 13.9431 23.3823M11.2953 25.6764L13.4439 23.7437M11.8301 23.7436L11.7316 23.7606M11.8301 23.7436L11.8301 23.7436L11.7316 23.7606M11.8301 23.7436L12.073 25.1467M11.7316 23.7606L11.9889 25.2467M12.073 25.1467H11.9889V25.2467M12.073 25.1467L12.0874 25.2296L11.9889 25.2467M12.073 25.1467L11.9889 25.2467M13.9431 23.3823C13.7051 23.3355 13.4851 23.5041 13.4439 23.7437M13.9431 23.3823L13.9238 23.4805L13.943 23.3823C13.943 23.3823 13.9431 23.3823 13.9431 23.3823ZM13.4439 23.7437L13.4439 23.7436L13.5424 23.7606L13.4439 23.7437ZM13.201 25.1467L13.1867 25.2296L13.2852 25.2467V25.1467H13.201Z" fill="#656565" stroke="#656565" stroke-width="0.2"/>
<path d="M30.2448 16.6775V30.2011H20.5182V16.6775H30.2448ZM20.0907 31.0997H30.6723C30.9142 31.0997 31.0998 30.8923 31.0998 30.6504L31.0997 16.2282C31.0997 15.9863 30.9143 15.7789 30.6723 15.7789L20.0907 15.7789C19.8486 15.7789 19.6633 15.9863 19.6633 16.2282L19.6632 30.6504C19.6632 30.8923 19.8487 31.0997 20.0907 31.0997Z" fill="#656565" stroke="#656565" stroke-width="0.2"/>
<path d="M22.1433 21.3976L22.1432 21.3974C22.0783 21.2349 22.1096 21.0453 22.2265 20.9151L22.2266 20.915L25.071 17.7538L22.1433 21.3976ZM22.1433 21.3976C22.2091 21.5611 22.3619 21.6728 22.5377 21.6728H28.2265H28.2266M22.1433 21.3976L28.2266 21.6728M28.2266 21.6728H28.2266M28.2266 21.6728H28.2266M28.2266 21.6728H28.2266M28.2266 21.6728H28.2266M28.2266 21.6728H28.2266M28.2266 21.6728H28.2266M28.2266 21.6728H28.2266M28.2266 21.6728H28.2266M28.2266 21.6728H28.2266M28.2266 21.6728H28.2266M28.2266 21.6728H28.2266M28.2266 21.6728H28.2266M28.2266 21.6728H28.2266M28.2266 21.6728H28.2266M28.2266 21.6728H28.2266M28.2266 21.6728H28.2266M28.2266 21.6728H28.2266M28.2266 21.6728H28.2266M28.2266 21.6728H28.2266M28.2266 21.6728H28.2266M28.2266 21.6728H28.2266M28.2266 21.6728H28.2266M28.2266 21.6728H28.2266M28.2266 21.6728H28.2266M28.2266 21.6728H28.2266M28.2266 21.6728H28.2266M28.2266 21.6728H28.2266M28.2266 21.6728H28.2266M28.2266 21.6728H28.2266M28.2266 21.6728H28.2266M28.2266 21.6728H28.2266M28.2266 21.6728H28.2266M28.2266 21.6728H28.2266M28.2266 21.6728H28.2266M28.2266 21.6728H28.2266M28.2266 21.6728H28.2266M28.2266 21.6728H28.2266M28.2266 21.6728H28.2266M28.2266 21.6728H28.2266M28.2266 21.6728H28.2266M28.2266 21.6728H28.2266M28.2266 21.6728H28.2266M28.2266 21.6728H28.2266M28.2266 21.6728H28.2266M28.2266 21.6728H28.2266M28.2266 21.6728H28.2266M28.2266 21.6728H28.2267M28.2266 21.6728H28.2267M28.2267 21.6728H28.2267M28.2267 21.6728H28.2267M28.2267 21.6728H28.2267M28.2267 21.6728H28.2267M28.2267 21.6728H28.2267M28.2267 21.6728H28.2267M28.2267 21.6728H28.2267M28.2267 21.6728H28.2267M28.2267 21.6728H28.2267M28.2267 21.6728H28.2267M28.2267 21.6728H28.2267M28.2267 21.6728H28.2267M28.2267 21.6728H28.2267M28.2267 21.6728H28.2267M28.2267 21.6728H28.2267M28.2267 21.6728H28.2267M28.2267 21.6728H28.2267M28.2267 21.6728H28.2267M28.2267 21.6728H28.2267M28.2267 21.6728H28.2267M28.2267 21.6728H28.2267M28.2267 21.6728H28.2267M28.2267 21.6728H28.2267M28.2267 21.6728H28.2267M28.2267 21.6728H28.2267M28.2267 21.6728H28.2267M28.2267 21.6728H28.2267M28.2267 21.6728H28.2267M28.2267 21.6728H28.2267M28.2267 21.6728H28.2267M28.2267 21.6728H28.2267M28.2267 21.6728H28.2267M28.2267 21.6728H28.2267M28.2267 21.6728H28.2267M28.2267 21.6728H28.2267M28.2267 21.6728H28.2267M28.2267 21.6728H28.2267M28.2267 21.6728H28.2267M28.2267 21.6728H28.2267M28.2267 21.6728H28.2267M28.2267 21.6728H28.2267M28.2267 21.6728H28.2267M28.2267 21.6728H28.2267M28.2267 21.6728H28.2267M28.2267 21.6728H28.2268M28.2267 21.6728H28.2268M28.2268 21.6728H28.2268M28.2268 21.6728H28.2268M28.2268 21.6728H28.2268M28.2268 21.6728H28.2268M28.2268 21.6728H28.2268M28.2268 21.6728H28.2268M28.2268 21.6728H28.2268M28.2268 21.6728H28.2268M28.2268 21.6728H28.2268M28.2268 21.6728H28.2268M28.2268 21.6728H28.2268M28.2268 21.6728H28.2268M28.2268 21.6728H28.2268M28.2268 21.6728H28.2268M28.2268 21.6728H28.2268M28.2268 21.6728H28.2268M28.2268 21.6728H28.2268M28.2268 21.6728H28.2268M28.2268 21.6728H28.2268M28.2268 21.6728H28.2268M28.2268 21.6728H28.2268M28.2268 21.6728H28.2268M28.2268 21.6728H28.2268M28.2268 21.6728H28.2268M28.2268 21.6728H28.2268M28.2268 21.6728H28.2268M28.2268 21.6728H28.2268M28.2268 21.6728H28.2268M28.2268 21.6728H28.2268M28.2268 21.6728H28.2268M28.2268 21.6728H28.2268M28.2268 21.6728H28.2268M28.2268 21.6728H28.2268M28.2268 21.6728H28.2268M28.2268 21.6728H28.2268M28.2268 21.6728H28.2268M28.2268 21.6728H28.2268M28.2268 21.6728H28.2268M28.2268 21.6728H28.2268M28.2268 21.6728H28.2268M28.2268 21.6728H28.2269M28.2268 21.6728H28.2269M28.2269 21.6728H28.2269M28.2269 21.6728H28.2269M28.2269 21.6728H28.2269M28.2269 21.6728H28.2269M28.2269 21.6728H28.2269M28.2269 21.6728H28.2269M28.2269 21.6728H28.2269M28.2269 21.6728H28.2269M28.2269 21.6728H28.2269M28.2269 21.6728H28.2269M28.2269 21.6728H28.2269M28.2269 21.6728H28.2269M28.2269 21.6728H28.2269M28.2269 21.6728H28.2269M28.2269 21.6728H28.2269M28.2269 21.6728H28.2269M28.2269 21.6728H28.2269M28.2269 21.6728H28.2269M28.2269 21.6728H28.2269M28.2269 21.6728H28.2269M28.2269 21.6728H28.2269M28.2269 21.6728H28.2269M28.2269 21.6728H28.2269M28.2269 21.6728H28.2269M28.2269 21.6728H28.2269M28.2269 21.6728H28.2269M28.2269 21.6728H28.2269M28.2269 21.6728H28.2269M28.2269 21.6728H28.2269M28.2269 21.6728H28.2269M28.2269 21.6728H28.2269M28.2269 21.6728H28.2269M28.2269 21.6728H28.2269M28.2269 21.6728H28.2269M28.2269 21.6728H28.227M28.2269 21.6728H28.227M28.227 21.6728H28.227M28.227 21.6728H28.227M28.227 21.6728H28.227M28.227 21.6728H28.227M28.227 21.6728H28.227M28.227 21.6728H28.227M28.227 21.6728H28.227M28.227 21.6728H28.227M28.227 21.6728H28.227M28.227 21.6728H28.227M28.227 21.6728H28.227M28.227 21.6728H28.227M28.227 21.6728H28.227M28.227 21.6728H28.227M28.227 21.6728H28.227M28.227 21.6728H28.227M28.227 21.6728H28.227M28.227 21.6728H28.227M28.227 21.6728H28.227M28.227 21.6728H28.227M28.227 21.6728H28.227M28.227 21.6728H28.227M28.227 21.6728H28.227M28.227 21.6728H28.227M28.227 21.6728H28.227M28.227 21.6728H28.227M28.227 21.6728H28.227M28.227 21.6728H28.227M28.227 21.6728H28.227M28.227 21.6728H28.227M28.227 21.6728H28.2271M28.227 21.6728H28.2271M28.2271 21.6728H28.2271M28.2271 21.6728H28.2271M28.2271 21.6728H28.2271M28.2271 21.6728H28.2271M28.2271 21.6728H28.2271M28.2271 21.6728H28.2271M28.2271 21.6728H28.2271M28.2271 21.6728H28.2271M28.2271 21.6728H28.2271M28.2271 21.6728H28.2271M28.2271 21.6728H28.2271M28.2271 21.6728H28.2271M28.2271 21.6728H28.2271M28.2271 21.6728H28.2271M28.2271 21.6728H28.2271M28.2271 21.6728H28.2271M28.2271 21.6728H28.2271M28.2271 21.6728H28.2271M28.2271 21.6728H28.2271M28.2271 21.6728H28.2271M28.2271 21.6728H28.2271M28.2271 21.6728H28.2271M28.2271 21.6728H28.2271M28.2271 21.6728H28.2271M28.2271 21.6728H28.2271M28.2271 21.6728H28.2271M28.2271 21.6728H28.2271M28.2271 21.6728H28.2271M28.2271 21.6728H28.2272M28.2271 21.6728H28.2272M28.2272 21.6728H28.2272M28.2272 21.6728H28.2272M28.2272 21.6728H28.2272M28.2272 21.6728H28.2272M28.2272 21.6728H28.2272M28.2272 21.6728H28.2272M28.2272 21.6728H28.2272M28.2272 21.6728H28.2272M28.2272 21.6728H28.2272M28.2272 21.6728H28.2272M28.2272 21.6728H28.2272M28.2272 21.6728H28.2272M28.2272 21.6728H28.2272M28.2272 21.6728H28.2272M28.2272 21.6728H28.2272M28.2272 21.6728H28.2272M28.2272 21.6728H28.2272M28.2272 21.6728H28.2272M28.2272 21.6728H28.2272M28.2272 21.6728H28.2272M28.2272 21.6728H28.2272M28.2272 21.6728H28.2272M28.2272 21.6728H28.2272M28.2272 21.6728H28.2272M28.2272 21.6728H28.2272M28.2272 21.6728H28.2272M28.2272 21.6728H28.2272M28.2272 21.6728H28.2272M28.2272 21.6728H28.2272M28.2272 21.6728H28.2272M28.2272 21.6728H28.2273M28.2272 21.6728H28.2273M28.2273 21.6728H28.2273M28.2273 21.6728H28.2273M28.2273 21.6728H28.2273M28.2273 21.6728H28.2273M28.2273 21.6728H28.2273M28.2273 21.6728H28.2273M28.2273 21.6728H28.2273M28.2273 21.6728H28.2273M28.2273 21.6728H28.2273M28.2273 21.6728H28.2273M28.2273 21.6728H28.2273M28.2273 21.6728H28.2273M28.2273 21.6728H28.2273M28.2273 21.6728H28.2273M28.2273 21.6728H28.2273M28.2273 21.6728H28.2273M28.2273 21.6728H28.2273M28.2273 21.6728H28.2273M28.2273 21.6728H28.2273M28.2273 21.6728H28.2273M28.2273 21.6728H28.2273M28.2273 21.6728H28.2273M28.2273 21.6728H28.2273M28.2273 21.6728H28.2273M28.2273 21.6728H28.2273M28.2273 21.6728H28.2273M28.2273 21.6728H28.2273M28.2273 21.6728H28.2273M28.2273 21.6728H28.2273M28.2273 21.6728H28.2273M28.2273 21.6728H28.2273M28.2273 21.6728H28.2273M28.2273 21.6728H28.2273M28.2273 21.6728H28.2273M28.2273 21.6728H28.2273M28.2273 21.6728H28.2273M28.2273 21.6728H28.2273M28.2273 21.6728H28.2273M28.2273 21.6728H28.2274M28.2273 21.6728H28.2274M28.2274 21.6728H28.2274M28.2274 21.6728H28.2274M28.2274 21.6728H28.2274M28.2274 21.6728H28.2274M28.2274 21.6728H28.2274M28.2274 21.6728H28.2274M28.2274 21.6728H28.2274M28.2274 21.6728H28.2274M28.2274 21.6728H28.2274M28.2274 21.6728H28.2274M28.2274 21.6728H28.2274M28.2274 21.6728H28.2274M28.2274 21.6728H28.2274M28.2274 21.6728H28.2274M28.2274 21.6728H28.2274M28.2274 21.6728H28.2274M28.2274 21.6728H28.2274M28.2274 21.6728H28.2274M28.2274 21.6728H28.2274M28.2274 21.6728H28.2274M28.2274 21.6728H28.2274M28.2274 21.6728H28.2274M28.2274 21.6728H28.2274M28.2274 21.6728H28.2274M28.2274 21.6728H28.2274M28.2274 21.6728H28.2274M28.2274 21.6728H28.2274M28.2274 21.6728H28.2274M28.2274 21.6728H28.2274M28.2274 21.6728H28.2274M28.2274 21.6728H28.2274M28.2274 21.6728H28.2274M28.2274 21.6728H28.2274M28.2274 21.6728H28.2274M28.2274 21.6728H28.2274M28.2274 21.6728H28.2274M28.2274 21.6728H28.2274M28.2274 21.6728H28.2274M28.2274 21.6728H28.2274M28.2274 21.6728H28.2274M28.2274 21.6728H28.2274M28.2274 21.6728H28.2274M28.2274 21.6728H28.2274M28.2274 21.6728H28.2274M28.2274 21.6728H28.2274M28.2274 21.6728H28.2274M28.2274 21.6728H28.2274M28.2274 21.6728H28.2274M28.2274 21.6728H28.2275M28.2274 21.6728H28.2275M28.2275 21.6728H28.2275M28.2275 21.6728H28.2275M28.2275 21.6728H28.2275M28.2275 21.6728H28.2275M28.2275 21.6728H28.2275M28.2275 21.6728H28.2275M28.2275 21.6728H28.2275M28.2275 21.6728H28.2275M28.2275 21.6728H28.2275M28.2275 21.6728H28.2275M28.2275 21.6728H28.2275M28.2275 21.6728H28.2275M28.2275 21.6728H28.2275M28.2275 21.6728H28.2275M28.2275 21.6728H28.2275M28.2275 21.6728H28.2275M28.2275 21.6728H28.2275M28.2275 21.6728H28.2275M28.2275 21.6728H28.2275M28.2275 21.6728H28.2275M28.2275 21.6728H28.2275M28.2275 21.6728H28.2275M28.2275 21.6728H28.2275M28.2275 21.6728H28.2275M28.2275 21.6728H28.2275M28.2275 21.6728H28.2275M28.2275 21.6728H28.2275M28.2275 21.6728H28.2275M28.2275 21.6728H28.2275M28.2275 21.6728H28.2275M28.2275 21.6728H28.2275M28.2275 21.6728H28.2275M28.2275 21.6728H28.2275M28.2275 21.6728H28.2275M28.2275 21.6728H28.2275M28.2275 21.6728H28.2275M28.2275 21.6728H28.2275M28.2275 21.6728H28.2275M28.2275 21.6728H28.2275M28.2275 21.6728H28.2275M28.2275 21.6728H28.2275M28.2275 21.6728H28.2275M28.2275 21.6728H28.2275M28.2275 21.6728H28.2275M28.2275 21.6728H28.2275M28.2275 21.6728H28.2275M28.2275 21.6728H28.2275M28.2275 21.6728H28.2275M28.2275 21.6728H28.2276M28.2275 21.6728H28.2276M28.2276 21.6728H28.2276M28.2276 21.6728H28.2276M28.2276 21.6728H28.2276M28.2276 21.6728H28.2276M28.2276 21.6728H28.2276M28.2276 21.6728H28.2276M28.2276 21.6728H28.2276M28.2276 21.6728H28.2276M28.2276 21.6728H28.2276M28.2276 21.6728H28.2276M28.2276 21.6728H28.2276M28.2276 21.6728H28.2276M28.2276 21.6728H28.2276M28.2276 21.6728H28.2276M28.2276 21.6728H28.2276M28.2276 21.6728H28.2276M28.2276 21.6728H28.2276M28.2276 21.6728H28.2276M28.2276 21.6728H28.2276M28.2276 21.6728H28.2276M28.2276 21.6728H28.2276M28.2276 21.6728H28.2276M28.2276 21.6728H28.2276M28.2276 21.6728H28.2276M28.2276 21.6728H28.2276M28.2276 21.6728H28.2276M28.2276 21.6728H28.2276M28.2276 21.6728H28.2276M28.2276 21.6728H28.2276M28.2276 21.6728H28.2276M28.2276 21.6728H28.2276M28.2276 21.6728H28.2276M28.2276 21.6728H28.2276M28.2276 21.6728H28.2276M28.2276 21.6728H28.2276M28.2276 21.6728H28.2276M28.2276 21.6728H28.2276M28.2276 21.6728H28.2276M28.2276 21.6728H28.2276M28.2276 21.6728H28.2276M28.2276 21.6728H28.2276M28.2276 21.6728H28.2276M28.2276 21.6728H28.2276M28.2276 21.6728H28.2276M28.2276 21.6728H28.2276M28.2276 21.6728H28.2276M28.2276 21.6728H28.2276M28.2276 21.6728H28.2276M28.2276 21.6728H28.2277M28.2276 21.6728H28.2277M28.2277 21.6728H28.2277M28.2277 21.6728H28.2277M28.2277 21.6728H28.2277M28.2277 21.6728H28.2277M28.2277 21.6728H28.2277M28.2277 21.6728H28.2277M28.2277 21.6728H28.2277M28.2277 21.6728H28.2277M28.2277 21.6728H28.2277M28.2277 21.6728H28.2277M28.2277 21.6728H28.2277M28.2277 21.6728H28.2277M28.2277 21.6728H28.2277M28.2277 21.6728H28.2277M28.2277 21.6728H28.2277M28.2277 21.6728H28.2277M28.2277 21.6728H28.2277M28.2277 21.6728H28.2277M28.2277 21.6728H28.2277M28.2277 21.6728H28.2277M28.2277 21.6728H28.2277M28.2277 21.6728H28.2277M28.2277 21.6728H28.2277M28.2277 21.6728H28.2277M28.2277 21.6728H28.2277M28.2277 21.6728H28.2277M28.2277 21.6728H28.2277M28.2277 21.6728H28.2277M28.2277 21.6728H28.2277M28.2277 21.6728H28.2277M28.2277 21.6728H28.2277M28.2277 21.6728H28.2277M28.2277 21.6728H28.2277M28.2277 21.6728H28.2277M28.2277 21.6728H28.2277M28.2277 21.6728H28.2277M28.2277 21.6728H28.2277M28.2277 21.6728H28.2277M28.2277 21.6728H28.2277M28.2277 21.6728H28.2277M28.2277 21.6728H28.2277M28.2277 21.6728H28.2277M28.2277 21.6728H28.2277M28.2277 21.6728H28.2277M28.2277 21.6728H28.2277M28.2277 21.6728H28.2277M28.2277 21.6728H28.2277M28.2277 21.6728H28.2277M28.2277 21.6728H28.2278M28.2277 21.6728H28.2278M28.2278 21.6728H28.2278M28.2278 21.6728H28.2278M28.2278 21.6728H28.2278M28.2278 21.6728H28.2278M28.2278 21.6728H28.2278M28.2278 21.6728H28.2278M28.2278 21.6728H28.2278M28.2278 21.6728H28.2278M28.2278 21.6728H28.2278M28.2278 21.6728H28.2278M28.2278 21.6728H28.2278M28.2278 21.6728H28.2278M28.2278 21.6728H28.2278M28.2278 21.6728H28.2278M28.2278 21.6728H28.2278M28.2278 21.6728H28.2278M28.2278 21.6728H28.2278M28.2278 21.6728H28.2278M28.2278 21.6728H28.2278M28.2278 21.6728H28.2278M28.2278 21.6728H28.2278M28.2278 21.6728H28.2278M28.2278 21.6728H28.2278M28.2278 21.6728H28.2278M28.2278 21.6728H28.2278M28.2278 21.6728H28.2278M28.2278 21.6728H28.2278M28.2278 21.6728H28.2278M28.2278 21.6728H28.2278M28.2278 21.6728H28.2278M28.2278 21.6728H28.2278M28.2278 21.6728H28.2278M28.2278 21.6728H28.2278M28.2278 21.6728H28.2278M28.2278 21.6728H28.2278M28.2278 21.6728H28.2278M28.2278 21.6728H28.2278M28.2278 21.6728H28.2278M28.2278 21.6728H28.2278M28.2278 21.6728H28.2278M28.2278 21.6728H28.2278M28.2278 21.6728H28.2278M28.2278 21.6728H28.2278M28.2278 21.6728H28.2278M28.2278 21.6728H28.2278M28.2278 21.6728H28.2278M28.2278 21.6728H28.2279M28.2278 21.6728H28.2279M28.2279 21.6728H28.2279M28.2279 21.6728H28.2279M28.2279 21.6728H28.2279M28.2279 21.6728H28.2279M28.2279 21.6728H28.2279M28.2279 21.6728H28.2279M28.2279 21.6728H28.2279M28.2279 21.6728H28.2279M28.2279 21.6728H28.2279M28.2279 21.6728H28.2279M28.2279 21.6728H28.2279M28.2279 21.6728H28.2279M28.2279 21.6728H28.2279M28.2279 21.6728H28.2279M28.2279 21.6728H28.2279M28.2279 21.6728H28.2279M28.2279 21.6728H28.2279M28.2279 21.6728H28.2279M28.2279 21.6728H28.2279M28.2279 21.6728H28.2279M28.2279 21.6728H28.2279M28.2279 21.6728H28.2279M28.2279 21.6728H28.2279M28.2279 21.6728H28.2279M28.2279 21.6728H28.2279M28.2279 21.6728H28.2279M28.2279 21.6728H28.2279M28.2279 21.6728H28.2279M28.2279 21.6728H28.2279M28.2279 21.6728H28.2279M28.2279 21.6728H28.2279M28.2279 21.6728H28.2279M28.2279 21.6728H28.2279M28.2279 21.6728H28.2279M28.2279 21.6728H28.2279M28.2279 21.6728H28.2279M28.2279 21.6728H28.2279M28.2279 21.6728H28.2279M28.2279 21.6728H28.2279M28.2279 21.6728H28.2279M28.2279 21.6728H28.2279M28.2279 21.6728H28.2279M28.2279 21.6728H28.2279M28.2279 21.6728H28.2279M28.2279 21.6728C28.4699 21.6728 28.6554 21.4654 28.6554 21.2235L28.2279 21.6728ZM23.5305 20.7742L25.3821 18.716L27.2338 20.7742H23.5305ZM25.3821 17.6129C25.2634 17.6129 25.1514 17.6643 25.071 17.7537L28.6554 21.2235C28.6554 21.0942 28.6031 20.9761 28.5175 20.8933L25.6929 17.7542C25.6928 17.7541 25.6928 17.754 25.6927 17.7539C25.6127 17.6641 25.4999 17.6129 25.3821 17.6129Z" fill="#656565" stroke="#656565" stroke-width="0.2"/>
<path d="M27.7762 25.8821H22.9872C22.7452 25.8821 22.5597 25.6747 22.5597 25.4328L22.5597 21.2243L27.7762 25.8821ZM27.7762 25.8821C28.0187 25.8821 28.2043 25.6748 28.2043 25.4328L28.2043 21.2243C28.2043 20.9823 28.0187 20.775 27.7761 20.775C27.5341 20.775 27.3486 20.9824 27.3486 21.2243V24.9835M27.7762 25.8821L27.3486 24.9835M27.3486 24.9835H23.4147L23.4147 21.2243C23.4147 20.9824 23.2292 20.775 22.9872 20.775C22.7451 20.775 22.5597 20.9824 22.5597 21.2243L27.3486 24.9835Z" fill="#656565" stroke="#656565" stroke-width="0.2"/>
<path d="M21.6437 27.9997V27.9997C21.6437 27.757 21.8292 27.5504 22.0711 27.5504H28.6927C28.9346 27.5504 29.1202 27.757 29.1202 27.9997L21.6437 27.9997ZM21.6437 27.9997C21.6437 28.2416 21.8292 28.449 22.0712 28.449H28.6927M21.6437 27.9997L28.6927 28.449M28.6927 28.449C28.9347 28.449 29.1202 28.2417 29.1202 27.9997L28.6927 28.449Z" fill="#656565" stroke="#656565" stroke-width="0.2"/>
<path d="M22.0717 29.2656C21.8288 29.2656 21.6441 29.0581 21.6441 28.8163V27.1833C21.6441 26.9415 21.8288 26.734 22.0716 26.734L22.0717 29.2656ZM22.0717 29.2656C22.3136 29.2656 22.4991 29.0582 22.4991 28.8163L22.4991 27.1833L22.0717 29.2656ZM22.4991 27.1833C22.4991 26.9414 22.3137 26.734 22.0716 26.734L22.4991 27.1833Z" fill="#656565" stroke="#656565" stroke-width="0.2"/>
<path d="M28.2652 28.8163V28.8163L28.2653 27.1833C28.2653 27.1833 28.2653 27.1833 28.2653 27.1833C28.2653 26.9414 28.4507 26.734 28.6927 26.734L28.2652 28.8163ZM28.2652 28.8163C28.2652 29.0582 28.4508 29.2656 28.6927 29.2656M28.2652 28.8163L28.6927 29.2656M28.6927 29.2656C28.9347 29.2656 29.1202 29.0582 29.1202 28.8163L29.1202 27.1833L28.6927 29.2656ZM29.1202 27.1833C29.1202 26.9414 28.9348 26.734 28.6927 26.734L29.1202 27.1833Z" fill="#656565" stroke="#656565" stroke-width="0.2"/>
</svg>
