<svg width="33" height="27" viewBox="0 0 33 27" fill="none" xmlns="http://www.w3.org/2000/svg">
<g id="contact">
<path id="Path 6567" d="M32.4509 14.6314C32.5027 15.8688 32.0617 17.0762 31.2244 17.9888C30.3872 18.9013 29.2222 19.4446 27.985 19.4994C27.912 19.4994 27.84 19.5044 27.768 19.5044C27.4391 19.5041 27.1113 19.4686 26.79 19.3984C25.8373 20.8697 24.5879 22.1259 23.1218 23.0866C21.6558 24.0472 20.0052 24.6913 18.2759 24.9774C18.0715 25.5787 17.6633 26.0897 17.1221 26.4219C16.5808 26.7542 15.9405 26.8869 15.3118 26.7971C14.683 26.7073 14.1054 26.4006 13.6788 25.9301C13.2523 25.4595 13.0035 24.8547 12.9756 24.2202C12.9477 23.5857 13.1424 22.9614 13.5259 22.4552C13.9095 21.9491 14.458 21.5928 15.0764 21.4481C15.6948 21.3034 16.3443 21.3794 16.9127 21.6628C17.481 21.9462 17.9325 22.4194 18.189 23.0004C20.3943 22.5862 22.4115 21.4833 23.9504 19.8503C25.4894 18.2173 26.4708 16.1384 26.7536 13.9123C27.0364 11.6863 26.6059 9.428 25.5242 7.46207C24.4424 5.49615 22.765 3.92393 20.7333 2.97151C18.7015 2.01909 16.4201 1.73554 14.217 2.16163C12.014 2.58772 10.0028 3.70149 8.47266 5.3428C6.94256 6.9841 5.9724 9.06836 5.70167 11.2959C5.43093 13.5234 5.87356 15.7794 6.96595 17.7394C6.99629 17.7915 7.01887 17.8478 7.03297 17.9064C7.11798 18.1429 7.10878 18.403 7.00733 18.6329C6.90588 18.8627 6.71996 19.0448 6.48798 19.1414C5.92006 19.3803 5.31012 19.5034 4.69398 19.5034C4.62098 19.5034 4.54896 19.5034 4.47596 19.4984C3.23907 19.4431 2.0746 18.8996 1.2378 17.9871C0.401001 17.0745 -0.0398277 15.8674 0.0119706 14.6304C0.0329706 14.1374 0.0219706 13.6974 0.0119706 13.2714C0.00197065 12.8714 -0.00902935 12.4564 0.0119706 12.0244C0.0662101 10.8165 0.585822 9.67642 1.46198 8.84314C2.33814 8.00986 3.50286 7.54801 4.71198 7.5544C5.68882 5.30959 7.29988 3.39889 9.34742 2.05689C11.395 0.71489 13.7898 0 16.238 0C18.6861 0 21.081 0.71489 23.1285 2.05689C25.176 3.39889 26.7871 5.30959 27.764 7.5544C28.9732 7.54701 30.1383 8.00838 31.0147 8.84166C31.891 9.67494 32.4104 10.8153 32.4639 12.0234C32.4819 12.4564 32.4709 12.8714 32.4639 13.2714C32.4419 13.6974 32.4309 14.1374 32.4509 14.6314ZM24.468 12.5724C24.4678 13.8342 24.1777 15.0791 23.6202 16.211C23.0626 17.343 22.2525 18.3317 21.2523 19.1008C20.252 19.87 19.0884 20.3992 17.8513 20.6474C16.6141 20.8956 15.3365 20.8562 14.117 20.5324L10.78 22.4574C10.6122 22.5543 10.4195 22.5993 10.2262 22.5868C10.0329 22.5743 9.84757 22.5049 9.69367 22.3872C9.53977 22.2696 9.42417 22.109 9.3614 21.9257C9.29862 21.7424 9.2915 21.5447 9.34095 21.3574L10.192 18.1794C9.27887 17.1961 8.61981 16.0046 8.27216 14.7085C7.92452 13.4124 7.89879 12.051 8.19721 10.7427C8.49563 9.43442 9.10916 8.21885 9.98444 7.20171C10.8597 6.18458 11.9703 5.39669 13.2195 4.90658C14.4687 4.41646 15.8187 4.23896 17.1521 4.38951C18.4855 4.54006 19.762 5.0141 20.8704 5.7704C21.9789 6.5267 22.8857 7.54236 23.5122 8.72905C24.1387 9.91573 24.4658 11.2375 24.465 12.5794L24.468 12.5724ZM13.942 12.5724C13.942 12.4434 13.9165 12.3157 13.8672 12.1966C13.8178 12.0775 13.7456 11.9692 13.6544 11.878C13.5632 11.7868 13.4549 11.7145 13.3358 11.6652C13.2166 11.6158 13.0889 11.5904 12.96 11.5904C12.7658 11.5908 12.5762 11.6487 12.4149 11.7569C12.2537 11.865 12.1282 12.0185 12.0541 12.198C11.9801 12.3775 11.961 12.5748 11.9991 12.7652C12.0372 12.9556 12.1309 13.1304 12.2683 13.2675C12.4057 13.4046 12.5807 13.4979 12.7711 13.5357C12.9616 13.5734 13.1589 13.5538 13.3382 13.4795C13.5175 13.4051 13.6708 13.2792 13.7786 13.1178C13.8864 12.9563 13.944 12.7665 13.944 12.5724H13.942ZM17.2139 12.5724C17.2139 12.5404 17.2139 12.5084 17.2139 12.4724C17.211 12.4388 17.206 12.4054 17.199 12.3724C17.1937 12.3409 17.186 12.3098 17.176 12.2794C17.167 12.2484 17.156 12.2184 17.144 12.1884C17.1319 12.159 17.1182 12.1303 17.103 12.1024C17.088 12.0734 17.071 12.0464 17.054 12.0194C17.037 11.9924 17.016 11.9664 16.996 11.9414C16.9756 11.9165 16.9539 11.8928 16.931 11.8704C16.9085 11.8475 16.8848 11.8258 16.86 11.8054C16.8351 11.785 16.809 11.7659 16.782 11.7484C16.7555 11.7302 16.7277 11.7138 16.699 11.6994C16.6428 11.6684 16.5835 11.6436 16.522 11.6254C16.4605 11.6062 16.3971 11.5935 16.333 11.5874C16.2368 11.5786 16.1399 11.5833 16.045 11.6014C16.014 11.6074 15.983 11.6164 15.952 11.6254C15.921 11.6344 15.891 11.6454 15.861 11.6574C15.831 11.6694 15.8029 11.6834 15.7739 11.6994C15.7449 11.7154 15.719 11.7304 15.692 11.7484C15.6651 11.7657 15.6393 11.7847 15.6149 11.8054C15.5898 11.8258 15.5658 11.8475 15.543 11.8704C15.52 11.8928 15.4983 11.9165 15.478 11.9414C15.458 11.9667 15.439 11.9927 15.421 12.0194C15.4028 12.0461 15.3861 12.0738 15.371 12.1024C15.3558 12.1302 15.3424 12.1589 15.3309 12.1884C15.318 12.218 15.307 12.2484 15.298 12.2794C15.289 12.3094 15.2809 12.3414 15.2739 12.3724C15.2669 12.4034 15.263 12.4364 15.26 12.4724C15.257 12.5084 15.255 12.5364 15.255 12.5724C15.255 12.6084 15.255 12.6374 15.26 12.6724C15.265 12.7074 15.2679 12.7354 15.2739 12.7724C15.2799 12.8094 15.289 12.8354 15.298 12.8654C15.3173 12.9267 15.3417 12.9862 15.371 13.0434C15.386 13.0714 15.403 13.0984 15.421 13.1254C15.439 13.1524 15.458 13.1784 15.478 13.2034C15.5185 13.2536 15.5644 13.2992 15.6149 13.3394C15.6391 13.3604 15.6648 13.3794 15.692 13.3964C15.719 13.4144 15.7459 13.4314 15.7739 13.4464C15.8309 13.4761 15.8905 13.5005 15.952 13.5194C15.983 13.5294 16.014 13.5364 16.045 13.5434C16.1082 13.5562 16.1725 13.5626 16.2369 13.5624C16.497 13.5616 16.7463 13.4585 16.931 13.2754C16.9762 13.2291 17.0174 13.1789 17.054 13.1254C17.071 13.0984 17.088 13.0714 17.103 13.0434C17.118 13.0154 17.131 12.9854 17.144 12.9564C17.157 12.9274 17.167 12.8954 17.176 12.8654C17.1861 12.8351 17.1938 12.804 17.199 12.7724C17.2061 12.7394 17.211 12.706 17.2139 12.6724C17.2139 12.6404 17.2139 12.6074 17.2139 12.5724ZM20.4869 12.5724C20.4869 12.312 20.3835 12.0622 20.1993 11.878C20.0152 11.6939 19.7654 11.5904 19.505 11.5904C19.3108 11.5908 19.1212 11.6487 18.96 11.7569C18.7987 11.865 18.6731 12.0185 18.5991 12.198C18.5251 12.3775 18.506 12.5748 18.5441 12.7652C18.5822 12.9556 18.6759 13.1304 18.8133 13.2675C18.9507 13.4046 19.1257 13.4979 19.3161 13.5357C19.5065 13.5734 19.7039 13.5538 19.8832 13.4795C20.0626 13.4051 20.2158 13.2792 20.3236 13.1178C20.4314 12.9563 20.489 12.7665 20.489 12.5724H20.4869Z" fill="#5C5A5A"/>
</g>
</svg>
