<svg width="26" height="25" viewBox="0 0 26 25" fill="none" xmlns="http://www.w3.org/2000/svg">
<path id="home" d="M24.3284 10.8748L14.1284 0.674812C13.9148 0.460892 13.6611 0.291182 13.3818 0.175392C13.1025 0.059602 12.8032 0 12.5009 0C12.1986 0 11.8992 0.059602 11.62 0.175392C11.3407 0.291182 11.087 0.460892 10.8734 0.674812L0.680392 10.8678L0.670382 10.8778C0.355513 11.1939 0.139401 11.5948 0.0483728 12.0317C-0.0426556 12.4685 -0.00466251 12.9223 0.157717 13.3379C0.320097 13.7535 0.599848 14.1129 0.962893 14.3723C1.32594 14.6317 1.75661 14.7799 2.20239 14.7988C2.22604 14.8003 2.24977 14.8003 2.27341 14.7988H2.67938V22.2988C2.67885 23.0142 2.96227 23.7006 3.46738 24.2072C3.97249 24.7138 4.65799 24.9992 5.37338 25.0008H9.36341C9.45953 25.0008 9.55472 24.9819 9.64353 24.9451C9.73234 24.9083 9.81301 24.8544 9.88098 24.7864C9.94896 24.7184 10.0029 24.6377 10.0397 24.5489C10.0765 24.4601 10.0954 24.3649 10.0954 24.2688V18.3848C10.0957 18.0589 10.2252 17.7465 10.4557 17.5161C10.6861 17.2856 10.9985 17.1561 11.3244 17.1558H13.6774C14.0033 17.1561 14.3157 17.2856 14.5461 17.5161C14.7766 17.7465 14.9061 18.0589 14.9064 18.3848V24.2688C14.9067 24.463 14.984 24.6492 15.1214 24.7865C15.2589 24.9237 15.4452 25.0008 15.6394 25.0008H19.6284C20.3422 24.9992 21.0264 24.715 21.5313 24.2104C22.0361 23.7057 22.3205 23.0216 22.3224 22.3078V14.8008H22.6994C23.1549 14.8017 23.6003 14.6673 23.9793 14.4147C24.3583 14.1621 24.6538 13.8026 24.8282 13.3819C25.0027 12.9612 25.0484 12.4981 24.9594 12.0514C24.8704 11.6048 24.6508 11.1945 24.3284 10.8728V10.8748Z" fill="#5C5A5A"/>
</svg>
