<svg width="150" height="150" viewBox="0 0 150 150" fill="none" xmlns="http://www.w3.org/2000/svg">
<path d="M78.6302 116.063C99.9929 116.063 117.311 98.7454 117.311 77.3828C117.311 56.0201 99.9929 38.7023 78.6302 38.7023C57.2676 38.7023 39.9497 56.0201 39.9497 77.3828C39.9497 98.7454 57.2676 116.063 78.6302 116.063Z" fill="#7BD3FF"/>
<path d="M109.395 57.3511C109.394 57.3498 109.392 57.3493 109.391 57.3479C109.308 57.2626 109.215 57.1875 109.115 57.1222C109.052 57.0802 108.986 57.0478 108.919 57.016C108.878 56.9971 108.837 56.9808 108.795 56.9654C108.723 56.939 108.653 56.9128 108.578 56.8978C108.468 56.8742 108.354 56.8601 108.237 56.8601C108.23 56.8601 108.224 56.8619 108.218 56.8621C108.215 56.8621 108.212 56.8629 108.208 56.863C107.33 56.8784 106.621 57.5932 106.621 58.476C106.621 58.9372 106.817 59.3509 107.127 59.6451C107.315 59.8354 107.553 59.9785 107.827 60.047C107.853 60.0532 107.878 60.0514 107.903 60.0562C107.929 60.0616 107.956 60.0619 107.982 60.0661C108.052 60.0757 108.122 60.0917 108.191 60.0917C108.198 60.0917 108.204 60.0892 108.21 60.0889C108.219 60.0891 108.228 60.0917 108.237 60.0917C109.129 60.0917 109.853 59.3683 109.853 58.476C109.853 58.0442 109.681 57.6541 109.405 57.3642C109.401 57.3598 109.399 57.3555 109.395 57.3511Z" fill="#0A0A0A"/>
<path d="M85.7323 74.8736C93.9889 74.8736 101.83 70.8885 106.707 64.2125C107.196 63.5438 107.05 62.6055 106.381 62.1163C105.713 61.6285 104.774 61.7736 104.285 62.4429C99.9706 68.3477 93.0349 71.8736 85.7323 71.8736C73.0716 71.8736 62.7716 61.5735 62.7716 48.9129C62.7716 36.2529 73.0716 25.9529 85.7323 25.9529C98.3926 25.9529 108.693 36.2529 108.693 48.9129C108.693 50.103 108.601 51.2976 108.42 52.4637C108.293 53.2825 108.854 54.0486 109.672 54.1761C110.488 54.2969 111.258 53.7425 111.385 52.9236C111.589 51.606 111.693 50.2569 111.693 48.9129C111.693 34.5984 100.047 22.9529 85.7322 22.9529C71.4174 22.9529 59.7715 34.5984 59.7715 48.9129C59.7715 63.2274 71.4174 74.8736 85.7323 74.8736Z" fill="#0A0A0A"/>
<path d="M84.6571 39.3665C86.7683 38.8245 89.631 39.138 92.1253 40.1868C92.8906 40.5091 93.7684 40.1487 94.0896 39.3855C94.4107 38.6216 94.0519 37.742 93.2883 37.4212C91.5439 36.6877 89.68 36.2649 87.8907 36.1482V33.1218C87.8907 32.2935 87.2191 31.6218 86.3907 31.6218C85.5623 31.6218 84.8907 32.2935 84.8907 33.1218V36.2626C84.5563 36.3159 84.2276 36.3792 83.911 36.4602C81.6519 37.0395 79.837 38.6582 79.1749 40.6833C78.5867 42.4829 78.9727 44.3381 80.2621 45.9069C81.6735 47.6244 83.632 48.3576 85.3598 49.0044C86.9971 49.6174 88.4111 50.1469 89.2384 51.3444C90.2451 52.802 90.1286 54.6982 88.9615 55.8532C88.0094 56.7958 86.4838 57.3063 84.7527 57.2719C82.9008 57.2265 81.0386 56.5981 79.2379 55.9909C78.452 55.7221 77.6014 56.1476 77.3369 56.9321C77.0722 57.7173 77.4937 58.5683 78.2785 58.8327C80.1978 59.481 82.3727 60.2148 84.6805 60.2705C84.7508 60.2723 84.8208 60.273 84.8908 60.2734V63.1746C84.8908 64.0029 85.5624 64.6746 86.3908 64.6746C87.2191 64.6746 87.8908 64.0029 87.8908 63.1746V59.8293C89.1277 59.4447 90.2254 58.8234 91.072 57.9854C93.2744 55.8057 93.5414 52.2959 91.7067 49.6394C90.3444 47.6678 88.2551 46.8855 86.4116 46.1949C84.9039 45.6309 83.4797 45.0977 82.5803 44.0027C81.9472 43.2322 81.7607 42.4287 82.0266 41.615C82.3679 40.5714 83.4003 39.6888 84.6571 39.3665Z" fill="#0A0A0A"/>
<path d="M129.74 72.0933C129.501 70.1817 128.428 68.4964 126.798 67.4696C124.453 65.9937 121.445 66.1871 119.309 67.9493L100.686 83.3169C100.046 83.8443 99.956 84.7899 100.483 85.4285C101.011 86.0686 101.957 86.1587 102.595 85.6314L121.218 70.2637C122.354 69.3269 123.954 69.2237 125.199 70.0081C126.066 70.5537 126.636 71.4495 126.763 72.4661C126.891 73.4827 126.559 74.4912 125.866 75.2208L100.906 100.86C98.286 103.551 94.6389 105.089 90.8868 105.089C90.8589 105.089 90.8307 105.089 90.8033 105.089L64.3101 104.929C63.8901 104.935 63.5103 105.092 63.2254 105.383L58.9685 109.762L56.3235 107.504C55.6943 106.966 54.7469 107.041 54.209 107.671C53.671 108.301 53.7457 109.248 54.376 109.786L61.8834 116.194L53.9871 123.656L24.1318 104.744L35.6074 93.7642L45.7884 102.455C46.4183 102.992 47.3653 102.917 47.9029 102.288C48.4409 101.658 48.3662 100.711 47.7359 100.173L44.121 97.0872L53.262 86.741C55.1292 84.6272 57.918 83.5638 60.7176 83.8831L93.1277 87.636C93.9121 87.7268 94.6131 88.1568 95.0511 88.8138C95.4887 89.4715 95.6139 90.2837 95.3949 91.0425C95.0661 92.1836 94.0066 92.9805 92.819 92.9805H64.4501C63.6217 92.9805 62.9501 93.6521 62.9501 94.4805C62.9501 95.3089 63.6217 95.9805 64.4501 95.9805H92.819C95.3356 95.9805 97.5801 94.2923 98.2773 91.8746C98.7414 90.2662 98.4755 88.5449 97.5482 87.1519C96.6206 85.7581 95.1352 84.8492 93.4726 84.6566L61.0626 80.9036C57.2888 80.4678 53.5299 81.9056 51.0134 84.7548L41.8388 95.1389L36.5235 90.6016C35.9373 90.1028 35.0689 90.1278 34.5126 90.6588L20.6724 103.902C20.3392 104.221 20.1711 104.675 20.2169 105.134C20.2627 105.594 20.5172 106.006 20.9068 106.253L53.367 126.814C53.6139 126.971 53.8926 127.047 54.1694 127.047C54.5429 127.047 54.9135 126.908 55.1999 126.637L65.1572 117.228C65.4666 116.935 65.6373 116.525 65.6267 116.099C65.6157 115.674 65.4249 115.273 65.1008 114.996L61.2553 111.714L64.9309 107.933L90.7851 108.089H90.8865C95.4441 108.089 99.8741 106.22 103.055 102.953L128.029 77.3007C129.356 75.9034 129.98 74.0057 129.74 72.0933Z" fill="#0A0A0A"/>
<path d="M52.455 104.282C52.4023 104.199 52.3426 104.117 52.2675 104.049C52.1998 103.982 52.1251 103.922 52.0423 103.861C51.9599 103.809 51.8775 103.764 51.7875 103.727C51.6974 103.689 51.6 103.659 51.5025 103.644C51.0151 103.539 50.4973 103.704 50.1523 104.049C50.0776 104.117 50.0175 104.199 49.9648 104.282C49.9125 104.356 49.8601 104.447 49.8224 104.537C49.785 104.627 49.7623 104.724 49.74 104.822C49.7176 104.912 49.71 105.016 49.71 105.114C49.71 105.309 49.7473 105.504 49.8224 105.684C49.8975 105.864 50.0099 106.029 50.1523 106.171C50.4376 106.456 50.8126 106.614 51.21 106.614C51.3074 106.614 51.4125 106.599 51.5025 106.584C51.6 106.562 51.6974 106.539 51.7875 106.502C51.8775 106.464 51.96 106.411 52.0423 106.359C52.1251 106.307 52.1998 106.239 52.2675 106.171C52.41 106.029 52.5224 105.864 52.5975 105.684C52.6725 105.504 52.7099 105.309 52.7099 105.114C52.7099 105.016 52.7025 104.919 52.6799 104.821C52.6649 104.724 52.6348 104.627 52.5975 104.537C52.5598 104.447 52.5151 104.357 52.455 104.282Z" fill="#0A0A0A"/>
</svg>
