<svg xmlns="http://www.w3.org/2000/svg" xmlns:xlink="http://www.w3.org/1999/xlink" width="257.469" height="111.5" viewBox="0 0 257.469 111.5">
  <defs>
    <linearGradient id="linear-gradient" y1="0.5" x2="1" y2="0.5" gradientUnits="objectBoundingBox">
      <stop offset="0" stop-color="#861e19"/>
      <stop offset="0.084" stop-color="#92231a"/>
      <stop offset="0.269" stop-color="#a92d1c"/>
      <stop offset="0.47" stop-color="#b9341e"/>
      <stop offset="0.696" stop-color="#c3381f"/>
      <stop offset="1" stop-color="#c63a20"/>
    </linearGradient>
    <linearGradient id="linear-gradient-2" y1="0.5" x2="1" y2="0.5" gradientUnits="objectBoundingBox">
      <stop offset="0" stop-color="#298d8f"/>
      <stop offset="0.252" stop-color="#27898b"/>
      <stop offset="0.492" stop-color="#247e7f"/>
      <stop offset="0.727" stop-color="#1e6d6c"/>
      <stop offset="0.958" stop-color="#155451"/>
      <stop offset="1" stop-color="#144f4c"/>
    </linearGradient>
  </defs>
  <g id="Group_9888" data-name="Group 9888" transform="translate(-405.577 -555.447)">
    <text id="Lesoll" transform="translate(462.046 636.341)" fill="#5c5a5a" font-size="85" font-family="JosefinSans-SemiBold, Josefin Sans" font-weight="600" letter-spacing="-0.062em"><tspan x="0" y="0">Lesoll</tspan></text>
    <g id="Group_9886" data-name="Group 9886" transform="translate(405.577 555.447)">
      <path id="Path_6466" data-name="Path 6466" d="M138.865,565.588a14.83,14.83,0,0,0-5.573-10.141l-.475.475q-1.017,1.018-2.035,2.036-11.1,11.1-22.182,22.2a8.651,8.651,0,0,0-1.245,1.628c-.078.127-.139.232-.194.329a12.252,12.252,0,0,0-1.539,4.81l0,.029a17,17,0,0,0,.092,3.349l0,.03c0,.029.008.055.012.083a18.218,18.218,0,0,0,.552,2.408q.222.74.5,1.481a18.655,18.655,0,0,0,4.167,6.209c-.166.287-.307.556-.47.809a12.418,12.418,0,0,0-2.1,7.163,17.511,17.511,0,0,0,5.6,12.394c3.993,3.906,8.045,7.751,12.074,11.62.129.124.278.227.487.4.833-1,1.7-1.919,2.429-2.936,2.877-4,3.626-8.287,1.6-12.907a18.758,18.758,0,0,0-3.889-5.688c-3.366-3.4-6.762-6.771-10.146-10.152l-.742-.742.18-.2c.171-.192.325-.369.482-.526,3.788-3.808,7.6-7.59,11.359-11.427,1.592-1.626,3.231-3.224,4.749-4.916.171-.195.356-.41.549-.636.231-.267.456-.538.679-.812.211-.256.417-.51.613-.755.284-.371.554-.746.813-1.126.413-.625.814-1.292,1.064-1.716.082-.146.165-.291.244-.438A21.066,21.066,0,0,0,138.865,565.588Z" transform="translate(-105.577 -555.447)" fill="#a63626"/>
      <path id="Path_6467" data-name="Path 6467" d="M136.516,579.147h0c2.269-4.1-5.705-19.906-5.732-19.959q-11.1,11.1-22.182,22.2a8.651,8.651,0,0,0-1.245,1.628c-.078.127-.139.232-.194.329a12.253,12.253,0,0,0-1.539,4.81l0,.029a17,17,0,0,0,.092,3.349l0,.03c0,.029.008.055.012.083a18.218,18.218,0,0,0,.552,2.408c1.345,3.932,9.5,7.646,9.5,7.646a1.823,1.823,0,0,1,.182-.2c.171-.192.325-.369.482-.526,3.788-3.808,7.6-7.59,11.359-11.427,1.592-1.626,3.231-3.224,4.749-4.916.171-.195.356-.41.549-.636.231-.267.456-.538.679-.812.211-.256.417-.51.613-.755.284-.371.554-.746.813-1.126.413-.625.814-1.292,1.064-1.716C136.354,579.439,136.437,579.294,136.516,579.147Z" transform="translate(-105.577 -556.676)" fill="url(#linear-gradient)"/>
      <path id="Path_6468" data-name="Path 6468" d="M122.339,673.48a14.83,14.83,0,0,0,5.573,10.141l.475-.475q1.018-1.017,2.035-2.036,11.1-11.1,22.183-22.2a8.621,8.621,0,0,0,1.245-1.629c.078-.127.14-.232.194-.329a12.242,12.242,0,0,0,1.539-4.81l0-.028a17.007,17.007,0,0,0-.092-3.35l0-.03c0-.029-.008-.055-.012-.083a18.211,18.211,0,0,0-.552-2.408q-.222-.74-.5-1.481a18.663,18.663,0,0,0-4.167-6.209c.166-.287.306-.555.469-.809a12.413,12.413,0,0,0,2.1-7.163,17.514,17.514,0,0,0-5.6-12.394c-3.993-3.906-8.046-7.751-12.074-11.62-.129-.124-.278-.227-.486-.4-.834,1-1.7,1.919-2.43,2.935-2.877,4-3.626,8.287-1.6,12.907a18.757,18.757,0,0,0,3.889,5.688c3.366,3.4,6.762,6.771,10.146,10.152l.742.743c-.066.073-.121.135-.18.2-.171.192-.326.369-.483.526-3.788,3.808-7.6,7.59-11.359,11.427-1.592,1.626-3.231,3.224-4.749,4.917-.17.195-.356.411-.548.636-.231.267-.456.538-.68.812-.211.256-.417.51-.613.755q-.426.556-.812,1.126c-.413.626-.815,1.292-1.064,1.716-.082.146-.166.291-.244.438A21.061,21.061,0,0,0,122.339,673.48Z" transform="translate(-111.045 -572.121)" fill="#1b6e6d"/>
      <path id="Path_6469" data-name="Path 6469" d="M125.7,677.029h0c-2.269,4.1,5.705,19.906,5.732,19.959q11.1-11.1,22.183-22.2a8.619,8.619,0,0,0,1.245-1.629c.078-.127.14-.232.194-.329a12.242,12.242,0,0,0,1.539-4.81l0-.028a17.009,17.009,0,0,0-.092-3.35l0-.03c0-.029-.008-.055-.012-.083a18.209,18.209,0,0,0-.552-2.408c-1.345-3.932-9.5-7.645-9.5-7.645a1.964,1.964,0,0,1-.181.2c-.17.192-.326.369-.483.526-3.788,3.807-7.6,7.59-11.359,11.427-1.592,1.626-3.231,3.224-4.749,4.917-.17.195-.356.411-.548.636-.231.267-.456.538-.68.812-.211.256-.417.51-.613.755q-.426.556-.812,1.126c-.413.626-.815,1.292-1.064,1.716C125.865,676.737,125.781,676.882,125.7,677.029Z" transform="translate(-112.06 -588)" fill="url(#linear-gradient-2)"/>
    </g>
  </g>
</svg>
