<svg width="24" height="24" viewBox="0 0 24 24" fill="none" xmlns="http://www.w3.org/2000/svg">
<path d="M0.703125 24H9.14062C9.52894 24 9.84375 23.6852 9.84375 23.2969V21.8906C9.84375 20.974 9.25589 20.1924 8.4375 19.9022V19.0781C8.4375 18.1615 7.84964 17.3799 7.03125 17.0897V8.01333C7.96744 6.65723 8.4375 4.00491 8.4375 2.8125C8.4375 0.519984 7.00472 0 4.92188 0C2.81677 0 1.40625 0.535828 1.40625 2.8125C1.40625 4.00491 1.87631 6.65723 2.8125 8.01333V17.0897C1.99411 17.3799 1.40625 18.1615 1.40625 19.0781V19.9022C0.587859 20.1924 0 20.974 0 21.8906V23.2969C0 23.6852 0.314812 24 0.703125 24ZM4.21875 16.9688V8.48438H5.625V16.9688H4.21875ZM4.92188 1.40625C6.65672 1.40625 7.03125 1.65595 7.03125 2.8125C7.03125 3.89273 6.58355 6.05311 5.96316 7.07812H3.88059C3.2602 6.05311 2.8125 3.89273 2.8125 2.8125C2.8125 1.65595 3.18703 1.40625 4.92188 1.40625ZM2.8125 19.0781C2.8125 18.6904 3.12792 18.375 3.51562 18.375H6.32812C6.71583 18.375 7.03125 18.6904 7.03125 19.0781V19.7812H2.8125V19.0781ZM1.40625 21.8906C1.40625 21.5029 1.72167 21.1875 2.10938 21.1875H7.73438C8.12208 21.1875 8.4375 21.5029 8.4375 21.8906V22.5938H1.40625V21.8906Z" fill="#666666"/>
<path d="M22.5938 9.76969C23.4121 9.47944 24 8.69789 24 7.78125C24 6.61814 23.0537 5.67188 21.8906 5.67188C20.7275 5.67188 19.7812 6.61814 19.7812 7.78125C19.7812 8.69789 20.3691 9.47944 21.1875 9.76969V11.2969H16.9219V9.76969C17.7403 9.47944 18.3281 8.69789 18.3281 7.78125C18.3281 6.61814 17.3819 5.67188 16.2188 5.67188C15.0556 5.67188 14.1094 6.61814 14.1094 7.78125C14.1094 8.69789 14.6972 9.47944 15.5156 9.76969V11.2969H11.25V9.76969C12.0684 9.47944 12.6562 8.69789 12.6562 7.78125C12.6562 6.61814 11.71 5.67188 10.5469 5.67188C9.38377 5.67188 8.4375 6.61814 8.4375 7.78125C8.4375 8.69789 9.02536 9.47944 9.84375 9.76969V14.2772C9.02536 14.5674 8.4375 15.349 8.4375 16.2656C8.4375 17.4287 9.38377 18.375 10.5469 18.375C11.71 18.375 12.6562 17.4287 12.6562 16.2656C12.6562 15.349 12.0684 14.5674 11.25 14.2772V12.7031H15.5156V14.2772C14.6972 14.5674 14.1094 15.349 14.1094 16.2656C14.1094 17.4287 15.0556 18.375 16.2188 18.375C17.3819 18.375 18.3281 17.4287 18.3281 16.2656C18.3281 15.349 17.7403 14.5674 16.9219 14.2772V12.7031H21.1875V14.2772C20.3691 14.5674 19.7812 15.349 19.7812 16.2656C19.7812 17.4287 20.7275 18.375 21.8906 18.375C23.0537 18.375 24 17.4287 24 16.2656C24 15.349 23.4121 14.5674 22.5938 14.2772V9.76969ZM16.2188 7.07812C16.6065 7.07812 16.9219 7.39355 16.9219 7.78125C16.9219 8.16895 16.6065 8.48438 16.2188 8.48438C15.831 8.48438 15.5156 8.16895 15.5156 7.78125C15.5156 7.39355 15.831 7.07812 16.2188 7.07812ZM10.5469 7.07812C10.9346 7.07812 11.25 7.39355 11.25 7.78125C11.25 8.16895 10.9346 8.48438 10.5469 8.48438C10.1592 8.48438 9.84375 8.16895 9.84375 7.78125C9.84375 7.39355 10.1592 7.07812 10.5469 7.07812ZM10.5469 16.9688C10.1592 16.9688 9.84375 16.6533 9.84375 16.2656C9.84375 15.8779 10.1592 15.5625 10.5469 15.5625C10.9346 15.5625 11.25 15.8779 11.25 16.2656C11.25 16.6533 10.9346 16.9688 10.5469 16.9688ZM16.2188 16.9688C15.831 16.9688 15.5156 16.6533 15.5156 16.2656C15.5156 15.8779 15.831 15.5625 16.2188 15.5625C16.6065 15.5625 16.9219 15.8779 16.9219 16.2656C16.9219 16.6533 16.6065 16.9688 16.2188 16.9688ZM21.8906 7.07812C22.2783 7.07812 22.5938 7.39355 22.5938 7.78125C22.5938 8.16895 22.2783 8.48438 21.8906 8.48438C21.5029 8.48438 21.1875 8.16895 21.1875 7.78125C21.1875 7.39355 21.5029 7.07812 21.8906 7.07812ZM21.8906 16.9688C21.5029 16.9688 21.1875 16.6533 21.1875 16.2656C21.1875 15.8779 21.5029 15.5625 21.8906 15.5625C22.2783 15.5625 22.5938 15.8779 22.5938 16.2656C22.5938 16.6533 22.2783 16.9688 21.8906 16.9688Z" fill="#666666"/>
</svg>
