<svg width="32" height="27" viewBox="0 0 32 27" fill="none" xmlns="http://www.w3.org/2000/svg">
<g id="need">
<path id="Path 6558" d="M21.957 7.43746e-07C20.1785 0.00022034 18.435 0.493757 16.9203 1.42573C15.4055 2.3577 14.179 3.69157 13.3771 5.279C14.5802 6.4125 15.3249 7.94843 15.47 9.595C15.5337 9.44943 15.6274 9.31893 15.745 9.212C16.1181 8.94554 16.5763 8.82591 17.032 8.876H20.6071V4.703C20.5661 4.24812 20.6896 3.79362 20.9551 3.422C21.0723 3.29923 21.2132 3.20141 21.3691 3.13439C21.5251 3.06737 21.693 3.03254 21.8628 3.03198C22.0326 3.03142 22.2006 3.06514 22.3571 3.13113C22.5135 3.19712 22.655 3.29401 22.7731 3.416C23.0402 3.78912 23.1637 4.2461 23.121 4.703L23.108 8.876H26.683C27.139 8.83335 27.5953 8.9546 27.97 9.218C28.0965 9.33037 28.1967 9.46932 28.2633 9.62491C28.3299 9.7805 28.3611 9.94888 28.355 10.118C28.3612 10.2884 28.3299 10.4582 28.2634 10.6153C28.1969 10.7723 28.0967 10.9129 27.97 11.027C27.5966 11.2936 27.1397 11.4168 26.683 11.374H23.108V15.559C23.1502 16.0151 23.0294 16.4715 22.767 16.847C22.6544 16.9733 22.5154 17.0731 22.3599 17.1395C22.2043 17.2059 22.0361 17.2371 21.8671 17.231C21.6967 17.2371 21.527 17.2059 21.37 17.1396C21.213 17.0733 21.0724 16.9734 20.958 16.847C20.6907 16.4736 20.5671 16.0162 20.61 15.559V11.377H17.035C16.5783 11.4198 16.1214 11.2966 15.748 11.03C15.6338 10.9252 15.5425 10.7979 15.48 10.656C15.3797 12.1509 14.784 13.5696 13.787 14.688C14.67 16.1126 15.9098 17.2818 17.3838 18.0798C18.8577 18.8778 20.5146 19.2768 22.1902 19.2373C23.8658 19.1979 25.5021 18.7213 26.9369 17.8549C28.3716 16.9884 29.555 15.7622 30.37 14.2976C31.185 12.833 31.6032 11.1808 31.5831 9.50488C31.5631 7.82892 31.1055 6.18728 30.2557 4.7426C29.406 3.29792 28.1935 2.10033 26.7384 1.26846C25.2833 0.436602 23.6362 -0.000658238 21.9601 7.43746e-07H21.957Z" fill="#5C5A5A"/>
<g id="Group 9971">
<path id="Path 6559" d="M13.251 10.084C13.251 11.2014 12.9197 12.2938 12.2989 13.2229C11.678 14.1521 10.7956 14.8762 9.76322 15.3039C8.73082 15.7315 7.59481 15.8434 6.49882 15.6254C5.40283 15.4074 4.39604 14.8693 3.60588 14.0791C2.81571 13.289 2.27762 12.2822 2.05961 11.1862C1.8416 10.0902 1.95351 8.9542 2.38114 7.9218C2.80878 6.8894 3.53294 6.00698 4.46208 5.38615C5.39122 4.76532 6.48365 4.43396 7.60112 4.43396C8.34308 4.43396 9.07774 4.58011 9.76322 4.86404C10.4487 5.14798 11.0716 5.56416 11.5962 6.08881C12.1209 6.61346 12.537 7.23631 12.821 7.9218C13.1049 8.60729 13.251 9.34199 13.251 10.084Z" fill="#5C5A5A"/>
<path id="Path 6560" d="M7.59998 15.734C5.58433 15.734 3.65135 16.5347 2.22607 17.96C0.800798 19.3853 0 21.3184 0 23.334V24.834C0.00132248 25.1514 0.128371 25.4553 0.353271 25.6793C0.578172 25.9033 0.882678 26.029 1.20007 26.029H14C14.3174 26.029 14.6219 25.9033 14.8468 25.6793C15.0717 25.4553 15.1988 25.1514 15.2001 24.834V23.329C15.1987 21.3142 14.3974 19.3824 12.9723 17.9582C11.5472 16.534 9.61475 15.734 7.59998 15.734Z" fill="#5C5A5A"/>
</g>
</g>
</svg>
