<svg xmlns="http://www.w3.org/2000/svg" width="24" height="27.423" viewBox="0 0 24 27.423">
  <g id="bell" transform="translate(-1270.181 -73.434)">
    <path id="Path_2917" data-name="Path 2917" d="M1282.181,100.857a3.43,3.43,0,0,0,3.428-3.429h-6.857a3.429,3.429,0,0,0,3.429,3.429Z" fill="#309da0"/>
    <path id="Path_2918" data-name="Path 2918" d="M1282.181,76.717l-1.366.276a6.861,6.861,0,0,0-5.491,6.722,37.2,37.2,0,0,1-.787,6.413A22.19,22.19,0,0,1,1273.4,94h17.561a22.29,22.29,0,0,1-1.137-3.87,37.318,37.318,0,0,1-.786-6.414,6.861,6.861,0,0,0-5.491-6.72l-1.366-.28ZM1292.844,94a4.369,4.369,0,0,0,1.337,1.714h-24A4.368,4.368,0,0,0,1271.518,94c1.543-3.086,2.091-8.777,2.091-10.286a8.573,8.573,0,0,1,6.866-8.4,1.714,1.714,0,1,1,3.412-.331,1.666,1.666,0,0,1,0,.331,8.576,8.576,0,0,1,6.866,8.4C1290.753,85.223,1291.3,90.914,1292.844,94Z" fill="#309da0" fill-rule="evenodd"/>
  </g>
</svg>
