<svg width="21" height="21" viewBox="0 0 21 21" fill="none" xmlns="http://www.w3.org/2000/svg">
<path d="M18.5503 8.53593C17.4119 8.53593 16.4525 9.31645 16.1789 10.3704H13.3239L12.9935 9.57682H14.516V8.34635H12.4812L11.19 5.24541C11.3196 4.94538 11.3917 4.61496 11.3917 4.26792C11.3917 3.49342 11.0337 2.8012 10.4749 2.34716V0H7.35984V2.34716C6.80096 2.8012 6.44302 3.49342 6.44302 4.26792C6.44302 4.61496 6.51513 4.94534 6.6447 5.24537L5.35352 8.34635H3.31874V9.57682H4.84116L4.51073 10.3704H0V21H18.5503C19.9011 21 21 19.9011 21 18.5503V10.9856C21 9.63486 19.9011 8.53593 18.5503 8.53593ZM13.2158 13.3118L12.9066 13.4406L10.0111 6.48662C10.1125 6.43642 10.2102 6.37982 10.3032 6.31669L13.2158 13.3118ZM9.96491 9.57682L10.2953 10.3704H7.53937L7.86983 9.57682H9.96491ZM8.38216 8.34635L8.91737 7.06092L9.45258 8.34635H8.38216ZM8.59031 1.23047H9.24439V1.81588C9.1373 1.80169 9.02828 1.79361 8.91733 1.79361C8.80642 1.79361 8.6974 1.80169 8.59031 1.81588V1.23047ZM8.91737 3.02408C9.60323 3.02408 10.1613 3.58206 10.1613 4.26792C10.1613 4.95379 9.60328 5.51176 8.91737 5.51176C8.23151 5.51176 7.67353 4.95379 7.67353 4.26792C7.67353 3.58206 8.23151 3.02408 8.91737 3.02408ZM7.53149 6.31669C7.62448 6.37982 7.72218 6.43642 7.82361 6.48662L4.92819 13.4406L4.61893 13.3118L7.53149 6.31669ZM18.5503 19.7695H1.23047V11.6009H3.99845L3.01001 13.9747L3.73259 14.2756L3.21809 15.5114L4.35401 15.9843L4.86851 14.7486L5.59109 15.0495L7.027 11.6009H10.8076L12.2435 15.0495L12.9661 14.7487L13.4806 15.9844L14.6166 15.5114L14.102 14.2757L14.8246 13.9748L13.8362 11.6009H16.1005V18.5504H17.331C17.331 17.8781 17.8779 17.3312 18.5503 17.3312C19.2225 17.3312 19.7695 17.8781 19.7695 18.5504C19.7695 19.2227 19.2226 19.7695 18.5503 19.7695ZM19.7696 16.4269C19.4102 16.2198 18.9941 16.1006 18.5503 16.1006C18.1068 16.1006 17.6903 16.2191 17.3311 16.4261V10.9856C17.3311 10.3133 17.878 9.76639 18.5503 9.76639C19.2226 9.76639 19.7696 10.3133 19.7696 10.9856V16.4269Z" fill="#666666"/>
</svg>
