<svg width="150" height="150" viewBox="0 0 150 150" fill="none" xmlns="http://www.w3.org/2000/svg">
<path d="M94.2982 108.826C115.661 108.826 132.979 91.5086 132.979 70.146C132.979 48.7833 115.661 31.4655 94.2982 31.4655C72.9355 31.4655 55.6177 48.7833 55.6177 70.146C55.6177 91.5086 72.9355 108.826 94.2982 108.826Z" fill="#7BD3FF"/>
<path d="M125.992 120.733H119.197V94.3189L119.447 94.5694C120.948 96.0702 123.389 96.0687 124.888 94.5694L126.981 92.4769C127.707 91.7503 128.108 90.7836 128.108 89.756C128.108 88.7277 127.707 87.7616 126.981 87.0357L94.5293 54.5836C93.0308 53.0844 90.5896 53.0829 89.0881 54.5836L56.636 87.0351C55.9094 87.7617 55.5088 88.7277 55.5088 89.756C55.5088 90.7836 55.9095 91.7504 56.636 92.4769L58.7285 94.5694C59.4551 95.2967 60.4218 95.6966 61.4494 95.6966C62.4777 95.6966 63.4438 95.2959 64.1697 94.5694L64.4209 94.3182V120.733H50.4062C54.1787 117.906 56.6352 113.414 56.6352 108.348C56.6352 99.8091 49.689 92.8628 41.1504 92.8628C32.6118 92.8628 25.6655 99.8091 25.6655 108.348C25.6655 113.414 28.122 117.906 31.8945 120.733H23.3921C22.5637 120.733 21.8921 121.405 21.8921 122.233C21.8921 123.061 22.5637 123.733 23.3921 123.733H39.4371C40.0004 123.795 40.5708 123.833 41.1504 123.833C41.7299 123.833 42.3003 123.795 42.8636 123.733H82.3945H101.222H125.992C126.82 123.733 127.492 123.061 127.492 122.233C127.492 121.405 126.82 120.733 125.992 120.733ZM28.6655 108.348C28.6655 101.464 34.2663 95.8629 41.1504 95.8629C48.0344 95.8629 53.6352 101.464 53.6352 108.348C53.6352 114.721 48.8328 119.985 42.6586 120.733H39.6421C33.468 119.985 28.6655 114.721 28.6655 108.348ZM67.4208 91.3183L91.2092 67.5306C91.5395 67.2018 92.0763 67.2003 92.4081 67.5306L103.899 79.0216C104.485 79.6075 105.434 79.6075 106.02 79.0216C106.606 78.4357 106.606 77.4864 106.02 76.9005L94.5292 65.4096C93.0307 63.9111 90.5895 63.9096 89.088 65.4096L62.0478 92.4484C61.7284 92.7692 61.1703 92.7692 60.8495 92.4484L58.757 90.3559C58.5966 90.1955 58.5087 89.9824 58.5087 89.7561C58.5087 89.5297 58.5966 89.3173 58.757 89.157L91.2091 56.7048C91.5306 56.3833 92.088 56.3847 92.4081 56.7048L124.86 89.1577C125.02 89.3174 125.108 89.5298 125.108 89.7561C125.108 89.9825 125.02 90.1956 124.86 90.356L122.767 92.4485C122.437 92.7774 121.9 92.7788 121.568 92.4485L118.761 89.6418C118.758 89.6385 118.755 89.6355 118.752 89.6323L114.257 85.1374C113.671 84.5515 112.722 84.5515 112.136 85.1374C111.55 85.7233 111.55 86.6726 112.136 87.2585L116.196 91.3191V120.733H102.722V97.2729C102.722 94.8963 100.789 92.9626 98.4126 92.9626H85.2048C82.8281 92.9626 80.8944 94.8962 80.8944 97.2729V120.733H67.4208V91.3183ZM83.8945 120.733V97.2728C83.8945 96.5506 84.4827 95.9625 85.2048 95.9625H98.4126C99.1348 95.9625 99.7222 96.5506 99.7222 97.2728V120.733H83.8945Z" fill="#0A0A0A"/>
<path d="M108.269 83.392C108.547 83.6696 108.93 83.8271 109.327 83.8271C109.53 83.8271 109.725 83.7898 109.905 83.7151C110.085 83.6396 110.25 83.5349 110.385 83.392C110.528 83.2499 110.64 83.0851 110.715 82.905C110.79 82.7248 110.827 82.53 110.827 82.3271C110.827 81.9375 110.67 81.5471 110.385 81.2695C110.317 81.2021 110.243 81.1347 110.16 81.082C110.077 81.03 109.995 80.9845 109.905 80.9472C109.815 80.9098 109.718 80.8798 109.62 80.8571C109.425 80.8198 109.23 80.8198 109.035 80.8571C108.937 80.8798 108.847 80.9098 108.757 80.9472C108.667 80.9845 108.577 81.03 108.495 81.082C108.412 81.1347 108.338 81.2021 108.269 81.2695C107.985 81.547 107.827 81.9301 107.827 82.3271C107.827 82.53 107.864 82.7248 107.94 82.905C108.015 83.0851 108.127 83.2499 108.269 83.392Z" fill="#0A0A0A"/>
<path d="M88.8853 105.672C88.0569 105.672 87.3853 106.343 87.3853 107.172V113.215C87.3853 114.043 88.0569 114.715 88.8853 114.715C89.7136 114.715 90.3853 114.043 90.3853 113.215V107.172C90.3853 106.343 89.7136 105.672 88.8853 105.672Z" fill="#0A0A0A"/>
<path d="M74.0352 97.1624C73.2068 97.1624 72.5352 97.834 72.5352 98.6624V111.877C72.5352 112.705 73.2068 113.377 74.0352 113.377C74.8635 113.377 75.5352 112.705 75.5352 111.877V98.6624C75.5352 97.834 74.8635 97.1624 74.0352 97.1624Z" fill="#0A0A0A"/>
<path d="M109.329 97.1624C108.5 97.1624 107.829 97.834 107.829 98.6624V111.877C107.829 112.705 108.5 113.377 109.329 113.377C110.157 113.377 110.829 112.705 110.829 111.877V98.6624C110.829 97.834 110.157 97.1624 109.329 97.1624Z" fill="#0A0A0A"/>
<path d="M43.0269 116.133V115.048C43.6443 114.797 44.197 114.445 44.6543 113.992C46.136 112.526 46.3214 110.174 45.0945 108.398C44.201 107.105 42.8496 106.599 41.7635 106.192C40.9505 105.888 40.2488 105.625 39.8445 105.133C39.5559 104.782 39.5903 104.533 39.6416 104.376C39.7683 103.988 40.1917 103.641 40.6949 103.512C41.7745 103.235 43.2532 103.405 44.5569 103.951C45.3209 104.273 46.1997 103.912 46.5206 103.149C46.8413 102.385 46.4825 101.506 45.7186 101.185C44.8511 100.821 43.9323 100.584 43.0269 100.468V99.7521C43.0269 98.9237 42.3553 98.2521 41.5269 98.2521C40.6985 98.2521 40.0269 98.9237 40.0269 99.7521V100.59C40.0016 100.597 39.9743 100.6 39.9493 100.606C38.4471 100.992 37.2364 102.079 36.7904 103.444C36.3897 104.67 36.6578 105.98 37.5264 107.038C38.4427 108.153 39.6482 108.604 40.7117 109.002C41.5467 109.315 42.2681 109.585 42.6263 110.103C42.9676 110.598 43.0496 111.36 42.5442 111.859C42.1231 112.276 41.4023 112.508 40.6062 112.485C39.6467 112.462 38.6279 112.118 37.6421 111.786C36.8562 111.521 36.0059 111.943 35.7415 112.728C35.477 113.514 35.899 114.364 36.6841 114.629C37.6859 114.967 38.8114 115.328 40.0268 115.438V116.134C40.0268 116.962 40.6985 117.634 41.5268 117.634C42.3552 117.634 43.0269 116.962 43.0269 116.133Z" fill="#0A0A0A"/>
<path d="M26.468 86.2778C26.5105 86.2778 26.5537 86.2763 26.5969 86.2719L36.5125 85.4187C36.8641 85.3887 37.1944 85.2348 37.4441 84.9851L48.2437 74.1862C48.8296 73.6003 48.8296 72.651 48.2437 72.0651C47.6578 71.4792 46.7085 71.4792 46.1226 72.0651L35.7097 82.4772L28.2193 83.1218L29.1208 76.8024L33.2217 76.6398C33.6238 76.6245 34.0024 76.4479 34.2727 76.1499C34.543 75.8525 34.6829 75.4584 34.6602 75.0571L34.4705 71.6924L38.4088 71.4749C39.2305 71.4295 39.8626 70.73 39.8245 69.9075L39.6473 66.0777L43.6441 66.1371H43.6669C44.4425 66.1371 45.0922 65.5438 45.1603 64.7682L45.5895 59.8741L53.1459 52.3177C53.5905 51.8731 53.7106 51.1993 53.4476 50.6287C50.8051 44.9019 52.0267 38.0567 56.4879 33.5955C62.3839 27.6996 71.9771 27.6996 77.8732 33.5955C80.7296 36.452 82.3021 40.2496 82.3021 44.2889C82.3021 48.3275 80.7296 52.125 77.8732 54.9815C73.5021 59.3541 66.9923 60.6255 61.2926 58.2174C60.7301 57.9815 60.0805 58.1067 59.6483 58.5389L53.5758 64.6114C52.9899 65.1973 52.9899 66.1466 53.5758 66.7325C54.1617 67.3184 55.111 67.3184 55.6969 66.7325L61.0772 61.3528C67.672 63.7164 74.9969 62.1006 79.9942 57.1026C83.4176 53.6799 85.3021 49.1287 85.3021 44.2888C85.3021 39.4482 83.4175 34.8969 79.9942 31.4744C72.9293 24.408 61.4317 24.408 54.3668 31.4744C49.2714 36.5698 47.7025 44.2603 50.3085 50.9121L43.0824 58.1389C42.8326 58.3879 42.6796 58.7175 42.6488 59.0684L42.2936 63.1165L38.0976 63.0543C37.6823 63.0323 37.2861 63.2124 36.9982 63.5106C36.7104 63.8072 36.5581 64.21 36.5771 64.6239L36.7595 68.5614L32.8059 68.7796C32.4082 68.8016 32.0361 68.9811 31.7702 69.2777C31.5051 69.5743 31.3688 69.9639 31.3908 70.3617L31.579 73.703L27.7536 73.8546C27.03 73.8831 26.4301 74.4244 26.3283 75.1414L24.9835 84.5662C24.9184 85.0188 25.0641 85.4759 25.3783 85.8084C25.6624 86.1093 26.0572 86.2778 26.468 86.2778Z" fill="#0A0A0A"/>
<path d="M75.0645 44.7934C77.3775 42.4804 77.3775 38.7179 75.0645 36.4049C72.7515 34.0919 68.9883 34.0919 66.6754 36.4049C64.3631 38.7172 64.3624 42.4804 66.6754 44.794C67.796 45.9146 69.2858 46.5313 70.87 46.5313C72.4549 46.5314 73.9447 45.914 75.0645 44.7934ZM68.7965 42.673C67.6539 41.5297 67.6539 39.6694 68.7965 38.5261C69.3685 37.9548 70.1192 37.6684 70.8699 37.6684C71.6206 37.6684 72.3714 37.9547 72.9434 38.5261C74.0859 39.6694 74.0859 41.529 72.9434 42.6723C71.8353 43.7797 69.9032 43.7797 68.7965 42.673Z" fill="#0A0A0A"/>
<path d="M50.8455 71.3167C51.7216 71.3167 52.4318 70.6065 52.4318 69.7304C52.4318 68.8544 51.7216 68.1442 50.8455 68.1442C49.9695 68.1442 49.2593 68.8544 49.2593 69.7304C49.2593 70.6065 49.9695 71.3167 50.8455 71.3167Z" fill="#0A0A0A"/>
</svg>
