<svg width="29" height="25" viewBox="0 0 29 25" fill="none" xmlns="http://www.w3.org/2000/svg">
<g id="rent">
<g id="Group 9975">
<path id="Path 6561" d="M25.599 11.009H24.632L16.303 3.216C16.4609 2.90635 16.5428 2.56358 16.542 2.216C16.542 1.62828 16.3085 1.06464 15.8929 0.649055C15.4774 0.233475 14.9137 0 14.326 0C13.7383 0 13.1746 0.233475 12.7591 0.649055C12.3435 1.06464 12.11 1.62828 12.11 2.216C12.1091 2.56104 12.191 2.90125 12.349 3.208L4.01801 11.009H3.05099C2.2457 11.0126 1.47422 11.3331 0.90329 11.901C0.332363 12.4689 0.00787398 13.2387 0 14.044V21.817C0.00975622 22.6185 0.335952 23.3836 0.907471 23.9455C1.47899 24.5075 2.24948 24.8208 3.05099 24.817H25.598C25.9916 24.8178 26.3814 24.7407 26.745 24.59C27.1086 24.4394 27.4388 24.2182 27.7165 23.9393C27.9942 23.6604 28.2139 23.3293 28.363 22.965C28.5121 22.6007 28.5875 22.2106 28.585 21.817V14.045C28.5886 13.6495 28.5141 13.2572 28.3659 12.8905C28.2178 12.5238 27.9987 12.1899 27.7214 11.908C27.4441 11.626 27.1138 11.4015 26.7497 11.2472C26.3855 11.093 25.9945 11.012 25.599 11.009ZM12.911 3.921C13.3067 4.25496 13.8077 4.43816 14.3255 4.43816C14.8433 4.43816 15.3443 4.25496 15.74 3.921L23.318 11.009H5.33499L12.911 3.921ZM8.46301 20.885C8.3989 20.9703 8.31519 21.0389 8.21899 21.085C7.93042 21.1992 7.62105 21.2513 7.311 21.238C7.10888 21.2581 6.90482 21.2319 6.71426 21.1616C6.52371 21.0913 6.35163 20.9786 6.211 20.832C6.10164 20.6946 6.0155 20.5402 5.95599 20.375C5.85851 20.093 5.77639 19.8059 5.70999 19.515C5.67615 19.3231 5.59697 19.1421 5.479 18.987C5.42711 18.9336 5.36485 18.8913 5.29608 18.8628C5.22731 18.8343 5.15346 18.82 5.07901 18.821C4.97901 18.821 4.915 18.851 4.888 18.911C4.8505 19.0487 4.83632 19.1916 4.84601 19.334C4.83963 19.5955 4.86074 19.8569 4.909 20.114C4.91823 20.1594 4.93888 20.2018 4.96899 20.237C5.01343 20.2796 5.06398 20.3154 5.11899 20.343C5.18685 20.3718 5.2451 20.4194 5.2869 20.4802C5.32869 20.5409 5.35233 20.6123 5.35501 20.686C5.35501 20.86 5.24533 20.983 5.026 21.055C4.66129 21.1435 4.28595 21.1802 3.91101 21.164C2.93768 21.164 2.45133 20.98 2.452 20.612C2.44945 20.558 2.46454 20.5047 2.495 20.46C2.55359 20.3973 2.62097 20.3434 2.69501 20.3C2.79914 20.2357 2.88113 20.1412 2.92999 20.029C2.98213 19.8543 3.01041 19.6733 3.01401 19.491C3.02734 19.3043 3.034 18.6353 3.034 17.484C3.04456 17.234 3.02577 16.9836 2.978 16.738C2.96211 16.6757 2.93274 16.6176 2.89197 16.5678C2.85119 16.5181 2.8 16.4778 2.742 16.45C2.65571 16.4144 2.57672 16.3632 2.509 16.299C2.46816 16.2481 2.4472 16.1842 2.45001 16.119C2.45012 16.0711 2.4601 16.0237 2.47937 15.9798C2.49864 15.9359 2.52679 15.8965 2.56201 15.864C2.65143 15.7851 2.75951 15.7304 2.87601 15.705C3.02902 15.6717 3.18548 15.6569 3.34201 15.661C3.42801 15.661 3.642 15.675 3.992 15.701C4.058 15.706 4.16199 15.709 4.30399 15.709C4.53999 15.709 4.856 15.693 5.25 15.661C5.5 15.643 5.67499 15.634 5.77499 15.634C6.27342 15.6133 6.76497 15.7559 7.17499 16.04C7.3358 16.1553 7.46562 16.3086 7.55286 16.4862C7.64009 16.6638 7.68204 16.8602 7.67499 17.058C7.67755 17.2895 7.61782 17.5175 7.50201 17.718C7.39133 17.912 7.22473 18.0681 7.02399 18.166C6.93999 18.208 6.89801 18.258 6.89801 18.316C6.89801 18.392 6.962 18.454 7.091 18.501C7.33898 18.5796 7.55319 18.7396 7.69901 18.955C7.85433 19.2426 7.94831 19.5593 7.97501 19.885C7.97957 20.0043 8.01396 20.1205 8.07501 20.223C8.16487 20.2973 8.27169 20.3481 8.38599 20.371C8.43853 20.3883 8.4832 20.4238 8.51199 20.471C8.54574 20.522 8.56349 20.5819 8.56299 20.643C8.55797 20.7329 8.52276 20.8176 8.46301 20.885ZM14.018 20.309C13.9434 20.5305 13.8426 20.7423 13.718 20.94C13.6772 21.0068 13.6267 21.0672 13.568 21.119C13.5248 21.1511 13.4718 21.1674 13.418 21.165C13.3455 21.1621 13.2733 21.1541 13.202 21.141C12.9789 21.1038 12.7532 21.0841 12.527 21.082H9.18301C9.07192 21.0887 8.96184 21.0573 8.871 20.993C8.83405 20.9629 8.8048 20.9244 8.78568 20.8808C8.76655 20.8371 8.75807 20.7896 8.76099 20.742C8.7554 20.6831 8.7722 20.6242 8.80801 20.577C8.87258 20.5219 8.94591 20.4779 9.02499 20.447C9.09343 20.4202 9.15396 20.3765 9.20099 20.32C9.24582 20.2539 9.27585 20.1788 9.289 20.1C9.38744 19.5706 9.43101 19.0324 9.41901 18.494C9.46394 17.8476 9.40006 17.1982 9.23001 16.573C9.21101 16.5294 9.18102 16.4915 9.14301 16.463C9.07989 16.4294 9.01264 16.4042 8.94299 16.388C8.87564 16.3735 8.81581 16.3351 8.77448 16.28C8.73314 16.2249 8.71307 16.1567 8.71799 16.088C8.71724 16.0067 8.74365 15.9276 8.793 15.863C8.84278 15.7982 8.91346 15.7526 8.99301 15.734C9.19141 15.703 9.3923 15.6909 9.59299 15.698H11.618C12.028 15.698 12.328 15.69 12.518 15.672C12.7038 15.6565 12.8877 15.623 13.067 15.572C13.1094 15.5583 13.1535 15.5502 13.198 15.548C13.272 15.552 13.3439 15.5743 13.4073 15.6128C13.4706 15.6514 13.5235 15.7051 13.561 15.769C13.7386 16.0229 13.8297 16.3273 13.821 16.637C13.8283 16.7786 13.7901 16.9187 13.712 17.037C13.6784 17.0848 13.6333 17.1234 13.5809 17.1493C13.5285 17.1751 13.4704 17.1874 13.412 17.185C13.3413 17.1883 13.2714 17.1694 13.212 17.131C13.1351 17.0622 13.0693 16.9819 13.017 16.893C12.9156 16.7284 12.7606 16.6037 12.578 16.54C12.2925 16.4684 11.9981 16.4384 11.704 16.451C11.4013 16.451 11.2173 16.505 11.152 16.613C11.1139 16.6849 11.093 16.7647 11.091 16.846C11.084 16.946 11.081 17.192 11.081 17.591C11.081 17.749 11.107 17.847 11.16 17.885C11.2915 17.9369 11.4334 17.9564 11.574 17.942C11.6598 17.9495 11.7453 17.9249 11.814 17.873C11.8754 17.8054 11.9108 17.7182 11.914 17.627C11.9231 17.5208 11.9422 17.4157 11.971 17.313C11.9923 17.2542 12.0301 17.2028 12.08 17.165C12.1334 17.1184 12.2021 17.0931 12.273 17.094C12.3281 17.0952 12.3821 17.1098 12.4302 17.1366C12.4783 17.1635 12.5191 17.2017 12.549 17.248C12.6213 17.3709 12.6689 17.5068 12.689 17.648C12.7276 17.8473 12.7467 18.05 12.746 18.253C12.7592 18.6038 12.6932 18.9531 12.553 19.275C12.5275 19.3396 12.4829 19.395 12.4253 19.4337C12.3676 19.4725 12.2995 19.4928 12.23 19.492C12.1958 19.496 12.161 19.4919 12.1287 19.4799C12.0964 19.4679 12.0673 19.4484 12.044 19.423C11.9972 19.3346 11.9702 19.2369 11.965 19.137C11.9627 19.0726 11.947 19.0094 11.919 18.9513C11.891 18.8932 11.8513 18.8416 11.8023 18.7997C11.7534 18.7578 11.6963 18.7265 11.6346 18.7078C11.5729 18.6891 11.508 18.6834 11.444 18.691C11.3972 18.6857 11.3498 18.6935 11.3071 18.7134C11.2644 18.7334 11.228 18.7647 11.202 18.804C11.1485 18.9358 11.1263 19.0782 11.137 19.22C11.137 19.344 11.146 19.503 11.163 19.699C11.1702 19.8299 11.1879 19.96 11.216 20.088C11.2304 20.1305 11.2562 20.1681 11.2906 20.1969C11.325 20.2256 11.3667 20.2444 11.411 20.251C11.5908 20.2887 11.7745 20.3041 11.958 20.297C12.2626 20.3135 12.5671 20.2616 12.849 20.145C13.0687 20.0212 13.2408 19.8276 13.338 19.595C13.3856 19.4811 13.4533 19.3768 13.538 19.287C13.5749 19.2568 13.6175 19.2344 13.6634 19.2213C13.7092 19.2081 13.7572 19.2045 13.8045 19.2106C13.8518 19.2167 13.8973 19.2323 13.9384 19.2567C13.9794 19.281 14.015 19.3134 14.043 19.352C14.1182 19.457 14.1565 19.5839 14.152 19.713C14.1401 19.9176 14.0948 20.1189 14.018 20.309ZM20.495 16.491C20.4365 16.5126 20.3819 16.5433 20.333 16.582C20.2993 16.6151 20.2736 16.6554 20.258 16.7C20.1676 17.0204 20.1301 17.3535 20.147 17.686V18.972C20.147 19.172 20.147 19.438 20.147 19.78C20.1617 20.1155 20.1338 20.4515 20.064 20.78C19.993 21.035 19.864 21.163 19.678 21.163C19.6043 21.1652 19.5313 21.1472 19.467 21.111C19.3624 21.041 19.264 20.962 19.173 20.875L16.834 18.775C16.7282 18.6567 16.5848 18.5786 16.428 18.554C16.267 18.554 16.187 18.777 16.187 19.221C16.1765 19.4722 16.1969 19.7238 16.248 19.97C16.2661 20.035 16.2978 20.0954 16.3411 20.1471C16.3844 20.1988 16.4382 20.2407 16.499 20.27C16.675 20.3567 16.763 20.4697 16.763 20.609C16.763 20.975 16.37 21.158 15.584 21.158C15.3018 21.1712 15.0201 21.1235 14.758 21.018C14.6741 20.9891 14.6011 20.9354 14.5485 20.8639C14.496 20.7925 14.4665 20.7067 14.464 20.618C14.4589 20.547 14.4783 20.4764 14.519 20.418C14.5926 20.3458 14.6761 20.2845 14.767 20.236C14.8324 20.1931 14.8868 20.1355 14.9259 20.0678C14.9649 20 14.9876 19.9241 14.992 19.846C15.0442 19.3602 15.0666 18.8716 15.059 18.383C15.0754 17.8858 15.0359 17.3883 14.941 16.9C14.9217 16.8091 14.8843 16.7231 14.831 16.647C14.769 16.5799 14.6938 16.5264 14.61 16.49C14.5173 16.45 14.4334 16.3923 14.363 16.32C14.3165 16.2639 14.292 16.1928 14.294 16.12C14.294 15.868 14.511 15.709 14.945 15.643C15.2018 15.6166 15.4599 15.6059 15.718 15.611C15.873 15.6039 16.0282 15.6208 16.178 15.661C16.3046 15.713 16.4202 15.7883 16.519 15.883L18.483 17.603C18.59 17.7204 18.7291 17.8038 18.883 17.843C19.02 17.843 19.088 17.698 19.088 17.406C19.099 17.178 19.0791 16.9496 19.029 16.727C19.0091 16.6668 18.9768 16.6114 18.934 16.5646C18.8913 16.5177 18.8391 16.4804 18.781 16.455C18.6971 16.4195 18.6227 16.3647 18.564 16.295C18.5197 16.2312 18.4976 16.1546 18.501 16.077C18.501 15.855 18.652 15.714 18.954 15.65C19.1681 15.6182 19.3846 15.6052 19.601 15.611C19.8776 15.5991 20.1545 15.6229 20.425 15.682C20.667 15.756 20.788 15.8953 20.788 16.1C20.7864 16.188 20.7569 16.2731 20.7039 16.3434C20.651 16.4136 20.5771 16.4653 20.493 16.491H20.495ZM26.355 17.524C26.2456 17.6043 26.1126 17.6458 25.977 17.642C25.8464 17.6452 25.7186 17.6043 25.614 17.526C25.4898 17.4189 25.3879 17.2884 25.314 17.142C25.2595 17.0271 25.1906 16.9195 25.109 16.822C25.0856 16.7978 25.0574 16.7786 25.0263 16.7657C24.9951 16.7528 24.9617 16.7464 24.928 16.747C24.885 16.7444 24.8422 16.7546 24.805 16.7763C24.7678 16.798 24.7379 16.8303 24.719 16.869C24.6692 16.9962 24.6477 17.1327 24.656 17.269V19.478C24.6461 19.6451 24.6703 19.8125 24.727 19.97C24.7823 20.0807 24.8784 20.1657 24.995 20.207C25.1011 20.2463 25.1993 20.3042 25.285 20.378C25.3387 20.4399 25.3663 20.5202 25.362 20.602C25.362 20.791 25.233 20.931 24.977 21.023C24.5933 21.1321 24.1946 21.179 23.796 21.162C23.3066 21.1817 22.817 21.127 22.344 21C22.079 20.91 21.944 20.766 21.944 20.566C21.9427 20.5151 21.9552 20.4648 21.9802 20.4204C22.0052 20.376 22.0418 20.3393 22.086 20.314C22.1772 20.2749 22.2707 20.2415 22.366 20.214C22.4107 20.2036 22.4525 20.1832 22.4884 20.1545C22.5242 20.1258 22.5531 20.0894 22.573 20.048C22.626 19.8969 22.6573 19.7389 22.666 19.579C22.687 19.379 22.706 19.042 22.725 18.579C22.744 18.116 22.752 17.722 22.752 17.386C22.7605 17.2158 22.7419 17.0454 22.697 16.881C22.688 16.8393 22.6653 16.8019 22.6325 16.7747C22.5996 16.7474 22.5586 16.7321 22.516 16.731C22.416 16.731 22.316 16.805 22.216 16.952C22.0985 17.1502 21.9523 17.3298 21.782 17.485C21.6726 17.5779 21.5354 17.6321 21.392 17.639C21.3251 17.6404 21.2588 17.6266 21.198 17.5988C21.1372 17.5709 21.0835 17.5296 21.041 17.478C20.9461 17.3638 20.8969 17.2184 20.903 17.07C20.907 16.8855 20.9443 16.7033 21.013 16.532C21.0866 16.3379 21.1877 16.1554 21.313 15.99C21.3727 15.8429 21.4846 15.7229 21.6272 15.653C21.7698 15.5831 21.9331 15.5681 22.086 15.611C22.228 15.64 22.344 15.66 22.435 15.67C22.5393 15.6811 22.6441 15.6864 22.749 15.686H24.818C25.0249 15.6807 25.2305 15.6501 25.43 15.595C25.4977 15.5758 25.5676 15.5654 25.638 15.564C25.8507 15.564 26.058 15.7217 26.26 16.037C26.4524 16.3257 26.5566 16.6641 26.56 17.011C26.5705 17.107 26.5571 17.204 26.521 17.2935C26.4848 17.383 26.4271 17.4622 26.353 17.524H26.355Z" fill="#5C5A5A"/>
<path id="Path 6562" d="M5.13801 16.483C5.09887 16.4787 5.05926 16.4828 5.02183 16.495C4.9844 16.5073 4.95001 16.5274 4.921 16.554C4.87036 16.6279 4.84543 16.7165 4.85002 16.806L4.80601 17.725V17.761C4.79874 17.8269 4.8135 17.8934 4.848 17.95C4.87132 17.9689 4.89827 17.9828 4.92716 17.9909C4.95606 17.9989 4.98627 18.001 5.016 17.997C5.10732 18.005 5.19929 17.9931 5.28559 17.9622C5.37189 17.9313 5.45048 17.8821 5.516 17.818C5.63617 17.6519 5.6926 17.4482 5.675 17.244C5.67766 16.736 5.49868 16.4823 5.13801 16.483Z" fill="#5C5A5A"/>
</g>
</g>
</svg>
