<svg width="150" height="150" viewBox="0 0 150 150" fill="none" xmlns="http://www.w3.org/2000/svg">
<path d="M81.5916 108.824C102.954 108.824 120.272 91.5064 120.272 70.1438C120.272 48.7811 102.954 31.4633 81.5916 31.4633C60.229 31.4633 42.9111 48.7811 42.9111 70.1438C42.9111 91.5064 60.229 108.824 81.5916 108.824Z" fill="#7BD3FF"/>
<path d="M39.2922 48.1424C39.3299 48.2325 39.375 48.3222 39.4273 48.405C39.4874 48.4874 39.5475 48.5625 39.6148 48.6299C39.6899 48.6972 39.765 48.765 39.8474 48.8174C39.9298 48.8697 40.0122 48.9148 40.1023 48.9525C40.1923 48.9899 40.2898 49.0199 40.3872 49.0422C40.485 49.0572 40.5824 49.0722 40.6798 49.0722C40.7771 49.0722 40.875 49.0572 40.9723 49.0422C41.0698 49.0199 41.1598 48.9899 41.2499 48.9525C41.3396 48.9148 41.4297 48.8697 41.5121 48.8174C41.5949 48.765 41.6699 48.6972 41.7373 48.6299C41.8048 48.5625 41.8721 48.4874 41.9248 48.405C41.9772 48.3222 42.0223 48.2325 42.0596 48.1424C42.0973 48.0524 42.1273 47.9549 42.1497 47.8649C42.1647 47.7674 42.1797 47.67 42.1797 47.5723C42.1797 47.1749 42.0149 46.7849 41.7373 46.5074C41.67 46.44 41.5949 46.3799 41.5121 46.3199C41.4297 46.2675 41.3396 46.2224 41.2499 46.1847C41.1598 46.1474 41.0698 46.1174 40.9723 46.1023C40.7771 46.0572 40.5746 46.0572 40.3871 46.1023C40.2897 46.1173 40.1923 46.1474 40.1022 46.1847C40.0121 46.2224 39.9297 46.2675 39.8473 46.3199C39.7649 46.3799 39.6898 46.44 39.6148 46.5074C39.3372 46.7849 39.1797 47.1749 39.1797 47.5723C39.1797 47.6701 39.1874 47.7675 39.2097 47.8649C39.2248 47.9549 39.2548 48.0524 39.2922 48.1424Z" fill="#0A0A0A"/>
<path d="M126.052 52.9131L118.811 24.3838C118.667 23.8154 118.205 23.3833 117.628 23.2775L95.4923 19.2213C94.9518 19.1221 94.401 19.3268 94.0557 19.7534C93.7104 20.1804 93.6261 20.762 93.8356 21.2696L96.3083 27.2533L74.0561 23.5324C70.1087 22.8717 66.0896 23.3797 62.43 24.9998C60.0005 26.0753 57.8348 27.5907 55.9942 29.5023L43.0634 42.8844C42.4881 43.4802 42.5042 44.4298 43.1 45.0055C43.3912 45.2867 43.7669 45.4266 44.1422 45.4266C44.5344 45.4266 44.9267 45.2735 45.2211 44.9688L58.1539 31.5849C59.7253 29.9527 61.5725 28.6604 63.6445 27.7427C66.7653 26.3609 70.1945 25.9281 73.5611 26.4913L97.6586 30.5207L105.493 49.479C103.497 54.1868 100.4 57.4294 96.2757 59.1068C87.5508 62.6583 76.949 58.2084 76.8428 58.1627C76.4341 57.9887 75.9664 58.0034 75.5687 58.2059L54.1362 69.1634C52.4106 70.0456 50.3316 69.4732 49.2996 67.8322C48.3028 66.2458 48.647 64.1576 50.1002 62.9747L72.9616 44.3672C73.6039 43.8442 73.701 42.8994 73.178 42.2567C72.6547 41.6147 71.7103 41.518 71.0675 42.0402L56.6777 53.7526C54.773 53.3062 52.8317 53.2064 50.9279 53.4468L66.2266 40.8289C66.8657 40.3019 66.9564 39.3563 66.4295 38.7173C65.9021 38.0783 64.9569 37.9882 64.3179 38.5145L30.3621 66.5204C29.7989 66.9847 29.0199 67.1264 28.3286 66.8884C27.6324 66.6485 27.134 66.1007 26.9615 65.3843C26.7893 64.6684 26.9834 63.9539 27.494 63.4233L37.7907 52.7303C38.3657 52.1338 38.3477 51.1842 37.7508 50.6096C37.1539 50.0339 36.2039 50.0519 35.6301 50.6495L25.3333 61.3425C24.1157 62.6066 23.6341 64.3802 24.0449 66.0868C24.4562 67.7937 25.6922 69.1538 27.3522 69.7251C27.8891 69.9101 28.4479 70.0001 29.0045 70.0001C30.1801 70.0001 31.3454 69.5977 32.2708 68.8349L37.5367 64.4916C36.2714 68.1875 36.2352 72.3733 37.7324 76.3678C39.7073 81.6372 43.9092 85.4077 48.7916 86.9477C48.6368 88.9854 48.9101 91.0488 49.6489 93.0194C51.6107 98.2533 56.4959 101.853 62.0126 102.237L64.6848 109.366C64.8083 109.696 65.0444 109.972 65.3513 110.145L67.7822 111.519L66.5452 114.135C66.3683 114.509 66.354 114.94 66.5053 115.325C66.6566 115.71 66.9598 116.015 67.3439 116.169L69.8305 117.164L68.8535 119.671C68.7088 120.042 68.7176 120.455 68.8776 120.82C69.038 121.184 69.3365 121.47 69.7074 121.614L71.7688 122.415L70.7939 124.805C70.5207 125.476 70.765 126.246 71.3755 126.636L77.5293 130.568C77.7732 130.723 78.0541 130.803 78.3369 130.803C78.5006 130.803 78.6654 130.777 78.8239 130.722C79.2564 130.574 79.5977 130.236 79.7505 129.805L82.3037 122.61C82.4219 122.277 82.4186 121.913 82.2945 121.582L80.1764 115.931C79.8852 115.155 79.0214 114.76 78.2453 115.053C77.4697 115.344 77.0768 116.208 77.3675 116.984L79.2935 122.122L77.5544 127.023L74.0442 124.781L75.1231 122.136C75.2747 121.763 75.2707 121.346 75.1118 120.976C74.9529 120.607 74.6522 120.317 74.2775 120.171L72.1938 119.361L73.1654 116.868C73.4646 116.101 73.0896 115.237 72.3253 114.931L69.9391 113.976L71.0908 111.54C71.427 110.829 71.1571 109.98 70.4726 109.593L67.3023 107.802L64.4697 100.245C64.2503 99.659 63.6903 99.2711 63.0652 99.2711C63.0626 99.2711 63.0597 99.2711 63.0568 99.2711C58.3806 99.2759 54.1055 96.3616 52.4579 91.9664C51.9244 90.5429 51.6899 89.0576 51.7471 87.583C52.4095 87.6652 53.0763 87.7191 53.7481 87.7191C55.0621 87.7191 56.3867 87.5477 57.6979 87.2148C58.1833 87.8578 58.8061 88.3883 59.5598 88.7309C60.2073 89.0254 60.8955 89.173 61.5858 89.173C62.1662 89.173 62.7481 89.0686 63.3077 88.8588C65.8374 87.9107 67.1243 85.081 66.1762 82.5509C65.2277 80.0218 62.3988 78.7346 59.8689 79.6824C57.8735 80.4303 56.6565 82.3502 56.6948 84.3692C55.222 84.71 53.7331 84.783 52.2753 84.6205C52.4111 84.1952 52.564 83.7736 52.7516 83.3609C53.9957 80.6257 56.2303 78.5383 59.0442 77.4836C64.8556 75.3065 71.3504 78.2618 73.5278 84.0703C75.1424 88.3781 73.9981 93.1769 70.6124 96.2955C70.1635 96.7094 70.01 97.3539 70.2243 97.9255L74.0519 108.137C74.3419 108.912 75.2051 109.307 75.9829 109.015C76.7585 108.724 77.1515 107.86 76.8607 107.084L73.3739 97.7813C77.0921 93.8368 78.2614 88.1517 76.3366 83.0168C75.042 79.5631 72.5349 76.9205 69.4853 75.3582C69.5232 75.275 69.5551 75.188 69.5778 75.096C70.4069 71.734 70.2107 68.2223 69.0269 64.9199L76.3286 61.187C78.9642 62.1875 88.7343 65.4057 97.3894 61.8926C101.49 60.2288 104.719 57.302 107.022 53.1804L108.894 57.7101C109.131 58.2825 109.686 58.6377 110.28 58.6377C110.41 58.6377 110.541 58.6208 110.671 58.5857L124.988 54.7307C125.78 54.5174 126.254 53.7081 126.052 52.9131ZM66.6864 74.2737C63.9092 73.5233 60.8851 73.5896 57.9913 74.6741C54.427 76.01 51.5965 78.6537 50.0207 82.1188C49.7465 82.7218 49.5322 83.3402 49.3455 83.9641C45.4624 82.6256 42.1329 79.5608 40.5414 75.3149C37.7799 67.9453 41.2731 59.7986 48.3293 57.1538C49.992 56.5304 51.7464 56.2614 53.5044 56.3355L48.2062 60.6479C45.5797 62.7862 44.9576 66.5607 46.7597 69.4281C48.0337 71.4558 50.1922 72.5808 52.4271 72.5808C53.4624 72.5808 54.5142 72.3391 55.5018 71.8345L66.3273 66.3C67.1856 68.9031 67.3149 71.6432 66.6864 74.2737ZM111.164 55.3462L97.66 22.6685L116.14 26.0548L122.781 52.2184L111.164 55.3462Z" fill="#0A0A0A"/>
<path d="M112.809 30.7422C112.492 29.9772 111.616 29.6151 110.849 29.9311C110.084 30.2486 109.72 31.1261 110.038 31.8915L112.136 36.9518C112.375 37.5293 112.934 37.8776 113.522 37.8776C113.713 37.8776 113.908 37.8406 114.096 37.763C114.861 37.4455 115.224 36.568 114.907 35.8026L112.809 30.7422Z" fill="#0A0A0A"/>
<path d="M77.1254 113.668C77.9795 113.668 78.6719 112.975 78.6719 112.121C78.6719 111.267 77.9795 110.575 77.1254 110.575C76.2712 110.575 75.5789 111.267 75.5789 112.121C75.5789 112.975 76.2712 113.668 77.1254 113.668Z" fill="#0A0A0A"/>
</svg>
