<svg width="150" height="150" viewBox="0 0 150 150" fill="none" xmlns="http://www.w3.org/2000/svg">
<path d="M80.5958 100.726C101.958 100.726 119.276 83.4079 119.276 62.0452C119.276 40.6826 101.958 23.3647 80.5958 23.3647C59.2331 23.3647 41.9153 40.6826 41.9153 62.0452C41.9153 83.4079 59.2331 100.726 80.5958 100.726Z" fill="#7BD3FF"/>
<path d="M30.1421 64.1454C30.2395 64.1454 30.3376 64.138 30.435 64.1154C30.5325 64.1008 30.6225 64.0707 30.7126 64.0333C30.8019 63.996 30.8921 63.9505 30.9675 63.8986C31.0495 63.8385 31.1322 63.7784 31.1997 63.7111C31.267 63.6356 31.3352 63.5609 31.3872 63.4782C31.4399 63.3954 31.4846 63.3134 31.5227 63.2233C31.56 63.1333 31.59 63.0358 31.612 62.9458C31.6274 62.8483 31.642 62.7509 31.642 62.6455C31.642 62.2485 31.4772 61.8655 31.1997 61.5886C31.1323 61.5205 31.0575 61.4531 30.9748 61.4011C30.892 61.3484 30.8019 61.3029 30.7126 61.2655C30.6225 61.2282 30.5325 61.1982 30.435 61.1755C30.2395 61.1381 30.0373 61.1381 29.8498 61.1755C29.7524 61.1982 29.655 61.2282 29.5649 61.2655C29.4748 61.3029 29.3847 61.3484 29.31 61.4011C29.2272 61.4531 29.1445 61.5205 29.0772 61.5886C28.7996 61.8654 28.6421 62.2485 28.6421 62.6455C28.6421 63.0505 28.7922 63.4255 29.0772 63.7111C29.362 63.988 29.737 64.1454 30.1421 64.1454Z" fill="#0A0A0A"/>
<path d="M34.4033 59.8856C34.7871 59.8856 35.1709 59.7391 35.4639 59.4461L56.5195 38.3905C56.9809 37.9291 57.7324 37.9291 58.1938 38.3905L66.6673 46.8639C67.2532 47.4498 68.2024 47.4498 68.7883 46.8639C69.3742 46.278 69.3742 45.3287 68.7883 44.7428L60.3149 36.2694C58.6846 34.6376 56.0288 34.6376 54.3984 36.2694L33.3427 57.3251C32.7568 57.911 32.7568 58.8602 33.3427 59.4461C33.6358 59.7391 34.0195 59.8856 34.4033 59.8856Z" fill="#0A0A0A"/>
<path d="M54.0146 94.7372C53.1863 94.7372 52.5146 95.4088 52.5146 96.2372V99.6913C52.5146 100.52 53.1863 101.191 54.0146 101.191C54.843 101.191 55.5146 100.52 55.5146 99.6913V96.2372C55.5146 95.4088 54.843 94.7372 54.0146 94.7372Z" fill="#0A0A0A"/>
<path d="M37.0378 85.0092C36.2095 85.0092 35.5378 85.6808 35.5378 86.5092V97.5819C35.5378 98.4103 36.2095 99.0819 37.0378 99.0819C37.8662 99.0819 38.5378 98.4103 38.5378 97.5819V86.5092C38.5378 85.6808 37.8662 85.0092 37.0378 85.0092Z" fill="#0A0A0A"/>
<path d="M77.3855 99.0819C78.2139 99.0819 78.8855 98.4103 78.8855 97.5819V86.5092C78.8855 85.6808 78.2139 85.0092 77.3855 85.0092C76.5571 85.0092 75.8855 85.6808 75.8855 86.5092V97.5819C75.8855 98.4103 76.5571 99.0819 77.3855 99.0819Z" fill="#0A0A0A"/>
<path d="M98.3848 101.121C98.3321 101.038 98.2727 100.955 98.1973 100.888C97.8523 100.543 97.3352 100.378 96.8474 100.476C96.75 100.498 96.6599 100.528 96.5699 100.566C96.4724 100.603 96.3897 100.649 96.3077 100.701C96.2249 100.761 96.1502 100.821 96.0821 100.888C96.0074 100.955 95.9473 101.038 95.8946 101.121C95.8352 101.196 95.7899 101.286 95.7524 101.376C95.715 101.466 95.6851 101.563 95.6696 101.653C95.6477 101.751 95.6396 101.848 95.6396 101.946C95.6396 102.148 95.677 102.343 95.7524 102.523C95.8271 102.703 95.94 102.868 96.0821 103.01C96.2176 103.153 96.3824 103.258 96.5699 103.333C96.75 103.408 96.9375 103.446 97.1397 103.446C97.5447 103.446 97.9197 103.295 98.1974 103.01C98.3402 102.868 98.4522 102.703 98.5277 102.523C98.6024 102.343 98.6397 102.148 98.6397 101.946C98.6397 101.848 98.6324 101.751 98.6097 101.653C98.5951 101.563 98.565 101.466 98.5277 101.376C98.4895 101.286 98.4449 101.196 98.3848 101.121Z" fill="#0A0A0A"/>
<path d="M133.488 52.6075L122.61 41.7296C122.329 41.4483 121.948 41.2902 121.55 41.2902H74.1139C73.2855 41.2902 72.6139 41.9618 72.6139 42.7902V60.9444L60.315 48.6459C59.5247 47.8556 58.4744 47.4205 57.3568 47.4205C56.2391 47.4205 55.1888 47.8556 54.3985 48.6459L26.7019 76.3419L26.6993 76.3446L23.4868 79.557C23.0254 80.0184 22.2739 80.0184 21.8125 79.557L19.4197 77.1649C19.1962 76.9415 19.0732 76.6442 19.0732 76.327C19.0732 76.0106 19.1963 75.7132 19.4197 75.4899L26.8127 68.0976C27.3986 67.5117 27.3986 66.5624 26.8127 65.9765C26.2268 65.3906 25.2775 65.3906 24.6916 65.9765L17.2986 73.3688C16.5083 74.1591 16.0732 75.2094 16.0732 76.327C16.0732 77.4454 16.5083 78.4957 17.2986 79.286L19.6914 81.6781C20.5073 82.494 21.5781 82.902 22.6496 82.902C23.7211 82.9012 24.7927 82.494 25.6078 81.6781L26.2612 81.0248V111.956H18.4117C17.5833 111.956 16.9117 112.628 16.9117 113.456C16.9117 114.285 17.5833 114.956 18.4117 114.956H46.5946H68.1182H119.076C119.904 114.956 120.576 114.285 120.576 113.456C120.576 112.628 119.904 111.956 119.076 111.956H98.6404V107.104C98.6404 106.276 97.9688 105.604 97.1404 105.604C96.3121 105.604 95.6404 106.276 95.6404 107.104V111.956H88.4517V81.024L89.1058 81.6781C90.7361 83.31 93.3919 83.31 95.0223 81.6781L95.6404 81.0601V96.2372C95.6404 97.0656 96.3121 97.7372 97.1404 97.7372C97.9688 97.7372 98.6404 97.0656 98.6404 96.2372V66.0453H121.55C121.948 66.0453 122.329 65.8871 122.61 65.6058L133.488 54.7287C134.074 54.1427 134.074 53.1935 133.488 52.6075ZM48.0946 111.956V84.9205C48.0946 83.9764 48.8629 83.2081 49.807 83.2081H64.9066C65.8507 83.2081 66.6182 83.9764 66.6182 84.9205V111.956H48.0946ZM85.4517 111.956H69.6182V84.9205C69.6182 82.3219 67.5044 80.2081 64.9066 80.2081H49.807C47.2084 80.2081 45.0946 82.3219 45.0946 84.9205V111.956H29.261V78.0248L56.5195 50.7669C56.9663 50.3202 57.7471 50.3202 58.1938 50.7669L85.4517 78.024V111.956ZM95.6404 71.5945L93.4468 69.4005C92.8609 68.8146 91.9117 68.8146 91.3258 69.4005C90.7399 69.9858 90.7399 70.9357 91.3258 71.5216L95.2933 75.4906C95.5174 75.714 95.6404 76.0113 95.6404 76.327C95.6404 76.6434 95.5174 76.9408 95.2933 77.1649L92.9011 79.557C92.4397 80.0184 91.6882 80.0184 91.2268 79.557L77.7148 66.0453H95.6404V71.5945ZM120.929 63.0453H75.6139V44.2902H120.929L130.306 53.6681L120.929 63.0453Z" fill="#0A0A0A"/>
<path d="M108.044 48.3292H107.074C106.535 48.3292 106.252 48.6129 106.252 49.1505V52.6348V53.3171V54.7155L105.645 53.6745C105.578 53.5495 105.511 53.4276 105.446 53.3171L102.817 48.8817C102.593 48.4935 102.295 48.3293 101.832 48.3293H100.667C100.13 48.3293 99.8455 48.6129 99.8455 49.1505V58.1855C99.8455 58.7229 100.13 59.0064 100.667 59.0064H101.637C102.175 59.0064 102.459 58.7229 102.459 58.1855V55.1175V54.0341V52.6178L103.002 53.554C103.089 53.7227 103.178 53.888 103.265 54.0341L103.767 54.8731L105.908 58.4538C106.132 58.8425 106.431 59.0064 106.879 59.0064H108.044C108.582 59.0064 108.865 58.7229 108.865 58.1855V49.1505C108.865 48.6129 108.582 48.3292 108.044 48.3292Z" fill="#0A0A0A"/>
<path d="M88.5025 55.2734C88.2487 54.8253 88.0993 54.6309 88.0993 54.6309V54.6012C89.1595 54.0639 89.6967 52.824 89.6967 51.6891C89.6967 50.1363 88.9354 49.0461 87.7259 48.583C87.2633 48.4039 86.7405 48.3292 85.6506 48.3292H82.753C82.2157 48.3292 81.9321 48.6129 81.9321 49.1505V58.1854C81.9321 58.7229 82.2157 59.0063 82.753 59.0063H83.724C84.2613 59.0063 84.5456 58.7229 84.5456 58.1854V55.4075H85.7696L87.3525 58.424C87.5766 58.8272 87.8753 59.0063 88.3235 59.0063H89.4583C90.1008 59.0063 90.3546 58.5886 90.0261 58.0208L88.5025 55.2734ZM85.6803 53.1677H84.5454V51.2259L83.5869 50.5738H84.5454V50.5692H85.4265C85.4849 50.5692 85.5358 50.5722 85.5898 50.5738H85.6184L85.6179 50.5747C85.9515 50.5868 86.2104 50.6307 86.412 50.7186C86.9043 50.9125 87.0391 51.3157 87.0391 51.8537C87.0391 52.7049 86.5164 53.1677 85.6803 53.1677Z" fill="#0A0A0A"/>
<path d="M97.5634 56.7664H94.0988V54.7506H97.1678C97.7053 54.7506 97.9895 54.4672 97.9895 53.929V53.3322C97.9895 52.7942 97.7053 52.5106 97.1678 52.5106H94.0988V51.2215L93.1465 50.5736H94.0988V50.569H97.3546C97.8919 50.569 98.1755 50.2856 98.1755 49.7478V49.1503C98.1755 48.6127 97.8919 48.3291 97.3546 48.3291H92.3071C91.7698 48.3291 91.4856 48.6127 91.4856 49.1503V58.1853C91.4856 58.7227 91.7698 59.0062 92.3071 59.0062H97.5634C98.1007 59.0062 98.3849 58.7227 98.3849 58.1853V57.5878C98.3849 57.05 98.1007 56.7664 97.5634 56.7664Z" fill="#0A0A0A"/>
<path d="M118.255 48.3292H110.803C110.265 48.3292 109.981 48.6129 109.981 49.1505V49.7479C109.981 50.2857 110.265 50.5692 110.803 50.5692H113.222V58.1854C113.222 58.7229 113.506 59.0063 114.043 59.0063H115.014C115.552 59.0063 115.835 58.7229 115.835 58.1854V51.3219L114.735 50.5737H115.835V50.5691H118.255C118.792 50.5691 119.076 50.2857 119.076 49.7478V49.1504C119.076 48.6129 118.792 48.3292 118.255 48.3292Z" fill="#0A0A0A"/>
</svg>
