<svg width="150" height="150" viewBox="0 0 150 150" fill="none" xmlns="http://www.w3.org/2000/svg">
<path d="M69.6112 101.726C90.9738 101.726 108.292 84.4084 108.292 63.0457C108.292 41.6831 90.9738 24.3652 69.6112 24.3652C48.2485 24.3652 30.9307 41.6831 30.9307 63.0457C30.9307 84.4084 48.2485 101.726 69.6112 101.726Z" fill="#7BD3FF"/>
<path d="M38.7598 68.4826C38.8199 68.3998 38.8645 68.3097 38.9026 68.22C38.9399 68.1299 38.9699 68.0398 38.9846 67.9424C39.0074 67.845 39.0146 67.7472 39.0146 67.6498C39.0146 67.2525 38.8571 66.8698 38.5723 66.5849C38.2273 66.2399 37.7102 66.0825 37.2224 66.1799C37.125 66.1949 37.0349 66.225 36.9449 66.2623C36.8548 66.3001 36.7647 66.3451 36.6827 66.4051C36.5999 66.4575 36.5252 66.5176 36.4571 66.5849C36.3897 66.66 36.3223 66.7351 36.2696 66.8175C36.2176 66.8999 36.1649 66.9826 36.1274 67.0723C36.0901 67.1624 36.0674 67.2598 36.0446 67.3576C36.0227 67.4551 36.0146 67.5525 36.0146 67.6498C36.0146 67.7472 36.0227 67.8451 36.0446 67.9424C36.0674 68.0398 36.09 68.1299 36.1274 68.22C36.1648 68.3097 36.2175 68.3998 36.2696 68.4826C36.3223 68.565 36.3897 68.6401 36.4571 68.7074C36.5252 68.7825 36.5999 68.8426 36.6827 68.8949C36.7647 68.9473 36.8548 69 36.9449 69.0373C37.0349 69.0747 37.125 69.0974 37.2224 69.1198C37.3199 69.1425 37.4173 69.1498 37.5146 69.1498C37.9124 69.1498 38.2946 68.9923 38.5723 68.7074C38.6477 68.64 38.7071 68.5649 38.7598 68.4826Z" fill="#0A0A0A"/>
<path d="M54.0146 94.7369C53.1863 94.7369 52.5146 95.4086 52.5146 96.2369V99.6914C52.5146 100.52 53.1863 101.191 54.0146 101.191C54.843 101.191 55.5146 100.52 55.5146 99.6914V96.2369C55.5146 95.4086 54.843 94.7369 54.0146 94.7369Z" fill="#0A0A0A"/>
<path d="M35.5381 86.5093V97.5824C35.5381 98.4108 36.2097 99.0824 37.0381 99.0824C37.8665 99.0824 38.5381 98.4108 38.5381 97.5824V86.5093C38.5381 85.6809 37.8665 85.0093 37.0381 85.0093C36.2097 85.0093 35.5381 85.6809 35.5381 86.5093Z" fill="#0A0A0A"/>
<path d="M78.8857 97.5824V86.5093C78.8857 85.6809 78.2141 85.0093 77.3857 85.0093C76.5574 85.0093 75.8857 85.6809 75.8857 86.5093V97.5824C75.8857 98.4108 76.5574 99.0824 77.3857 99.0824C78.2141 99.0824 78.8857 98.4108 78.8857 97.5824Z" fill="#0A0A0A"/>
<path d="M97.9724 97.5824C97.8896 97.53 97.8076 97.4773 97.7102 97.4399C97.6201 97.4099 97.53 97.3799 97.4326 97.3575C96.9448 97.2597 96.427 97.4172 96.082 97.7699C95.7971 98.0474 95.6396 98.4298 95.6396 98.8275C95.6396 99.2249 95.7972 99.6075 96.082 99.8924C96.3596 100.17 96.7427 100.328 97.1397 100.328C97.2371 100.328 97.3352 100.32 97.4326 100.298C97.53 100.283 97.6201 100.252 97.7102 100.215C97.8076 100.177 97.8896 100.132 97.9724 100.072C98.0552 100.02 98.1299 99.9599 98.1972 99.8925C98.4822 99.6076 98.6396 99.2249 98.6396 98.8276C98.6396 98.4299 98.4821 98.0476 98.1972 97.7699C98.1298 97.6948 98.0551 97.6347 97.9724 97.5824Z" fill="#0A0A0A"/>
<path d="M133.488 52.6073L122.611 41.7298C122.329 41.4485 121.948 41.2903 121.55 41.2903H74.1139C73.2856 41.2903 72.6139 41.962 72.6139 42.7903V60.9444L60.3151 48.6456C59.5248 47.8553 58.4745 47.4202 57.3568 47.4202C56.2392 47.4202 55.1889 47.8553 54.3986 48.6456L40.0438 63.0004C39.4579 63.586 39.4579 64.5359 40.0438 65.1214C40.6297 65.7073 41.579 65.7073 42.1649 65.1214L56.5197 50.7667C56.9811 50.3053 57.7326 50.3053 58.194 50.7667L85.4518 78.0242V111.956H69.6183V84.9206C69.6183 82.3223 67.5045 80.2086 64.9066 80.2086H49.807C47.2084 80.2086 45.0946 82.3224 45.0946 84.9206V111.956H29.2611V78.0249L34.8692 72.4168C35.4551 71.8312 35.4551 70.8812 34.8692 70.2957C34.2833 69.7098 33.334 69.7098 32.7481 70.2957L26.7014 76.3423C26.7009 76.3429 26.7001 76.3437 26.6996 76.3443L23.4867 79.5572C23.0253 80.0186 22.2738 80.019 21.8124 79.5568L19.4196 77.1647C18.9582 76.7029 18.9582 75.9522 19.4196 75.4904L56.5197 38.3907C56.9811 37.9293 57.7326 37.9293 58.194 38.3907L66.6674 46.8637C67.2533 47.4496 68.2026 47.4496 68.7885 46.8637C69.3744 46.2781 69.3744 45.3282 68.7885 44.7427L60.3151 36.2695C58.6847 34.6377 56.029 34.6377 54.3985 36.2695L17.2985 73.3693C15.6674 75.0004 15.6674 77.6547 17.2985 79.2862L19.6913 81.6783C20.5065 82.4942 21.578 82.9018 22.6495 82.9018C23.7211 82.9018 24.7926 82.4941 25.6078 81.6783L26.2611 81.025V111.956H18.4117C17.5834 111.956 16.9117 112.628 16.9117 113.456C16.9117 114.285 17.5834 114.956 18.4117 114.956H46.5946H68.1183H119.076C119.904 114.956 120.576 114.285 120.576 113.456C120.576 112.628 119.904 111.956 119.076 111.956H98.6405V103.458C98.6405 102.63 97.9689 101.958 97.1405 101.958C96.3121 101.958 95.6405 102.63 95.6405 103.458V111.956H88.4518V81.0242L89.1058 81.6783C89.8961 82.4686 90.9464 82.9036 92.0641 82.9036C93.1817 82.9036 94.232 82.4686 95.0223 81.6783L95.6404 81.0601V93.7051C95.6404 94.5334 96.3121 95.2051 97.1404 95.2051C97.9688 95.2051 98.6404 94.5334 98.6404 93.7051V66.0454H121.55C121.948 66.0454 122.329 65.8872 122.61 65.6059L133.488 54.7284C134.074 54.1428 134.074 53.1928 133.488 52.6073ZM48.0946 111.956V84.9206C48.0946 83.9765 48.8629 83.2086 49.807 83.2086H64.9066C65.8507 83.2086 66.6183 83.9765 66.6183 84.9206V111.956H48.0946ZM95.6405 71.595L93.4469 69.4009C92.861 68.815 91.9117 68.8153 91.3258 69.4006C90.7399 69.9865 90.7399 70.9361 91.3258 71.522L95.2933 75.4906C95.5174 75.7144 95.6405 76.0114 95.6405 76.3274C95.6405 76.6435 95.5174 76.9405 95.2933 77.1646L92.9012 79.557C92.4544 80.0038 91.6737 80.0038 91.2269 79.557L77.715 66.0453H95.6404L95.6405 71.595ZM120.929 63.0454H75.6139V44.2903H120.929L130.306 53.6678L120.929 63.0454Z" fill="#0A0A0A"/>
<path d="M85.4673 50.7768C85.4673 50.3422 85.8244 50.0005 86.6782 50.0005C87.4077 50.0005 87.9198 50.2646 88.432 50.513C88.8672 50.7303 89.2865 50.8236 89.5967 50.2178L89.9692 49.4883C90.2019 49.038 90.1558 48.6499 89.7051 48.3238C89.1776 47.9514 87.9975 47.5011 86.709 47.5011C84.4577 47.5011 82.75 48.8517 82.75 50.9011C82.75 54.3786 87.6563 54.1302 87.6563 55.6981C87.6563 56.1328 87.2833 56.4744 86.4762 56.4744C85.5134 56.4744 84.8147 55.9776 84.4576 55.7915C83.9454 55.5119 83.5884 55.543 83.2782 55.993L82.7968 56.6917C82.3929 57.2661 82.6263 57.6077 82.952 57.8716C83.5423 58.3372 84.9237 58.9738 86.4762 58.9738C88.9756 58.9738 90.3731 57.3748 90.3731 55.512C90.3731 52.0033 85.4673 52.3915 85.4673 50.7768Z" fill="#0A0A0A"/>
<path d="M108.5 56.4588H104.82V48.5413C104.82 47.9826 104.525 47.6874 103.966 47.6874H102.957C102.398 47.6874 102.104 47.9826 102.104 48.5413V57.9338C102.104 58.4928 102.398 58.7877 102.957 58.7877H108.5C109.059 58.7877 109.353 58.4928 109.353 57.9338V57.3127C109.353 56.754 109.059 56.4588 108.5 56.4588Z" fill="#0A0A0A"/>
<path d="M116.788 56.4587H113.186V54.3629H115.717C116.276 54.3629 116.57 54.068 116.57 53.5091V52.8882C116.57 52.3292 116.276 52.0343 115.717 52.0343H113.186V50.8481L111.936 50.0161H113.186H115.734H116.57C117.129 50.0161 117.424 49.7209 117.424 49.1623V48.5411C117.424 47.9825 117.129 47.6873 116.57 47.6873H111.323C110.764 47.6873 110.469 47.9825 110.469 48.5411V57.9337C110.469 58.4927 110.764 58.7876 111.323 58.7876H116.788C117.347 58.7876 117.642 58.4927 117.642 57.9337V57.3125C117.642 56.7539 117.347 56.4587 116.788 56.4587Z" fill="#0A0A0A"/>
<path d="M97.6202 48.3861C97.4651 47.9047 97.1542 47.6874 96.6574 47.6874H95.2605C94.7637 47.6874 94.4529 47.9047 94.2978 48.3861L91.0844 57.8095C90.8825 58.3995 91.1619 58.7877 91.783 58.7877H92.8075C93.3043 58.7877 93.6151 58.5547 93.7542 58.0736L93.9609 57.3574L92.9449 56.4589H94.2202H95.5413H97.6824L98.1478 58.0736C98.3037 58.5547 98.6138 58.7877 99.1106 58.7877H100.135C100.756 58.7877 101.036 58.3996 100.834 57.8095L97.6202 48.3861ZM94.8567 54.2854L95.9619 50.5643L97.0458 54.2854H94.8567Z" fill="#0A0A0A"/>
</svg>
