<svg width="27" height="27" viewBox="0 0 27 27" fill="none" xmlns="http://www.w3.org/2000/svg">
<g id="Group 9969">
<g id="Group 9968">
<g id="Group 9967">
<path id="Path 6557" d="M13.014 0C10.4401 0 7.92392 0.763256 5.78378 2.19325C3.64364 3.62325 1.97557 5.65576 0.990569 8.03376C0.00556988 10.4118 -0.252058 13.0284 0.25009 15.5529C0.752238 18.0774 1.9917 20.3962 3.81174 22.2163C5.63178 24.0363 7.9506 25.2758 10.4751 25.7779C12.9995 26.2801 15.6162 26.0224 17.9942 25.0374C20.3722 24.0524 22.4047 22.3843 23.8347 20.2442C25.2647 18.1041 26.028 15.5879 26.028 13.014C26.028 9.56247 24.6569 6.25231 22.2163 3.81171C19.7757 1.37112 16.4655 0 13.014 0ZM21.146 14.916C20.6415 15.2772 20.0237 15.4441 19.406 15.386H14.571V21.046C14.6286 21.6625 14.4648 22.2793 14.109 22.786C13.9565 22.9575 13.768 23.0931 13.5569 23.183C13.3457 23.2729 13.1173 23.3149 12.888 23.306C12.6576 23.3144 12.4281 23.2722 12.2158 23.1823C12.0035 23.0925 11.8135 22.9572 11.659 22.786C11.2979 22.2816 11.1309 21.6637 11.1889 21.046V15.386H6.35495C5.73696 15.444 5.11881 15.2772 4.61398 14.916C4.44938 14.7563 4.31858 14.5652 4.22922 14.354C4.13985 14.1428 4.09372 13.9158 4.09372 13.6865C4.09372 13.4572 4.13985 13.2302 4.22922 13.019C4.31858 12.8078 4.44938 12.6167 4.61398 12.457C5.11902 12.0974 5.73868 11.9361 6.35495 12.004H11.1889V6.361C11.1336 5.74574 11.3004 5.13099 11.659 4.628C11.8177 4.46213 12.0082 4.32998 12.2192 4.23945C12.4302 4.14892 12.6572 4.10188 12.8868 4.10114C13.1164 4.10039 13.3437 4.14595 13.5553 4.23511C13.7668 4.32426 13.9582 4.45517 14.118 4.62C14.479 5.12491 14.6458 5.74302 14.588 6.361L14.571 12.004H19.406C20.0224 11.9463 20.6393 12.1101 21.146 12.466C21.3175 12.6185 21.453 12.807 21.5429 13.0182C21.6328 13.2293 21.6749 13.4577 21.666 13.687C21.6744 13.9174 21.6322 14.1468 21.5423 14.3592C21.4525 14.5715 21.3172 14.7616 21.146 14.916Z" fill="#5C5A5A"/>
</g>
</g>
</g>
</svg>
