<svg width="50" height="50" viewBox="0 0 50 50" fill="none" xmlns="http://www.w3.org/2000/svg">
<path id="Vector" fill-rule="evenodd" clip-rule="evenodd" d="M30.9688 27.9229C30.0225 28.3096 29.418 29.7911 28.8047 30.5479C28.4903 30.9356 28.1153 30.9962 27.6319 30.8018C24.0801 29.3868 21.3574 27.0167 19.3975 23.7481C19.0654 23.2413 19.125 22.8409 19.5254 22.3702C20.1172 21.6729 20.8613 20.8809 21.0215 19.9415C21.377 17.8633 18.6602 11.4171 15.0723 14.338C4.74806 22.751 32.2949 45.0645 37.2666 32.9962C38.6729 29.5753 32.5371 27.2803 30.9688 27.9229ZM25 45.6329C21.3487 45.6329 17.7559 44.6622 14.6104 42.8243C14.1055 42.5284 13.4951 42.4503 12.9307 42.6036L6.09572 44.4796L8.47658 39.2344C8.8008 38.5206 8.71779 37.6895 8.25978 37.0547C5.71291 33.5245 4.36623 29.3565 4.36623 25.0001C4.36623 13.6221 13.6221 4.36627 25 4.36627C36.3779 4.36627 45.6328 13.6221 45.6328 25.0001C45.6328 36.377 36.377 45.6329 25 45.6329ZM25 6.10352e-05C11.2149 6.10352e-05 1.72194e-05 11.2149 1.72194e-05 25.0001C1.72194e-05 29.8497 1.37697 34.5069 3.99318 38.5489L0.19533 46.9131C-0.155256 47.6856 -0.0273265 48.5899 0.521502 49.2335C0.943377 49.7266 1.55373 50.0001 2.18361 50.0001C3.59181 50.0001 11.2705 47.587 13.2246 47.0508C16.8369 48.9835 20.8887 50.0001 25 50.0001C38.7842 50.0001 50 38.7842 50 25.0001C50 11.2149 38.7842 6.10352e-05 25 6.10352e-05Z" fill="#39AE41"/>
</svg>
