<svg width="56" height="56" viewBox="0 0 56 56" fill="none" xmlns="http://www.w3.org/2000/svg">
<circle cx="28" cy="28" r="26.5" fill="white" stroke="#309DA0" stroke-width="3"/>
<path d="M24.5 33C24.7833 33 25.0208 32.9042 25.2125 32.7125C25.4042 32.5208 25.5 32.2833 25.5 32C25.5 31.7167 25.4042 31.4792 25.2125 31.2875C25.0208 31.0958 24.7833 31 24.5 31C24.2167 31 23.9792 31.0958 23.7875 31.2875C23.5958 31.4792 23.5 31.7167 23.5 32C23.5 32.2833 23.5958 32.5208 23.7875 32.7125C23.9792 32.9042 24.2167 33 24.5 33ZM24.5 29C24.7833 29 25.0208 28.9042 25.2125 28.7125C25.4042 28.5208 25.5 28.2833 25.5 28C25.5 27.7167 25.4042 27.4792 25.2125 27.2875C25.0208 27.0958 24.7833 27 24.5 27C24.2167 27 23.9792 27.0958 23.7875 27.2875C23.5958 27.4792 23.5 27.7167 23.5 28C23.5 28.2833 23.5958 28.5208 23.7875 28.7125C23.9792 28.9042 24.2167 29 24.5 29ZM24.5 25C24.7833 25 25.0208 24.9042 25.2125 24.7125C25.4042 24.5208 25.5 24.2833 25.5 24C25.5 23.7167 25.4042 23.4792 25.2125 23.2875C25.0208 23.0958 24.7833 23 24.5 23C24.2167 23 23.9792 23.0958 23.7875 23.2875C23.5958 23.4792 23.5 23.7167 23.5 24C23.5 24.2833 23.5958 24.5208 23.7875 24.7125C23.9792 24.9042 24.2167 25 24.5 25ZM27.5 33H33.5V31H27.5V33ZM27.5 29H33.5V27H27.5V29ZM27.5 25H33.5V23H27.5V25ZM21.5 37C20.95 37 20.4792 36.8042 20.0875 36.4125C19.6958 36.0208 19.5 35.55 19.5 35V21C19.5 20.45 19.6958 19.9792 20.0875 19.5875C20.4792 19.1958 20.95 19 21.5 19H35.5C36.05 19 36.5208 19.1958 36.9125 19.5875C37.3042 19.9792 37.5 20.45 37.5 21V35C37.5 35.55 37.3042 36.0208 36.9125 36.4125C36.5208 36.8042 36.05 37 35.5 37H21.5ZM21.5 35H35.5V21H21.5V35Z" fill="#309DA0"/>
</svg>
