<svg width="56" height="56" viewBox="0 0 56 56" fill="none" xmlns="http://www.w3.org/2000/svg">
<circle cx="28" cy="28" r="26.5" stroke="#309DA0" stroke-width="3"/>
<path d="M20 37V32.75L33.175 19.6C33.375 19.4 33.6 19.25 33.85 19.15C34.1 19.05 34.35 19 34.6 19C34.8667 19 35.1208 19.05 35.3625 19.15C35.6042 19.25 35.8167 19.4 36 19.6L37.4 21C37.6 21.1833 37.75 21.3958 37.85 21.6375C37.95 21.8792 38 22.1333 38 22.4C38 22.65 37.95 22.9 37.85 23.15C37.75 23.4 37.6 23.625 37.4 23.825L24.25 37H20ZM22 35H23.4L33.225 25.2L32.525 24.475L31.8 23.775L22 33.6V35ZM32.525 24.475L31.8 23.775L33.225 25.2L32.525 24.475ZM30 37C31.2333 37 32.375 36.6917 33.425 36.075C34.475 35.4583 35 34.6 35 33.5C35 32.9 34.8417 32.3833 34.525 31.95C34.2083 31.5167 33.7833 31.1417 33.25 30.825L31.775 32.3C32.1583 32.4667 32.4583 32.65 32.675 32.85C32.8917 33.05 33 33.2667 33 33.5C33 33.8833 32.6958 34.2292 32.0875 34.5375C31.4792 34.8458 30.7833 35 30 35C29.7167 35 29.4792 35.0958 29.2875 35.2875C29.0958 35.4792 29 35.7167 29 36C29 36.2833 29.0958 36.5208 29.2875 36.7125C29.4792 36.9042 29.7167 37 30 37ZM20.575 29.35L22.075 27.85C21.7417 27.7167 21.4792 27.5792 21.2875 27.4375C21.0958 27.2958 21 27.15 21 27C21 26.8 21.15 26.6 21.45 26.4C21.75 26.2 22.3833 25.8917 23.35 25.475C24.8167 24.8417 25.7917 24.2667 26.275 23.75C26.7583 23.2333 27 22.65 27 22C27 21.0833 26.6333 20.3542 25.9 19.8125C25.1667 19.2708 24.2 19 23 19C22.25 19 21.5792 19.1333 20.9875 19.4C20.3958 19.6667 19.9417 19.9917 19.625 20.375C19.4417 20.5917 19.3667 20.8333 19.4 21.1C19.4333 21.3667 19.5583 21.5833 19.775 21.75C19.9917 21.9333 20.2333 22.0083 20.5 21.975C20.7667 21.9417 20.9917 21.8333 21.175 21.65C21.4083 21.4167 21.6667 21.25 21.95 21.15C22.2333 21.05 22.5833 21 23 21C23.6833 21 24.1875 21.1 24.5125 21.3C24.8375 21.5 25 21.7333 25 22C25 22.2333 24.8542 22.4458 24.5625 22.6375C24.2708 22.8292 23.6 23.1667 22.55 23.65C21.2167 24.2333 20.2917 24.7625 19.775 25.2375C19.2583 25.7125 19 26.3 19 27C19 27.5333 19.1417 27.9875 19.425 28.3625C19.7083 28.7375 20.0917 29.0667 20.575 29.35Z" fill="#309DA0"/>
</svg>
