<svg width="56" height="56" viewBox="0 0 56 56" fill="none" xmlns="http://www.w3.org/2000/svg">
<circle cx="28" cy="28" r="26.5" fill="white" stroke="#309DA0" stroke-width="3"/>
<path d="M27.0252 37V34.85C26.1419 34.65 25.3794 34.2667 24.7377 33.7C24.096 33.1333 23.6252 32.3333 23.3252 31.3L25.1752 30.55C25.4252 31.35 25.796 31.9583 26.2877 32.375C26.7794 32.7917 27.4252 33 28.2252 33C28.9085 33 29.4877 32.8458 29.9627 32.5375C30.4377 32.2292 30.6752 31.75 30.6752 31.1C30.6752 30.5167 30.4919 30.0542 30.1252 29.7125C29.7585 29.3708 28.9085 28.9833 27.5752 28.55C26.1419 28.1 25.1585 27.5625 24.6252 26.9375C24.0919 26.3125 23.8252 25.55 23.8252 24.65C23.8252 23.5667 24.1752 22.725 24.8752 22.125C25.5752 21.525 26.2919 21.1833 27.0252 21.1V19H29.0252V21.1C29.8585 21.2333 30.546 21.5375 31.0877 22.0125C31.6294 22.4875 32.0252 23.0667 32.2752 23.75L30.4252 24.55C30.2252 24.0167 29.9419 23.6167 29.5752 23.35C29.2085 23.0833 28.7085 22.95 28.0752 22.95C27.3419 22.95 26.7835 23.1125 26.4002 23.4375C26.0169 23.7625 25.8252 24.1667 25.8252 24.65C25.8252 25.2 26.0752 25.6333 26.5752 25.95C27.0752 26.2667 27.9419 26.6 29.1752 26.95C30.3252 27.2833 31.196 27.8125 31.7877 28.5375C32.3794 29.2625 32.6752 30.1 32.6752 31.05C32.6752 32.2333 32.3252 33.1333 31.6252 33.75C30.9252 34.3667 30.0585 34.75 29.0252 34.9V37H27.0252Z" fill="#309DA0"/>
</svg>
