<svg width="377" height="354" viewBox="0 0 377 354" fill="none" xmlns="http://www.w3.org/2000/svg">
<path d="M209.042 8.92134C158.004 18.9742 131.949 76.761 49.7597 128.182C-32.4298 179.604 -14.3346 380.394 115.47 347.647C239.304 316.404 245.036 318.871 326.138 321.757C427.65 325.366 370.554 -22.8882 209.042 8.92134Z" fill="#EAF4F5"/>
<path d="M70.6245 93.6345C94.5778 74.5786 114.526 41.3212 103.183 9.27965C91.8398 -22.7635 68.4197 36.8805 49.5737 56.7484C22.3039 85.4972 20.4944 133.514 70.6245 93.6345Z" fill="#EAF4F5"/>
<path d="M365.487 351.235H11.3184V353.7H365.487V351.235Z" fill="#D8EEF0"/>
<path d="M201.811 313.898H320.616C325.054 313.898 328.652 317.495 328.652 321.931V338.08C328.652 342.516 325.054 346.113 320.616 346.113H201.811C197.371 346.113 193.773 342.516 193.773 338.08V321.931C193.773 317.495 197.371 313.898 201.811 313.898Z" fill="#78A8B3"/>
<path d="M249.965 313.898H368.768C373.207 313.898 376.805 317.495 376.805 321.931V338.08C376.805 342.516 373.207 346.113 368.768 346.113H249.965C245.526 346.113 241.928 342.516 241.928 338.08V321.931C241.928 317.495 245.525 313.898 249.965 313.898Z" fill="#D8EEF0"/>
<path d="M255.66 331.272H333.119C334.141 331.272 334.969 332.101 334.969 333.123C334.969 334.145 334.141 334.973 333.119 334.973H255.66C254.637 334.973 253.809 334.145 253.809 333.123C253.809 332.101 254.637 331.272 255.66 331.272Z" fill="#78A8B3"/>
<path d="M255.66 331.272H324.856C325.878 331.272 326.708 332.101 326.708 333.123C326.708 334.145 325.878 334.973 324.856 334.973H255.66C254.637 334.973 253.809 334.145 253.809 333.123C253.809 332.101 254.637 331.272 255.66 331.272Z" fill="#FF586A"/>
<path d="M255.66 324.192H333.119C334.141 324.192 334.969 325.021 334.969 326.043C334.969 327.065 334.141 327.893 333.119 327.893H255.66C254.637 327.893 253.809 327.065 253.809 326.043C253.809 325.021 254.637 324.192 255.66 324.192Z" fill="#78A8B3"/>
<path d="M255.66 324.192H314.365C315.388 324.192 316.216 325.021 316.216 326.043C316.216 327.065 315.388 327.893 314.365 327.893H255.66C254.637 327.893 253.809 327.065 253.809 326.043C253.809 325.021 254.637 324.192 255.66 324.192Z" fill="white"/>
<path d="M274.094 339.625H321.389C323.849 339.625 325.844 341.618 325.844 344.077V346.114H269.639V344.077C269.639 341.618 271.632 339.625 274.094 339.625Z" fill="#87B8C7"/>
<path d="M208.139 339.625H227.784C230.244 339.625 232.239 341.618 232.239 344.077V346.114H203.686V344.077C203.686 341.618 205.679 339.625 208.139 339.625Z" fill="#87B8C7"/>
<path d="M364.925 326.89C366.646 326.89 368.042 328.285 368.042 330.006C368.042 331.728 366.646 333.123 364.925 333.123C363.202 333.123 361.807 331.728 361.807 330.006C361.807 328.285 363.202 326.89 364.925 326.89Z" fill="#FBFBFB"/>
<path d="M361.281 330.006C361.281 332.014 362.916 333.649 364.926 333.649C366.935 333.649 368.57 332.014 368.57 330.006C368.57 327.998 366.935 326.364 364.926 326.364C362.916 326.364 361.281 327.998 361.281 330.006ZM362.333 330.006C362.333 328.578 363.496 327.415 364.926 327.415C366.354 327.415 367.517 328.578 367.517 330.006C367.517 331.435 366.354 332.598 364.926 332.598C363.496 332.598 362.333 331.435 362.333 330.006Z" fill="#87B8C7"/>
<path d="M353.695 326.89C355.416 326.89 356.812 328.285 356.812 330.006C356.812 331.728 355.416 333.123 353.695 333.123C351.972 333.123 350.576 331.728 350.576 330.006C350.576 328.285 351.972 326.89 353.695 326.89Z" fill="#78A8B3"/>
<path d="M350.051 330.006C350.051 332.014 351.686 333.649 353.695 333.649C355.705 333.649 357.338 332.014 357.338 330.006C357.338 327.998 355.705 326.364 353.695 326.364C351.686 326.364 350.051 327.998 350.051 330.006ZM351.102 330.006C351.102 328.578 352.265 327.415 353.695 327.415C355.123 327.415 356.286 328.578 356.286 330.006C356.286 331.435 355.123 332.598 353.695 332.598C352.265 332.598 351.102 331.435 351.102 330.006Z" fill="#87B8C7"/>
<path d="M350.578 328.954H344.002V331.058H350.578V328.954Z" fill="#87B8C7"/>
<path d="M203.798 322.973C204.94 322.973 205.864 323.897 205.864 325.038C205.864 326.179 204.94 327.103 203.798 327.103C202.659 327.103 201.734 326.178 201.734 325.038C201.734 323.897 202.659 322.973 203.798 322.973Z" fill="#87B8C7"/>
<path d="M203.798 330.446C204.94 330.446 205.864 331.37 205.864 332.511C205.864 333.652 204.94 334.576 203.798 334.576C202.659 334.576 201.734 333.652 201.734 332.511C201.734 331.37 202.659 330.446 203.798 330.446Z" fill="#87B8C7"/>
<path d="M213.241 322.973C214.383 322.973 215.307 323.897 215.307 325.038C215.307 326.179 214.383 327.103 213.241 327.103C212.101 327.103 211.176 326.178 211.176 325.038C211.176 323.897 212.101 322.973 213.241 322.973Z" fill="#87B8C7"/>
<path d="M213.241 330.446C214.383 330.446 215.307 331.37 215.307 332.511C215.307 333.652 214.383 334.576 213.241 334.576C212.101 334.576 211.176 333.652 211.176 332.511C211.176 331.37 212.101 330.446 213.241 330.446Z" fill="#87B8C7"/>
<path d="M222.683 322.973C223.824 322.973 224.749 323.897 224.749 325.038C224.749 326.179 223.824 327.103 222.683 327.103C221.542 327.103 220.617 326.178 220.617 325.038C220.617 323.897 221.543 322.973 222.683 322.973Z" fill="#87B8C7"/>
<path d="M224.606 333.3C225.043 332.246 224.542 331.038 223.488 330.602C222.434 330.165 221.225 330.665 220.789 331.719C220.352 332.773 220.853 333.981 221.907 334.417C222.961 334.854 224.17 334.354 224.606 333.3Z" fill="#87B8C7"/>
<path d="M232.126 322.973C233.267 322.973 234.192 323.897 234.192 325.038C234.192 326.179 233.267 327.103 232.126 327.103C230.985 327.103 230.061 326.178 230.061 325.038C230.061 323.897 230.985 322.973 232.126 322.973Z" fill="#87B8C7"/>
<path d="M232.126 330.446C233.267 330.446 234.192 331.37 234.192 332.511C234.192 333.652 233.267 334.576 232.126 334.576C230.985 334.576 230.061 333.652 230.061 332.511C230.061 331.37 230.985 330.446 232.126 330.446Z" fill="#87B8C7"/>
<path d="M361.807 346.114H206.912V351.199H361.807V346.114Z" fill="#87B8C7"/>
<path d="M201.811 276.597H320.616C325.054 276.597 328.652 280.195 328.652 284.631V300.779C328.652 305.216 325.054 308.813 320.616 308.813H201.811C197.371 308.813 193.773 305.216 193.773 300.779V284.631C193.773 280.195 197.371 276.597 201.811 276.597Z" fill="#78A8B3"/>
<path d="M249.965 276.597H368.768C373.207 276.597 376.805 280.195 376.805 284.631V300.779C376.805 305.216 373.207 308.813 368.768 308.813H249.965C245.526 308.813 241.928 305.216 241.928 300.779V284.631C241.928 280.195 245.525 276.597 249.965 276.597Z" fill="#D8EEF0"/>
<path d="M255.66 293.972H333.119C334.141 293.972 334.969 294.8 334.969 295.822C334.969 296.844 334.141 297.673 333.119 297.673H255.66C254.637 297.673 253.809 296.844 253.809 295.822C253.809 294.8 254.637 293.972 255.66 293.972Z" fill="#78A8B3"/>
<path d="M255.66 293.972H324.856C325.878 293.972 326.708 294.8 326.708 295.822C326.708 296.844 325.878 297.673 324.856 297.673H255.66C254.637 297.673 253.809 296.844 253.809 295.822C253.809 294.8 254.637 293.972 255.66 293.972Z" fill="#FF586A"/>
<path d="M255.66 286.892H333.119C334.141 286.892 334.969 287.72 334.969 288.742C334.969 289.764 334.141 290.592 333.119 290.592H255.66C254.637 290.592 253.809 289.764 253.809 288.742C253.809 287.72 254.637 286.892 255.66 286.892Z" fill="#78A8B3"/>
<path d="M255.66 286.892H314.365C315.388 286.892 316.216 287.72 316.216 288.742C316.216 289.764 315.388 290.592 314.365 290.592H255.66C254.637 290.592 253.809 289.764 253.809 288.742C253.809 287.72 254.637 286.892 255.66 286.892Z" fill="white"/>
<path d="M274.094 302.324H321.389C323.849 302.324 325.844 304.317 325.844 306.777V308.813H269.639V306.777C269.639 304.317 271.632 302.324 274.094 302.324Z" fill="#87B8C7"/>
<path d="M208.139 302.324H227.784C230.244 302.324 232.239 304.317 232.239 306.777V308.813H203.686V306.777C203.686 304.317 205.679 302.324 208.139 302.324Z" fill="#87B8C7"/>
<path d="M364.925 289.588C366.646 289.588 368.042 290.984 368.042 292.704C368.042 294.427 366.646 295.822 364.925 295.822C363.202 295.822 361.807 294.427 361.807 292.704C361.807 290.984 363.202 289.588 364.925 289.588Z" fill="#FBFBFB"/>
<path d="M361.281 292.704C361.281 294.714 362.916 296.348 364.926 296.348C366.935 296.348 368.57 294.714 368.57 292.704C368.57 290.697 366.935 289.062 364.926 289.062C362.916 289.062 361.281 290.697 361.281 292.704ZM362.333 292.704C362.333 291.277 363.496 290.113 364.926 290.113C366.354 290.113 367.517 291.277 367.517 292.704C367.517 294.133 366.354 295.297 364.926 295.297C363.496 295.297 362.333 294.133 362.333 292.704Z" fill="#87B8C7"/>
<path d="M353.695 289.588C355.416 289.588 356.812 290.984 356.812 292.704C356.812 294.427 355.416 295.822 353.695 295.822C351.972 295.822 350.576 294.427 350.576 292.704C350.576 290.984 351.972 289.588 353.695 289.588Z" fill="#78A8B3"/>
<path d="M350.051 292.704C350.051 294.714 351.686 296.348 353.695 296.348C355.705 296.348 357.338 294.714 357.338 292.704C357.338 290.697 355.705 289.062 353.695 289.062C351.686 289.062 350.051 290.697 350.051 292.704ZM351.102 292.704C351.102 291.277 352.265 290.113 353.695 290.113C355.123 290.113 356.286 291.277 356.286 292.704C356.286 294.133 355.123 295.297 353.695 295.297C352.265 295.297 351.102 294.133 351.102 292.704Z" fill="#87B8C7"/>
<path d="M350.578 291.653H344.002V293.757H350.578V291.653Z" fill="#87B8C7"/>
<path d="M203.798 285.672C204.94 285.672 205.864 286.597 205.864 287.737C205.864 288.878 204.94 289.803 203.798 289.803C202.659 289.803 201.734 288.878 201.734 287.737C201.734 286.597 202.659 285.672 203.798 285.672Z" fill="#87B8C7"/>
<path d="M203.798 293.145C204.94 293.145 205.864 294.071 205.864 295.21C205.864 296.35 204.94 297.275 203.798 297.275C202.659 297.275 201.734 296.35 201.734 295.21C201.734 294.071 202.659 293.145 203.798 293.145Z" fill="#87B8C7"/>
<path d="M213.241 285.672C214.383 285.672 215.307 286.597 215.307 287.737C215.307 288.878 214.383 289.803 213.241 289.803C212.101 289.803 211.176 288.878 211.176 287.737C211.176 286.597 212.101 285.672 213.241 285.672Z" fill="#87B8C7"/>
<path d="M213.241 293.145C214.383 293.145 215.307 294.071 215.307 295.21C215.307 296.35 214.383 297.275 213.241 297.275C212.101 297.275 211.176 296.35 211.176 295.21C211.176 294.071 212.101 293.145 213.241 293.145Z" fill="#87B8C7"/>
<path d="M222.683 285.672C223.824 285.672 224.749 286.597 224.749 287.737C224.749 288.878 223.824 289.803 222.683 289.803C221.542 289.803 220.617 288.878 220.617 287.737C220.617 286.597 221.543 285.672 222.683 285.672Z" fill="#87B8C7"/>
<path d="M222.683 293.145C223.824 293.145 224.749 294.071 224.749 295.21C224.749 296.35 223.824 297.275 222.683 297.275C221.542 297.275 220.617 296.35 220.617 295.21C220.617 294.071 221.543 293.145 222.683 293.145Z" fill="#87B8C7"/>
<path d="M232.126 285.672C233.267 285.672 234.192 286.597 234.192 287.737C234.192 288.878 233.267 289.803 232.126 289.803C230.985 289.803 230.061 288.878 230.061 287.737C230.061 286.597 230.985 285.672 232.126 285.672Z" fill="#87B8C7"/>
<path d="M232.126 293.145C233.267 293.145 234.192 294.071 234.192 295.21C234.192 296.35 233.267 297.275 232.126 297.275C230.985 297.275 230.061 296.35 230.061 295.21C230.061 294.071 230.985 293.145 232.126 293.145Z" fill="#87B8C7"/>
<path d="M361.807 308.813H206.912V313.898H361.807V308.813Z" fill="#87B8C7"/>
<path d="M201.811 239.296H320.616C325.054 239.296 328.652 242.893 328.652 247.33V263.478C328.652 267.915 325.054 271.511 320.616 271.511H201.811C197.371 271.511 193.773 267.915 193.773 263.478V247.33C193.773 242.893 197.371 239.296 201.811 239.296Z" fill="#78A8B3"/>
<path d="M249.965 239.296H368.768C373.207 239.296 376.805 242.893 376.805 247.33V263.478C376.805 267.915 373.207 271.511 368.768 271.511H249.965C245.526 271.511 241.928 267.915 241.928 263.478V247.33C241.928 242.893 245.525 239.296 249.965 239.296Z" fill="#D8EEF0"/>
<path d="M255.66 256.671H333.119C334.141 256.671 334.969 257.5 334.969 258.522C334.969 259.544 334.141 260.372 333.119 260.372H255.66C254.637 260.372 253.809 259.544 253.809 258.522C253.809 257.5 254.637 256.671 255.66 256.671Z" fill="#78A8B3"/>
<path d="M255.66 256.671H324.856C325.878 256.671 326.708 257.5 326.708 258.522C326.708 259.544 325.878 260.372 324.856 260.372H255.66C254.637 260.372 253.809 259.544 253.809 258.522C253.809 257.5 254.637 256.671 255.66 256.671Z" fill="#FF586A"/>
<path d="M255.66 249.591H333.119C334.141 249.591 334.969 250.419 334.969 251.441C334.969 252.464 334.141 253.292 333.119 253.292H255.66C254.637 253.292 253.809 252.464 253.809 251.441C253.809 250.419 254.637 249.591 255.66 249.591Z" fill="#78A8B3"/>
<path d="M255.66 249.591H314.365C315.388 249.591 316.216 250.419 316.216 251.441C316.216 252.464 315.388 253.292 314.365 253.292H255.66C254.637 253.292 253.809 252.464 253.809 251.441C253.809 250.419 254.637 249.591 255.66 249.591Z" fill="white"/>
<path d="M274.094 265.023H321.389C323.849 265.023 325.844 267.016 325.844 269.475V271.512H269.639V269.475C269.639 267.016 271.632 265.023 274.094 265.023Z" fill="#87B8C7"/>
<path d="M208.139 265.023H227.784C230.244 265.023 232.239 267.016 232.239 269.475V271.512H203.686V269.475C203.686 267.016 205.679 265.023 208.139 265.023Z" fill="#87B8C7"/>
<path d="M364.925 252.288C366.646 252.288 368.042 253.682 368.042 255.404C368.042 257.126 366.646 258.521 364.925 258.521C363.202 258.521 361.807 257.126 361.807 255.404C361.807 253.682 363.202 252.288 364.925 252.288Z" fill="#FBFBFB"/>
<path d="M361.281 255.403C361.281 257.413 362.916 259.047 364.926 259.047C366.935 259.047 368.57 257.413 368.57 255.403C368.57 253.396 366.935 251.761 364.926 251.761C362.916 251.762 361.281 253.396 361.281 255.403ZM362.333 255.403C362.333 253.976 363.496 252.814 364.926 252.814C366.354 252.814 367.517 253.976 367.517 255.403C367.517 256.833 366.354 257.996 364.926 257.996C363.496 257.996 362.333 256.833 362.333 255.403Z" fill="#87B8C7"/>
<path d="M353.695 252.288C355.416 252.288 356.812 253.682 356.812 255.404C356.812 257.126 355.416 258.521 353.695 258.521C351.972 258.521 350.576 257.126 350.576 255.404C350.576 253.682 351.972 252.288 353.695 252.288Z" fill="#78A8B3"/>
<path d="M350.051 255.403C350.051 257.413 351.686 259.047 353.695 259.047C355.705 259.047 357.338 257.413 357.338 255.403C357.338 253.396 355.705 251.761 353.695 251.761C351.686 251.762 350.051 253.396 350.051 255.403ZM351.102 255.403C351.102 253.976 352.265 252.814 353.695 252.814C355.123 252.814 356.286 253.976 356.286 255.403C356.286 256.833 355.123 257.996 353.695 257.996C352.265 257.996 351.102 256.833 351.102 255.403Z" fill="#87B8C7"/>
<path d="M350.578 254.353H344.002V256.456H350.578V254.353Z" fill="#87B8C7"/>
<path d="M203.798 248.371C204.94 248.371 205.864 249.296 205.864 250.437C205.864 251.578 204.94 252.502 203.798 252.502C202.659 252.502 201.734 251.578 201.734 250.437C201.734 249.296 202.659 248.371 203.798 248.371Z" fill="#87B8C7"/>
<path d="M203.798 255.844C204.94 255.844 205.864 256.769 205.864 257.91C205.864 259.051 204.94 259.975 203.798 259.975C202.659 259.975 201.734 259.05 201.734 257.91C201.734 256.768 202.659 255.844 203.798 255.844Z" fill="#87B8C7"/>
<path d="M213.241 248.371C214.383 248.371 215.307 249.296 215.307 250.437C215.307 251.578 214.383 252.502 213.241 252.502C212.101 252.502 211.176 251.578 211.176 250.437C211.176 249.296 212.101 248.371 213.241 248.371Z" fill="#87B8C7"/>
<path d="M213.241 255.844C214.383 255.844 215.307 256.769 215.307 257.91C215.307 259.051 214.383 259.975 213.241 259.975C212.101 259.975 211.176 259.05 211.176 257.91C211.176 256.768 212.101 255.844 213.241 255.844Z" fill="#87B8C7"/>
<path d="M222.683 248.371C223.824 248.371 224.749 249.296 224.749 250.437C224.749 251.578 223.824 252.502 222.683 252.502C221.542 252.502 220.617 251.578 220.617 250.437C220.617 249.296 221.543 248.371 222.683 248.371Z" fill="#87B8C7"/>
<path d="M222.683 255.844C223.824 255.844 224.749 256.769 224.749 257.91C224.749 259.051 223.824 259.975 222.683 259.975C221.542 259.975 220.617 259.05 220.617 257.91C220.617 256.768 221.543 255.844 222.683 255.844Z" fill="#87B8C7"/>
<path d="M232.126 248.371C233.267 248.371 234.192 249.296 234.192 250.437C234.192 251.578 233.267 252.502 232.126 252.502C230.985 252.502 230.061 251.578 230.061 250.437C230.061 249.296 230.985 248.371 232.126 248.371Z" fill="#87B8C7"/>
<path d="M232.126 255.844C233.267 255.844 234.192 256.769 234.192 257.91C234.192 259.051 233.267 259.975 232.126 259.975C230.985 259.975 230.061 259.05 230.061 257.91C230.061 256.768 230.985 255.844 232.126 255.844Z" fill="#87B8C7"/>
<path d="M361.807 271.512H206.912V276.597H361.807V271.512Z" fill="#87B8C7"/>
<path d="M201.811 201.996H320.616C325.054 201.996 328.652 205.593 328.652 210.029V226.178C328.652 230.614 325.054 234.211 320.616 234.211H201.811C197.371 234.211 193.773 230.614 193.773 226.178V210.029C193.773 205.593 197.371 201.996 201.811 201.996Z" fill="#78A8B3"/>
<path d="M249.965 201.996H368.768C373.207 201.996 376.805 205.593 376.805 210.029V226.178C376.805 230.614 373.207 234.211 368.768 234.211H249.965C245.526 234.211 241.928 230.614 241.928 226.178V210.029C241.928 205.593 245.525 201.996 249.965 201.996Z" fill="#D8EEF0"/>
<path d="M255.66 219.37H333.119C334.141 219.37 334.969 220.199 334.969 221.221C334.969 222.243 334.141 223.071 333.119 223.071H255.66C254.637 223.071 253.809 222.243 253.809 221.221C253.809 220.199 254.637 219.37 255.66 219.37Z" fill="#78A8B3"/>
<path d="M255.66 219.37H324.856C325.878 219.37 326.708 220.199 326.708 221.221C326.708 222.243 325.878 223.071 324.856 223.071H255.66C254.637 223.071 253.809 222.243 253.809 221.221C253.809 220.199 254.637 219.37 255.66 219.37Z" fill="#FF586A"/>
<path d="M255.66 212.29H333.119C334.141 212.29 334.969 213.118 334.969 214.14C334.969 215.163 334.141 215.991 333.119 215.991H255.66C254.637 215.991 253.809 215.163 253.809 214.14C253.809 213.118 254.637 212.29 255.66 212.29Z" fill="#78A8B3"/>
<path d="M255.66 212.29H314.365C315.388 212.29 316.216 213.118 316.216 214.14C316.216 215.163 315.388 215.991 314.365 215.991H255.66C254.637 215.991 253.809 215.163 253.809 214.14C253.809 213.118 254.637 212.29 255.66 212.29Z" fill="white"/>
<path d="M274.094 227.722H321.389C323.849 227.722 325.844 229.716 325.844 232.175V234.212H269.639V232.175C269.639 229.716 271.632 227.722 274.094 227.722Z" fill="#87B8C7"/>
<path d="M208.139 227.722H227.784C230.244 227.722 232.239 229.716 232.239 232.175V234.212H203.686V232.175C203.686 229.716 205.679 227.722 208.139 227.722Z" fill="#87B8C7"/>
<path d="M364.925 214.986C366.646 214.986 368.042 216.382 368.042 218.104C368.042 219.825 366.646 221.22 364.925 221.22C363.202 221.22 361.807 219.825 361.807 218.104C361.807 216.382 363.202 214.986 364.925 214.986Z" fill="#FBFBFB"/>
<path d="M361.281 218.103C361.281 220.112 362.916 221.747 364.926 221.747C366.935 221.747 368.57 220.112 368.57 218.103C368.57 216.096 366.935 214.461 364.926 214.461C362.916 214.461 361.281 216.095 361.281 218.103ZM362.333 218.103C362.333 216.675 363.496 215.512 364.926 215.512C366.354 215.512 367.517 216.675 367.517 218.103C367.517 219.532 366.354 220.694 364.926 220.694C363.496 220.694 362.333 219.532 362.333 218.103Z" fill="#87B8C7"/>
<path d="M353.695 214.986C355.416 214.986 356.812 216.382 356.812 218.104C356.812 219.825 355.416 221.22 353.695 221.22C351.972 221.22 350.576 219.825 350.576 218.104C350.576 216.382 351.972 214.986 353.695 214.986Z" fill="#78A8B3"/>
<path d="M350.051 218.103C350.051 220.112 351.686 221.747 353.695 221.747C355.705 221.747 357.338 220.112 357.338 218.103C357.338 216.096 355.705 214.461 353.695 214.461C351.686 214.461 350.051 216.095 350.051 218.103ZM351.102 218.103C351.102 216.675 352.265 215.512 353.695 215.512C355.123 215.512 356.286 216.675 356.286 218.103C356.286 219.532 355.123 220.694 353.695 220.694C352.265 220.694 351.102 219.532 351.102 218.103Z" fill="#87B8C7"/>
<path d="M350.578 217.052H344.002V219.156H350.578V217.052Z" fill="#87B8C7"/>
<path d="M203.798 211.071C204.94 211.071 205.864 211.996 205.864 213.136C205.864 214.276 204.94 215.201 203.798 215.201C202.659 215.201 201.734 214.276 201.734 213.136C201.734 211.995 202.659 211.071 203.798 211.071Z" fill="#87B8C7"/>
<path d="M203.798 218.544C204.94 218.544 205.864 219.469 205.864 220.609C205.864 221.749 204.94 222.674 203.798 222.674C202.659 222.674 201.734 221.749 201.734 220.609C201.734 219.469 202.659 218.544 203.798 218.544Z" fill="#87B8C7"/>
<path d="M213.241 211.071C214.383 211.071 215.307 211.996 215.307 213.136C215.307 214.276 214.383 215.201 213.241 215.201C212.101 215.201 211.176 214.276 211.176 213.136C211.176 211.995 212.101 211.071 213.241 211.071Z" fill="#87B8C7"/>
<path d="M213.241 218.544C214.383 218.544 215.307 219.469 215.307 220.609C215.307 221.749 214.383 222.674 213.241 222.674C212.101 222.674 211.176 221.749 211.176 220.609C211.176 219.469 212.101 218.544 213.241 218.544Z" fill="#87B8C7"/>
<path d="M222.683 211.071C223.824 211.071 224.749 211.996 224.749 213.136C224.749 214.276 223.824 215.201 222.683 215.201C221.542 215.201 220.617 214.276 220.617 213.136C220.617 211.995 221.543 211.071 222.683 211.071Z" fill="#87B8C7"/>
<path d="M222.683 218.544C223.824 218.544 224.749 219.469 224.749 220.609C224.749 221.749 223.824 222.674 222.683 222.674C221.542 222.674 220.617 221.749 220.617 220.609C220.617 219.469 221.543 218.544 222.683 218.544Z" fill="#87B8C7"/>
<path d="M232.126 211.071C233.267 211.071 234.192 211.996 234.192 213.136C234.192 214.276 233.267 215.201 232.126 215.201C230.985 215.201 230.061 214.276 230.061 213.136C230.061 211.995 230.985 211.071 232.126 211.071Z" fill="#87B8C7"/>
<path d="M232.126 218.544C233.267 218.544 234.192 219.469 234.192 220.609C234.192 221.749 233.267 222.674 232.126 222.674C230.985 222.674 230.061 221.749 230.061 220.609C230.061 219.469 230.985 218.544 232.126 218.544Z" fill="#87B8C7"/>
<path d="M361.807 234.211H206.912V239.297H361.807V234.211Z" fill="#87B8C7"/>
<path d="M201.811 164.673H320.616C325.054 164.673 328.652 168.271 328.652 172.708V188.855C328.652 193.293 325.054 196.89 320.616 196.89H201.811C197.371 196.89 193.773 193.293 193.773 188.855V172.708C193.773 168.271 197.371 164.673 201.811 164.673Z" fill="#78A8B3"/>
<path d="M249.965 164.673H368.768C373.207 164.673 376.805 168.271 376.805 172.708V188.855C376.805 193.293 373.207 196.89 368.768 196.89H249.965C245.526 196.89 241.928 193.293 241.928 188.855V172.708C241.928 168.271 245.525 164.673 249.965 164.673Z" fill="#D8EEF0"/>
<path d="M255.66 182.049H333.119C334.141 182.049 334.969 182.877 334.969 183.899C334.969 184.921 334.141 185.75 333.119 185.75H255.66C254.637 185.75 253.809 184.921 253.809 183.899C253.809 182.877 254.637 182.049 255.66 182.049Z" fill="#78A8B3"/>
<path d="M255.66 182.049H324.856C325.878 182.049 326.708 182.877 326.708 183.899C326.708 184.921 325.878 185.75 324.856 185.75H255.66C254.637 185.75 253.809 184.921 253.809 183.899C253.809 182.877 254.637 182.049 255.66 182.049Z" fill="#FF586A"/>
<path d="M255.66 174.967H333.119C334.141 174.967 334.969 175.797 334.969 176.819C334.969 177.841 334.141 178.67 333.119 178.67H255.66C254.637 178.67 253.809 177.841 253.809 176.819C253.809 175.796 254.637 174.967 255.66 174.967Z" fill="#78A8B3"/>
<path d="M255.66 174.967H314.365C315.388 174.967 316.216 175.797 316.216 176.819C316.216 177.841 315.388 178.67 314.365 178.67H255.66C254.637 178.67 253.809 177.841 253.809 176.819C253.809 175.796 254.637 174.967 255.66 174.967Z" fill="white"/>
<path d="M274.094 190.399H321.389C323.849 190.399 325.844 192.394 325.844 194.853V196.89H269.639V194.853C269.639 192.393 271.632 190.399 274.094 190.399Z" fill="#87B8C7"/>
<path d="M208.139 190.399H227.784C230.244 190.399 232.239 192.394 232.239 194.853V196.89H203.686V194.853C203.686 192.393 205.679 190.399 208.139 190.399Z" fill="#87B8C7"/>
<path d="M364.925 177.665C366.646 177.665 368.042 179.06 368.042 180.781C368.042 182.503 366.646 183.899 364.925 183.899C363.202 183.899 361.807 182.503 361.807 180.781C361.807 179.06 363.202 177.665 364.925 177.665Z" fill="#FBFBFB"/>
<path d="M361.281 180.781C361.281 182.791 362.916 184.425 364.926 184.425C366.935 184.425 368.57 182.791 368.57 180.781C368.57 178.772 366.935 177.138 364.926 177.138C362.916 177.138 361.281 178.772 361.281 180.781ZM362.333 180.781C362.333 179.352 363.496 178.191 364.926 178.191C366.354 178.191 367.517 179.352 367.517 180.781C367.517 182.21 366.354 183.372 364.926 183.372C363.496 183.372 362.333 182.21 362.333 180.781Z" fill="#87B8C7"/>
<path d="M353.695 177.665C355.416 177.665 356.812 179.06 356.812 180.781C356.812 182.503 355.416 183.899 353.695 183.899C351.972 183.899 350.576 182.503 350.576 180.781C350.576 179.06 351.972 177.665 353.695 177.665Z" fill="#78A8B3"/>
<path d="M350.051 180.781C350.051 182.791 351.686 184.425 353.695 184.425C355.705 184.425 357.338 182.791 357.338 180.781C357.338 178.772 355.705 177.138 353.695 177.138C351.686 177.138 350.051 178.772 350.051 180.781ZM351.102 180.781C351.102 179.352 352.265 178.191 353.695 178.191C355.123 178.191 356.286 179.352 356.286 180.781C356.286 182.21 355.123 183.372 353.695 183.372C352.265 183.372 351.102 182.21 351.102 180.781Z" fill="#87B8C7"/>
<path d="M350.578 179.729H344.002V181.834H350.578V179.729Z" fill="#87B8C7"/>
<path d="M203.798 173.749C204.94 173.749 205.864 174.674 205.864 175.814C205.864 176.954 204.94 177.879 203.798 177.879C202.659 177.879 201.734 176.954 201.734 175.814C201.734 174.674 202.659 173.749 203.798 173.749Z" fill="#87B8C7"/>
<path d="M203.798 181.221C204.94 181.221 205.864 182.147 205.864 183.286C205.864 184.427 204.94 185.351 203.798 185.351C202.659 185.351 201.734 184.427 201.734 183.286C201.734 182.147 202.659 181.221 203.798 181.221Z" fill="#87B8C7"/>
<path d="M213.241 173.749C214.383 173.749 215.307 174.674 215.307 175.814C215.307 176.954 214.383 177.879 213.241 177.879C212.101 177.879 211.176 176.954 211.176 175.814C211.176 174.674 212.101 173.749 213.241 173.749Z" fill="#87B8C7"/>
<path d="M213.241 181.221C214.383 181.221 215.307 182.147 215.307 183.286C215.307 184.427 214.383 185.351 213.241 185.351C212.101 185.351 211.176 184.427 211.176 183.286C211.176 182.147 212.101 181.221 213.241 181.221Z" fill="#87B8C7"/>
<path d="M222.683 173.749C223.824 173.749 224.749 174.674 224.749 175.814C224.749 176.954 223.824 177.879 222.683 177.879C221.542 177.879 220.617 176.954 220.617 175.814C220.617 174.674 221.543 173.749 222.683 173.749Z" fill="#87B8C7"/>
<path d="M222.683 181.221C223.824 181.221 224.749 182.147 224.749 183.286C224.749 184.427 223.824 185.351 222.683 185.351C221.542 185.351 220.617 184.427 220.617 183.286C220.617 182.147 221.543 181.221 222.683 181.221Z" fill="#87B8C7"/>
<path d="M232.126 173.749C233.267 173.749 234.192 174.674 234.192 175.814C234.192 176.954 233.267 177.879 232.126 177.879C230.985 177.879 230.061 176.954 230.061 175.814C230.061 174.674 230.985 173.749 232.126 173.749Z" fill="#87B8C7"/>
<path d="M232.126 181.221C233.267 181.221 234.192 182.147 234.192 183.286C234.192 184.427 233.267 185.351 232.126 185.351C230.985 185.351 230.061 184.427 230.061 183.286C230.061 182.147 230.985 181.221 232.126 181.221Z" fill="#87B8C7"/>
<path d="M361.807 196.89H206.912V201.973H361.807V196.89Z" fill="#87B8C7"/>
<path d="M201.811 127.374H320.616C325.054 127.374 328.652 130.971 328.652 135.409V151.556C328.652 155.994 325.054 159.591 320.616 159.591H201.811C197.371 159.591 193.773 155.994 193.773 151.556V135.409C193.773 130.971 197.371 127.374 201.811 127.374Z" fill="#78A8B3"/>
<path d="M249.965 127.374H368.768C373.207 127.374 376.805 130.971 376.805 135.409V151.556C376.805 155.994 373.207 159.591 368.768 159.591H249.965C245.526 159.591 241.928 155.994 241.928 151.556V135.409C241.928 130.971 245.525 127.374 249.965 127.374Z" fill="#D8EEF0"/>
<path d="M255.66 144.748H333.119C334.141 144.748 334.969 145.576 334.969 146.599C334.969 147.622 334.141 148.451 333.119 148.451H255.66C254.637 148.451 253.809 147.623 253.809 146.599C253.809 145.576 254.637 144.748 255.66 144.748Z" fill="#78A8B3"/>
<path d="M255.66 144.748H324.856C325.878 144.748 326.708 145.576 326.708 146.599C326.708 147.622 325.878 148.451 324.856 148.451H255.66C254.637 148.451 253.809 147.623 253.809 146.599C253.809 145.576 254.637 144.748 255.66 144.748Z" fill="#FF586A"/>
<path d="M255.66 137.667H333.119C334.141 137.667 334.969 138.497 334.969 139.52C334.969 140.542 334.141 141.371 333.119 141.371H255.66C254.637 141.371 253.809 140.542 253.809 139.52C253.809 138.497 254.637 137.667 255.66 137.667Z" fill="#78A8B3"/>
<path d="M255.66 137.667H314.365C315.388 137.667 316.216 138.497 316.216 139.52C316.216 140.542 315.388 141.371 314.365 141.371H255.66C254.637 141.371 253.809 140.542 253.809 139.52C253.809 138.497 254.637 137.667 255.66 137.667Z" fill="white"/>
<path d="M274.094 153.1H321.389C323.849 153.1 325.844 155.095 325.844 157.554V159.591H269.639V157.554C269.639 155.095 271.632 153.1 274.094 153.1Z" fill="#87B8C7"/>
<path d="M208.139 153.1H227.784C230.244 153.1 232.239 155.095 232.239 157.554V159.591H203.686V157.554C203.686 155.095 205.679 153.1 208.139 153.1Z" fill="#87B8C7"/>
<path d="M364.925 140.364C366.646 140.364 368.042 141.759 368.042 143.482C368.042 145.202 366.646 146.598 364.925 146.598C363.202 146.598 361.807 145.202 361.807 143.482C361.807 141.759 363.202 140.364 364.925 140.364Z" fill="#FBFBFB"/>
<path d="M361.281 143.482C361.281 145.491 362.916 147.126 364.926 147.126C366.935 147.126 368.57 145.491 368.57 143.482C368.57 141.473 366.935 139.838 364.926 139.838C362.916 139.838 361.281 141.473 361.281 143.482ZM362.333 143.482C362.333 142.053 363.496 140.891 364.926 140.891C366.354 140.891 367.517 142.053 367.517 143.482C367.517 144.911 366.354 146.072 364.926 146.072C363.496 146.072 362.333 144.911 362.333 143.482Z" fill="#87B8C7"/>
<path d="M353.695 140.364C355.416 140.364 356.812 141.759 356.812 143.482C356.812 145.202 355.416 146.598 353.695 146.598C351.972 146.598 350.576 145.202 350.576 143.482C350.576 141.759 351.972 140.364 353.695 140.364Z" fill="#78A8B3"/>
<path d="M350.051 143.482C350.051 145.491 351.686 147.126 353.695 147.126C355.705 147.126 357.338 145.491 357.338 143.482C357.338 141.473 355.705 139.838 353.695 139.838C351.686 139.838 350.051 141.473 350.051 143.482ZM351.102 143.482C351.102 142.053 352.265 140.891 353.695 140.891C355.123 140.891 356.286 142.053 356.286 143.482C356.286 144.911 355.123 146.072 353.695 146.072C352.265 146.072 351.102 144.911 351.102 143.482Z" fill="#87B8C7"/>
<path d="M350.578 142.429H344.002V144.534H350.578V142.429Z" fill="#87B8C7"/>
<path d="M203.798 136.45C204.94 136.45 205.864 137.373 205.864 138.513C205.864 139.654 204.94 140.578 203.798 140.578C202.659 140.578 201.734 139.654 201.734 138.513C201.734 137.373 202.659 136.45 203.798 136.45Z" fill="#87B8C7"/>
<path d="M203.798 143.923C204.94 143.923 205.864 144.847 205.864 145.988C205.864 147.129 204.94 148.053 203.798 148.053C202.659 148.053 201.734 147.128 201.734 145.988C201.734 144.847 202.659 143.923 203.798 143.923Z" fill="#87B8C7"/>
<path d="M213.241 136.45C214.383 136.45 215.307 137.373 215.307 138.513C215.307 139.654 214.383 140.578 213.241 140.578C212.101 140.578 211.176 139.654 211.176 138.513C211.176 137.373 212.101 136.45 213.241 136.45Z" fill="#87B8C7"/>
<path d="M213.241 143.923C214.383 143.923 215.307 144.847 215.307 145.988C215.307 147.129 214.383 148.053 213.241 148.053C212.101 148.053 211.176 147.128 211.176 145.988C211.176 144.847 212.101 143.923 213.241 143.923Z" fill="#87B8C7"/>
<path d="M222.683 136.45C223.824 136.45 224.749 137.373 224.749 138.513C224.749 139.654 223.824 140.578 222.683 140.578C221.542 140.578 220.617 139.654 220.617 138.513C220.617 137.373 221.543 136.45 222.683 136.45Z" fill="#87B8C7"/>
<path d="M222.683 143.923C223.824 143.923 224.749 144.847 224.749 145.988C224.749 147.129 223.824 148.053 222.683 148.053C221.542 148.053 220.617 147.128 220.617 145.988C220.617 144.847 221.543 143.923 222.683 143.923Z" fill="#87B8C7"/>
<path d="M232.126 136.45C233.267 136.45 234.192 137.373 234.192 138.513C234.192 139.654 233.267 140.578 232.126 140.578C230.985 140.578 230.061 139.654 230.061 138.513C230.061 137.373 230.985 136.45 232.126 136.45Z" fill="#87B8C7"/>
<path d="M232.126 143.923C233.267 143.923 234.192 144.847 234.192 145.988C234.192 147.129 233.267 148.053 232.126 148.053C230.985 148.053 230.061 147.128 230.061 145.988C230.061 144.847 230.985 143.923 232.126 143.923Z" fill="#87B8C7"/>
<path d="M361.807 159.591H206.912V164.675H361.807V159.591Z" fill="#87B8C7"/>
<path d="M201.811 90.0745H320.616C325.054 90.0745 328.652 93.6715 328.652 98.1079V114.257C328.652 118.693 325.054 122.29 320.616 122.29H201.811C197.371 122.29 193.773 118.693 193.773 114.257V98.1079C193.773 93.6715 197.371 90.0745 201.811 90.0745Z" fill="#78A8B3"/>
<path d="M249.965 90.0745H368.768C373.207 90.0745 376.805 93.6715 376.805 98.1079V114.257C376.805 118.693 373.207 122.29 368.768 122.29H249.965C245.526 122.29 241.928 118.693 241.928 114.257V98.1079C241.928 93.6715 245.525 90.0745 249.965 90.0745Z" fill="#D8EEF0"/>
<path d="M255.66 107.448H333.119C334.141 107.448 334.969 108.276 334.969 109.299C334.969 110.322 334.141 111.15 333.119 111.15H255.66C254.637 111.15 253.809 110.322 253.809 109.299C253.809 108.277 254.637 107.448 255.66 107.448Z" fill="#78A8B3"/>
<path d="M255.66 107.448H324.856C325.878 107.448 326.708 108.276 326.708 109.299C326.708 110.322 325.878 111.15 324.856 111.15H255.66C254.637 111.15 253.809 110.322 253.809 109.299C253.809 108.277 254.637 107.448 255.66 107.448Z" fill="#FF586A"/>
<path d="M255.66 100.368H333.119C334.141 100.368 334.969 101.197 334.969 102.219C334.969 103.242 334.141 104.07 333.119 104.07H255.66C254.637 104.07 253.809 103.242 253.809 102.219C253.809 101.197 254.637 100.368 255.66 100.368Z" fill="#78A8B3"/>
<path d="M255.66 100.368H314.365C315.388 100.368 316.216 101.197 316.216 102.219C316.216 103.242 315.388 104.07 314.365 104.07H255.66C254.637 104.07 253.809 103.242 253.809 102.219C253.809 101.197 254.637 100.368 255.66 100.368Z" fill="white"/>
<path d="M274.094 115.801H321.389C323.849 115.801 325.844 117.794 325.844 120.253V122.29H269.639V120.253C269.639 117.794 271.632 115.801 274.094 115.801Z" fill="#87B8C7"/>
<path d="M208.139 115.801H227.784C230.244 115.801 232.239 117.794 232.239 120.253V122.29H203.686V120.253C203.686 117.794 205.679 115.801 208.139 115.801Z" fill="#87B8C7"/>
<path d="M364.925 103.065C366.646 103.065 368.042 104.46 368.042 106.183C368.042 107.903 366.646 109.299 364.925 109.299C363.202 109.299 361.807 107.903 361.807 106.183C361.807 104.46 363.202 103.065 364.925 103.065Z" fill="#FBFBFB"/>
<path d="M361.281 106.181C361.281 108.191 362.916 109.825 364.926 109.825C366.935 109.825 368.57 108.191 368.57 106.181C368.57 104.174 366.935 102.539 364.926 102.539C362.916 102.539 361.281 104.174 361.281 106.181ZM362.333 106.181C362.333 104.754 363.496 103.59 364.926 103.59C366.354 103.59 367.517 104.753 367.517 106.181C367.517 107.61 366.354 108.773 364.926 108.773C363.496 108.773 362.333 107.61 362.333 106.181Z" fill="#87B8C7"/>
<path d="M353.695 103.065C355.416 103.065 356.812 104.46 356.812 106.183C356.812 107.903 355.416 109.299 353.695 109.299C351.972 109.299 350.576 107.903 350.576 106.183C350.576 104.46 351.972 103.065 353.695 103.065Z" fill="#78A8B3"/>
<path d="M350.051 106.181C350.051 108.191 351.686 109.825 353.695 109.825C355.705 109.825 357.338 108.191 357.338 106.181C357.338 104.174 355.705 102.539 353.695 102.539C351.686 102.539 350.051 104.174 350.051 106.181ZM351.102 106.181C351.102 104.754 352.265 103.59 353.695 103.59C355.123 103.59 356.286 104.753 356.286 106.181C356.286 107.61 355.123 108.773 353.695 108.773C352.265 108.773 351.102 107.61 351.102 106.181Z" fill="#87B8C7"/>
<path d="M350.578 105.13H344.002V107.234H350.578V105.13Z" fill="#87B8C7"/>
<path d="M203.798 99.1492C204.94 99.1492 205.864 100.074 205.864 101.214C205.864 102.355 204.94 103.279 203.798 103.279C202.659 103.279 201.734 102.355 201.734 101.214C201.734 100.074 202.659 99.1492 203.798 99.1492Z" fill="#87B8C7"/>
<path d="M203.798 106.623C204.94 106.623 205.864 107.546 205.864 108.687C205.864 109.827 204.94 110.752 203.798 110.752C202.659 110.752 201.734 109.827 201.734 108.687C201.734 107.546 202.659 106.623 203.798 106.623Z" fill="#87B8C7"/>
<path d="M213.241 99.1492C214.383 99.1492 215.307 100.074 215.307 101.214C215.307 102.355 214.383 103.279 213.241 103.279C212.101 103.279 211.176 102.355 211.176 101.214C211.176 100.074 212.101 99.1492 213.241 99.1492Z" fill="#87B8C7"/>
<path d="M213.241 106.623C214.383 106.623 215.307 107.546 215.307 108.687C215.307 109.827 214.383 110.752 213.241 110.752C212.101 110.752 211.176 109.827 211.176 108.687C211.176 107.546 212.101 106.623 213.241 106.623Z" fill="#87B8C7"/>
<path d="M222.683 99.1492C223.824 99.1492 224.749 100.074 224.749 101.214C224.749 102.355 223.824 103.279 222.683 103.279C221.542 103.279 220.617 102.355 220.617 101.214C220.617 100.074 221.543 99.1492 222.683 99.1492Z" fill="#87B8C7"/>
<path d="M222.683 106.623C223.824 106.623 224.749 107.546 224.749 108.687C224.749 109.827 223.824 110.752 222.683 110.752C221.542 110.752 220.617 109.827 220.617 108.687C220.617 107.546 221.543 106.623 222.683 106.623Z" fill="#87B8C7"/>
<path d="M232.126 99.1492C233.267 99.1492 234.192 100.074 234.192 101.214C234.192 102.355 233.267 103.279 232.126 103.279C230.985 103.279 230.061 102.355 230.061 101.214C230.061 100.074 230.985 99.1492 232.126 99.1492Z" fill="#87B8C7"/>
<path d="M232.126 106.623C233.267 106.623 234.192 107.546 234.192 108.687C234.192 109.827 233.267 110.752 232.126 110.752C230.985 110.752 230.061 109.827 230.061 108.687C230.061 107.546 230.985 106.623 232.126 106.623Z" fill="#87B8C7"/>
<path d="M361.807 122.29H206.912V127.375H361.807V122.29Z" fill="#87B8C7"/>
<path d="M201.811 52.7598H320.616C325.054 52.7598 328.652 56.3568 328.652 60.7932V76.9414C328.652 81.3778 325.054 84.9748 320.616 84.9748H201.811C197.371 84.9748 193.773 81.3778 193.773 76.9414V60.7932C193.773 56.3568 197.371 52.7598 201.811 52.7598Z" fill="#78A8B3"/>
<path d="M249.965 52.7598H368.768C373.207 52.7598 376.805 56.3568 376.805 60.7932V76.9414C376.805 81.3778 373.207 84.9748 368.768 84.9748H249.965C245.526 84.9748 241.928 81.3778 241.928 76.9414V60.7932C241.928 56.3568 245.525 52.7598 249.965 52.7598Z" fill="#D8EEF0"/>
<path d="M255.66 70.134H333.119C334.141 70.134 334.969 70.9622 334.969 71.9848C334.969 73.0074 334.141 73.8355 333.119 73.8355H255.66C254.637 73.8355 253.809 73.0074 253.809 71.9848C253.809 70.9622 254.637 70.134 255.66 70.134Z" fill="#78A8B3"/>
<path d="M255.66 70.134H324.856C325.878 70.134 326.708 70.9622 326.708 71.9848C326.708 73.0074 325.878 73.8355 324.856 73.8355H255.66C254.637 73.8355 253.809 73.0074 253.809 71.9848C253.809 70.9622 254.637 70.134 255.66 70.134Z" fill="#FF586A"/>
<path d="M255.66 63.0537H333.119C334.141 63.0537 334.969 63.8819 334.969 64.9044C334.969 65.927 334.141 66.7552 333.119 66.7552H255.66C254.637 66.7552 253.809 65.927 253.809 64.9044C253.809 63.8819 254.637 63.0537 255.66 63.0537Z" fill="#78A8B3"/>
<path d="M255.66 63.0537H314.365C315.388 63.0537 316.216 63.8819 316.216 64.9044C316.216 65.927 315.388 66.7552 314.365 66.7552H255.66C254.637 66.7552 253.809 65.927 253.809 64.9044C253.809 63.8819 254.637 63.0537 255.66 63.0537Z" fill="white"/>
<path d="M274.094 78.4863H321.389C323.849 78.4863 325.844 80.4795 325.844 82.9388V84.9754H269.639V82.9388C269.639 80.4795 271.632 78.4863 274.094 78.4863Z" fill="#87B8C7"/>
<path d="M208.139 78.4863H227.784C230.244 78.4863 232.239 80.4795 232.239 82.9388V84.9754H203.686V82.9388C203.686 80.4795 205.679 78.4863 208.139 78.4863Z" fill="#87B8C7"/>
<path d="M364.925 65.7502C366.646 65.7502 368.042 67.1457 368.042 68.8684C368.042 70.5889 366.646 71.9843 364.925 71.9843C363.202 71.9843 361.807 70.5889 361.807 68.8684C361.807 67.1462 363.202 65.7502 364.925 65.7502Z" fill="#FBFBFB"/>
<path d="M361.281 68.8669C361.281 70.8756 362.916 72.5105 364.926 72.5105C366.935 72.5105 368.57 70.8761 368.57 68.8669C368.57 66.8592 366.935 65.2249 364.926 65.2249C362.916 65.2249 361.281 66.8592 361.281 68.8669ZM362.333 68.8669C362.333 67.4388 363.496 66.2758 364.926 66.2758C366.354 66.2758 367.517 67.4388 367.517 68.8669C367.517 70.2955 366.354 71.459 364.926 71.459C363.496 71.459 362.333 70.2955 362.333 68.8669Z" fill="#87B8C7"/>
<path d="M353.695 65.7502C355.416 65.7502 356.812 67.1457 356.812 68.8684C356.812 70.5889 355.416 71.9843 353.695 71.9843C351.972 71.9843 350.576 70.5889 350.576 68.8684C350.576 67.1462 351.972 65.7502 353.695 65.7502Z" fill="#78A8B3"/>
<path d="M350.051 68.8669C350.051 70.8756 351.686 72.5105 353.695 72.5105C355.705 72.5105 357.338 70.8761 357.338 68.8669C357.338 66.8592 355.705 65.2249 353.695 65.2249C351.686 65.2249 350.051 66.8592 350.051 68.8669ZM351.102 68.8669C351.102 67.4388 352.265 66.2758 353.695 66.2758C355.123 66.2758 356.286 67.4388 356.286 68.8669C356.286 70.2955 355.123 71.459 353.695 71.459C352.265 71.459 351.102 70.2955 351.102 68.8669Z" fill="#87B8C7"/>
<path d="M350.578 67.8157H344.002V69.9198H350.578V67.8157Z" fill="#87B8C7"/>
<path d="M203.798 61.8345C204.94 61.8345 205.864 62.759 205.864 63.8995C205.864 65.0399 204.94 65.9645 203.798 65.9645C202.659 65.9645 201.734 65.0399 201.734 63.8995C201.734 62.759 202.659 61.8345 203.798 61.8345Z" fill="#87B8C7"/>
<path d="M203.798 69.3086C204.94 69.3086 205.864 70.2316 205.864 71.372C205.864 72.513 204.94 73.437 203.798 73.437C202.659 73.437 201.734 72.5124 201.734 71.372C201.734 70.2316 202.659 69.3086 203.798 69.3086Z" fill="#87B8C7"/>
<path d="M213.241 61.8345C214.383 61.8345 215.307 62.759 215.307 63.8995C215.307 65.0399 214.383 65.9645 213.241 65.9645C212.101 65.9645 211.176 65.0399 211.176 63.8995C211.176 62.759 212.101 61.8345 213.241 61.8345Z" fill="#87B8C7"/>
<path d="M213.241 69.3086C214.383 69.3086 215.307 70.2316 215.307 71.372C215.307 72.513 214.383 73.437 213.241 73.437C212.101 73.437 211.176 72.5124 211.176 71.372C211.176 70.2316 212.101 69.3086 213.241 69.3086Z" fill="#87B8C7"/>
<path d="M222.683 61.8345C223.824 61.8345 224.749 62.759 224.749 63.8995C224.749 65.0399 223.824 65.9645 222.683 65.9645C221.542 65.9645 220.617 65.0399 220.617 63.8995C220.617 62.759 221.543 61.8345 222.683 61.8345Z" fill="#87B8C7"/>
<path d="M222.683 69.3086C223.824 69.3086 224.749 70.2316 224.749 71.372C224.749 72.513 223.824 73.437 222.683 73.437C221.542 73.437 220.617 72.5124 220.617 71.372C220.617 70.2316 221.543 69.3086 222.683 69.3086Z" fill="#87B8C7"/>
<path d="M232.126 61.8345C233.267 61.8345 234.192 62.759 234.192 63.8995C234.192 65.0399 233.267 65.9645 232.126 65.9645C230.985 65.9645 230.061 65.0399 230.061 63.8995C230.061 62.759 230.985 61.8345 232.126 61.8345Z" fill="#87B8C7"/>
<path d="M232.126 69.3086C233.267 69.3086 234.192 70.2316 234.192 71.372C234.192 72.513 233.267 73.437 232.126 73.437C230.985 73.437 230.061 72.5124 230.061 71.372C230.061 70.2316 230.985 69.3086 232.126 69.3086Z" fill="#87B8C7"/>
<path d="M361.807 84.9753H206.912V90.0604H361.807V84.9753Z" fill="#87B8C7"/>
<path d="M229.864 286.685H232.127V288.791H229.864C226.486 288.791 223.737 291.539 223.737 294.916V317.861C223.737 321.239 226.486 323.987 229.864 323.987H232.127V326.092H229.864C225.325 326.092 221.633 322.398 221.633 317.861V294.916C221.633 290.378 225.325 286.685 229.864 286.685Z" fill="white"/>
<path d="M210.863 249.232H213.128V251.338H210.863C207.485 251.338 204.737 254.085 204.737 257.463V280.408C204.737 283.786 207.486 286.533 210.863 286.533H213.128V288.639H210.863C206.325 288.639 202.633 284.946 202.633 280.408V257.463C202.633 252.925 206.325 249.232 210.863 249.232Z" fill="white"/>
<path d="M360.271 210.214C358.064 210.214 355.781 208.27 354.039 194.175C352.616 182.665 351.895 165.825 351.895 144.117C351.895 143.123 352.7 142.318 353.694 142.318C354.688 142.318 355.494 143.123 355.494 144.117C355.494 186.433 358.383 202.568 360.258 206.093C361.449 203.738 363.124 195.847 363.124 182.468V69.5386C363.124 68.5444 363.931 67.7393 364.924 67.7393C365.918 67.7393 366.724 68.5444 366.724 69.5386V182.468C366.725 188.976 366.258 210.214 360.271 210.214Z" fill="#CF4755"/>
<path d="M359.459 333.991C353.476 333.991 351.895 315.399 351.895 305.568V255.405C351.895 254.411 352.7 253.606 353.694 253.606C354.688 253.606 355.494 254.411 355.494 255.405V305.568C355.494 319.175 357.89 328.228 359.414 330.147C360.325 328.791 363.124 322.219 363.124 292.706C363.124 291.712 363.93 290.907 364.924 290.907C365.918 290.907 366.723 291.712 366.723 292.706C366.723 306.122 366.144 316.487 365.001 323.512C363.823 330.76 362.113 333.991 359.459 333.991Z" fill="#EEAC96"/>
<path d="M176.569 108.283L174.893 108.935L179.351 120.394L181.028 119.742L176.569 108.283Z" fill="#FF586A"/>
<path d="M189.655 88.9186L184.852 100.236L186.508 100.939L191.312 89.6214L189.655 88.9186Z" fill="#FF586A"/>
<path d="M169.769 86.0956L168.047 86.6194L171.626 98.3807L173.348 97.8569L169.769 86.0956Z" fill="#FF586A"/>
<path d="M155.113 100.786L154.387 102.432L165.639 107.392L166.365 105.745L155.113 100.786Z" fill="#FF586A"/>
<path d="M213.296 141.184C202.418 141.184 185.384 137.921 177.702 119.081C177.327 118.16 177.769 117.11 178.689 116.735C179.609 116.356 180.66 116.8 181.034 117.721C191.582 143.588 221.969 136.833 222.274 136.763C223.241 136.541 224.21 137.139 224.436 138.107C224.661 139.073 224.059 140.041 223.091 140.266C222.977 140.295 218.976 141.184 213.296 141.184Z" fill="#CF4755"/>
<path d="M216.54 231.434H214.74V243.729H216.54V231.434Z" fill="#FF586A"/>
<path d="M216.54 253.829H214.74V266.122H216.54V253.829Z" fill="#FF586A"/>
<path d="M227.79 245.328L226.473 246.554L234.853 255.551L236.171 254.325L227.79 245.328Z" fill="#FF586A"/>
<path d="M203.478 245.343L195.094 254.336L196.411 255.564L204.795 246.57L203.478 245.343Z" fill="#FF586A"/>
<path d="M215.641 236.012C214.647 236.012 213.842 235.207 213.842 234.212V199.767C213.842 193.292 215.694 188.398 219.347 185.22C224.763 180.507 232.064 181.459 232.373 181.505C233.357 181.643 234.044 182.55 233.906 183.534C233.771 184.517 232.863 185.216 231.879 185.069C231.748 185.056 225.821 184.334 221.686 187.954C218.87 190.42 217.441 194.394 217.441 199.767V234.212C217.441 235.207 216.634 236.012 215.641 236.012Z" fill="#CF4755"/>
<path d="M75.4965 326.852L87.3523 327.46C86.593 337.17 91.4308 341.774 101.361 342.682C107.194 343.214 106.738 350.399 106.738 350.399H74.4243C74.4243 350.399 70.536 347.022 74.659 339.764C75.6695 337.987 75.4965 326.852 75.4965 326.852Z" fill="#FED8C5"/>
<path d="M101.361 342.682C107.195 343.214 106.739 350.399 106.739 350.399H74.4243C74.4243 350.399 70.536 347.022 74.659 339.764C76.8456 341.006 82.4143 342.315 89.3305 337.935C91.9993 340.097 97.3135 342.312 101.361 342.682Z" fill="black"/>
<path d="M94.6751 340.916C94.6751 340.916 89.1536 337.637 88.4812 334.745C87.8071 331.853 84.3785 334.476 84.0415 335.284C83.7055 336.091 88.0911 340.832 94.6751 340.916Z" fill="black"/>
<path d="M86.2112 168.671C90.6814 187.676 98.0005 256.015 98.0493 260.339C98.3167 283.704 90.3139 318.275 90.8791 331.256C90.8791 331.256 77.5311 333.924 71.8773 331.189C71.8773 331.189 73.7392 285.838 70.002 264.604C68.9609 258.695 49.5497 193.619 55.8149 169.675C62.0827 145.73 84.4564 161.211 86.2112 168.671Z" fill="#87B8C7"/>
<path d="M56.3941 193.753C56.3941 193.753 74.0677 236.435 76.3128 261.128C77.2134 271.031 71.8768 331.189 71.8768 331.189C71.8768 331.189 72.2722 276.5 70.0015 264.604C66.8108 247.883 50.6074 214.604 50.6074 214.604L56.3941 193.753Z" fill="#78A8B3"/>
<path d="M24.657 326.55L35.2729 326.852C30.1576 337.17 37.354 341.774 47.2825 342.683C53.1196 343.215 52.6614 350.4 52.6614 350.4H20.3491C20.3491 350.4 16.4597 347.023 20.5822 339.764C21.5927 337.987 24.657 326.55 24.657 326.55Z" fill="#FED8C5"/>
<path d="M47.2825 342.682C53.1196 343.214 52.6614 350.399 52.6614 350.399H20.3491C20.3491 350.399 16.4597 347.022 20.5822 339.764C22.7688 341.006 28.3374 342.315 35.2526 337.935C37.9225 340.097 43.2366 342.312 47.2825 342.682Z" fill="black"/>
<path d="M40.5988 340.916C40.5988 340.916 35.0751 337.638 34.4048 334.745C33.7324 331.853 30.3016 334.476 29.9651 335.284C29.6308 336.091 34.0148 340.832 40.5988 340.916Z" fill="black"/>
<path d="M59.3322 264.908C56.9286 273.664 39.1998 331.189 39.1998 331.189C33.5588 333.92 20.2012 331.256 20.2012 331.256C20.4123 326.363 22.2051 316.213 24.2085 305.577C27.0815 290.36 30.4249 274.15 30.3531 270.808C29.8843 250.141 20.7761 203.309 23.1106 180.187C23.5821 175.68 24.1378 171.762 24.8697 168.68C25.1124 167.671 25.7403 166.505 26.6303 165.303C32.4111 157.712 49.8613 148.972 55.2751 169.673C61.5274 193.612 61.7358 256.131 59.3322 264.908Z" fill="#87B8C7"/>
<path d="M35.7358 224.462C33.9949 218.384 31.3304 212.64 29.3816 206.652C25.078 193.419 24.2422 179.388 26.6469 165.702C26.6646 165.563 26.6646 165.425 26.6303 165.303C25.7408 166.505 25.1123 167.672 24.8696 168.68C24.1377 171.762 23.5821 175.68 23.1106 180.188C20.776 203.31 29.8842 250.141 30.3531 270.809C30.4254 274.151 27.0814 290.36 24.2084 305.577C35.7893 286.721 36.8674 263.515 37.5479 241.786C37.722 235.848 37.3732 230.19 35.7358 224.462Z" fill="#78A8B3"/>
<path d="M127.263 161.042C134.835 158.137 157.986 139.214 162.425 135.729C167.774 131.524 164.432 121.385 158.478 125.075C152.73 128.637 118.776 146.922 116.007 149.819C111.009 155.047 117.786 164.674 127.263 161.042Z" fill="#FED8C5"/>
<path d="M78.825 129.645C83.6232 136.586 111.616 155.793 116.798 159.506C123.046 163.98 134.129 156.543 130.662 150.418C127.596 145.004 96.497 118.412 92.3097 116.238C84.75 112.32 72.8197 120.963 78.825 129.645Z" fill="#FED8C5"/>
<path d="M93.6361 145.695C84.3404 138.935 76.2352 128.616 73.5792 124.824C67.2669 115.806 77.4933 106.019 85.188 109.895C87.1099 110.863 100.111 119.073 108.457 126.906C106.709 136.224 95.1792 144.903 93.6361 145.695Z" fill="#CF4755"/>
<path d="M77.7523 107.577C77.7523 107.577 84.811 108.015 87.9347 112.279C91.0606 116.548 98.271 134.268 93.2376 152.699C88.2037 171.128 88.8558 191.138 88.8558 191.138C88.8558 191.138 58.2704 205.322 19.3027 190.883C19.3027 190.883 26.893 123.857 39.194 106.739C43.1001 101.303 57.2823 103.403 59.4588 103.536C61.6357 103.668 77.7523 107.577 77.7523 107.577Z" fill="#FF586A"/>
<path d="M37.6914 118.402L46.4835 152.565L64.8477 140.964L53.18 129.158L37.6914 118.402Z" fill="#CF4755"/>
<path d="M77.2375 99.1024C77.2375 99.1024 75.1548 105.423 77.0714 106.586C78.9853 107.746 81.666 108.44 81.666 108.44C81.666 108.44 68.1079 122.919 58.0449 103.404C58.0449 103.404 61.8277 104.016 63.2262 102.661C64.6273 101.308 66.4753 93.854 66.6377 88.7764L77.2375 99.1024Z" fill="#FED8C5"/>
<path d="M63.2267 102.661C64.6257 101.308 66.4758 93.854 66.6382 88.7764L72.681 94.6623C71.1647 95.6624 68.6298 98.7141 68.6635 98.9358C66.4062 101.988 64.712 106.5 67.7795 109.568C70.1349 111.925 73.6658 112.35 77.0569 111.875C72.2159 114.483 64.4296 115.783 58.0449 103.404C58.0449 103.404 61.8277 104.016 63.2267 102.661Z" fill="#EEAC96"/>
<path d="M64.3536 90.8858C64.9188 91.9138 66.3307 92.6942 67.5427 92.3305C68.8453 91.9368 68.3405 89.9002 67.9638 88.9885C67.4543 87.7516 68.8174 74.691 68.7574 74.6787C68.3657 74.4414 72.8745 57.9122 66.9437 60.1069C54.7701 64.6065 60.7476 84.3266 64.3536 90.8858Z" fill="black"/>
<path d="M89.5777 71.9125L87.9183 91.6888C87.4683 97.0343 82.3776 100.972 76.5485 100.483C70.7179 99.9944 66.358 95.2623 66.8065 89.9158L66.844 89.4728C66.844 89.4728 61.3225 90.197 61.8187 84.2645C62.3164 78.3325 65.6566 79.4483 65.6566 79.4483L66.4528 69.9734L89.5777 71.9125Z" fill="#FED8C5"/>
<path d="M65.6566 79.4488L66.6698 67.3984L74.8789 68.0873C74.8741 68.1452 74.506 72.4219 74.5028 72.4803L72.7796 93.0002C72.4796 96.5865 75.7051 99.7881 79.317 99.9671C80.4395 100.023 81.494 99.8037 82.4349 99.3837C80.6967 100.239 78.6751 100.661 76.5485 100.483C70.7179 99.9949 66.358 95.2628 66.8065 89.9163L66.844 89.4733C66.844 89.4733 61.3225 90.1975 61.8187 84.265C62.3164 78.333 65.6566 79.4488 65.6566 79.4488Z" fill="#EEAC96"/>
<path d="M65.6566 79.4488C65.0881 80.7488 67.308 82.8578 68.4546 82.9579C70.8079 83.1615 72.4603 74.7858 73.9086 70.5985C76.2351 71.8476 86.8478 73.3904 89.4877 72.9881C93.4178 72.3887 93.5647 66.5745 91.1996 63.6417C85.3995 56.4461 70.3449 54.334 66.9597 60.0517C66.9484 60.071 66.9517 60.0887 66.942 60.1063C61.1767 61.3277 59.8956 77.9993 65.6566 79.4488Z" fill="black"/>
<path d="M93.226 152.769C92.8016 129.322 91.1969 116.588 88.071 112.321C86.7979 110.582 84.8706 109.487 83.0338 108.79C83.568 110.962 84.4998 113.523 84.9842 115.387C85.9797 119.227 87.7468 123.927 85.5168 127.167C81.7431 132.649 75.2422 132.612 71.0789 127.405C65.6646 120.636 67.0716 109.425 59.9695 103.434C58.3798 102.641 54.8644 102.578 52.4875 103.067C57.1635 104.539 58.3878 109.977 59.049 115.105C59.9363 121.999 59.7016 129.8 56.3748 135.863C50.2945 146.953 36.9743 152.657 24.7879 154.405C19.6469 174.494 19.0098 192.297 19.0098 192.297C57.979 206.739 91.5167 193.601 91.5167 193.601C91.5167 193.601 88.1942 171.2 93.226 152.769Z" fill="#78A8B3"/>
<path d="M86.9981 142.39C86.9981 142.39 86.376 151.279 83.7056 156.015C82.4298 158.274 75.3122 160.339 75.3122 160.339C75.3122 160.339 67.484 156.993 66.2383 155.087C66.2383 155.087 68.3617 146.765 68.1838 140.191C68.1838 140.191 80.6199 144.117 86.9981 142.39Z" fill="#87B8C7"/>
<path d="M90.4662 179.186C90.4662 179.186 48.0898 188.67 20.1748 179.186L18.4902 186.408C18.4902 186.408 61.9592 198.528 90.6468 184.115L90.4662 179.186Z" fill="black"/>
<path d="M64.8457 186.408C64.8457 183.547 67.1668 181.226 70.0307 181.226C72.894 181.226 75.213 183.547 75.213 186.408C75.213 189.27 72.894 191.59 70.0307 191.59C67.1663 191.589 64.8457 189.27 64.8457 186.408Z" fill="#FED8C5"/>
<path d="M66.5547 71.9217C66.5547 71.9217 62.2575 74.3198 60.0135 77.3496C60.0135 77.3496 52.8718 60.4316 69.8788 54.9003C86.8934 49.369 97.2018 62.2962 94.2629 68.4462C94.2629 68.4462 88.0673 60.535 66.5547 71.9217Z" fill="#FF586A"/>
<path d="M66.5547 71.9216C66.5547 71.9216 79.9054 63.2856 83.9405 59.5739C93.8385 50.4735 99.8481 49.9624 102.401 55.6025C106.908 65.567 92.6077 70.2043 92.6077 70.2043C92.6077 70.2043 90.1784 61.6823 66.5547 71.9216Z" fill="#CF4755"/>
<path d="M67.5068 55.3319C67.4275 54.4797 68.0533 53.7276 68.9068 53.6489C69.7593 53.5696 70.5159 54.1952 70.5946 55.0475C70.6734 55.8997 70.0443 56.6572 69.1913 56.7359C68.3389 56.8152 67.5855 56.1858 67.5068 55.3319Z" fill="#CF4755"/>
<path d="M153.244 158.639L172.346 151.9L142.055 66.0921L122.953 72.8316L153.244 158.639Z" fill="#87B8C7"/>
<path d="M163.059 190.168C163.574 190.609 164.341 190.089 164.123 189.447L163.136 186.552L159.412 175.624C159.301 175.298 159.276 174.948 159.34 174.609L160.856 166.487C160.988 165.783 161.485 165.202 162.161 164.963L169.356 162.424C170.032 162.188 170.783 162.326 171.328 162.792L177.605 168.165C177.867 168.388 178.067 168.676 178.185 169L182.149 179.843L183.199 182.716C183.432 183.353 184.356 183.277 184.481 182.609L187.229 167.863C187.552 166.134 186.927 164.362 185.59 163.219L172.344 151.884L153.217 158.631L150.018 175.768C149.694 177.499 150.319 179.271 151.658 180.414L163.059 190.168Z" fill="#87B8C7"/>
<path d="M108.14 57.0949C107.818 58.824 108.443 60.595 109.78 61.7408L123.03 73.0744L142.156 66.325L145.353 49.1895C145.676 47.4588 145.05 45.6889 143.713 44.5453L132.315 34.7897C131.8 34.3488 131.032 34.869 131.251 35.5123L132.236 38.406L135.957 49.3352C136.069 49.662 136.093 50.0102 136.03 50.3492L134.516 58.471C134.385 59.1754 133.887 59.7556 133.212 59.9945L126.016 62.5335C125.341 62.7708 124.589 62.6321 124.045 62.1661L117.764 56.7944C117.502 56.5694 117.302 56.2812 117.184 55.9582L113.223 45.1147L112.174 42.2403C111.941 41.6039 111.015 41.6811 110.892 42.3474L108.14 57.0949Z" fill="#87B8C7"/>
<path d="M132.784 70.2263C134.603 69.583 136.616 70.5461 137.257 72.3647L164.663 150.004C165.304 151.822 164.342 153.834 162.523 154.478C160.705 155.117 158.692 154.156 158.05 152.337L130.644 74.6965C130.003 72.8795 130.966 70.867 132.784 70.2263Z" fill="#78A8B3"/>
<path d="M169.738 134.098C168.954 135.489 167.269 136.141 165.552 136.46C164.905 136.46 164.002 136.402 163.17 136.187C161.64 135.797 161.376 133.42 161.376 133.42C160.104 132.893 160.298 130.823 160.298 130.823C158.91 130.255 159.712 127.433 159.712 127.433C158.538 126.809 158.558 125.174 158.948 124.536C159.166 124.177 166.006 119.895 167.515 122.515C168.106 123.547 167.971 124.39 167.448 125.051C167.915 125.198 168.339 125.46 168.65 125.957C169.304 126.998 169.016 127.867 168.297 128.569C168.878 128.758 169.322 129.207 169.451 130.08C169.595 130.953 169.304 131.596 168.814 132.12C169.647 132.283 170.136 133.379 169.738 134.098Z" fill="#FED8C5"/>
<path d="M45.8386 128.533C52.1236 134.161 83.8262 146.308 89.733 148.708C96.8528 151.601 104.023 144.434 100.323 138.449C97.1737 133.348 60.4013 113.485 55.8223 112.352C47.5569 110.301 37.973 121.492 45.8386 128.533Z" fill="#FED8C5"/>
<path d="M59.9489 139.411C50.0317 133.602 40.9471 124.133 37.9299 120.619C30.7608 112.271 39.9708 101.524 48.0101 104.618C50.0199 105.393 61.1218 109.629 70.2005 116.598C69.3802 126.041 61.4068 138.471 59.9489 139.411Z" fill="#FF586A"/>
<path d="M89.3388 134.7C94.2778 128.269 119.007 111.466 123.616 108.205C129.171 104.272 137.943 110.357 132.708 115.019C127.656 119.514 100.462 146.853 96.8958 148.682C90.4602 151.985 83.1572 142.748 89.3388 134.7Z" fill="#FED8C5"/>
<path d="M142.233 91.5608C139.464 92.9557 136.77 94.237 138.755 93.021C141.294 91.4644 140.698 87.8604 138.177 89.4085C135.018 91.3428 131.254 93.2058 128.708 96.0047C125.952 99.0339 124.954 108.356 123.329 111.858C122.673 113.267 131.164 116.178 132.183 115.369C135.581 112.671 135.959 107.548 136.461 107.126C138.198 106.275 139.246 106.036 140.957 105.418C143.145 104.625 143.677 100.731 141.505 101.519C140.122 102.021 140.069 101.332 142.002 100.547C144.474 99.5455 144.784 95.5076 142.327 96.5039C141.288 96.9255 140.775 96.7691 142.118 96.0909C144.847 94.7132 144.943 90.1938 142.233 91.5608Z" fill="#FED8C5"/>
<path d="M172.304 290.179L224.242 342.93L224.276 342.965L224.312 343C225.6 344.23 225.152 345.689 224.986 346.107C224.818 346.525 224.132 347.888 222.351 347.888H158.335C157.518 347.888 156.768 347.553 156.222 346.947C155.723 346.389 155.469 345.685 155.499 344.947L167.933 298.102L167.996 297.865L168.022 297.622C168.359 294.504 171.04 290.773 172.304 290.179ZM172.454 286.893C169.09 286.893 165.268 293.125 164.82 297.276L152.311 344.401C151.924 347.982 154.731 351.108 158.335 351.108H222.351C227.815 351.108 230.487 344.444 226.537 340.672L174.419 287.739C173.804 287.152 173.139 286.893 172.454 286.893Z" fill="#CF4755"/>
<path d="M169.683 276.594L117.51 341.129C114.271 345.137 117.124 351.108 122.277 351.108H196.816C201.029 351.108 203.986 346.956 202.606 342.976L180.24 278.439C178.665 273.896 172.707 272.854 169.683 276.594Z" fill="#FF586A"/>
<path d="M196.815 352.007H122.277C119.543 352.007 117.113 350.475 115.934 348.01C114.756 345.542 115.091 342.689 116.809 340.563L168.983 276.029C170.611 274.015 173.11 273.078 175.659 273.525C178.211 273.969 180.241 275.697 181.09 278.144L203.456 342.68C204.21 344.855 203.876 347.179 202.542 349.054C201.205 350.932 199.118 352.007 196.815 352.007ZM174.419 275.215C172.857 275.215 171.395 275.908 170.381 277.161L118.209 341.695C116.911 343.301 116.667 345.371 117.558 347.234C118.447 349.097 120.212 350.209 122.276 350.209H196.815C198.528 350.209 200.081 349.407 201.075 348.012C202.068 346.617 202.316 344.89 201.754 343.271L179.388 278.735C178.757 276.913 177.247 275.629 175.348 275.297C175.037 275.242 174.727 275.215 174.419 275.215Z" fill="#CF4755"/>
<path d="M159.757 331.086L162.58 309.834L164.848 300.006H173.534L171.265 309.834L164.3 331.086H159.757ZM155.521 341.885L157.375 333.858H165.403L163.55 341.885H155.521Z" fill="black"/>
</svg>
