<svg width="423" height="339" viewBox="0 0 423 339" fill="none" xmlns="http://www.w3.org/2000/svg">
<g clip-path="url(#clip0_1744_11765)">
<path d="M423 0H0V339H423V0Z" fill="white"/>
<g opacity="0.2">
<path d="M345.857 238.088C345.857 238.088 338.059 248.446 330.259 262.658C323.227 275.474 317.879 292.742 316.698 307.16C313.386 307.003 309.748 306.856 305.815 306.716C282.521 305.888 248.893 305.369 211.501 305.369C168.991 305.369 131.346 306.04 108.221 307.073C107.425 307.108 106.646 307.144 105.884 307.18C77.0127 271.332 18.8748 208.877 72.3775 183.184C72.3775 183.184 76.297 181.988 82.1733 179.42C100.772 171.288 138.991 149.406 134.74 108.149C134.74 108.149 133.291 100.45 133.291 89.7381C133.291 64.6894 141.207 23.1686 194.055 25.0636C226.059 26.2129 255.532 42.5272 273.352 68.6404C290.83 94.2527 318.777 125.765 341.536 107.775C346.789 103.62 353.736 102.081 360.221 103.907C376.603 108.517 395.214 132.38 345.857 238.088Z" fill="#ACBCF8"/>
</g>
<path opacity="0.15" d="M388.355 308.556C388.355 310.251 309.174 311.625 211.501 311.625C156.389 311.625 107.166 311.188 74.7313 310.502C67.2605 310.344 60.6815 310.173 55.1262 309.991C51.467 309.871 48.252 309.746 45.5189 309.617C38.4871 309.287 34.6465 308.93 34.6465 308.556C34.6465 308.08 40.88 307.63 52.0056 307.228C56.5619 307.063 61.9381 306.907 68.0428 306.761C100.164 305.989 152.453 305.486 211.501 305.486C263.44 305.486 310.15 305.875 342.505 306.494C370.995 307.039 388.355 307.762 388.355 308.556Z" fill="#040C2B"/>
<path d="M225.559 188.419V175.14C225.559 172.272 223.565 169.947 221.105 169.947H174.567C172.108 169.947 170.113 172.272 170.113 175.14V193.844V213.189V308.548H316.732V203.381C316.732 198.114 313.069 193.844 308.551 193.844H230.212C227.642 193.844 225.559 191.415 225.559 188.419Z" fill="#829CF8"/>
<path d="M170.064 308.549H316.683L337.273 217.301C338.313 212.692 335.331 208.183 331.242 208.183H197.519C194.686 208.183 192.209 210.409 191.488 213.602L170.064 308.549Z" fill="#ACBCF8"/>
<path opacity="0.5" d="M281.181 302.832L284.037 289.058C284.239 288.082 285.098 287.383 286.092 287.383H316.836C318.167 287.383 319.162 288.608 318.891 289.913L316.036 303.687C315.833 304.663 314.975 305.362 313.98 305.362H283.236C281.906 305.362 280.911 304.137 281.181 302.832Z" fill="#829CF8"/>
<path d="M265.633 273.986H258.081L253.161 262.168L243.575 273.986H236.492L250.02 257.873L243.323 242.742H250.619L255.119 253.983L263.93 242.742H271.056L258.204 258.236L265.633 273.986Z" fill="white"/>
<path d="M127.088 179.608L132.007 158.047H142.461C142.461 158.047 139.756 172.708 143.322 181.825L127.088 179.608Z" fill="black"/>
<path d="M127.041 176.511L127.079 183.422L137.329 185.296L143.283 182.251L140.708 178.904L139.284 177.054C138.999 176.683 138.878 176.206 138.951 175.738L140.193 167.804L130.207 163.314L131.048 169.619L131.186 170.655C131.488 174.012 127.041 176.511 127.041 176.511Z" fill="#C9885B"/>
<path opacity="0.15" d="M130.207 163.314L131.149 170.46C134.65 176.765 139.08 178.242 140.708 178.904L139.285 177.054C139 176.683 138.878 176.206 138.951 175.738L140.194 167.805L130.207 163.314Z" fill="black"/>
<path d="M128.775 164.016L129.944 167.022C131.22 168.954 132.483 170.438 133.653 171.578C136.976 174.812 139.553 175.261 139.553 175.261C140.658 175.445 141.557 174.607 142.281 173.269C144.322 169.497 144.429 161.619 144.429 161.619L132.242 160.19L128.775 164.016Z" fill="#DB965F"/>
<path d="M144.699 164.259C144.699 164.259 139.127 158.31 134.352 164.017C134.352 164.017 134.202 166.438 133.749 167.14H133.071C133.071 167.14 133.146 164.642 131.187 164.095C131.187 164.095 128.775 163.705 130.132 167.14L130.998 168.585L131.201 170.931C131.201 170.931 128.858 171.254 128.714 166.363C128.703 166.01 128.555 165.488 128.375 164.976C127.662 162.945 127.94 160.692 129.169 158.926C129.169 158.926 132.991 152.379 140.739 155.336C140.739 155.336 145.413 156.691 144.699 164.259Z" fill="black"/>
<path d="M148.307 249.5L144.376 268.504L139.847 300.262L134.956 303.102L133.951 303.686C133.951 303.686 135.273 288.97 134.24 281.709C133.986 279.922 133.923 278.112 134.101 276.315C134.246 274.848 134.519 273.154 135.026 271.602C135.591 269.875 135.879 268.068 135.833 266.25L135.545 255.018L135.404 249.5L148.307 249.5Z" fill="#DB965F"/>
<path opacity="0.15" d="M135.74 281.239C135.778 287.707 135.708 297.139 135.062 300.861L134.956 303.102L133.951 303.686C133.951 303.686 135.273 288.97 134.24 281.709C133.986 279.922 133.923 278.111 134.101 276.315C134.246 274.848 134.519 273.154 135.026 271.602C135.591 269.875 135.879 268.068 135.833 266.25L135.545 255.018L138.053 253.951C138.053 253.951 138.722 261.691 136.929 270.022C136.136 273.71 135.719 277.467 135.74 281.239Z" fill="black"/>
<path d="M130.192 280.403C126.712 288.305 125.978 293.96 126.034 297.479C126.069 299.642 124.067 301.261 121.967 300.758C120.222 300.34 119.13 298.602 119.509 296.844L120.587 291.842C120.934 290.233 121.108 288.592 121.117 286.946C121.177 275.595 123.359 270.875 124.555 269.137C125.339 267.999 125.86 266.717 126.493 265.488C127.67 263.208 127.717 261.251 127.637 260.271C127.607 259.898 127.512 259.533 127.359 259.192L125.37 254.749C124.615 253.064 125.384 251.087 127.078 250.358L132.802 247.895C135.036 246.934 137.506 248.641 137.402 251.074L136.965 261.316C136.837 264.311 136.137 267.254 134.902 269.986L130.192 280.403Z" fill="#DB965F"/>
<path d="M119.95 294.79C119.95 294.79 116.434 297.95 118.057 302.83C118.057 302.83 119.937 304.798 120.279 306.339C120.279 306.339 121.496 309.429 129.785 308.477C130.272 308.42 130.676 308.074 130.809 307.601C131.046 306.751 131.114 305.218 129.849 303.001C129.849 303.001 126.517 297.865 126.089 295.725C126.089 295.725 120.049 298.735 119.95 294.79Z" fill="#040C2B"/>
<path d="M134.431 296.505C134.431 296.505 132.134 301.364 132.669 304.694C132.759 305.255 133.206 305.69 133.768 305.768C135.537 306.015 139.623 306.64 141.47 307.367C141.47 307.367 146.921 308.266 149.434 307.561C150.027 307.394 150.434 306.842 150.411 306.226C150.376 305.255 150.024 303.719 148.306 302.83L140.3 297.082C140.3 297.082 134.827 299.938 134.431 296.505Z" fill="#040C2B"/>
<path d="M154.714 209.011L150.984 210.933L149.075 211.917L148.732 212.093L148.779 211.15L148.85 209.713L149.02 206.254L149.55 195.529L149.715 192.191L153.09 191.206L154.328 204.779L154.574 207.472L154.714 209.011Z" fill="#DB965F"/>
<path d="M178.508 199.526C177.28 202.065 171.947 204.452 171.947 204.452L155.492 215.31C154.438 216.006 153.195 216.12 152.107 215.761C151.038 215.411 150.117 214.605 149.669 213.446L149.077 211.916L148.78 211.15L148.307 209.926L148.852 209.713L150.643 209.011L154.575 207.472L163.646 203.92C165.272 203.05 166.831 201.644 167.793 200.687C168.314 200.168 168.774 199.589 169.144 198.953C169.896 197.662 170.964 196.413 171.842 195.487C172.721 194.56 173.412 193.957 173.412 193.957C173.866 194.404 173.905 195.124 173.501 195.617L171.823 197.668L174.025 196.366C174.771 195.925 175.63 195.7 176.494 195.751C179.728 195.944 178.508 199.526 178.508 199.526Z" fill="#DB965F"/>
<path d="M122.377 204.851L121.394 195.06L118.266 193.451L114.478 206.542L113.726 209.139L113.297 210.624L116.595 213.22L119.756 212.401L122.377 204.851Z" fill="#DB965F"/>
<path d="M89.8378 201.212C91.0135 203.775 96.2964 206.271 96.2964 206.271L112.526 217.465C113.566 218.183 114.806 218.322 115.901 217.986C116.977 217.658 117.915 216.87 118.386 215.721L119.009 214.204L119.322 213.444L119.82 212.23L119.279 212.005L117.503 211.267L113.603 209.647L104.607 205.91C102.999 205.006 101.47 203.569 100.527 202.592C100.017 202.063 99.5689 201.474 99.2119 200.83C98.4857 199.524 97.4442 198.254 96.585 197.31C95.7248 196.366 95.0468 195.748 95.0468 195.748C94.5841 196.186 94.53 196.904 94.924 197.406L96.5598 199.491L94.3841 198.144C93.6472 197.688 92.7933 197.445 91.9285 197.479C88.6911 197.605 89.8378 201.212 89.8378 201.212Z" fill="#DB965F"/>
<path d="M158.816 203.532L154.329 204.778L150.219 205.92L149.022 206.253L149.013 206.255L148.648 206.356L148.17 206.405L148.576 195.173L148.682 192.229L149.135 179.661C153.761 181.422 154.373 186.326 154.373 186.326L158.816 203.532Z" fill="white"/>
<path opacity="0.15" d="M152.106 215.762C151.037 215.412 150.116 214.605 149.668 213.446L149.076 211.917L148.733 212.093L148.779 211.15L148.306 209.926L148.851 209.713L149.021 206.254L148.648 206.358L148.17 206.406L148.588 194.832L148.919 192.27L149.683 199.163C149.683 199.163 149.524 199.648 150.218 205.921C150.325 206.89 150.464 207.922 150.642 209.011C150.743 209.633 150.857 210.274 150.985 210.933C151.279 212.45 151.647 214.063 152.106 215.762Z" fill="black"/>
<path d="M151.15 255.41C151.136 255.558 151.024 255.678 150.876 255.7C148.668 256.025 132.358 258.316 122.859 256.471C122.74 256.447 122.645 256.358 122.612 256.241C122.339 255.245 121.246 249.911 121.736 229.527C121.778 227.782 121.89 226.039 122.073 224.304C122.255 222.565 122.496 219.858 122.662 216.468C122.771 214.239 122.847 211.714 122.85 208.974L123.834 208.874L148.171 206.405L148.649 206.356L149.014 206.255C149.008 206.772 149 207.306 148.991 207.857C148.991 207.883 148.993 207.909 149 207.934C149.179 208.696 151.98 220.716 151.982 228.175V228.193C152.004 228.529 152.633 238.643 151.15 255.41Z" fill="#040C2B"/>
<path d="M149.134 179.661C148.984 179.603 148.828 179.55 148.67 179.5C148.55 179.461 148.428 179.426 148.305 179.392L148.134 179.335L147.076 178.982L139.852 177.825C139.852 177.825 140.507 181.764 136.029 182.202C133.667 182.433 131.66 181.545 130.677 177.935C130.666 177.935 126.865 178.919 126.854 178.919L122.577 180.452L121.422 180.85L119.936 181.361C119.936 181.361 119.882 181.391 119.785 181.468C120.517 183.134 121.658 186.13 122.427 190.029C123.002 192.948 123.368 196.374 123.194 200.125C123.157 200.905 123.098 201.698 123.012 202.505L122.843 207.291L122.783 208.981L122.848 208.975L123.832 208.875L148.168 206.405L148.647 206.356L149.012 206.256C149.122 197.878 149.029 193.658 148.999 192.541C148.996 192.455 148.959 192.377 148.902 192.321C148.846 192.265 148.767 192.23 148.681 192.229L149.111 180.312L149.134 179.661Z" fill="white"/>
<path opacity="0.15" d="M123.833 208.875C123.675 211.519 123.317 214.129 122.66 216.469C122.769 214.24 122.845 211.715 122.849 208.975L122.784 208.982L122.844 207.291C122.827 205.429 122.776 203.48 122.679 201.468C122.679 201.468 122.788 200.969 123.194 200.125C123.369 196.374 123.003 192.948 122.428 190.029L122.506 189.994C122.506 189.994 123.275 193.946 123.685 199.211C123.915 202.174 124.032 205.551 123.833 208.875Z" fill="black"/>
<path d="M123.012 202.503L122.784 208.98L122.5 209.009L110.109 204.815L115.322 190.434C117.213 183.876 119.228 181.908 119.786 181.467C121.179 184.642 124.063 192.638 123.012 202.503Z" fill="white"/>
<path d="M142.806 162.752C142.806 162.752 136.68 161.496 133.729 167.164C133.729 167.164 132.253 169.874 134.344 177.02C134.344 177.02 136.666 183.189 138.402 185.891C138.402 185.891 127.549 184.377 126.227 177.02C126.227 177.02 126.964 160.018 129.916 157.923C129.916 157.923 141.552 152.427 142.806 162.752Z" fill="black"/>
<path d="M110.148 149.598H123.16C128.156 149.598 132.206 145.541 132.206 140.536V135.862C132.206 130.857 128.156 126.8 123.16 126.8H110.148C105.152 126.8 101.102 130.857 101.102 135.862V140.536C101.102 145.541 105.152 149.598 110.148 149.598Z" fill="white"/>
<path d="M120.264 147.76H113.047C113.047 147.76 113.693 153.582 120.264 156.474C120.264 156.474 116.808 151.375 120.264 147.76Z" fill="white"/>
<path d="M114.876 140.466V139.776C114.876 139.179 115.003 138.66 115.257 138.218C115.512 137.777 115.977 137.307 116.654 136.809C117.306 136.343 117.736 135.964 117.944 135.671C118.152 135.379 118.256 135.053 118.256 134.692C118.256 134.288 118.107 133.98 117.809 133.768C117.511 133.557 117.095 133.451 116.561 133.451C115.63 133.451 114.568 133.756 113.376 134.365L112.361 132.322C113.746 131.545 115.214 131.156 116.766 131.156C118.045 131.156 119.061 131.464 119.816 132.08C120.57 132.695 120.947 133.516 120.947 134.542C120.947 135.227 120.792 135.817 120.481 136.315C120.171 136.812 119.581 137.372 118.712 137.994C118.116 138.436 117.739 138.771 117.581 139.001C117.422 139.232 117.343 139.533 117.343 139.906V140.466H114.876V140.466ZM114.578 143.657C114.578 143.134 114.717 142.739 114.997 142.472C115.276 142.205 115.682 142.071 116.216 142.071C116.732 142.071 117.13 142.208 117.413 142.481C117.695 142.755 117.837 143.147 117.837 143.657C117.837 144.148 117.694 144.535 117.408 144.818C117.123 145.101 116.725 145.242 116.216 145.242C115.695 145.242 115.291 145.104 115.006 144.827C114.72 144.551 114.578 144.16 114.578 143.657Z" fill="#ACBCF8"/>
<path d="M268.912 133.449V165.363C268.912 166.572 267.933 167.551 266.727 167.551H238.556C237.349 167.551 236.371 166.571 236.371 165.362V127.575C236.371 126.366 237.349 125.386 238.556 125.386H260.717L260.863 125.53L268.912 133.449Z" fill="#E3E9F7"/>
<path opacity="0.1" d="M268.912 133.448H262.642C261.66 133.448 260.863 132.65 260.863 131.666V125.529L268.912 133.448Z" fill="black"/>
<path d="M250.06 149.759V148.757C250.06 147.89 250.245 147.137 250.615 146.495C250.984 145.854 251.66 145.173 252.642 144.45C253.589 143.773 254.213 143.223 254.515 142.798C254.817 142.374 254.968 141.9 254.968 141.376C254.968 140.789 254.751 140.342 254.319 140.035C253.886 139.729 253.282 139.575 252.507 139.575C251.155 139.575 249.614 140.017 247.884 140.902L246.41 137.936C248.42 136.808 250.551 136.243 252.805 136.243C254.661 136.243 256.137 136.69 257.232 137.584C258.327 138.478 258.875 139.67 258.875 141.159C258.875 142.153 258.649 143.01 258.199 143.733C257.748 144.455 256.892 145.268 255.63 146.17C254.765 146.812 254.218 147.299 253.988 147.633C253.758 147.967 253.643 148.405 253.643 148.947V149.759H250.06ZM249.628 154.391C249.628 153.633 249.83 153.059 250.236 152.671C250.642 152.283 251.232 152.089 252.007 152.089C252.755 152.089 253.334 152.287 253.744 152.685C254.154 153.082 254.359 153.651 254.359 154.391C254.359 155.104 254.152 155.666 253.737 156.077C253.323 156.488 252.746 156.693 252.007 156.693C251.25 156.693 250.664 156.492 250.249 156.091C249.835 155.689 249.628 155.122 249.628 154.391Z" fill="#CDD7FB"/>
<path d="M91.6516 201.968L101.45 232.981C101.821 234.156 101.171 235.41 99.9983 235.782L72.6226 244.461C71.4498 244.833 70.1983 244.182 69.827 243.007L58.2255 206.286C57.8544 205.111 58.5042 203.857 59.6769 203.485L81.2124 196.657L81.3988 196.752L91.6516 201.968Z" fill="#E3E9F7"/>
<path opacity="0.1" d="M91.6511 201.968L85.5582 203.899C84.6036 204.202 83.5848 203.672 83.2826 202.716L81.3984 196.752L91.6511 201.968Z" fill="black"/>
<path d="M89.2651 224.951L85.615 226.109L80.3045 221.508L78.6033 228.332L75.18 229.417L77.7204 220.043L70.7285 214.214L74.255 213.096L79.2197 217.499L80.6893 211.056L84.1333 209.964L81.7664 218.953L89.2651 224.951Z" fill="#CDD7FB"/>
<path d="M191.693 118.75L186.477 137.011C186.139 138.196 184.906 138.881 183.723 138.542L156.117 130.63C154.934 130.291 154.25 129.056 154.588 127.871L159.805 109.607L160.473 110.448L163.215 109.471L165.027 111.753L167.769 110.776L169.582 113.058L172.324 112.081L174.136 114.364L176.879 113.387L178.691 115.669L181.434 114.692L183.246 116.974L185.988 115.997L187.8 118.28L190.544 117.303L191.693 118.75Z" fill="#E3E9F7"/>
<path d="M192.95 96.103V109.639L191.448 108.565L189.078 110.26L186.709 108.565L184.341 110.26L181.973 108.565L179.604 110.26L177.235 108.565L174.866 110.26L172.497 108.565L170.129 110.26L167.76 108.565L165.391 110.26L163.023 108.565L160.654 110.26L159.781 109.635V90.1154C159.781 88.8831 160.778 87.8848 162.008 87.8848H184.596L184.746 88.0314L192.95 96.103Z" fill="#E3E9F7"/>
<path opacity="0.1" d="M192.95 96.1029H186.559C185.558 96.1029 184.746 95.2897 184.746 94.2866V88.0312L192.95 96.1029Z" fill="black"/>
<path d="M344.65 177.313L339.434 195.573C339.096 196.758 337.863 197.444 336.68 197.105L309.074 189.193C307.891 188.854 307.207 187.619 307.546 186.434L312.762 168.169L313.43 169.01L316.172 168.033L317.984 170.315L320.726 169.338L322.538 171.621L325.281 170.644L327.093 172.926L329.836 171.949L331.648 174.231L334.391 173.255L336.203 175.537L338.945 174.56L340.757 176.842L343.501 175.865L344.65 177.313Z" fill="#E3E9F7"/>
<path d="M345.907 154.665V168.202L344.405 167.127L342.035 168.822L339.666 167.127L337.299 168.822L334.93 167.127L332.561 168.822L330.192 167.127L327.823 168.822L325.455 167.127L323.086 168.822L320.717 167.127L318.348 168.822L315.98 167.127L313.611 168.822L312.738 168.198V148.678C312.738 147.446 313.735 146.447 314.965 146.447H337.553L337.703 146.594L345.907 154.665Z" fill="#E3E9F7"/>
<path opacity="0.1" d="M345.907 154.665H339.516C338.515 154.665 337.703 153.852 337.703 152.849V146.594L345.907 154.665Z" fill="black"/>
</g>
<defs>
<clipPath id="clip0_1744_11765">
<rect width="423" height="339" fill="white"/>
</clipPath>
</defs>
</svg>
