<svg width="87" height="87" viewBox="0 0 87 87" fill="none" xmlns="http://www.w3.org/2000/svg">
<g clip-path="url(#clip0_1105_2548)">
<path d="M43.5004 86.5921C67.2996 86.5921 86.5926 67.2991 86.5926 43.4999C86.5926 19.7007 67.2996 0.407715 43.5004 0.407715C19.7012 0.407715 0.408203 19.7007 0.408203 43.4999C0.408203 67.2991 19.7012 86.5921 43.5004 86.5921Z" fill="#32BA7C"/>
<path d="M32.4893 62.939L54.6471 85.0968C72.9986 80.203 86.5924 63.4827 86.5924 43.4999C86.5924 43.0921 86.5924 42.6843 86.5924 42.2765L69.1924 26.2358L32.4893 62.939Z" fill="#0AA06E"/>
<path d="M44.5881 53.1516C46.4912 55.0547 46.4912 58.3172 44.5881 60.2203L40.6459 64.1625C38.7428 66.0656 35.4803 66.0656 33.5772 64.1625L16.3131 46.7625C14.41 44.8594 14.41 41.5969 16.3131 39.6938L20.2553 35.7516C22.1584 33.8484 25.4209 33.8484 27.324 35.7516L44.5881 53.1516Z" fill="white"/>
<path d="M59.6773 23.1095C61.5805 21.2063 64.843 21.2063 66.7461 23.1095L70.6883 27.0517C72.5914 28.9548 72.5914 32.2173 70.6883 34.1204L40.782 63.8907C38.8789 65.7938 35.6164 65.7938 33.7133 63.8907L29.7711 59.9485C27.868 58.0454 27.868 54.7829 29.7711 52.8798L59.6773 23.1095Z" fill="white"/>
</g>
<defs>
<clipPath id="clip0_1105_2548">
<rect width="87" height="87" fill="white"/>
</clipPath>
</defs>
</svg>
