<?xml version="1.0" encoding="UTF-8" standalone="no"?>
<!-- Created with Inkscape (http://www.inkscape.org/) -->

<svg
   version="1.1"
   id="svg2"
   width="666.66663"
   height="496.81223"
   viewBox="0 0 666.66663 496.81223"
   sodipodi:docname="7182231_3582363.ai"
   xmlns:inkscape="http://www.inkscape.org/namespaces/inkscape"
   xmlns:sodipodi="http://sodipodi.sourceforge.net/DTD/sodipodi-0.dtd"
   xmlns="http://www.w3.org/2000/svg"
   xmlns:svg="http://www.w3.org/2000/svg">
  <defs
     id="defs6">
    <clipPath
       clipPathUnits="userSpaceOnUse"
       id="clipPath32">
      <path
         d="M 0,500 H 500 V 0 H 0 Z"
         id="path30" />
    </clipPath>
    <clipPath
       clipPathUnits="userSpaceOnUse"
       id="clipPath72">
      <path
         d="m 106.571,415.291 h 292.352 v -6.887 H 106.571 Z"
         id="path70" />
    </clipPath>
    <clipPath
       clipPathUnits="userSpaceOnUse"
       id="clipPath88">
      <path
         d="m 106.571,403.996 h 292.352 v -6.887 H 106.571 Z"
         id="path86" />
    </clipPath>
    <clipPath
       clipPathUnits="userSpaceOnUse"
       id="clipPath104">
      <path
         d="m 106.571,392.701 h 292.352 v -6.887 H 106.571 Z"
         id="path102" />
    </clipPath>
    <clipPath
       clipPathUnits="userSpaceOnUse"
       id="clipPath120">
      <path
         d="m 106.571,381.406 h 292.352 v -6.887 H 106.571 Z"
         id="path118" />
    </clipPath>
    <clipPath
       clipPathUnits="userSpaceOnUse"
       id="clipPath136">
      <path
         d="m 106.571,370.111 h 292.352 v -6.887 H 106.571 Z"
         id="path134" />
    </clipPath>
    <clipPath
       clipPathUnits="userSpaceOnUse"
       id="clipPath152">
      <path
         d="m 106.571,358.816 h 292.352 v -6.887 H 106.571 Z"
         id="path150" />
    </clipPath>
    <clipPath
       clipPathUnits="userSpaceOnUse"
       id="clipPath234">
      <path
         d="M 0,500 H 500 V 0 H 0 Z"
         id="path232" />
    </clipPath>
    <clipPath
       clipPathUnits="userSpaceOnUse"
       id="clipPath246">
      <path
         d="M 122.823,419.189 H 407.868 V 143.612 H 122.823 Z"
         id="path244" />
    </clipPath>
    <clipPath
       clipPathUnits="userSpaceOnUse"
       id="clipPath262">
      <path
         d="M 0,500 H 500 V 0 H 0 Z"
         id="path260" />
    </clipPath>
    <clipPath
       clipPathUnits="userSpaceOnUse"
       id="clipPath274">
      <path
         d="M 0,500 H 500 V 0 H 0 Z"
         id="path272" />
    </clipPath>
    <clipPath
       clipPathUnits="userSpaceOnUse"
       id="clipPath318">
      <path
         d="M 174.552,306.154 H 292.645 V 191.696 H 174.552 Z"
         id="path316" />
    </clipPath>
    <clipPath
       clipPathUnits="userSpaceOnUse"
       id="clipPath334">
      <path
         d="m 92.8,297.85 h 74.198 V 227.935 H 92.8 Z"
         id="path332" />
    </clipPath>
    <clipPath
       clipPathUnits="userSpaceOnUse"
       id="clipPath374">
      <path
         d="M 0,500 H 500 V 0 H 0 Z"
         id="path372" />
    </clipPath>
    <clipPath
       clipPathUnits="userSpaceOnUse"
       id="clipPath390">
      <path
         d="M 420.715,360.99 Z"
         id="path388" />
    </clipPath>
    <clipPath
       clipPathUnits="userSpaceOnUse"
       id="clipPath466">
      <path
         d="m 376.574,352.118 h 9.655 v -18.49 h -9.655 z"
         id="path464" />
    </clipPath>
    <clipPath
       clipPathUnits="userSpaceOnUse"
       id="clipPath486">
      <path
         d="m 339.225,344.69 h 12.989 v -5.56 h -12.989 z"
         id="path484" />
    </clipPath>
    <clipPath
       clipPathUnits="userSpaceOnUse"
       id="clipPath502">
      <path
         d="m 345.695,116.566 h 60.334 V 99.9374 h -60.334 z"
         id="path500" />
    </clipPath>
    <clipPath
       clipPathUnits="userSpaceOnUse"
       id="clipPath530">
      <path
         d="m 349.125,378.276 h 16.403 v -7.186 h -16.403 z"
         id="path528" />
    </clipPath>
    <clipPath
       clipPathUnits="userSpaceOnUse"
       id="clipPath554">
      <path
         d="m 355.771,292.596 h 52.183 V 107.252 h -52.183 z"
         id="path552" />
    </clipPath>
    <clipPath
       clipPathUnits="userSpaceOnUse"
       id="clipPath574">
      <path
         d="m 358.26,271.184 h 9.868 v -60.603 h -9.868 z"
         id="path572" />
    </clipPath>
    <clipPath
       clipPathUnits="userSpaceOnUse"
       id="clipPath594">
      <path
         d="m 337.358,292.596 h 31.188 V 102.498 h -31.188 z"
         id="path592" />
    </clipPath>
  </defs>
  <sodipodi:namedview
     id="namedview4"
     pagecolor="#ffffff"
     bordercolor="#000000"
     borderopacity="0.25"
     inkscape:showpageshadow="2"
     inkscape:pageopacity="0.0"
     inkscape:pagecheckerboard="0"
     inkscape:deskcolor="#d1d1d1"
     showgrid="false" />
  <g
     id="g10"
     inkscape:groupmode="layer"
     inkscape:label="Page 1"
     transform="matrix(1.3333333,0,0,-1.3333333,0,593.39718)">
    <path
       d="m 0,117.352 h 500 v 0.249 H 0 Z"
       style="fill:#ececec;fill-opacity:1;fill-rule:nonzero;stroke:none"
       id="path12" />
    <path
       d="m 416.779,101.256 h 33.122 v 0.249 h -33.122 z"
       style="fill:#ececec;fill-opacity:1;fill-rule:nonzero;stroke:none"
       id="path14" />
    <path
       d="m 322.527,98.542 h 8.693 v 0.25 h -8.693 z"
       style="fill:#ececec;fill-opacity:1;fill-rule:nonzero;stroke:none"
       id="path16" />
    <path
       d="m 396.586,110.542 h 19.192 v 0.25 h -19.192 z"
       style="fill:#ececec;fill-opacity:1;fill-rule:nonzero;stroke:none"
       id="path18" />
    <path
       d="m 52.459,108.861 h 43.193 v 0.25 H 52.459 Z"
       style="fill:#ececec;fill-opacity:1;fill-rule:nonzero;stroke:none"
       id="path20" />
    <path
       d="m 104.556,108.861 h 6.333 v 0.25 h -6.333 z"
       style="fill:#ececec;fill-opacity:1;fill-rule:nonzero;stroke:none"
       id="path22" />
    <path
       d="m 131.471,104.639 h 93.676 v 0.25 h -93.676 z"
       style="fill:#ececec;fill-opacity:1;fill-rule:nonzero;stroke:none"
       id="path24" />
    <g
       id="g26">
      <g
         id="g28"
         clip-path="url(#clipPath32)">
        <g
           id="g34"
           transform="translate(43.915,444.7979)">
          <path
             d="M 0,0 C -3.01,0 -5.458,-2.449 -5.458,-5.458 V -276.89 c 0,-3.009 2.448,-5.458 5.458,-5.458 h 193.099 c 3.008,0 5.457,2.449 5.457,5.458 V -5.458 c 0,3.009 -2.449,5.458 -5.457,5.458 z M 193.099,-282.598 H 0 c -3.147,0 -5.708,2.561 -5.708,5.708 V -5.458 c 0,3.146 2.561,5.708 5.708,5.708 h 193.099 c 3.146,0 5.707,-2.562 5.707,-5.708 V -276.89 c 0,-3.147 -2.561,-5.708 -5.707,-5.708"
             style="fill:#ececec;fill-opacity:1;fill-rule:nonzero;stroke:none"
             id="path36" />
        </g>
        <g
           id="g38"
           transform="translate(260.2119,444.7979)">
          <path
             d="M 0,0 C -3.009,0 -5.457,-2.449 -5.457,-5.458 V -276.89 c 0,-3.009 2.448,-5.458 5.457,-5.458 h 193.099 c 3.009,0 5.458,2.449 5.458,5.458 V -5.458 c 0,3.009 -2.449,5.458 -5.458,5.458 z M 193.099,-282.598 H 0 c -3.146,0 -5.707,2.561 -5.707,5.708 V -5.458 c 0,3.146 2.561,5.708 5.707,5.708 h 193.099 c 3.147,0 5.708,-2.562 5.708,-5.708 V -276.89 c 0,-3.147 -2.561,-5.708 -5.708,-5.708"
             style="fill:#ececec;fill-opacity:1;fill-rule:nonzero;stroke:none"
             id="path40" />
        </g>
        <path
           d="M 393.072,287.318 H 101.286 v 136.519 h 291.786 z"
           style="fill:#e7e7e7;fill-opacity:1;fill-rule:nonzero;stroke:none"
           id="path42" />
        <path
           d="M 397.468,287.318 H 103.34 v 136.519 h 294.128 z"
           style="fill:#f0f0f0;fill-opacity:1;fill-rule:nonzero;stroke:none"
           id="path44" />
        <path
           d="M 393.072,287.318 H 101.286 v -6.964 h 291.786 z"
           style="fill:#e7e7e7;fill-opacity:1;fill-rule:nonzero;stroke:none"
           id="path46" />
        <path
           d="M 404.791,287.318 H 110.663 v -6.964 h 294.128 z"
           style="fill:#f0f0f0;fill-opacity:1;fill-rule:nonzero;stroke:none"
           id="path48" />
        <path
           d="m 109.494,417.683 h 281.82 v -124.21 h -281.82 z"
           style="fill:#fafafa;fill-opacity:1;fill-rule:nonzero;stroke:none"
           id="path50" />
        <g
           id="g52"
           transform="translate(139.7329,293.4717)">
          <path
             d="M 0,0 17.128,124.211 H 43.856 L 26.728,0 Z"
             style="fill:#ffffff;fill-opacity:1;fill-rule:nonzero;stroke:none"
             id="path54" />
        </g>
        <g
           id="g56"
           transform="translate(112.343,299.5977)">
          <path
             d="m 0,0 c -0.243,0 -0.44,0.197 -0.44,0.439 v 113.642 c 0,0.243 0.197,0.44 0.44,0.44 0.243,0 0.44,-0.197 0.44,-0.44 V 0.439 C 0.44,0.197 0.243,0 0,0"
             style="fill:#f0f0f0;fill-opacity:1;fill-rule:nonzero;stroke:none"
             id="path58" />
        </g>
        <g
           id="g60"
           transform="translate(172.2021,293.4717)">
          <path
             d="m 0,0 17.128,124.211 h 10.42 L 10.42,0 Z"
             style="fill:#ffffff;fill-opacity:1;fill-rule:nonzero;stroke:none"
             id="path62" />
        </g>
        <path
           d="m 390.532,417.683 h 0.782 v -124.21 h -0.782 z"
           style="fill:#e7e7e7;fill-opacity:1;fill-rule:nonzero;stroke:none"
           id="path64" />
        <g
           id="g66">
          <g
             id="g68" />
          <g
             id="g80">
            <g
               clip-path="url(#clipPath72)"
               opacity="0.600006"
               id="g78">
              <g
                 transform="translate(398.9231,408.4043)"
                 id="g76">
                <path
                   d="m 0,0 h -291.786 l -0.567,6.887 H -0.566 Z"
                   style="fill:#ececec;fill-opacity:1;fill-rule:nonzero;stroke:none"
                   id="path74" />
              </g>
            </g>
          </g>
        </g>
        <g
           id="g82">
          <g
             id="g84" />
          <g
             id="g96">
            <g
               clip-path="url(#clipPath88)"
               opacity="0.600006"
               id="g94">
              <g
                 transform="translate(398.9231,397.1094)"
                 id="g92">
                <path
                   d="m 0,0 h -291.786 l -0.567,6.887 H -0.566 Z"
                   style="fill:#ececec;fill-opacity:1;fill-rule:nonzero;stroke:none"
                   id="path90" />
              </g>
            </g>
          </g>
        </g>
        <g
           id="g98">
          <g
             id="g100" />
          <g
             id="g112">
            <g
               clip-path="url(#clipPath104)"
               opacity="0.600006"
               id="g110">
              <g
                 transform="translate(398.9231,385.8145)"
                 id="g108">
                <path
                   d="m 0,0 h -291.786 l -0.567,6.887 H -0.566 Z"
                   style="fill:#ececec;fill-opacity:1;fill-rule:nonzero;stroke:none"
                   id="path106" />
              </g>
            </g>
          </g>
        </g>
        <g
           id="g114">
          <g
             id="g116" />
          <g
             id="g128">
            <g
               clip-path="url(#clipPath120)"
               opacity="0.600006"
               id="g126">
              <g
                 transform="translate(398.9231,374.5186)"
                 id="g124">
                <path
                   d="m 0,0 h -291.786 l -0.567,6.888 H -0.566 Z"
                   style="fill:#ececec;fill-opacity:1;fill-rule:nonzero;stroke:none"
                   id="path122" />
              </g>
            </g>
          </g>
        </g>
        <g
           id="g130">
          <g
             id="g132" />
          <g
             id="g144">
            <g
               clip-path="url(#clipPath136)"
               opacity="0.600006"
               id="g142">
              <g
                 transform="translate(398.9231,363.2236)"
                 id="g140">
                <path
                   d="m 0,0 h -291.786 l -0.567,6.887 H -0.566 Z"
                   style="fill:#ececec;fill-opacity:1;fill-rule:nonzero;stroke:none"
                   id="path138" />
              </g>
            </g>
          </g>
        </g>
        <g
           id="g146">
          <g
             id="g148" />
          <g
             id="g160">
            <g
               clip-path="url(#clipPath152)"
               opacity="0.600006"
               id="g158">
              <g
                 transform="translate(398.9231,351.9287)"
                 id="g156">
                <path
                   d="m 0,0 h -291.786 l -0.567,6.887 H -0.566 Z"
                   style="fill:#ececec;fill-opacity:1;fill-rule:nonzero;stroke:none"
                   id="path154" />
              </g>
            </g>
          </g>
        </g>
        <path
           d="M 439,117.601 H 394.47 V 253 H 439 Z"
           style="fill:#e7e7e7;fill-opacity:1;fill-rule:nonzero;stroke:none"
           id="path162" />
        <g
           id="g164"
           transform="translate(427.1091,117.6006)">
          <path
             d="M 0,0 H 11.891 V 18.691 H -12.468 Z"
             style="fill:#fafafa;fill-opacity:1;fill-rule:nonzero;stroke:none"
             id="path166" />
        </g>
        <path
           d="m 317.586,117.601 h -44.53 V 253 h 44.53 z"
           style="fill:#e7e7e7;fill-opacity:1;fill-rule:nonzero;stroke:none"
           id="path168" />
        <path
           d="M 439,124.034 H 307.208 V 253 H 439 Z"
           style="fill:#fafafa;fill-opacity:1;fill-rule:nonzero;stroke:none"
           id="path170" />
        <g
           id="g172"
           transform="translate(319.0996,117.6006)">
          <path
             d="M 0,0 H -11.891 V 18.691 H 12.467 Z"
             style="fill:#fafafa;fill-opacity:1;fill-rule:nonzero;stroke:none"
             id="path174" />
        </g>
        <path
           d="M 429.776,172.669 H 316.433 v 32.274 h 113.343 z"
           style="fill:#f0f0f0;fill-opacity:1;fill-rule:nonzero;stroke:none"
           id="path176" />
        <path
           d="M 429.776,133.497 H 316.433 v 32.274 h 113.343 z"
           style="fill:#f0f0f0;fill-opacity:1;fill-rule:nonzero;stroke:none"
           id="path178" />
        <g
           id="g180"
           transform="translate(407.2917,201.4922)">
          <path
             d="m 0,0 h -68.375 c -2.582,0 -4.674,2.093 -4.674,4.675 V 6.246 H 4.674 V 4.675 C 4.674,2.093 2.582,0 0,0"
             style="fill:#fafafa;fill-opacity:1;fill-rule:nonzero;stroke:none"
             id="path182" />
        </g>
        <path
           d="M 429.776,211.842 H 316.433 v 32.273 h 113.343 z"
           style="fill:#f0f0f0;fill-opacity:1;fill-rule:nonzero;stroke:none"
           id="path184" />
        <g
           id="g186"
           transform="translate(407.2917,240.665)">
          <path
             d="m 0,0 h -68.375 c -2.582,0 -4.674,2.093 -4.674,4.674 V 6.246 H 4.674 V 4.674 C 4.674,2.093 2.582,0 0,0"
             style="fill:#fafafa;fill-opacity:1;fill-rule:nonzero;stroke:none"
             id="path188" />
        </g>
        <g
           id="g190"
           transform="translate(407.2917,162.3203)">
          <path
             d="m 0,0 h -68.375 c -2.582,0 -4.674,2.093 -4.674,4.674 V 6.246 H 4.674 V 4.674 C 4.674,2.093 2.582,0 0,0"
             style="fill:#fafafa;fill-opacity:1;fill-rule:nonzero;stroke:none"
             id="path192" />
        </g>
        <g
           id="g194"
           transform="translate(53.4172,224.1328)">
          <path
             d="m 0,0 c 2.481,7.122 22.042,-2.563 29.981,-14.365 5.287,-7.861 8.517,-16.251 10.025,-27.522 C 39.825,-29.027 39.62,-15.21 39.419,-2.17 37.813,1.081 34.148,8.577 31.511,14.517 22.713,34.335 1.793,41.715 -5.434,54.228 -14.904,70.623 -14.85,95.217 -6.788,104.091 0.218,111.804 23.417,59.655 26.03,53.829 35.018,33.79 37.63,18.919 39.315,4.511 39.123,16.758 38.94,28.002 38.789,36.678 c -0.491,28.299 -1.105,37.4 -1.385,40.201 -0.969,1.368 -2.113,2.962 -2.777,3.817 -5.615,7.228 -18.071,15.832 -24.296,26.339 -9.09,15.342 -7.621,33.702 -1.246,40.539 6.666,7.149 18.452,-9.746 24.709,-26.487 6.256,-16.741 3.583,-32.764 5.338,-46.667 0.367,-2.728 0.744,-13.085 1.098,-27.451 1.898,15.458 5.679,25.814 12.685,35.465 8.618,11.869 16.058,26.323 23.159,24.455 C 83.175,105.021 79.353,85.896 73.735,72.47 68.732,60.513 44.052,48.587 40.416,38.973 c 0.428,-19.474 0.811,-44.145 1.082,-67.115 1.946,11.865 0.608,12.862 8.581,31.026 4.741,10.8 24.173,24.116 26.491,16.697 2.274,-7.282 -1.205,-21.444 -8.541,-31.266 -5.919,-7.923 -19.05,-7.914 -22.088,-12.83 -0.709,-1.147 -3.053,-5.545 -4.392,-8.072 0.318,-28.044 0.46,-52.798 0.302,-61.237 l -1.273,-0.086 c 0.061,2.18 -0.093,16.445 -0.343,35.323 C 37.047,-48.542 15.581,-42.679 8.95,-32.232 2.01,-21.3 -2.976,-8.543 0,0"
             style="fill:#e7e7e7;fill-opacity:1;fill-rule:nonzero;stroke:none"
             id="path196" />
        </g>
        <g
           id="g198"
           transform="translate(73.6011,117.6016)">
          <path
             d="m 0,0 h 41.2 c 2.252,0 4.191,1.586 4.639,3.792 l 2.924,14.419 H -7.563 L -4.638,3.792 C -4.191,1.586 -2.251,0 0,0"
             style="fill:#f0f0f0;fill-opacity:1;fill-rule:nonzero;stroke:none"
             id="path200" />
        </g>
        <g
           id="g202"
           transform="translate(64.8601,130.2227)">
          <path
             d="m 0,0 h 58.682 c 1.407,0 2.589,1.057 2.746,2.454 l 1.2,10.659 c 0.184,1.638 -1.097,3.073 -2.745,3.073 H -1.2 c -1.648,0 -2.93,-1.435 -2.745,-3.073 l 1.2,-10.659 C -2.588,1.057 -1.406,0 0,0"
             style="fill:#f0f0f0;fill-opacity:1;fill-rule:nonzero;stroke:none"
             id="path204" />
        </g>
        <path
           d="m 177.84,117.602 h -35.207 v 64.779 h 35.207 z"
           style="fill:#e1e1e1;fill-opacity:1;fill-rule:nonzero;stroke:none"
           id="path206" />
        <g
           id="g208"
           transform="translate(267.5791,117.6016)">
          <path
             d="m 0,0 h -117.894 l -12.384,87.897 h 117.894 z"
             style="fill:#e7e7e7;fill-opacity:1;fill-rule:nonzero;stroke:none"
             id="path210" />
        </g>
        <g
           id="g212"
           transform="translate(284.7778,117.6016)">
          <path
             d="m 0,0 h -130.408 l -12.384,87.897 h 130.408 z"
             style="fill:#f0f0f0;fill-opacity:1;fill-rule:nonzero;stroke:none"
             id="path214" />
        </g>
        <g
           id="g216"
           transform="translate(167.1353,131.3428)">
          <path
             d="M 0,0 -10.432,60.416 H 92.493 L 102.926,0 Z"
             style="fill:#ffffff;fill-opacity:1;fill-rule:nonzero;stroke:none"
             id="path218" />
        </g>
        <g
           id="g220"
           transform="translate(211.3596,131.3428)">
          <path
             d="m 0,0 -34.985,60.416 h 10.977 L 10.976,0 Z"
             style="fill:#fafafa;fill-opacity:1;fill-rule:nonzero;stroke:none"
             id="path222" />
        </g>
        <g
           id="g224"
           transform="translate(226.988,131.3428)">
          <path
             d="m 0,0 -34.985,60.416 h 18.716 L 18.716,0 Z"
             style="fill:#fafafa;fill-opacity:1;fill-rule:nonzero;stroke:none"
             id="path226" />
        </g>
      </g>
    </g>
    <g
       id="g228">
      <g
         id="g230"
         clip-path="url(#clipPath234)">
        <g
           id="g236"
           transform="translate(407.2629,202.127)"
           style="fill:#1b6e6d;fill-opacity:1">
          <path
             d="m 0,0 c 6.687,41.195 -43.192,154.321 -91.331,191.242 -62.434,47.886 -143.91,28.965 -180.405,-55.085 -33.906,-78.086 3.513,-158.179 71.333,-185.117 C -140.012,-72.948 -6.002,-49.986 0,0"
             style="fill:#1b6e6d;fill-opacity:1;fill-rule:nonzero;stroke:none"
             id="path238" />
        </g>
        <g
           id="g240"
           transform="translate(0,-0.05326906)">
          <g
             id="g242" />
          <g
             id="g254">
            <g
               clip-path="url(#clipPath246)"
               opacity="0.899994"
               id="g252">
              <g
                 transform="translate(407.2629,202.127)"
                 id="g250">
                <path
                   d="m 0,0 c 6.687,41.195 -43.192,154.321 -91.331,191.242 -62.434,47.886 -143.91,28.965 -180.405,-55.085 -33.906,-78.086 3.513,-158.179 71.333,-185.117 C -140.012,-72.948 -6.002,-49.986 0,0"
                   style="fill:#ffffff;fill-opacity:1;fill-rule:nonzero;stroke:none"
                   id="path248" />
              </g>
            </g>
          </g>
        </g>
      </g>
    </g>
    <g
       id="g256">
      <g
         id="g258"
         clip-path="url(#clipPath262)">
        <g
           id="g264"
           transform="translate(443.8894,83.7617)">
          <path
             d="m 0,0 c 0,-6.254 -86.807,-11.323 -193.889,-11.323 -107.082,0 -193.889,5.069 -193.889,11.323 0,6.254 86.807,11.323 193.889,11.323 C -86.807,11.323 0,6.254 0,0"
             style="fill:#f5f5f5;fill-opacity:1;fill-rule:nonzero;stroke:none"
             id="path266" />
        </g>
      </g>
    </g>
    <g
       id="g268">
      <g
         id="g270"
         clip-path="url(#clipPath274)">
        <g
           id="g276"
           transform="translate(77.2659,278.4697)">
          <path
             d="m 0,0 c -0.22,0 -0.405,0.168 -0.424,0.391 l -2.222,26.702 c -0.019,0.234 0.155,0.439 0.389,0.459 0.22,0.016 0.44,-0.155 0.459,-0.389 L 0.424,0.461 C 0.443,0.227 0.27,0.021 0.035,0.002 0.023,0.001 0.012,0 0,0"
             style="fill:#007cff;fill-opacity:1;fill-rule:nonzero;stroke:none"
             id="path278" />
        </g>
        <g
           id="g280"
           transform="translate(78.5852,262.6104)">
          <path
             d="m 0,0 c -0.22,0 -0.405,0.168 -0.424,0.391 l -0.673,8.083 c -0.019,0.234 0.155,0.439 0.389,0.459 0.225,0.029 0.439,-0.154 0.459,-0.389 L 0.424,0.461 C 0.443,0.227 0.27,0.021 0.035,0.002 0.023,0.001 0.012,0 0,0"
             style="fill:#007cff;fill-opacity:1;fill-rule:nonzero;stroke:none"
             id="path282" />
        </g>
        <g
           id="g284"
           transform="translate(303.5554,186.6299)">
          <path
             d="m 0,0 h -206.474 c -5.268,0 -9.937,4.31 -10.376,9.578 l -11.628,139.773 c -0.439,5.268 3.513,9.579 8.781,9.579 h 206.475 c 5.268,0 9.937,-4.311 10.375,-9.579 L 8.782,9.578 C 9.22,4.31 5.268,0 0,0"
             style="fill:#ffffff;fill-opacity:1;fill-rule:nonzero;stroke:none"
             id="path286" />
        </g>
        <g
           id="g288"
           transform="translate(83.8586,345.1602)"
           style="fill:#1b6e6d;fill-opacity:1">
          <path
             d="M 0,0 C -2.429,0 -4.64,-0.949 -6.226,-2.673 -7.82,-4.405 -8.587,-6.704 -8.384,-9.146 L 3.244,-148.919 c 0.423,-5.08 4.9,-9.212 9.979,-9.212 h 206.473 c 2.43,0 4.641,0.949 6.228,2.673 1.594,1.732 2.36,4.031 2.157,6.473 L 216.452,-9.213 C 216.029,-4.133 211.554,0 206.475,0 Z M 219.696,-158.93 H 13.223 c -5.485,0 -10.318,4.461 -10.774,9.945 L -9.179,-9.213 c -0.222,2.667 0.618,5.182 2.366,7.081 1.739,1.89 4.159,2.931 6.813,2.931 h 206.475 c 5.483,0 10.316,-4.462 10.772,-9.945 l 11.629,-139.773 c 0.223,-2.667 -0.618,-5.181 -2.365,-7.079 -1.74,-1.891 -4.159,-2.932 -6.815,-2.932"
             style="fill:#1b6e6d;fill-opacity:1;fill-rule:nonzero;stroke:none"
             id="path290" />
        </g>
        <g
           id="g292"
           transform="translate(290.3328,345.5596)">
          <path
             d="m 0,0 h -206.474 c -5.268,0 -9.22,-4.311 -8.782,-9.579 H 10.375 C 9.937,-4.311 5.268,0 0,0"
             style="fill:#1b6e6d;fill-opacity:1;fill-rule:nonzero;stroke:none"
             id="path294" />
        </g>
        <g
           id="g296"
           transform="translate(88.6919,340.7695)">
          <path
             d="m 0,0 c 0.095,-1.141 -0.753,-2.065 -1.894,-2.065 -1.141,0 -2.142,0.924 -2.237,2.065 -0.095,1.142 0.753,2.066 1.893,2.066 C -1.097,2.066 -0.095,1.142 0,0"
             style="fill:#ffffff;fill-opacity:1;fill-rule:nonzero;stroke:none"
             id="path298" />
        </g>
        <g
           id="g300"
           transform="translate(97.0918,340.7695)">
          <path
             d="m 0,0 c 0.095,-1.141 -0.753,-2.065 -1.894,-2.065 -1.14,0 -2.142,0.924 -2.237,2.065 -0.095,1.142 0.753,2.066 1.894,2.066 C -1.097,2.066 -0.095,1.142 0,0"
             style="fill:#ffffff;fill-opacity:1;fill-rule:nonzero;stroke:none"
             id="path302" />
        </g>
        <g
           id="g304"
           transform="translate(105.4919,340.7695)">
          <path
             d="m 0,0 c 0.095,-1.141 -0.753,-2.065 -1.894,-2.065 -1.141,0 -2.142,0.924 -2.237,2.065 -0.095,1.142 0.753,2.066 1.893,2.066 C -1.097,2.066 -0.095,1.142 0,0"
             style="fill:#ffffff;fill-opacity:1;fill-rule:nonzero;stroke:none"
             id="path306" />
        </g>
        <g
           id="g308"
           transform="translate(285.6367,204.9463)">
          <path
             d="m 0,0 h -173.684 c -4.188,0 -7.9,3.426 -8.248,7.614 l -8.111,97.49 c -0.349,4.187 2.793,7.614 6.981,7.614 H -9.378 c 4.188,0 7.899,-3.427 8.248,-7.614 L 6.981,7.614 C 7.329,3.426 4.188,0 0,0"
             style="fill:#f0f0f0;fill-opacity:1;fill-rule:nonzero;stroke:none"
             id="path310" />
        </g>
        <g
           id="g312">
          <g
             id="g314" />
          <g
             id="g326">
            <g
               clip-path="url(#clipPath318)"
               opacity="0.100006"
               id="g324">
              <g
                 transform="translate(231.9233,300.5928)"
                 id="g322">
                <path
                   d="m 0,0 -53.808,-64.782 c -7.381,-8.887 -2.705,-22.435 8.586,-24.877 l 87.273,-18.875 c 12.052,-2.607 22.123,9.31 17.543,20.759 L 26.129,-4.117 C 21.796,6.716 7.455,8.976 0,0"
                   style="fill:#1a2e35;fill-opacity:1;fill-rule:nonzero;stroke:none"
                   id="path320" />
              </g>
            </g>
          </g>
        </g>
        <g
           id="g328">
          <g
             id="g330" />
          <g
             id="g342">
            <g
               clip-path="url(#clipPath334)"
               opacity="0.100006"
               id="g340">
              <g
                 transform="translate(112.1609,291.5098)"
                 id="g338">
                <path
                   d="m 0,0 -18.741,-50.466 c -2.501,-6.734 2.913,-13.762 10.063,-13.06 l 54.728,5.366 c 7.675,0.753 11.461,9.712 6.651,15.74 L 16.714,2.68 C 11.997,8.591 2.633,7.09 0,0"
                   style="fill:#1a2e35;fill-opacity:1;fill-rule:nonzero;stroke:none"
                   id="path336" />
              </g>
            </g>
          </g>
        </g>
        <g
           id="g344"
           transform="translate(250.4846,316.9043)"
           style="fill:#1b6e6d;fill-opacity:1">
          <path
             d="m 0,0 -50.301,-73.038 c -6.852,-9.948 -0.782,-23.624 11.192,-25.218 l 92.465,-12.306 c 12.834,-1.708 22.377,11.6 16.642,23.208 L 27.834,-2.011 C 22.364,9.062 7.005,10.171 0,0"
             style="fill:#1b6e6d;fill-opacity:1;fill-rule:nonzero;stroke:none"
             id="path346" />
        </g>
        <g
           id="g348"
           transform="translate(213.5703,225.1963)">
          <path
             d="m 0,0 c -3.363,0.447 -6.285,2.567 -7.819,5.671 -1.533,3.103 -1.357,6.542 0.472,9.198 l 50.428,73.222 c 1.829,2.655 4.929,3.974 8.292,3.526 3.362,-0.447 6.285,-2.567 7.818,-5.67 L 101.462,0.389 c 1.533,-3.105 1.357,-6.542 -0.473,-9.2 -1.829,-2.654 -4.929,-3.973 -8.291,-3.526 z"
             style="fill:#ffffff;fill-opacity:1;fill-rule:nonzero;stroke:none"
             id="path350" />
        </g>
        <g
           id="g352"
           transform="translate(260.1785,239.3711)">
          <path
             d="M 0,0 1.606,-0.214 C 4.994,-0.665 7.6,-3.746 7.428,-7.097 7.256,-10.446 4.37,-12.797 0.983,-12.346 l -1.606,0.213 c -3.388,0.451 -5.995,3.532 -5.823,6.883 C -6.273,-1.899 -3.388,0.45 0,0 m 0.47,51.56 5.889,-0.784 c 3.788,-0.504 6.702,-3.949 6.51,-7.694 L 12.474,35.4 C 12.459,35.119 12.427,34.84 12.377,34.564 L 8.187,11.415 C 7.583,8.078 4.535,5.921 1.077,6.381 -2.388,6.842 -5.178,9.788 -5.424,13.246 L -7.123,37.17 c -0.02,0.277 -0.023,0.555 -0.008,0.829 l 0.395,7.691 c 0.192,3.747 3.419,6.374 7.206,5.87"
             style="fill:#1b6e6d;fill-opacity:1;fill-rule:nonzero;stroke:none"
             id="path354" />
        </g>
        <g
           id="g356"
           transform="translate(131.5049,305.7402)"
           style="fill:#1b6e6d;fill-opacity:1">
          <path
             d="m 0,0 -13.811,-52.373 c -1.829,-6.936 4.224,-13.396 11.263,-12.023 l 53.571,10.454 c 7.528,1.468 10.47,10.668 5.193,16.232 L 16.455,4.212 C 11.214,9.737 1.942,7.364 0,0"
             style="fill:#1b6e6d;fill-opacity:1;fill-rule:nonzero;stroke:none"
             id="path358" />
        </g>
        <g
           id="g360"
           transform="translate(128.8547,245.5869)">
          <path
             d="M 0,0 C -1.948,-0.38 -3.975,0.304 -5.42,1.827 -6.867,3.353 -7.43,5.399 -6.928,7.305 L 6.918,59.811 c 0.503,1.904 1.966,3.268 3.914,3.648 1.948,0.38 3.974,-0.304 5.42,-1.827 L 56.113,19.604 c 1.446,-1.525 2.01,-3.571 1.507,-5.476 -0.502,-1.904 -1.965,-3.269 -3.913,-3.649 z"
             style="fill:#ffffff;fill-opacity:1;fill-rule:nonzero;stroke:none"
             id="path362" />
        </g>
        <g
           id="g364"
           transform="translate(151.9399,262.7881)">
          <path
             d="M 0,0 0.931,0.182 C 2.893,0.564 4.929,-0.742 5.478,-2.736 6.027,-4.731 4.881,-6.658 2.918,-7.041 L 1.988,-7.223 C 0.025,-7.606 -2.011,-6.3 -2.56,-4.305 -3.109,-2.311 -1.963,-0.383 0,0 m -9.655,30.281 3.413,0.666 c 2.194,0.429 4.47,-1.032 5.084,-3.262 L 0.101,23.111 C 0.147,22.944 0.182,22.774 0.208,22.604 L 2.339,8.248 C 2.646,6.179 1.373,4.333 -0.63,3.942 -2.638,3.551 -4.75,4.743 -5.551,6.721 l -5.541,13.684 c -0.064,0.159 -0.119,0.321 -0.164,0.485 l -1.261,4.579 c -0.613,2.229 0.668,4.385 2.862,4.812"
             style="fill:#1b6e6d;fill-opacity:1;fill-rule:nonzero;stroke:none"
             id="path366" />
        </g>
      </g>
    </g>
    <g
       id="g368">
      <g
         id="g370"
         clip-path="url(#clipPath374)">
        <g
           id="g376"
           transform="translate(388.3625,293.9648)">
          <path
             d="m 0,0 -7.761,-2.521 6.243,-7.386 c 0,0 2.941,2.503 4.544,5.311 0.67,1.173 0.284,2.666 -0.883,3.347 z"
             style="fill:#913c38;fill-opacity:1;fill-rule:nonzero;stroke:none"
             id="path378" />
        </g>
        <g
           id="g380"
           transform="translate(377.0305,285.3818)">
          <path
             d="M 0,0 4.653,-5.652 9.814,-1.324 3.571,6.062 Z"
             style="fill:#913c38;fill-opacity:1;fill-rule:nonzero;stroke:none"
             id="path382" />
        </g>
        <g
           id="g384">
          <g
             id="g386" />
          <g
             id="g398">
            <g
               clip-path="url(#clipPath390)"
               opacity="0.199997"
               id="g396">
              <g
                 transform="translate(420.7151,360.9902)"
                 id="g394">
                <path
                   d="M 0,0 Z"
                   style="fill:#000000;fill-opacity:1;fill-rule:nonzero;stroke:none"
                   id="path392" />
              </g>
            </g>
          </g>
        </g>
        <g
           id="g400"
           transform="translate(390.866,354.3223)">
          <path
             d="m 0,0 c 1.896,-5.198 3.636,-10.397 5.283,-15.67 1.626,-5.284 3.176,-10.561 4.497,-16.106 l 0.473,-2.126 0.22,-1.111 0.109,-0.554 0.027,-0.141 0.032,-0.212 0.058,-0.425 c 0.279,-2.263 0.042,-4.043 -0.27,-5.694 C 9.776,-45.306 8.714,-48.076 7.547,-50.767 5.17,-56.108 2.32,-60.909 -1.016,-65.563 l -5.185,2.868 c 1.836,4.983 3.651,10.115 5.01,15.058 0.654,2.463 1.216,4.947 1.383,7.095 0.076,1.051 0.023,2.034 -0.12,2.479 l -0.431,1.564 -0.557,1.846 c -1.569,5.007 -3.359,10.155 -5.13,15.27 -1.761,5.125 -3.538,10.287 -5.243,15.421 z"
             style="fill:#913c38;fill-opacity:1;fill-rule:nonzero;stroke:none"
             id="path402" />
        </g>
        <g
           id="g404"
           transform="translate(347.6775,385.2578)">
          <path
             d="m 0,0 c 0.132,-0.624 -0.088,-1.212 -0.492,-1.313 -0.403,-0.102 -0.837,0.321 -0.969,0.944 -0.132,0.623 0.088,1.211 0.491,1.312 C -0.566,1.046 -0.132,0.623 0,0"
             style="fill:#1a2e35;fill-opacity:1;fill-rule:nonzero;stroke:none"
             id="path406" />
        </g>
        <g
           id="g408"
           transform="translate(347.646,384.0605)">
          <path
             d="m 0,0 c 0,0 -0.642,-3.95 -1.819,-6.075 1.31,-0.754 3.067,0.185 3.067,0.185 z"
             style="fill:#740606;fill-opacity:1;fill-rule:nonzero;stroke:none"
             id="path410" />
        </g>
        <g
           id="g412"
           transform="translate(346.0271,389.041)">
          <path
             d="M 0,0 C -0.118,0 -0.234,0.056 -0.307,0.159 -0.425,0.328 -0.384,0.562 -0.215,0.681 -0.154,0.723 1.288,1.71 3.171,0.935 3.362,0.855 3.453,0.638 3.375,0.446 3.296,0.256 3.077,0.164 2.886,0.243 1.377,0.865 0.226,0.075 0.214,0.067 0.149,0.021 0.074,0 0,0"
             style="fill:#1a2e35;fill-opacity:1;fill-rule:nonzero;stroke:none"
             id="path414" />
        </g>
        <g
           id="g416"
           transform="translate(369.1116,383.2754)">
          <path
             d="m 0,0 c 0.698,-7.259 -0.332,-14.287 1.293,-20.599 0,0 -1.805,-5.857 -12.534,-5.857 -11.798,0 -5.413,5.856 -5.413,5.856 6.499,1.538 6.517,6.316 5.569,10.802 z"
             style="fill:#913c38;fill-opacity:1;fill-rule:nonzero;stroke:none"
             id="path418" />
        </g>
        <g
           id="g420"
           transform="translate(372.6909,360.666)">
          <path
             d="m 0,0 c 0.917,1.854 1.525,4.479 -0.375,5.144 -2.091,0.731 -13.256,0.974 -17.308,-0.399 -4.052,-1.373 -3.063,-5.133 -3.063,-5.133 z"
             style="fill:#1a2e35;fill-opacity:1;fill-rule:nonzero;stroke:none"
             id="path422" />
        </g>
        <g
           id="g424"
           transform="translate(398.2815,98.2715)">
          <path
             d="m 0,0 c -1.357,-0.623 -2.466,-0.83 -3.016,-0.554 -0.241,0.122 -0.385,0.337 -0.44,0.658 -0.027,0.157 0.023,0.223 0.07,0.263 C -2.962,0.729 -1.25,0.376 0,0 m -1.482,-0.965 c 0.776,0.184 1.575,0.543 2.125,0.821 0.073,0.038 0.117,0.115 0.111,0.197 C 0.748,0.135 0.694,0.206 0.616,0.232 0.265,0.351 -2.836,1.374 -3.651,0.678 -3.778,0.569 -3.917,0.37 -3.859,0.035 c 0.077,-0.451 0.299,-0.772 0.66,-0.954 0.455,-0.228 1.078,-0.196 1.717,-0.046"
             style="fill:#007cff;fill-opacity:1;fill-rule:nonzero;stroke:none"
             id="path426" />
        </g>
        <g
           id="g428"
           transform="translate(396.3801,101.1123)">
          <path
             d="m 0,0 c 0.164,0.039 0.327,0.018 0.498,-0.065 0.746,-0.364 1.348,-1.711 1.613,-2.396 -1.018,0.451 -2.416,1.588 -2.443,2.165 -0.002,0.053 -0.007,0.177 0.243,0.27 C -0.059,-0.016 -0.03,-0.007 0,0 m 2.499,-3.001 c 0.037,0.009 0.072,0.028 0.1,0.058 0.052,0.053 0.07,0.131 0.047,0.203 C 2.614,-2.639 1.841,-0.265 0.677,0.302 0.374,0.449 0.069,0.468 -0.23,0.356 v 0 c -0.462,-0.17 -0.517,-0.493 -0.51,-0.669 0.044,-0.979 2.158,-2.42 3.138,-2.686 0.033,-0.01 0.068,-0.01 0.101,-0.002"
             style="fill:#007cff;fill-opacity:1;fill-rule:nonzero;stroke:none"
             id="path430" />
        </g>
        <g
           id="g432"
           transform="translate(343.8396,91.8018)">
          <path
             d="M 0,0 C -1.464,-0.294 -2.59,-0.24 -3.062,0.156 -3.269,0.33 -3.36,0.572 -3.34,0.896 -3.33,1.056 -3.265,1.108 -3.21,1.137 -2.715,1.392 -1.13,0.654 0,0 m -1.664,-0.597 c 0.797,0 1.658,0.165 2.257,0.31 0.079,0.019 0.14,0.085 0.153,0.166 C 0.76,-0.04 0.723,0.041 0.653,0.085 0.339,0.281 -2.444,1.99 -3.397,1.5 -3.545,1.424 -3.726,1.263 -3.747,0.923 c -0.029,-0.457 0.113,-0.82 0.422,-1.08 0.391,-0.327 1.004,-0.44 1.661,-0.44"
             style="fill:#007cff;fill-opacity:1;fill-rule:nonzero;stroke:none"
             id="path434" />
        </g>
        <g
           id="g436"
           transform="translate(342.6433,95.0049)">
          <path
             d="m 0,0 c 0.168,0 0.323,-0.059 0.469,-0.179 0.643,-0.525 0.918,-1.975 1.019,-2.702 -0.887,0.674 -1.986,2.101 -1.879,2.669 0.01,0.052 0.033,0.174 0.298,0.206 C -0.061,-0.002 -0.03,0 0,0 m 1.741,-3.496 c 0.039,0 0.077,0.012 0.111,0.033 0.063,0.041 0.098,0.112 0.093,0.188 C 1.936,-3.17 1.73,-0.682 0.728,0.137 0.467,0.351 0.174,0.438 -0.142,0.399 -0.631,0.34 -0.759,0.038 -0.792,-0.136 -0.974,-1.098 0.751,-2.986 1.643,-3.471 1.674,-3.487 1.707,-3.496 1.741,-3.496"
             style="fill:#007cff;fill-opacity:1;fill-rule:nonzero;stroke:none"
             id="path438" />
        </g>
        <g
           id="g440"
           transform="translate(353.6672,91.8213)">
          <path
             d="m 0,0 h -7.893 l -0.08,18.278 h 7.893 z"
             style="fill:#913c38;fill-opacity:1;fill-rule:nonzero;stroke:none"
             id="path442" />
        </g>
        <g
           id="g444"
           transform="translate(408.6626,98.584)">
          <path
             d="m 0,0 -7.599,-1.393 -5.451,17.987 7.6,1.392 z"
             style="fill:#913c38;fill-opacity:1;fill-rule:nonzero;stroke:none"
             id="path446" />
        </g>
        <g
           id="g448"
           transform="translate(399.6179,99.2129)">
          <path
             d="M 0,0 8.63,2.041 C 8.944,2.115 9.259,1.959 9.387,1.666 l 2.868,-6.531 C 12.553,-5.543 12.129,-6.351 11.401,-6.51 8.378,-7.17 6.88,-7.337 3.084,-8.234 c -2.334,-0.553 -7.096,-1.935 -10.32,-2.698 -3.154,-0.745 -4.276,2.356 -3.014,2.959 5.663,2.706 7.539,5.035 9.097,7.202 C -0.873,-0.38 -0.459,-0.108 0,0"
             style="fill:#1a2e35;fill-opacity:1;fill-rule:nonzero;stroke:none"
             id="path450" />
        </g>
        <g
           id="g452"
           transform="translate(345.8616,92.7354)">
          <path
             d="m 0,0 h 8.62 c 0.322,0 0.593,-0.225 0.651,-0.539 l 1.288,-7.017 c 0.134,-0.726 -0.445,-1.416 -1.189,-1.403 -3.108,0.053 -7.594,0.235 -11.502,0.235 -4.57,0 -6.198,-0.25 -11.557,-0.25 -3.24,0 -4.013,3.277 -2.645,3.574 6.226,1.35 8.946,1.495 14.409,4.785 C -1.332,-0.258 -0.681,0 0,0"
             style="fill:#1a2e35;fill-opacity:1;fill-rule:nonzero;stroke:none"
             id="path454" />
        </g>
        <g
           id="g456"
           transform="translate(388.0005,360.6387)"
           style="fill:#309da0;fill-opacity:1">
          <path
             d="M 0,0 C 7.366,-5.184 9.584,-18.545 9.584,-18.545 L -7.111,-27.01 c 0,0 -4.241,8.218 -6.097,16.57 C -14.966,-2.535 -5.236,3.686 0,0"
             style="fill:#309da0;fill-opacity:1;fill-rule:nonzero;stroke:none"
             id="path458" />
        </g>
        <g
           id="g460">
          <g
             id="g462" />
          <g
             id="g474">
            <g
               clip-path="url(#clipPath466)"
               opacity="0.199997"
               id="g472">
              <g
                 transform="translate(379.6499,352.1182)"
                 id="g470">
                <path
                   d="M 0,0 6.58,-15.762 1.244,-18.49 c 0,0 -2.328,4.532 -4.32,10.325 z"
                   style="fill:#000000;fill-opacity:1;fill-rule:nonzero;stroke:none"
                   id="path468" />
              </g>
            </g>
          </g>
        </g>
        <g
           id="g476"
           transform="translate(338.8896,325.9668)"
           style="fill:#309da0;fill-opacity:1">
          <path
             d="m 0,0 c 0.058,-8.81 0.591,-19.769 1.903,-33.371 h 42.224 c 0.518,6.201 -2.073,35.436 4.213,64.707 0.467,2.177 -0.989,4.297 -3.19,4.639 -2.691,0.418 -6.371,0.897 -9.972,1.072 -5.384,0.258 -13.188,0.43 -17.943,0 C 14.649,36.812 12.118,36.398 10.036,35.993 6.433,35.292 3.568,32.602 2.615,29.057 1.704,25.67 0.773,20.461 0.304,12.604 0.089,8.982 -0.029,4.813 0,0"
             style="fill:#309da0;fill-opacity:1;fill-rule:nonzero;stroke:none"
             id="path478" />
        </g>
        <g
           id="g480">
          <g
             id="g482" />
          <g
             id="g494">
            <g
               clip-path="url(#clipPath486)"
               opacity="0.199997"
               id="g492">
              <g
                 transform="translate(352.2144,342.54)"
                 id="g490">
                <path
                   d="m 0,0 c -2.79,-2.05 -8.13,-2.99 -12.99,-3.41 0.08,1.29 0.18,2.51 0.29,3.66 1.31,0.69 2.57,1.32 3.76,1.899 z"
                   style="fill:#000000;fill-opacity:1;fill-rule:nonzero;stroke:none"
                   id="path488" />
              </g>
            </g>
          </g>
        </g>
        <g
           id="g496">
          <g
             id="g498" />
          <g
             id="g514">
            <g
               clip-path="url(#clipPath502)"
               opacity="0.199997"
               id="g512">
              <g
                 transform="translate(345.6953,110.0947)"
                 id="g506">
                <path
                   d="M 0,0 0.04,-10.157 H 7.937 L 7.896,0 Z"
                   style="fill:#000000;fill-opacity:1;fill-rule:nonzero;stroke:none"
                   id="path504" />
              </g>
              <g
                 transform="translate(403.2153,116.5664)"
                 id="g510">
                <path
                   d="m 0,0 -7.602,-1.394 2.813,-9.27 7.602,1.393 z"
                   style="fill:#000000;fill-opacity:1;fill-rule:nonzero;stroke:none"
                   id="path508" />
              </g>
            </g>
          </g>
        </g>
        <g
           id="g516"
           transform="translate(367.9856,391.7783)">
          <path
             d="m 0,0 c 1.156,-7.772 2.223,-12.248 -0.773,-17.144 -4.507,-7.365 -14.607,-6.222 -18.035,0.962 -3.085,6.466 -4.458,18.09 2.317,23.011 C -9.816,11.677 -1.156,7.772 0,0"
             style="fill:#913c38;fill-opacity:1;fill-rule:nonzero;stroke:none"
             id="path518" />
        </g>
        <g
           id="g520"
           transform="translate(351.8381,386.1035)">
          <path
             d="m 0,0 c -2.925,1.285 -2.647,5.896 -1.758,7.841 -3.389,-1.167 -8.289,-1.833 -9.172,1.611 -0.884,3.444 2.116,4.556 0.283,7.5 -1.833,2.944 4,6.167 6.722,2.056 2.722,-4.112 9.436,-2.305 13.778,1.666 3.158,2.889 7.778,-0.833 5.944,-4.611 0,0 9.5,0.611 7.611,-5.834 C 21.52,3.785 18.853,3.553 19.464,-1.03 19.878,-4.134 20.242,-10.437 16.52,-11.326 12.023,-12.399 0.797,-8.415 0,0"
             style="fill:#1a2e35;fill-opacity:1;fill-rule:nonzero;stroke:none"
             id="path522" />
        </g>
        <g
           id="g524">
          <g
             id="g526" />
          <g
             id="g538">
            <g
               clip-path="url(#clipPath530)"
               opacity="0.199997"
               id="g536">
              <g
                 transform="translate(351.7842,377.6895)"
                 id="g534">
                <path
                   d="m 0,0 c -0.86,-0.619 -1.75,-1.279 -2.66,-1.979 0.02,-0.041 0.03,-0.071 0.05,-0.11 0.94,-1.971 2.39,-3.49 4.09,-4.511 0.566,0.549 0.882,2.397 1.948,2.369 3.166,-0.083 9.301,1.241 10.316,4.818 z"
                   style="fill:#000000;fill-opacity:1;fill-rule:nonzero;stroke:none"
                   id="path532" />
              </g>
            </g>
          </g>
        </g>
        <g
           id="g540"
           transform="translate(354.2456,386.2139)">
          <path
             d="M 0,0 C 0.221,-1.992 -0.149,-3.859 -0.751,-5.075 -1.657,-6.904 -3.073,-5.738 -3.628,-3.488 -4.127,-1.462 -4.257,1.931 -2.96,2.929 -1.682,3.911 -0.252,2.278 0,0"
             style="fill:#913c38;fill-opacity:1;fill-rule:nonzero;stroke:none"
             id="path542" />
        </g>
        <g
           id="g544"
           transform="translate(355.771,292.5957)"
           style="fill:#1b6e6d;fill-opacity:1">
          <path
             d="m 0,0 c 0,0 6.629,-60.32 10.674,-82.919 4.429,-24.746 27.369,-102.425 27.369,-102.425 l 14.14,3.012 c 0,0 -15.79,72.668 -17.917,97.17 C 31.958,-58.569 27.241,0 27.241,0 Z"
             style="fill:#1b6e6d;fill-opacity:1;fill-rule:nonzero;stroke:none"
             id="path546" />
        </g>
        <g
           id="g548"
           transform="translate(-46.004845,4.2372884)">
          <g
             id="g550" />
          <g
             id="g562"
             transform="translate(44.794191,-4.2372884)">
            <g
               clip-path="url(#clipPath554)"
               opacity="0.300003"
               id="g560">
              <g
                 transform="translate(355.771,292.5957)"
                 id="g558">
                <path
                   d="m 0,0 c 0,0 6.629,-60.32 10.674,-82.919 4.429,-24.746 27.369,-102.425 27.369,-102.425 l 14.14,3.012 c 0,0 -15.79,72.668 -17.917,97.17 -2.194,25.28 -2.198,25.226 -7.025,85.162 z"
                   style="fill:#000000;fill-opacity:1;fill-rule:nonzero;stroke:none"
                   id="path556" />
              </g>
            </g>
          </g>
        </g>
        <g
           id="g564"
           transform="translate(390.6482,112.0234)">
          <path
             d="m 0,0 c -0.06,-0.013 2.406,-5.163 2.406,-5.163 l 15.909,3.388 -1.137,4.823 z"
             style="fill:#1a2e35;fill-opacity:1;fill-rule:nonzero;stroke:none"
             id="path566" />
        </g>
        <g
           id="g568">
          <g
             id="g570" />
          <g
             id="g582">
            <g
               clip-path="url(#clipPath574)"
               opacity="0.199997"
               id="g580">
              <g
                 transform="translate(360.6023,271.1035)"
                 id="g578">
                <path
                   d="M 0,0 C 10.279,-2.03 7.692,-40.656 5.678,-60.522 3.234,-46.479 -0.096,-19.458 -2.342,-0.279 -1.641,0.064 -0.864,0.172 0,0"
                   style="fill:#000000;fill-opacity:1;fill-rule:nonzero;stroke:none"
                   id="path576" />
              </g>
            </g>
          </g>
        </g>
        <g
           id="g584"
           transform="translate(340.7949,292.5957)"
           style="fill:#1b6e6d;fill-opacity:1">
          <path
             d="M 0,0 C 0,0 -3.365,-59.015 -3.436,-83.085 -3.51,-108.121 2.07,-190.098 2.07,-190.098 h 13.371 c 0,0 3.599,80.514 5.143,105.102 C 22.268,-58.19 27.751,0 27.751,0 Z"
             style="fill:#1b6e6d;fill-opacity:1;fill-rule:nonzero;stroke:none"
             id="path586" />
        </g>
        <g
           id="g588"
           transform="translate(-118.03875,7.8692498)">
          <g
             id="g590" />
          <g
             id="g602"
             style="fill:#309da0;fill-opacity:1"
             transform="translate(119.2494,-7.8692498)">
            <g
               clip-path="url(#clipPath594)"
               opacity="0.300003"
               id="g600"
               style="fill:#309da0;fill-opacity:1">
              <g
                 transform="translate(340.7949,292.5957)"
                 id="g598"
                 style="fill:#309da0;fill-opacity:1">
                <path
                   d="M 0,0 C 0,0 -3.365,-59.015 -3.436,-83.085 -3.51,-108.121 2.07,-190.098 2.07,-190.098 h 13.371 c 0,0 3.599,80.514 5.143,105.102 C 22.268,-58.19 27.751,0 27.751,0 Z"
                   style="fill:#309da0;fill-opacity:1;fill-rule:nonzero;stroke:none"
                   id="path596" />
              </g>
            </g>
          </g>
        </g>
        <g
           id="g604"
           transform="translate(340.4973,107.8232)">
          <path
             d="m 0,0 c -0.062,0 0.54,-5.551 0.54,-5.551 h 16.265 l 0.631,4.954 z"
             style="fill:#1a2e35;fill-opacity:1;fill-rule:nonzero;stroke:none"
             id="path606" />
        </g>
        <g
           id="g608"
           transform="translate(357.5193,348.2607)">
          <path
             d="m 0,0 c -1.596,-0.155 -2.951,-0.237 -4.415,-0.28 -1.437,-0.047 -2.871,-0.066 -4.308,-0.061 -2.872,0.032 -5.755,0.178 -8.652,0.502 -2.898,0.311 -5.812,0.78 -8.743,1.502 -2.933,0.705 -5.887,1.687 -8.822,3.131 l -0.333,0.163 c -2.585,1.272 -3.65,4.399 -2.378,6.984 0.138,0.282 0.317,0.568 0.496,0.812 1.365,1.835 2.691,3.116 4.046,4.327 1.349,1.195 2.701,2.27 4.062,3.291 2.715,2.051 5.498,3.862 8.289,5.622 2.805,1.736 5.637,3.384 8.508,4.952 2.895,1.544 5.758,3.062 8.76,4.455 1.492,0.694 3.263,0.045 3.956,-1.446 0.599,-1.291 0.196,-2.789 -0.889,-3.619 L -0.457,30.31 c -2.515,-1.927 -5.102,-3.841 -7.61,-5.802 -2.527,-1.943 -5.042,-3.886 -7.495,-5.866 -2.464,-1.96 -4.862,-3.983 -7.127,-6.014 -1.132,-1.017 -2.215,-2.053 -3.19,-3.086 -0.96,-1.021 -1.872,-2.079 -2.358,-2.883 l -2.215,7.96 c 2.036,-0.792 4.334,-1.36 6.723,-1.793 2.395,-0.415 4.886,-0.685 7.411,-0.861 2.527,-0.16 5.09,-0.244 7.663,-0.245 1.286,-0.009 2.576,0.005 3.86,0.044 1.258,0.047 2.623,0.091 3.741,0.154 l 0.137,0.008 C 2.382,12.111 5.206,9.587 5.391,6.289 5.572,3.077 3.171,0.314 0,0"
             style="fill:#913c38;fill-opacity:1;fill-rule:nonzero;stroke:none"
             id="path610" />
        </g>
        <g
           id="g612"
           transform="translate(363.1182,385.2773)">
          <path
             d="m 0,0 -5.022,-1.108 c 0,0 -6.689,0.831 -8.22,-4.211 l 3.963,-3.382 6.118,-0.967 c 0.97,-0.154 1.964,0.008 2.836,0.459 l 1.562,0.811 c 0.718,0.372 1.197,1.084 1.272,1.888 l 0.369,3.969 C 3.028,-0.937 1.573,0.348 0,0"
             style="fill:#913c38;fill-opacity:1;fill-rule:nonzero;stroke:none"
             id="path614" />
        </g>
        <g
           id="g616"
           transform="translate(353.3579,342.417)"
           style="fill:#309da0;fill-opacity:1">
          <path
             d="m 0,0 c -8.411,-2.334 -18,0.583 -18,0.583 l 3.528,18.833 c 0,0 8.355,0.732 13.572,0.843 C 12.531,20.544 15.163,4.206 0,0"
             style="fill:#309da0;fill-opacity:1;fill-rule:nonzero;stroke:none"
             id="path618" />
        </g>
      </g>
    </g>
  </g>
</svg>
