<svg xmlns="http://www.w3.org/2000/svg" xmlns:xlink="http://www.w3.org/1999/xlink" width="333" height="496" viewBox="0 0 333 496">
  <defs>
    <clipPath id="clip-path">
      <rect id="Rectangle_1527" data-name="Rectangle 1527" width="333" height="496" transform="translate(-61.729 -34.081)" fill="#fff" stroke="#000" stroke-width="1"/>
    </clipPath>
    <clipPath id="clip-path-2">
      <path id="bg" d="M-32.363,405.828c-33.809-40.481-39.916-110.144-10.5-147.415A60.882,60.882,0,0,1-26.18,244.13C3.158,225.96,49.487,224.158,75.647,212.16a251.2,251.2,0,0,0,25.646-13.624c31.038-19.026,51.98-41.02,58.088-52.427C187.3,93.977,158.36,32.991,191.6-9a75.462,75.462,0,0,1,20.482-17.844c21.243-13.144,50.763-18.312,86.831-16.874l168.5,283.447Q454.513,255.758,441,270.808C355.044,369.68,251.86,448.659,134.836,460.617a248.036,248.036,0,0,1-25.227,1.3C33.624,461.918-15.79,425.671-32.363,405.828Z" transform="translate(61.73 43.955)" fill="none"/>
    </clipPath>
  </defs>
  <g id="House_for_sale" data-name="House for sale" transform="translate(-1077.149 441.861)">
    <g id="Group_10366" data-name="Group 10366" transform="translate(1138.878 -407.78)">
      <g id="Mask_Group_6" data-name="Mask Group 6" clip-path="url(#clip-path)">
        <g id="Group_10365" data-name="Group 10365" transform="translate(-61.73 -43.955)" clip-path="url(#clip-path-2)">
          <path id="bg-2" data-name="bg" d="M-32.363,405.828c-33.809-40.481-39.916-110.144-10.5-147.415A60.882,60.882,0,0,1-26.18,244.13C3.158,225.96,49.487,224.158,75.647,212.16a251.2,251.2,0,0,0,25.646-13.624c31.038-19.026,51.98-41.02,58.088-52.427C187.3,93.977,158.36,32.991,191.6-9a75.462,75.462,0,0,1,20.482-17.844c21.243-13.144,50.763-18.312,86.831-16.874l168.5,283.447Q454.513,255.758,441,270.808C355.044,369.68,251.86,448.659,134.836,460.617a248.036,248.036,0,0,1-25.227,1.3C33.624,461.918-15.79,425.671-32.363,405.828Z" transform="translate(61.73 43.955)" fill="#1b6e6d"/>
          <g id="Group_10662" data-name="Group 10662" transform="translate(29.986 209.941)">
            <g id="Background_Complete" data-name="Background Complete" transform="translate(63.54 89.566)">
              <g id="Group_10415" data-name="Group 10415" transform="translate(145.223 133.684)">
                <path id="Path_6831" data-name="Path 6831" d="M352.416,365.433a23.34,23.34,0,0,0-10.848-6.992,23.822,23.822,0,0,0-11.853-.472,16.006,16.006,0,0,0-7.285,3.921,21.246,21.246,0,0,0-5.471,9.314,2.264,2.264,0,0,0,1.552,2.85l7.656,2.155a2.275,2.275,0,0,0,2.688-1.266c1.015-2.305,3.578-5.947,9.335-4.433a7.227,7.227,0,0,1,5.485,6.343,8.105,8.105,0,0,1-2.611,6.854c-2.983,2.785-6.875,2.244-8.93,1.674a4.459,4.459,0,0,0-5.484,3.067l-2.319,8.239a2.27,2.27,0,0,0,1.568,2.8l7.459,2.1a2.269,2.269,0,0,0,2.8-1.567l.487-1.731a.1.1,0,0,1,.092-.073,22.467,22.467,0,0,0,9.311-2.731,20.238,20.238,0,0,0,9.718-12.766C358.1,374.43,355.23,368.744,352.416,365.433Z" transform="translate(-316.855 -357.417)" fill="#1b6e6d"/>
                <path id="Path_6832" data-name="Path 6832" d="M332.721,436.12l-.652-.184a5.878,5.878,0,0,0-3.185,11.316l.652.183a5.877,5.877,0,1,0,3.185-11.315Z" transform="translate(-320.159 -390.828)" fill="#1b6e6d"/>
              </g>
              <g id="Group_10416" data-name="Group 10416" transform="translate(181.272 94.674)">
                <path id="Path_6833" data-name="Path 6833" d="M395.688,290.769a11.972,11.972,0,0,0-6.476-1.361,12.218,12.218,0,0,0-5.762,1.946,8.206,8.206,0,0,0-2.771,3.212,10.9,10.9,0,0,0-.913,5.463,1.161,1.161,0,0,0,1.265,1.081l4.061-.371a1.166,1.166,0,0,0,1.055-1.1,3.767,3.767,0,0,1,3.658-3.833,3.706,3.706,0,0,1,3.789,2.032,4.158,4.158,0,0,1,.006,3.761,4.749,4.749,0,0,1-3.969,2.438,2.286,2.286,0,0,0-2.064,2.474l.4,4.37a1.164,1.164,0,0,0,1.263,1.052l3.957-.362a1.163,1.163,0,0,0,1.051-1.263l-.084-.918a.052.052,0,0,1,.03-.052,11.516,11.516,0,0,0,3.959-3.013,10.378,10.378,0,0,0,2.315-7.895A9.192,9.192,0,0,0,395.688,290.769Z" transform="translate(-379.736 -289.371)" fill="#1b6e6d"/>
                <path id="Path_6834" data-name="Path 6834" d="M397.968,330.289l-.346.032a3.014,3.014,0,1,0,.548,6l.346-.032a3.014,3.014,0,1,0-.548-6Z" transform="translate(-386.199 -306.826)" fill="#1b6e6d"/>
              </g>
              <g id="Group_10417" data-name="Group 10417" transform="translate(19.683)">
                <path id="Path_6835" data-name="Path 6835" d="M112.782,127a9.98,9.98,0,0,0-4.886-2.569,10.189,10.189,0,0,0-5.067.247,6.846,6.846,0,0,0-2.956,1.946,9.089,9.089,0,0,0-1.978,4.175.969.969,0,0,0,.769,1.156l3.343.629a.974.974,0,0,0,1.1-.642,3.142,3.142,0,0,1,3.809-2.242,3.091,3.091,0,0,1,2.577,2.495,3.467,3.467,0,0,1-.853,3.019,3.962,3.962,0,0,1-3.741,1.051,1.907,1.907,0,0,0-2.22,1.514l-.676,3.6a.97.97,0,0,0,.774,1.132l3.257.613a.97.97,0,0,0,1.132-.774l.142-.756a.043.043,0,0,1,.036-.034,9.613,9.613,0,0,0,3.863-1.516,8.657,8.657,0,0,0,3.658-5.806A7.667,7.667,0,0,0,112.782,127Z" transform="translate(-97.872 -124.229)" fill="#1b6e6d"/>
                <path id="Path_6836" data-name="Path 6836" d="M106.819,158.217l-.285-.053a2.514,2.514,0,0,0-.929,4.941l.285.053a2.514,2.514,0,1,0,.929-4.941Z" transform="translate(-100.297 -138.691)" fill="#1b6e6d"/>
              </g>
              <g id="Group_10418" data-name="Group 10418" transform="translate(175.189 2.504)">
                <path id="Path_6837" data-name="Path 6837" d="M385.111,130.017a11.967,11.967,0,0,0-6.471-1.387,12.218,12.218,0,0,0-5.77,1.923,8.21,8.21,0,0,0-2.783,3.2,10.9,10.9,0,0,0-.935,5.459,1.162,1.162,0,0,0,1.261,1.086l4.063-.355a1.167,1.167,0,0,0,1.059-1.1,3.768,3.768,0,0,1,3.674-3.819,3.705,3.705,0,0,1,3.781,2.048,4.156,4.156,0,0,1-.009,3.76A4.749,4.749,0,0,1,379,143.262a2.286,2.286,0,0,0-2.074,2.465l.382,4.371a1.164,1.164,0,0,0,1.259,1.057l3.958-.346a1.164,1.164,0,0,0,1.057-1.259l-.08-.918a.051.051,0,0,1,.031-.052,11.527,11.527,0,0,0,3.971-3,10.376,10.376,0,0,0,2.346-7.885A9.192,9.192,0,0,0,385.111,130.017Z" transform="translate(-369.126 -128.597)" fill="#1b6e6d"/>
                <path id="Path_6838" data-name="Path 6838" d="M387.253,169.525l-.346.03a3.013,3.013,0,0,0,.525,6l.346-.03a3.013,3.013,0,1,0-.525-6Z" transform="translate(-375.539 -146.056)" fill="#1b6e6d"/>
              </g>
              <g id="Group_10419" data-name="Group 10419" transform="translate(50.339 134.729)">
                <path id="Path_6839" data-name="Path 6839" d="M170.042,360.541a14.492,14.492,0,0,0-7.927-1.167,14.791,14.791,0,0,0-6.82,2.776,9.943,9.943,0,0,0-3.111,4.086,13.193,13.193,0,0,0-.7,6.669,1.406,1.406,0,0,0,1.609,1.213l4.88-.748a1.413,1.413,0,0,0,1.194-1.406,4.562,4.562,0,0,1,4.139-4.9,4.486,4.486,0,0,1,4.728,2.177,5.031,5.031,0,0,1,.284,4.544,5.747,5.747,0,0,1-4.617,3.238,2.768,2.768,0,0,0-2.312,3.141l.8,5.252a1.408,1.408,0,0,0,1.6,1.178l4.755-.728a1.409,1.409,0,0,0,1.178-1.6l-.169-1.1a.062.062,0,0,1,.033-.065,13.95,13.95,0,0,0,4.562-3.934,12.565,12.565,0,0,0,2.216-9.71A11.13,11.13,0,0,0,170.042,360.541Z" transform="translate(-151.348 -359.24)" fill="#1b6e6d"/>
                <path id="Path_6840" data-name="Path 6840" d="M175.359,408.527l-.416.064a3.649,3.649,0,0,0,1.1,7.213l.416-.064a3.649,3.649,0,0,0-1.1-7.213Z" transform="translate(-160.095 -380.253)" fill="#1b6e6d"/>
              </g>
              <g id="Group_10420" data-name="Group 10420" transform="translate(0 34.84)">
                <path id="Path_6841" data-name="Path 6841" d="M89.778,186.815a20.359,20.359,0,0,0-11.139-1.62,20.78,20.78,0,0,0-9.576,3.917,13.957,13.957,0,0,0-4.361,5.749,18.52,18.52,0,0,0-.968,9.37,1.974,1.974,0,0,0,2.263,1.7l6.855-1.062a1.986,1.986,0,0,0,1.674-1.978c-.029-2.2.686-6.014,5.8-6.9a6.3,6.3,0,0,1,6.649,3.047,7.068,7.068,0,0,1,.41,6.383c-1.358,3.29-4.642,4.271-6.479,4.562a3.89,3.89,0,0,0-3.24,4.419l1.143,7.376a1.98,1.98,0,0,0,2.256,1.651l6.679-1.035a1.979,1.979,0,0,0,1.651-2.256l-.24-1.55a.086.086,0,0,1,.046-.091,19.6,19.6,0,0,0,6.4-5.539,17.651,17.651,0,0,0,3.088-13.648C97.542,191.9,93.21,188.423,89.778,186.815Z" transform="translate(-63.54 -185.002)" fill="#1b6e6d"/>
                <path id="Path_6842" data-name="Path 6842" d="M97.355,254.237l-.584.091a5.126,5.126,0,1,0,1.57,10.131l.584-.091a5.126,5.126,0,1,0-1.57-10.131Z" transform="translate(-75.867 -214.519)" fill="#1b6e6d"/>
              </g>
            </g>
            <g id="Speech_Bubble" data-name="Speech Bubble" transform="translate(186.326 47.47)">
              <g id="Group_10431" data-name="Group 10431">
                <g id="Group_10429" data-name="Group 10429">
                  <g id="Group_10428" data-name="Group 10428">
                    <g id="Group_10427" data-name="Group 10427">
                      <g id="Group_10426" data-name="Group 10426">
                        <g id="Group_10425" data-name="Group 10425">
                          <g id="Group_10424" data-name="Group 10424">
                            <g id="Group_10423" data-name="Group 10423">
                              <g id="Group_10422" data-name="Group 10422">
                                <path id="Path_6843" data-name="Path 6843" d="M277.718,82.93l5.167.861a19.976,19.976,0,1,0-3.535-6.223l-.006-.009Z" transform="translate(-277.718 -50.901)" fill="#fff"/>
                                <g id="Group_10421" data-name="Group 10421">
                                  <path id="Path_6844" data-name="Path 6844" d="M277.718,82.829s.026-.112.092-.342l.3-1.027,1.179-4.02.036-.12.072.1.006.009-.107.054a19.878,19.878,0,0,1-.941-9.588,20.525,20.525,0,0,1,1.922-6.073,20.039,20.039,0,0,1,4.382-5.762,20.459,20.459,0,0,1,6.873-4.089,19.616,19.616,0,0,1,8.579-1.074,20.515,20.515,0,0,1,8.708,2.956,19.657,19.657,0,0,1,6.7,6.926,20.635,20.635,0,0,1,1.966,4.552c.114.394.188.8.283,1.194a11.182,11.182,0,0,1,.242,1.2q.073.6.146,1.205l.069.6.01.6a20.466,20.466,0,0,1-1.815,9.11,19.564,19.564,0,0,1-5.3,6.928,20.49,20.49,0,0,1-7.071,3.87,20.112,20.112,0,0,1-7.235.844l-1.683-.2c-.549-.077-1.078-.222-1.6-.327a18.078,18.078,0,0,1-2.939-.941,19.857,19.857,0,0,1-7.738-5.692l.035.02-3.846-.676-.985-.178c-.22-.041-.326-.065-.326-.065s.123.014.351.048l1,.153,3.822.6.021,0,.014.017a19.9,19.9,0,0,0,7.72,5.591,17.955,17.955,0,0,0,2.915.916c.519.1,1.042.243,1.586.316l1.664.187a19.94,19.94,0,0,0,7.147-.859,20.291,20.291,0,0,0,6.971-3.839,19.325,19.325,0,0,0,5.219-6.841,20.2,20.2,0,0,0,1.779-8.979l-.01-.594-.069-.591q-.072-.592-.144-1.188a10.994,10.994,0,0,0-.24-1.178c-.094-.391-.167-.789-.279-1.176a20.37,20.37,0,0,0-1.938-4.484,19.381,19.381,0,0,0-6.594-6.826,20.26,20.26,0,0,0-8.579-2.922,19.374,19.374,0,0,0-8.461,1.045,20.248,20.248,0,0,0-6.8,4.019,19.854,19.854,0,0,0-4.35,5.678,20.388,20.388,0,0,0-1.93,6,19.9,19.9,0,0,0,.865,9.519l.145.425-.252-.37-.006-.009.108-.017-1.236,3.964c-.142.447-.251.79-.327,1.033S277.718,82.829,277.718,82.829Z" transform="translate(-277.718 -50.8)" fill="#1b6e6d"/>
                                </g>
                              </g>
                            </g>
                          </g>
                        </g>
                      </g>
                    </g>
                  </g>
                </g>
                <g id="Group_10430" data-name="Group 10430" transform="translate(12.788 9.52)">
                  <path id="Path_6845" data-name="Path 6845" d="M311.913,68.763a8.547,8.547,0,0,0-4.527-1.358,8.724,8.724,0,0,0-4.218,1.038A5.859,5.859,0,0,0,301,70.564a7.773,7.773,0,0,0-.978,3.832.829.829,0,0,0,.835.846l2.912-.02a.834.834,0,0,0,.817-.719A2.69,2.69,0,0,1,307.423,72,2.646,2.646,0,0,1,310,73.669a2.966,2.966,0,0,1-.222,2.676,3.392,3.392,0,0,1-2.971,1.5,1.632,1.632,0,0,0-1.617,1.636l.021,3.134a.831.831,0,0,0,.835.824l2.838-.019a.831.831,0,0,0,.824-.835l0-.659a.037.037,0,0,1,.025-.035,8.225,8.225,0,0,0,3-1.907,7.411,7.411,0,0,0,2.122-5.479A6.567,6.567,0,0,0,311.913,68.763Z" transform="translate(-300.025 -67.406)" fill="#1b6e6d"/>
                  <path id="Path_6846" data-name="Path 6846" d="M311.478,96.726l-.248,0a2.152,2.152,0,1,0,.029,4.3l.248,0a2.152,2.152,0,1,0-.029-4.3Z" transform="translate(-303.894 -79.917)" fill="#1b6e6d"/>
                </g>
              </g>
            </g>
            <g id="Character" transform="translate(108.091 42.996)">
              <g id="Group_10661" data-name="Group 10661">
                <path id="Path_6847" data-name="Path 6847" d="M248.1,142.556a76.024,76.024,0,0,0-40.178-12.348c-9.878,0-24.416,1.558-37.573,8.98a52.112,52.112,0,0,0-19.379,18.718c-5.552,9.252-8.557,20.7-8.932,34.025a7.376,7.376,0,0,0,7.381,7.567h25.9a7.412,7.412,0,0,0,7.308-6.342c1.148-8.123,5.97-21.8,25.353-22.134,14.766-.253,20.859,10.437,22.793,15.045a26.4,26.4,0,0,1-2.137,23.789c-6.893,11.364-19.572,13.1-26.516,13.129a14.522,14.522,0,0,0-14.483,14.452V265.31a7.39,7.39,0,0,0,7.382,7.382h25.237a7.39,7.39,0,0,0,7.382-7.382v-5.856a.327.327,0,0,1,.223-.31,73.187,73.187,0,0,0,26.779-16.776c12.741-12.669,19.2-29.019,19.2-48.6C273.844,165.751,259.845,150.455,248.1,142.556Z" transform="translate(-141.587 -80.21)" fill="#fff"/>
                <path id="Path_6848" data-name="Path 6848" d="M241.833,401.425h2.037a18.176,18.176,0,0,1,0,36.352h-2.037a18.176,18.176,0,1,1,0-36.352Z" transform="translate(-176.415 -195.942)" fill="#fff"/>
                <g id="Group_10660" data-name="Group 10660">
                  <path id="Path_6849" data-name="Path 6849" d="M228.8,369.705h25.226a7.274,7.274,0,0,0,7.379-7.148V351.163a.316.316,0,0,1,.223-.3,61.041,61.041,0,0,0,11.873-5.774c-16.117-.112-45.5-.277-52.08-.037v17.505A7.274,7.274,0,0,0,228.8,369.705Z" transform="translate(-175.46 -171.834)" fill="#fff"/>
                  <g id="Group_10579" data-name="Group 10579">
                    <g id="Group_10557" data-name="Group 10557" transform="translate(18.055 7.804)">
                      <g id="Group_10439" data-name="Group 10439">
                        <g id="Group_10438" data-name="Group 10438">
                          <g id="Group_10437" data-name="Group 10437">
                            <g id="Group_10436" data-name="Group 10436">
                              <g id="Group_10435" data-name="Group 10435">
                                <g id="Group_10434" data-name="Group 10434">
                                  <g id="Group_10433" data-name="Group 10433">
                                    <g id="Group_10432" data-name="Group 10432">
                                      <path id="Path_6850" data-name="Path 6850" d="M228.8,120.411,212.617,73.4C209.2,61.63,199.5,53.809,187.827,57.552l-1.058.409a21.911,21.911,0,0,0-13.116,26.665c3.02,10.186,6.487,21.4,8.6,26.675,4.374,10.918,15.826,7.854,15.826,7.854.025-.009,2.549,7.277,3.652,10.547l5.928,5.858,2.449-2.676Z" transform="translate(-172.746 -56.608)" fill="#fff"/>
                                    </g>
                                  </g>
                                </g>
                              </g>
                            </g>
                          </g>
                        </g>
                      </g>
                      <g id="Group_10448" data-name="Group 10448" transform="translate(25.333 52.805)">
                        <g id="Group_10447" data-name="Group 10447">
                          <g id="Group_10446" data-name="Group 10446">
                            <g id="Group_10445" data-name="Group 10445">
                              <g id="Group_10444" data-name="Group 10444">
                                <g id="Group_10443" data-name="Group 10443">
                                  <g id="Group_10442" data-name="Group 10442">
                                    <g id="Group_10441" data-name="Group 10441">
                                      <g id="Group_10440" data-name="Group 10440">
                                        <path id="Path_6851" data-name="Path 6851" d="M216.934,158.458a28.414,28.414,0,0,0,12.652-9.742s-.25,9.576-11.579,12.817Z" transform="translate(-216.934 -148.716)" fill="#1b6e6d"/>
                                      </g>
                                    </g>
                                  </g>
                                </g>
                              </g>
                            </g>
                          </g>
                        </g>
                      </g>
                      <g id="Group_10463" data-name="Group 10463" transform="translate(8.743 33.316)">
                        <g id="Group_10462" data-name="Group 10462">
                          <g id="Group_10461" data-name="Group 10461">
                            <g id="Group_10460" data-name="Group 10460">
                              <g id="Group_10459" data-name="Group 10459">
                                <g id="Group_10458" data-name="Group 10458">
                                  <g id="Group_10457" data-name="Group 10457">
                                    <g id="Group_10456" data-name="Group 10456">
                                      <g id="Group_10455" data-name="Group 10455">
                                        <g id="Group_10454" data-name="Group 10454">
                                          <g id="Group_10453" data-name="Group 10453">
                                            <g id="Group_10452" data-name="Group 10452">
                                              <g id="Group_10451" data-name="Group 10451">
                                                <g id="Group_10450" data-name="Group 10450">
                                                  <g id="Group_10449" data-name="Group 10449">
                                                    <path id="Path_6852" data-name="Path 6852" d="M188.081,116.847a1.679,1.679,0,0,0,2.121,1,1.606,1.606,0,0,0,1.069-2.036,1.68,1.68,0,0,0-2.12-1A1.609,1.609,0,0,0,188.081,116.847Z" transform="translate(-187.996 -114.722)" fill="#1b6e6d"/>
                                                  </g>
                                                </g>
                                              </g>
                                            </g>
                                          </g>
                                        </g>
                                      </g>
                                    </g>
                                  </g>
                                </g>
                              </g>
                            </g>
                          </g>
                        </g>
                      </g>
                      <g id="Group_10479" data-name="Group 10479" transform="translate(4.861 28.284)">
                        <g id="Group_10478" data-name="Group 10478">
                          <g id="Group_10477" data-name="Group 10477">
                            <g id="Group_10476" data-name="Group 10476">
                              <g id="Group_10475" data-name="Group 10475">
                                <g id="Group_10474" data-name="Group 10474">
                                  <g id="Group_10473" data-name="Group 10473">
                                    <g id="Group_10472" data-name="Group 10472">
                                      <g id="Group_10471" data-name="Group 10471">
                                        <g id="Group_10470" data-name="Group 10470">
                                          <g id="Group_10469" data-name="Group 10469">
                                            <g id="Group_10468" data-name="Group 10468">
                                              <g id="Group_10467" data-name="Group 10467">
                                                <g id="Group_10466" data-name="Group 10466">
                                                  <g id="Group_10465" data-name="Group 10465">
                                                    <g id="Group_10464" data-name="Group 10464">
                                                      <path id="Path_6853" data-name="Path 6853" d="M181.3,109.089c.273.13,1.12-1.207,2.809-1.855,1.676-.671,3.249-.281,3.351-.558.054-.126-.286-.419-.976-.6a4.611,4.611,0,0,0-2.781.194A4.421,4.421,0,0,0,181.562,108C181.2,108.6,181.164,109.035,181.3,109.089Z" transform="translate(-181.225 -105.943)" fill="#1b6e6d"/>
                                                    </g>
                                                  </g>
                                                </g>
                                              </g>
                                            </g>
                                          </g>
                                        </g>
                                      </g>
                                    </g>
                                  </g>
                                </g>
                              </g>
                            </g>
                          </g>
                        </g>
                      </g>
                      <g id="Group_10495" data-name="Group 10495" transform="translate(22.854 26.706)">
                        <g id="Group_10494" data-name="Group 10494">
                          <g id="Group_10493" data-name="Group 10493">
                            <g id="Group_10492" data-name="Group 10492">
                              <g id="Group_10491" data-name="Group 10491">
                                <g id="Group_10490" data-name="Group 10490">
                                  <g id="Group_10489" data-name="Group 10489">
                                    <g id="Group_10488" data-name="Group 10488">
                                      <g id="Group_10487" data-name="Group 10487">
                                        <g id="Group_10486" data-name="Group 10486">
                                          <g id="Group_10485" data-name="Group 10485">
                                            <g id="Group_10484" data-name="Group 10484">
                                              <g id="Group_10483" data-name="Group 10483">
                                                <g id="Group_10482" data-name="Group 10482">
                                                  <g id="Group_10481" data-name="Group 10481">
                                                    <g id="Group_10480" data-name="Group 10480">
                                                      <path id="Path_6854" data-name="Path 6854" d="M212.68,106.338c.273.13,1.123-1.208,2.809-1.855,1.676-.67,3.249-.281,3.352-.558.054-.126-.284-.419-.976-.6a4.61,4.61,0,0,0-2.781.194,4.435,4.435,0,0,0-2.137,1.731C212.584,105.846,212.55,106.283,212.68,106.338Z" transform="translate(-212.611 -103.192)" fill="#1b6e6d"/>
                                                    </g>
                                                  </g>
                                                </g>
                                              </g>
                                            </g>
                                          </g>
                                        </g>
                                      </g>
                                    </g>
                                  </g>
                                </g>
                              </g>
                            </g>
                          </g>
                        </g>
                      </g>
                      <g id="Group_10510" data-name="Group 10510" transform="translate(15.578 26.382)">
                        <g id="Group_10509" data-name="Group 10509">
                          <g id="Group_10508" data-name="Group 10508">
                            <g id="Group_10507" data-name="Group 10507">
                              <g id="Group_10506" data-name="Group 10506">
                                <g id="Group_10505" data-name="Group 10505">
                                  <g id="Group_10504" data-name="Group 10504">
                                    <g id="Group_10503" data-name="Group 10503">
                                      <g id="Group_10502" data-name="Group 10502">
                                        <g id="Group_10501" data-name="Group 10501">
                                          <g id="Group_10500" data-name="Group 10500">
                                            <g id="Group_10499" data-name="Group 10499">
                                              <g id="Group_10498" data-name="Group 10498">
                                                <g id="Group_10497" data-name="Group 10497">
                                                  <g id="Group_10496" data-name="Group 10496">
                                                    <path id="Path_6855" data-name="Path 6855" d="M204.906,116.971a11.986,11.986,0,0,0-2.929.564c-.448.123-.889.194-1.074-.072a2.354,2.354,0,0,1-.206-1.387q0-1.8.006-3.769c-.035-5.351-.237-9.683-.453-9.679s-.362,4.343-.327,9.693q.029,1.974.054,3.769a2.672,2.672,0,0,0,.429,1.775,1.158,1.158,0,0,0,.951.356,3.138,3.138,0,0,0,.771-.181A11.736,11.736,0,0,0,204.906,116.971Z" transform="translate(-199.919 -102.627)" fill="#1b6e6d"/>
                                                  </g>
                                                </g>
                                              </g>
                                            </g>
                                          </g>
                                        </g>
                                      </g>
                                    </g>
                                  </g>
                                </g>
                              </g>
                            </g>
                          </g>
                        </g>
                      </g>
                      <g id="Group_10521" data-name="Group 10521" transform="translate(18.953 16.549)">
                        <g id="Group_10520" data-name="Group 10520">
                          <g id="Group_10519" data-name="Group 10519">
                            <g id="Group_10518" data-name="Group 10518">
                              <g id="Group_10517" data-name="Group 10517">
                                <g id="Group_10516" data-name="Group 10516">
                                  <g id="Group_10515" data-name="Group 10515">
                                    <g id="Group_10514" data-name="Group 10514">
                                      <g id="Group_10513" data-name="Group 10513">
                                        <g id="Group_10512" data-name="Group 10512">
                                          <g id="Group_10511" data-name="Group 10511">
                                            <path id="Path_6856" data-name="Path 6856" d="M205.878,89.3c.4.342,1.856-.743,3.831-1.555,1.96-.852,3.754-1.145,3.785-1.667.006-.245-.479-.5-1.315-.581a7.189,7.189,0,0,0-5.8,2.454C205.85,88.6,205.7,89.133,205.878,89.3Z" transform="translate(-205.805 -85.475)" fill="#1b6e6d"/>
                                          </g>
                                        </g>
                                      </g>
                                    </g>
                                  </g>
                                </g>
                              </g>
                            </g>
                          </g>
                        </g>
                      </g>
                      <g id="Group_10532" data-name="Group 10532" transform="translate(2.807 23.068)">
                        <g id="Group_10531" data-name="Group 10531">
                          <g id="Group_10530" data-name="Group 10530">
                            <g id="Group_10529" data-name="Group 10529">
                              <g id="Group_10528" data-name="Group 10528">
                                <g id="Group_10527" data-name="Group 10527">
                                  <g id="Group_10526" data-name="Group 10526">
                                    <g id="Group_10525" data-name="Group 10525">
                                      <g id="Group_10524" data-name="Group 10524">
                                        <g id="Group_10523" data-name="Group 10523">
                                          <g id="Group_10522" data-name="Group 10522">
                                            <path id="Path_6857" data-name="Path 6857" d="M177.774,100.28c.495.255,1.728-.655,3.381-1.286,1.634-.68,3.161-.873,3.336-1.4.069-.248-.294-.551-1.043-.689a5.692,5.692,0,0,0-2.991.388,5.608,5.608,0,0,0-2.42,1.773C177.6,99.682,177.549,100.15,177.774,100.28Z" transform="translate(-177.642 -96.846)" fill="#1b6e6d"/>
                                          </g>
                                        </g>
                                      </g>
                                    </g>
                                  </g>
                                </g>
                              </g>
                            </g>
                          </g>
                        </g>
                      </g>
                      <g id="Group_10539" data-name="Group 10539" transform="translate(41.933 22.981)">
                        <g id="Group_10538" data-name="Group 10538">
                          <g id="Group_10537" data-name="Group 10537">
                            <g id="Group_10536" data-name="Group 10536">
                              <g id="Group_10535" data-name="Group 10535">
                                <g id="Group_10534" data-name="Group 10534">
                                  <g id="Group_10533" data-name="Group 10533">
                                    <path id="Path_6858" data-name="Path 6858" d="M245.891,98.444c.156-.153,6.676-5.142,9.335,2.451s-5.513,8.7-5.6,8.482S245.891,98.444,245.891,98.444Z" transform="translate(-245.891 -96.694)" fill="#fff"/>
                                  </g>
                                </g>
                              </g>
                            </g>
                          </g>
                        </g>
                      </g>
                      <g id="Group_10547" data-name="Group 10547" transform="translate(45.623 25.392)">
                        <g id="Group_10546" data-name="Group 10546">
                          <g id="Group_10545" data-name="Group 10545">
                            <g id="Group_10544" data-name="Group 10544">
                              <g id="Group_10543" data-name="Group 10543">
                                <g id="Group_10542" data-name="Group 10542">
                                  <g id="Group_10541" data-name="Group 10541">
                                    <g id="Group_10540" data-name="Group 10540">
                                      <path id="Path_6859" data-name="Path 6859" d="M253.682,107.483c.025-.036.165.046.424.071a1.4,1.4,0,0,0,1-.326c.7-.575.929-2.085.487-3.467A4.637,4.637,0,0,0,254.555,102a1.621,1.621,0,0,0-1.351-.667.713.713,0,0,0-.654.636c-.028.248.074.382.038.41-.014.026-.208-.071-.256-.405a.891.891,0,0,1,.132-.58,1.056,1.056,0,0,1,.664-.449,1.97,1.97,0,0,1,1.794.693,4.756,4.756,0,0,1,1.2,1.956c.487,1.547.205,3.253-.781,3.955a1.5,1.5,0,0,1-1.28.222C253.759,107.661,253.66,107.506,253.682,107.483Z" transform="translate(-252.326 -100.9)" fill="#1b6e6d"/>
                                    </g>
                                  </g>
                                </g>
                              </g>
                            </g>
                          </g>
                        </g>
                      </g>
                      <g id="Group_10556" data-name="Group 10556" transform="translate(22.582 39.957)">
                        <g id="Group_10555" data-name="Group 10555">
                          <g id="Group_10554" data-name="Group 10554">
                            <g id="Group_10553" data-name="Group 10553">
                              <g id="Group_10552" data-name="Group 10552">
                                <g id="Group_10551" data-name="Group 10551">
                                  <g id="Group_10550" data-name="Group 10550">
                                    <g id="Group_10549" data-name="Group 10549">
                                      <g id="Group_10548" data-name="Group 10548">
                                        <path id="Path_6860" data-name="Path 6860" d="M215.85,126.31c-.268.073.315,1.826-.768,3.571s-3.013,2.176-2.945,2.426c.013.118.53.2,1.325-.041a4.6,4.6,0,0,0,2.491-1.926,4.006,4.006,0,0,0,.532-2.956C216.307,126.628,215.966,126.26,215.85,126.31Z" transform="translate(-212.135 -126.305)" fill="#1b6e6d"/>
                                      </g>
                                    </g>
                                  </g>
                                </g>
                              </g>
                            </g>
                          </g>
                        </g>
                      </g>
                    </g>
                    <g id="Group_10578" data-name="Group 10578">
                      <g id="Group_10562" data-name="Group 10562">
                        <g id="Group_10561" data-name="Group 10561">
                          <g id="Group_10560" data-name="Group 10560">
                            <g id="Group_10559" data-name="Group 10559">
                              <g id="Group_10558" data-name="Group 10558">
                                <path id="Path_6861" data-name="Path 6861" d="M141.257,73.485a1.907,1.907,0,0,1,.475-1.347,5.861,5.861,0,0,1,2.676-1.46,16.942,16.942,0,0,0,6.329-4.19,8.4,8.4,0,0,1-2.547-.714,5.05,5.05,0,0,1-3.038-4.253,1.121,1.121,0,0,1,.339-.936c.44-.324,1.042.007,1.52.27a4.347,4.347,0,0,0,4.436.275,7.131,7.131,0,0,0,2.584-1.869c.021-.045.037-.093.058-.139.251-.546.5-1.071.746-1.581v0c1.857-3.837,3.621-6.664,5.79-8.571,3.179-2.8,9.161-5.584,13.381-5.932s8.793,1.564,10.723,5.332c1.521-2.594,4.778-3.725,7.79-3.594l.056-.052c3.307.012,6.069,2.528,7.993,5.219.1.147.2.3.307.448a12.35,12.35,0,0,0,5.314,2.468c.342.065.739.154.889.468a1.006,1.006,0,0,1-.228.96,6.2,6.2,0,0,1-2.029,1.826,13.984,13.984,0,0,0,1.7,1.722c.53.445,1.161.979,1.077,1.665a1.315,1.315,0,0,1-1.1,1.022,3.856,3.856,0,0,1-1.586-.137l1.813,2.007a7.372,7.372,0,0,1-3.271.913c.363,3.022,1.722,8.376,1.67,10.529-2,.745-2.568.7-3.466,1.394-1.16.9.161,3.048-1.782,2.99-.989-.03-3.488-2.858-4.092-3.642a45.941,45.941,0,0,1-8.338-17.678,14.752,14.752,0,0,0-5.394-1.588l.173.072c-3.482.016-7.365.192-9.8,2.686C170.548,60,170.041,62.84,169,65.332a16.839,16.839,0,0,1-9.712,9.833c.745,3.5,2.547,9.026,3.484,12.21L157.9,82.059l.007.026c-.345-.291-.653-.6-.956-.907l-.1-.092,0-.014a20.788,20.788,0,0,0-1.506-1.469l-.021.037a2.07,2.07,0,0,1-3.773-1.606,4.66,4.66,0,0,1,.61-1.281,3.278,3.278,0,0,1-2.674,1.8,2.571,2.571,0,0,1-2.559-1.793,2.186,2.186,0,0,1,.646-2.086,7.383,7.383,0,0,1-4.267.522C142.364,75.026,141.338,74.562,141.257,73.485Z" transform="translate(-141.252 -42.996)" fill="#1b6e6d" stroke="#fff" stroke-width="1"/>
                              </g>
                            </g>
                          </g>
                        </g>
                      </g>
                      <g id="Group_10567" data-name="Group 10567" transform="translate(40.431 7.878)">
                        <g id="Group_10566" data-name="Group 10566">
                          <g id="Group_10565" data-name="Group 10565">
                            <g id="Group_10564" data-name="Group 10564">
                              <g id="Group_10563" data-name="Group 10563">
                                <path id="Path_6862" data-name="Path 6862" d="M211.777,56.738a10.2,10.2,0,0,1,1.473.626,8.45,8.45,0,0,1,3,3.087,14.849,14.849,0,0,1,1.278,2.722c.365,1.021.668,2.145,1,3.327a30.976,30.976,0,0,0,1.2,3.671A13.541,13.541,0,0,0,220.655,72a4.245,4.245,0,0,0,1.44,1.587,1.779,1.779,0,0,0,1.753-.025,2.645,2.645,0,0,0,1.129-1.294,6.1,6.1,0,0,0,.075-3.2l-.223.11A9.869,9.869,0,0,0,227,71.032a3.508,3.508,0,0,0,2.575.415,2.257,2.257,0,0,0,1.074-.6,1.954,1.954,0,0,0,.508-1.04,2.019,2.019,0,0,0-.111-1.067,1.462,1.462,0,0,0-.66-.738l-.081.146a7.591,7.591,0,0,0,3.016.949,6.782,6.782,0,0,0,.84.027,1.27,1.27,0,0,0,.288-.028,1.486,1.486,0,0,0-.288-.018c-.19-.01-.47-.022-.831-.07a7.831,7.831,0,0,1-2.942-1l-.081.147a1.51,1.51,0,0,1,.655,1.624,1.765,1.765,0,0,1-.464.926,2.052,2.052,0,0,1-.979.535,3.285,3.285,0,0,1-2.4-.412,9.748,9.748,0,0,1-2.1-1.818l-.285-.3.062.41a5.894,5.894,0,0,1-.068,3.057,2.382,2.382,0,0,1-1.011,1.157,1.5,1.5,0,0,1-1.49.023,4.016,4.016,0,0,1-1.337-1.488,13.466,13.466,0,0,1-.912-1.794,31.512,31.512,0,0,1-1.2-3.635c-.335-1.179-.648-2.305-1.026-3.336a14.833,14.833,0,0,0-1.327-2.747A8.328,8.328,0,0,0,213.3,57.27,4.777,4.777,0,0,0,211.777,56.738Z" transform="translate(-211.777 -56.738)" fill="#fff"/>
                              </g>
                            </g>
                          </g>
                        </g>
                      </g>
                      <g id="Group_10572" data-name="Group 10572" transform="translate(9.886 3.545)">
                        <g id="Group_10571" data-name="Group 10571">
                          <g id="Group_10570" data-name="Group 10570">
                            <g id="Group_10569" data-name="Group 10569">
                              <g id="Group_10568" data-name="Group 10568">
                                <path id="Path_6863" data-name="Path 6863" d="M158.5,76.422a.452.452,0,0,0,.116.044l.349.1a3.891,3.891,0,0,0,.577.136,6.382,6.382,0,0,0,.8.118,10.452,10.452,0,0,0,5.054-.82,13.344,13.344,0,0,0,5.83-4.836,23.11,23.11,0,0,0,3.42-8.665c.334-1.629.506-3.24.783-4.768a15.614,15.614,0,0,1,1.29-4.255,8.038,8.038,0,0,1,2.516-3.069,5.753,5.753,0,0,1,1.618-.789,6.33,6.33,0,0,1,1.649-.248,6.819,6.819,0,0,1,4.633,1.762,8.162,8.162,0,0,1,1.16,1.463.415.415,0,0,0-.05-.114l-.173-.322a5.912,5.912,0,0,0-.863-1.105,6.711,6.711,0,0,0-1.837-1.247,6.9,6.9,0,0,0-2.87-.632,6.5,6.5,0,0,0-1.708.238,5.962,5.962,0,0,0-1.689.805,8.23,8.23,0,0,0-2.612,3.144,15.7,15.7,0,0,0-1.328,4.32c-.283,1.541-.457,3.149-.788,4.762a23.119,23.119,0,0,1-3.358,8.575,13.261,13.261,0,0,1-5.7,4.8,10.594,10.594,0,0,1-4.969.892A16.693,16.693,0,0,1,158.5,76.422Z" transform="translate(-158.496 -49.179)" fill="#fff"/>
                              </g>
                            </g>
                          </g>
                        </g>
                      </g>
                      <g id="Group_10577" data-name="Group 10577" transform="translate(7.156 22.492)">
                        <g id="Group_10576" data-name="Group 10576">
                          <g id="Group_10575" data-name="Group 10575">
                            <g id="Group_10574" data-name="Group 10574">
                              <g id="Group_10573" data-name="Group 10573">
                                <path id="Path_6864" data-name="Path 6864" d="M153.734,86a1.824,1.824,0,0,0,.5.137,9.055,9.055,0,0,0,1.39.183,12.171,12.171,0,0,0,2.083-.045,12.81,12.81,0,0,0,4.845-1.535,12.2,12.2,0,0,0,1.729-1.163,9.076,9.076,0,0,0,1.031-.951,1.9,1.9,0,0,0,.327-.4c-.037-.037-.539.5-1.477,1.194a13.882,13.882,0,0,1-1.731,1.094,13.736,13.736,0,0,1-4.754,1.506,13.965,13.965,0,0,1-2.045.1C154.46,86.1,153.743,85.95,153.734,86Z" transform="translate(-153.734 -82.23)" fill="#fff"/>
                              </g>
                            </g>
                          </g>
                        </g>
                      </g>
                    </g>
                  </g>
                  <path id="Path_6865" data-name="Path 6865" d="M190,227.426c-.1.029,1.2,6.537,2.473,13.287h.4C191.6,233.963,190.1,227.4,190,227.426Z" transform="translate(-162.05 -121.694)" fill="#1b6e6d"/>
                  <path id="Path_6866" data-name="Path 6866" d="M188.09,209.852a7.613,7.613,0,0,0,7.58-6.261c1.156-8.111,5.784-21.839,25.3-22.173,14.864-.253,21.119,10.268,22.872,14.947a27.576,27.576,0,0,1-2.079,23.83c-6.938,11.347-19.7,13.085-26.691,13.11a14.56,14.56,0,0,0-14.579,14.431v30.306l40.264-.757v-7.565a.326.326,0,0,1,.225-.309,70.276,70.276,0,0,0,21.43-12l-2.621-34.9s7.663-14.727,7.283-18.041c-3.469-30.271-13.765-47.4-17.949-49-4.7-1.793-22.836-.92-22.836-.92s-7.834,14.515-18.825,16.123c-6.116.895-8.349-6.742-8.349-6.742l-14.2,8.328c-10.11,5.1-12.072,24.94-12.257,37.592Z" transform="translate(-154.65 -90.507)" fill="#1b6e6d"/>
                  <g id="Group_10580" data-name="Group 10580" transform="translate(74.26 137.177)" opacity="0.3">
                    <path id="Path_6867" data-name="Path 6867" d="M276.627,282.276c8.116,2.066,16.117,4.68,24.233,6.746a3.092,3.092,0,0,1,1.65.8,2.78,2.78,0,0,1,.2,2.617,15.927,15.927,0,0,1-4.887,7.127,11.067,11.067,0,0,1-6.224,3.043c-2.61.2-5.119-1.007-7.325-2.415a38.6,38.6,0,0,1-13.483-14.833s1.9-.783,3.359-1.561A26.139,26.139,0,0,0,276.627,282.276Z" transform="translate(-270.786 -282.276)"/>
                  </g>
                  <path id="Path_6868" data-name="Path 6868" d="M287.9,224.057A26.486,26.486,0,0,1,276.3,256.8a76.5,76.5,0,0,0,11.587,10.588c4.145,2.942,13.7,2.106,17.322-4.335,4.469-7.946,4.843-28.245,4.843-28.245l.849-12.237-24.994-3.828-.2.685A26.942,26.942,0,0,1,287.9,224.057Z" transform="translate(-198.879 -117.989)" fill="#fff"/>
                  <g id="Group_10592" data-name="Group 10592" transform="translate(25.912 76.316)">
                    <g id="Group_10591" data-name="Group 10591">
                      <g id="Group_10590" data-name="Group 10590">
                        <g id="Group_10589" data-name="Group 10589">
                          <g id="Group_10588" data-name="Group 10588">
                            <g id="Group_10587" data-name="Group 10587">
                              <g id="Group_10586" data-name="Group 10586">
                                <g id="Group_10585" data-name="Group 10585">
                                  <g id="Group_10584" data-name="Group 10584">
                                    <g id="Group_10583" data-name="Group 10583">
                                      <g id="Group_10582" data-name="Group 10582">
                                        <g id="Group_10581" data-name="Group 10581">
                                          <path id="Path_6869" data-name="Path 6869" d="M206.041,200.725l-1.423,2.243c-1.082.746-2.111.337-2.78-1.05L186.452,178.5l3.748-2.384,16.994,22.458A2.237,2.237,0,0,1,206.041,200.725Z" transform="translate(-186.452 -176.115)" fill="#1b6e6d"/>
                                        </g>
                                      </g>
                                    </g>
                                  </g>
                                </g>
                              </g>
                            </g>
                          </g>
                        </g>
                      </g>
                    </g>
                  </g>
                  <g id="Group_10629" data-name="Group 10629" transform="translate(1.253 45.552)">
                    <g id="Group_10612" data-name="Group 10612">
                      <g id="Group_10611" data-name="Group 10611">
                        <g id="Group_10601" data-name="Group 10601" transform="translate(0 0.719)">
                          <g id="Group_10600" data-name="Group 10600">
                            <g id="Group_10599" data-name="Group 10599">
                              <g id="Group_10598" data-name="Group 10598">
                                <g id="Group_10597" data-name="Group 10597">
                                  <g id="Group_10596" data-name="Group 10596">
                                    <g id="Group_10595" data-name="Group 10595">
                                      <g id="Group_10594" data-name="Group 10594">
                                        <g id="Group_10593" data-name="Group 10593">
                                          <path id="Path_6870" data-name="Path 6870" d="M152.139,155.734a17.125,17.125,0,1,1,23.973-22.108h0a17.123,17.123,0,0,1-23.973,22.108Zm16.306-28.8a15.968,15.968,0,1,0,6.626,7.176A15.972,15.972,0,0,0,168.445,126.932Z" transform="translate(-143.438 -123.707)" fill="#1b6e6d"/>
                                        </g>
                                      </g>
                                    </g>
                                  </g>
                                </g>
                              </g>
                            </g>
                          </g>
                        </g>
                        <g id="Group_10610" data-name="Group 10610" transform="translate(0.729)">
                          <g id="Group_10609" data-name="Group 10609">
                            <g id="Group_10608" data-name="Group 10608">
                              <g id="Group_10607" data-name="Group 10607">
                                <g id="Group_10606" data-name="Group 10606">
                                  <g id="Group_10605" data-name="Group 10605">
                                    <g id="Group_10604" data-name="Group 10604">
                                      <g id="Group_10603" data-name="Group 10603">
                                        <g id="Group_10602" data-name="Group 10602">
                                          <path id="Path_6871" data-name="Path 6871" d="M153.412,154.481a17.125,17.125,0,1,1,23.972-22.109h0a17.123,17.123,0,0,1-23.972,22.109Zm16.305-28.8a15.968,15.968,0,1,0,6.626,7.176A15.972,15.972,0,0,0,169.717,125.679Z" transform="translate(-144.71 -122.454)" fill="#1b6e6d" stroke="#fff" stroke-width="0.5"/>
                                        </g>
                                      </g>
                                    </g>
                                  </g>
                                </g>
                              </g>
                            </g>
                          </g>
                        </g>
                      </g>
                    </g>
                    <g id="Group_10615" data-name="Group 10615" transform="translate(12.814 2.713)">
                      <g id="Group_10614" data-name="Group 10614">
                        <g id="Group_10613" data-name="Group 10613">
                          <path id="Path_6872" data-name="Path 6872" d="M185.088,141.84a1.67,1.67,0,0,1-.018-.281c-.013-.184.009-.456-.033-.8a12.276,12.276,0,0,0-.567-2.891,15.43,15.43,0,0,0-.75-1.893,16.469,16.469,0,0,0-1.171-2.021,15.85,15.85,0,0,0-1.609-2.018,15.219,15.219,0,0,0-2.056-1.854,14.117,14.117,0,0,0-2.371-1.423,15.216,15.216,0,0,0-2.428-.869,14.519,14.519,0,0,0-4.336-.44,13.9,13.9,0,0,0-2.914.452c-.341.076-.594.178-.772.224a1.626,1.626,0,0,1-.273.072,1.6,1.6,0,0,1,.261-.107c.175-.057.425-.17.765-.258a12.993,12.993,0,0,1,2.925-.513,14.313,14.313,0,0,1,4.386.405,15.143,15.143,0,0,1,2.462.87,14.052,14.052,0,0,1,2.406,1.44,15.142,15.142,0,0,1,2.077,1.878,15.706,15.706,0,0,1,1.618,2.046,16.266,16.266,0,0,1,1.168,2.051,15.026,15.026,0,0,1,.737,1.92,11.56,11.56,0,0,1,.514,2.925,7.361,7.361,0,0,1,0,.808A1.649,1.649,0,0,1,185.088,141.84Z" transform="translate(-165.79 -127.186)" fill="#fff"/>
                        </g>
                      </g>
                    </g>
                    <g id="Group_10618" data-name="Group 10618" transform="translate(14.24 27.673)">
                      <g id="Group_10617" data-name="Group 10617">
                        <g id="Group_10616" data-name="Group 10616">
                          <path id="Path_6873" data-name="Path 6873" d="M168.276,174.361c.012-.042.794.249,2.113.429l.518.062c.18.02.369.02.565.032.39.032.807.011,1.246,0a13.3,13.3,0,0,0,5.475-1.476c.384-.213.755-.405,1.077-.628.162-.108.326-.2.472-.312l.416-.314c1.05-.819,1.58-1.463,1.612-1.433a3.517,3.517,0,0,1-.373.447,5.068,5.068,0,0,1-.478.488,8.257,8.257,0,0,1-.68.6l-.415.327c-.145.112-.308.212-.471.324a12.379,12.379,0,0,1-1.082.651,12.889,12.889,0,0,1-5.546,1.494,11.973,11.973,0,0,1-1.262-.02c-.2-.015-.388-.019-.57-.044l-.522-.075a8.317,8.317,0,0,1-.889-.177,5.147,5.147,0,0,1-.659-.182A3.513,3.513,0,0,1,168.276,174.361Z" transform="translate(-168.276 -170.724)" fill="#fff"/>
                        </g>
                      </g>
                    </g>
                    <g id="Group_10621" data-name="Group 10621" transform="translate(16.183 10.23)">
                      <g id="Group_10620" data-name="Group 10620">
                        <g id="Group_10619" data-name="Group 10619">
                          <path id="Path_6874" data-name="Path 6874" d="M181.507,150.408c-.036.036-2.269-2.2-4.986-4.99s-4.891-5.085-4.855-5.119,2.268,2.2,4.986,4.991S181.543,150.373,181.507,150.408Z" transform="translate(-171.665 -140.297)" fill="#fff"/>
                        </g>
                      </g>
                    </g>
                    <g id="Group_10624" data-name="Group 10624" transform="translate(8.281 8.44)">
                      <g id="Group_10623" data-name="Group 10623">
                        <g id="Group_10622" data-name="Group 10622">
                          <path id="Path_6875" data-name="Path 6875" d="M172.99,153.562a1.1,1.1,0,0,1-.163-.159l-.439-.479-1.6-1.777c-1.346-1.5-3.212-3.57-5.3-5.832s-4-4.29-5.384-5.754l-1.641-1.735-.441-.476a1.082,1.082,0,0,1-.145-.175,1.032,1.032,0,0,1,.171.149l.466.452c.4.4.977.975,1.683,1.7,1.412,1.441,3.338,3.455,5.426,5.719s3.937,4.347,5.259,5.87c.661.762,1.191,1.383,1.553,1.816l.413.5A1.068,1.068,0,0,1,172.99,153.562Z" transform="translate(-157.882 -137.176)" fill="#fff"/>
                        </g>
                      </g>
                    </g>
                    <g id="Group_10626" data-name="Group 10626" transform="translate(5.718 3.849)" opacity="0.3">
                      <g id="Group_10625" data-name="Group 10625">
                        <path id="Path_6876" data-name="Path 6876" d="M157.116,129.168l21.03,22.844a16.6,16.6,0,0,1-3.261,3.417l-21.474-23.378A12.267,12.267,0,0,1,157.116,129.168Z" transform="translate(-153.411 -129.168)" fill="#fff"/>
                      </g>
                    </g>
                    <g id="Group_10628" data-name="Group 10628" transform="translate(3.325 9.366)" opacity="0.3">
                      <g id="Group_10627" data-name="Group 10627">
                        <path id="Path_6877" data-name="Path 6877" d="M149.822,138.791l20.684,22.257s.192.1-1.233.465l-20.035-21.592A2.848,2.848,0,0,1,149.822,138.791Z" transform="translate(-149.238 -138.791)" fill="#fff"/>
                      </g>
                    </g>
                  </g>
                  <g id="Group_10645" data-name="Group 10645" transform="translate(25.174 76.382)">
                    <g id="Group_10644" data-name="Group 10644">
                      <g id="Group_10643" data-name="Group 10643">
                        <g id="Group_10642" data-name="Group 10642">
                          <path id="Path_6878" data-name="Path 6878" d="M219.6,191.49c-4.418-3.548-15.244-12.224-15.739-12.455-.623-.291-10.151-3.677-11.977-2.589s-6.719,7.23-6.719,7.23.464,3.82,4.733,1.086l3.819-2.446-.007,0,4.538,1.061s-5.535,2.311-6.705,3.526-3.022,5.869-1.867,6.941a4.478,4.478,0,0,0,2.495,1.163s-2.285,3.245,1.768,5.2c0,0,.592,2.728,2.591,3.8s5.724.691,5.724.691a1.754,1.754,0,0,0,.444-2.715,5.764,5.764,0,0,0-3.65-1.928l2.934-1.711a13.493,13.493,0,0,1,3.787,2.214,32.814,32.814,0,0,1,5.353-5.367C214.123,193.019,219.6,191.49,219.6,191.49Z" transform="translate(-185.164 -176.231)" fill="#fff"/>
                          <g id="Group_10633" data-name="Group 10633" transform="translate(8.772 16.693)">
                            <g id="Group_10632" data-name="Group 10632">
                              <g id="Group_10631" data-name="Group 10631">
                                <g id="Group_10630" data-name="Group 10630">
                                  <path id="Path_6879" data-name="Path 6879" d="M207.348,205.356a1.5,1.5,0,0,0-.436.026,6.621,6.621,0,0,0-1.159.269,7.653,7.653,0,0,0-5.111,5.558,6.661,6.661,0,0,0-.171,1.178,1.5,1.5,0,0,0,.011.436c.041,0,.049-.62.308-1.576a7.955,7.955,0,0,1,5.013-5.451C206.734,205.457,207.355,205.4,207.348,205.356Z" transform="translate(-200.466 -205.348)" fill="#d1512d"/>
                                </g>
                              </g>
                            </g>
                          </g>
                          <g id="Group_10637" data-name="Group 10637" transform="translate(6.904 11.756)">
                            <g id="Group_10636" data-name="Group 10636">
                              <g id="Group_10635" data-name="Group 10635">
                                <g id="Group_10634" data-name="Group 10634">
                                  <path id="Path_6880" data-name="Path 6880" d="M206.152,196.743a1.89,1.89,0,0,0-.465.033,4.348,4.348,0,0,0-.54.089,7.087,7.087,0,0,0-.706.167,10.621,10.621,0,0,0-1.769.667,11.2,11.2,0,0,0-3.651,2.812,10.637,10.637,0,0,0-1.1,1.54,7.2,7.2,0,0,0-.343.64,4.253,4.253,0,0,0-.223.5,1.929,1.929,0,0,0-.151.441c.04.017.282-.6.847-1.5a11.879,11.879,0,0,1,1.116-1.489,13.057,13.057,0,0,1,1.661-1.555,15.209,15.209,0,0,1,2.007-1.36,9.279,9.279,0,0,1,1.645-.547C205.5,196.863,206.159,196.786,206.152,196.743Z" transform="translate(-197.206 -196.737)" fill="#d1512d"/>
                                </g>
                              </g>
                            </g>
                          </g>
                          <g id="Group_10641" data-name="Group 10641" transform="translate(12.99 5.946)">
                            <g id="Group_10640" data-name="Group 10640">
                              <g id="Group_10639" data-name="Group 10639">
                                <g id="Group_10638" data-name="Group 10638">
                                  <path id="Path_6881" data-name="Path 6881" d="M211.512,186.748a1.26,1.26,0,0,0-.617-.139,3.391,3.391,0,0,0-1.5.269,2.853,2.853,0,0,0-1.238.9,1.255,1.255,0,0,0-.328.54,4.318,4.318,0,0,1,3.686-1.566Z" transform="translate(-207.823 -186.603)" fill="#d1512d"/>
                                </g>
                              </g>
                            </g>
                          </g>
                        </g>
                      </g>
                    </g>
                  </g>
                  <path id="Path_6882" data-name="Path 6882" d="M298.061,155.517s13.983,1.341,18.422,13.489c3.523,9.642,5.437,38.528,4.554,39.117l-24.686-.789c-.325-7.044-2.222-12.475-4.881-15.989Z" transform="translate(-205.351 -91.01)" fill="#1b6e6d"/>
                  <g id="Group_10646" data-name="Group 10646" transform="translate(91.376 116.323)">
                    <path id="Path_6883" data-name="Path 6883" d="M300.641,245.9a1.975,1.975,0,0,1,.484.27c.3.188.727.48,1.239.858a33.131,33.131,0,0,1,3.757,3.259,38.513,38.513,0,0,1,3.271,3.746c.385.507.686.924.883,1.22a2,2,0,0,1,.284.476,18.06,18.06,0,0,1-1.332-1.564c-.811-.973-1.954-2.3-3.318-3.667a45.012,45.012,0,0,0-3.674-3.3C301.25,246.4,300.615,245.94,300.641,245.9Z" transform="translate(-300.641 -245.9)" fill="#1b6e6d"/>
                  </g>
                  <g id="Group_10647" data-name="Group 10647" transform="translate(86.108 86.611)">
                    <path id="Path_6884" data-name="Path 6884" d="M293.78,194.073c.081.014-.372,3.1-1.012,6.887s-1.225,6.851-1.307,6.838.371-3.1,1.012-6.887S293.7,194.059,293.78,194.073Z" transform="translate(-291.452 -194.073)" fill="#1b6e6d"/>
                  </g>
                  <g id="Group_10648" data-name="Group 10648" transform="translate(57.367 168.127)">
                    <path id="Path_6885" data-name="Path 6885" d="M241.318,341.373a2.133,2.133,0,0,1,.41-.062l1.18-.119,4.342-.41c3.665-.352,8.724-.881,14.3-1.585s10.607-1.454,14.245-2.026l4.307-.683,1.172-.178a2.252,2.252,0,0,1,.413-.042,2.163,2.163,0,0,1-.4.1l-1.163.234c-1.011.2-2.478.465-4.293.777-3.631.626-8.662,1.407-14.241,2.114s-10.644,1.2-14.317,1.5c-1.836.15-3.323.257-4.351.316l-1.185.064A2.171,2.171,0,0,1,241.318,341.373Z" transform="translate(-241.318 -336.264)" fill="#1b6e6d"/>
                  </g>
                  <g id="Group_10649" data-name="Group 10649" transform="translate(55.184 168.119)">
                    <path id="Path_6886" data-name="Path 6886" d="M237.511,337.677a6.724,6.724,0,0,1,1.018-.092l2.777-.147,9.162-.47,9.16-.53,2.777-.156a6.849,6.849,0,0,1,1.021-.02,6.594,6.594,0,0,1-1.012.136c-.654.068-1.6.154-2.771.251-2.341.194-5.578.422-9.158.618s-6.822.32-9.17.383c-1.174.031-2.124.049-2.782.053A6.67,6.67,0,0,1,237.511,337.677Z" transform="translate(-237.511 -336.25)" fill="#1b6e6d"/>
                  </g>
                  <g id="Group_10659" data-name="Group 10659" transform="translate(10.567 114.614)">
                    <g id="Group_10654" data-name="Group 10654">
                      <g id="Group_10653" data-name="Group 10653">
                        <path id="Path_6887" data-name="Path 6887" d="M168.87,245.582a3.016,3.016,0,0,1,.447-.98,2.967,2.967,0,0,1,1.746-1.205,3,3,0,0,1,3.13,1.308,1.784,1.784,0,0,1,1.331-1.717,2.041,2.041,0,0,1,1.944.585,2.933,2.933,0,0,1,1,1.642c.6-1.351,3.694-1.186,4.07-.172,0,0,2.661-2.912,4.021-1.48.566.6.323,1.508-.051,2.422-.5,1.221-.829,1.729-1.483,3.073l-2.518.138c-.212.788-.659,3.994-.753,4.8a5.581,5.581,0,0,1-.688,2.329,2.43,2.43,0,0,1-2,1.225,1.579,1.579,0,0,1-1.572-1.526,3.839,3.839,0,0,1-.955,1.824,2.065,2.065,0,0,1-1.9.591,1.429,1.429,0,0,1-1.07-1.56,2.1,2.1,0,0,1-2.795-.863,5.69,5.69,0,0,1-.549-3.181,7.218,7.218,0,0,0-.263-2.97,2.7,2.7,0,0,1-.2-.423,4.993,4.993,0,0,1-.033-.719,5.477,5.477,0,0,0-.3-1.492q-.058-.157-.126-.311c-.123-.271-.3-.5-.441-.76a.493.493,0,0,1-.064-.178A1.193,1.193,0,0,1,168.87,245.582Z" transform="translate(-163.572 -242.92)" fill="#fff"/>
                        <g id="Group_10652" data-name="Group 10652" transform="translate(0 1.26)">
                          <g id="Group_10651" data-name="Group 10651">
                            <g id="Group_10650" data-name="Group 10650">
                              <path id="Path_6888" data-name="Path 6888" d="M162.149,245.121a2.342,2.342,0,0,0-1.856.617,4.552,4.552,0,0,0-.6,2.815c.933.176,1.432-.032,2.365.144.2.037.361-.013.524.1.431.306.361,1.335.534,1.834a1.8,1.8,0,0,0,2.267.97,2.409,2.409,0,0,0,1.455-2.146,3.72,3.72,0,0,0-.948-2.51A5.2,5.2,0,0,0,162.149,245.121Z" transform="translate(-159.684 -245.118)" fill="#fff"/>
                            </g>
                          </g>
                        </g>
                      </g>
                    </g>
                    <g id="Group_10655" data-name="Group 10655" transform="translate(18.345 2.025)">
                      <path id="Path_6889" data-name="Path 6889" d="M191.7,254.17c-.1-.021.289-1.728.531-3.854a16.9,16.9,0,0,0,.1-2.727,8.886,8.886,0,0,1-.072-1.137,2.956,2.956,0,0,1,.282,1.118,11.938,11.938,0,0,1-.015,2.778,21.431,21.431,0,0,1-.484,2.726A4.125,4.125,0,0,1,191.7,254.17Z" transform="translate(-191.683 -246.452)" fill="#d1512d"/>
                    </g>
                    <g id="Group_10656" data-name="Group 10656" transform="translate(13.805 2.294)">
                      <path id="Path_6890" data-name="Path 6890" d="M183.773,258.039a9.871,9.871,0,0,1,.249-1.628c.182-1,.438-2.377.632-3.909a28.181,28.181,0,0,0,.242-3.939c-.015-1.011-.088-1.635-.04-1.642a5.982,5.982,0,0,1,.251,1.633,21.01,21.01,0,0,1-.156,3.985,37.646,37.646,0,0,1-.721,3.915A8.324,8.324,0,0,1,183.773,258.039Z" transform="translate(-183.765 -246.921)" fill="#d1512d"/>
                    </g>
                    <g id="Group_10657" data-name="Group 10657" transform="translate(9.961 1.611)">
                      <path id="Path_6891" data-name="Path 6891" d="M177.067,258.186a16.436,16.436,0,0,1,.315-1.812,34.927,34.927,0,0,0,.48-8.808,16.473,16.473,0,0,1-.116-1.836,1.63,1.63,0,0,1,.126.481c.064.312.134.769.2,1.336a26.856,26.856,0,0,1-.484,8.869c-.127.556-.246,1-.344,1.306A1.616,1.616,0,0,1,177.067,258.186Z" transform="translate(-177.059 -245.73)" fill="#d1512d"/>
                    </g>
                    <g id="Group_10658" data-name="Group 10658" transform="translate(4.897 2.835)">
                      <path id="Path_6892" data-name="Path 6892" d="M168.228,247.871a1.593,1.593,0,0,1,.785.4,3.985,3.985,0,0,1,1.275,1.7,3.406,3.406,0,0,1,.169,2.125c-.167.554-.515.746-.526.711a2.93,2.93,0,0,0,.322-.763,3.719,3.719,0,0,0-.243-1.964,4.536,4.536,0,0,0-1.132-1.649C168.5,248.076,168.205,247.914,168.228,247.871Z" transform="translate(-168.227 -247.866)" fill="#d1512d"/>
                    </g>
                  </g>
                </g>
              </g>
            </g>
          </g>
        </g>
      </g>
    </g>
  </g>
</svg>
