<?xml version="1.0" encoding="UTF-8" standalone="no"?>
<!-- Created with Inkscape (http://www.inkscape.org/) -->

<svg
   width="264.58331mm"
   height="176.3889mm"
   viewBox="0 0 264.58331 176.3889"
   version="1.1"
   id="svg5"
   xml:space="preserve"
   xmlns:inkscape="http://www.inkscape.org/namespaces/inkscape"
   xmlns:sodipodi="http://sodipodi.sourceforge.net/DTD/sodipodi-0.dtd"
   xmlns="http://www.w3.org/2000/svg"
   xmlns:svg="http://www.w3.org/2000/svg"><sodipodi:namedview
     id="namedview7"
     pagecolor="#ffffff"
     bordercolor="#000000"
     borderopacity="0.25"
     inkscape:showpageshadow="2"
     inkscape:pageopacity="0.0"
     inkscape:pagecheckerboard="0"
     inkscape:deskcolor="#d1d1d1"
     inkscape:document-units="mm"
     showgrid="false"
     inkscape:zoom="7.6257014"
     inkscape:cx="1355.7441"
     inkscape:cy="231.32298"
     inkscape:window-width="1680"
     inkscape:window-height="997"
     inkscape:window-x="1358"
     inkscape:window-y="-8"
     inkscape:window-maximized="1"
     inkscape:current-layer="svg5" /><defs
     id="defs2"><clipPath
       clipPathUnits="userSpaceOnUse"
       id="clipPath25565"><path
         d="m 531.617,402.969 h 86.094 v -75.285 h -86.094 z"
         id="path25563" /></clipPath><clipPath
       clipPathUnits="userSpaceOnUse"
       id="clipPath25585"><path
         d="m 559.234,380.025 h 20.563 v -30.042 h -20.563 z"
         id="path25583" /></clipPath></defs><g
     id="g25327"
     transform="matrix(0.35277776,0,0,-0.35277778,20.334275,165.41387)"><path
       d="M 0,0 H 636.719 Z"
       style="fill:#ffffff;fill-opacity:1;fill-rule:nonzero;stroke:none"
       id="path25329" /></g><g
     id="g25345"
     transform="matrix(1.6011415,0,0,-1.6011417,-148.45731,668.54675)"><g
       id="g46684"
       transform="matrix(1.1461989,0,0,1.1461989,-25.286047,-49.154429)"><ellipse
         style="fill:#ffffff;fill-opacity:0.140845;stroke-width:0.165247"
         id="path46414"
         cx="-385.3161"
         cy="-410.09329"
         transform="matrix(0,-0.87244897,-0.87244898,0,-181.03282,22.824244)"
         rx="54.388493"
         ry="54.388504" /><g
         id="g31457"
         transform="matrix(0.59284301,0,0,0.59284302,-164.48258,135.71487)"><g
           id="g25547"
           transform="translate(600.1704,362.1687)"><path
             d="M 0,0 -7.898,1.646 2.128,49.754 c 0.455,2.179 -0.255,5.433 -1.558,7.237 -12.588,17.426 -33.072,10.345 -36.209,-4.707 l -8.96,-42.989 -7.898,1.646 10.091,48.416 c 1.056,5.069 4.322,9.422 8.924,11.794 C -8.036,84.263 13.314,63.879 8.96,42.989 Z"
             style="fill:#e1e1e1;fill-opacity:1;fill-rule:nonzero;stroke:none"
             id="path25549" /></g><g
           id="g25551"
           transform="translate(600.1704,362.1687)"><path
             d="m 0,0 c 0,0 0.053,0.297 0.166,0.862 0.115,0.571 0.284,1.406 0.505,2.499 0.45,2.195 1.11,5.42 1.96,9.57 0.854,4.149 1.898,9.221 3.109,15.109 0.607,2.942 1.257,6.087 1.946,9.423 0.624,3.34 1.657,6.835 1.69,10.616 0.085,3.768 -0.731,7.733 -2.455,11.464 -0.221,0.463 -0.428,0.937 -0.665,1.399 -0.264,0.447 -0.529,0.896 -0.795,1.347 -0.493,0.93 -1.188,1.738 -1.795,2.616 -0.312,0.434 -0.698,0.811 -1.045,1.223 -0.369,0.392 -0.689,0.836 -1.102,1.191 -0.803,0.733 -1.567,1.528 -2.476,2.165 -1.711,1.414 -3.719,2.473 -5.781,3.451 -0.535,0.199 -1.073,0.4 -1.613,0.601 l -0.812,0.302 c -0.276,0.084 -0.559,0.149 -0.839,0.225 -0.562,0.147 -1.126,0.294 -1.692,0.442 -0.572,0.122 -1.157,0.189 -1.738,0.287 -4.658,0.748 -9.65,0.086 -14.234,-1.824 -2.296,-0.967 -4.444,-2.317 -6.447,-3.886 -1.973,-1.616 -3.706,-3.547 -5.205,-5.674 -1.463,-2.158 -2.576,-4.563 -3.404,-7.085 -0.73,-2.548 -1.195,-5.224 -1.771,-7.883 -2.222,-10.669 -4.523,-21.714 -6.879,-33.028 -0.315,-1.51 -0.629,-3.016 -0.94,-4.509 l -0.146,0.223 c 2.686,-0.56 5.333,-1.112 7.897,-1.646 l -0.222,-0.146 c 1.783,8.55 3.528,16.914 5.223,25.042 0.849,4.064 1.685,8.069 2.507,12.009 0.411,1.969 0.819,3.923 1.224,5.859 0.434,1.949 1.128,3.819 2.08,5.534 1.958,3.396 4.907,6.127 8.318,7.723 0.432,0.187 0.841,0.424 1.288,0.568 l 1.319,0.467 c 0.901,0.228 1.791,0.504 2.708,0.601 0.908,0.171 1.825,0.185 2.734,0.227 0.454,0.005 0.907,-0.041 1.359,-0.059 l 0.676,-0.036 0.667,-0.104 c 1.791,-0.203 3.491,-0.785 5.104,-1.455 1.6,-0.723 3.064,-1.666 4.389,-2.743 2.585,-2.221 4.569,-5.023 5.63,-8.065 0.595,-1.501 0.86,-3.077 1.068,-4.618 C 1.61,48.732 1.627,47.189 1.368,45.703 1.309,45.331 1.251,44.961 1.192,44.593 1.116,44.23 1.041,43.869 0.965,43.51 0.815,42.792 0.666,42.08 0.518,41.375 0.222,39.965 -0.068,38.581 -0.352,37.225 -1.491,31.801 -2.537,26.816 -3.481,22.32 -5.376,13.336 -6.858,6.309 -7.844,1.635 L -7.887,1.7 C -5.206,1.127 -3.241,0.707 -1.938,0.428 -1.291,0.287 -0.81,0.183 -0.483,0.112 -0.162,0.041 0,0 0,0 0,0 -0.151,0.025 -0.468,0.087 -0.794,0.152 -1.273,0.247 -1.916,0.375 -3.229,0.642 -5.208,1.044 -7.909,1.592 l -0.055,0.011 0.012,0.055 c 0.963,4.678 2.411,11.712 4.263,20.705 0.931,4.499 1.963,9.487 3.086,14.914 0.281,1.357 0.568,2.741 0.86,4.152 0.147,0.706 0.294,1.418 0.443,2.136 0.075,0.36 0.15,0.721 0.225,1.083 0.056,0.364 0.113,0.729 0.17,1.095 0.252,1.465 0.232,2.985 0.132,4.514 -0.208,1.517 -0.471,3.068 -1.06,4.544 -1.05,2.993 -3.008,5.747 -5.554,7.927 -1.304,1.058 -2.745,1.983 -4.319,2.691 -1.587,0.656 -3.258,1.226 -5.019,1.423 l -0.656,0.102 -0.665,0.034 c -0.443,0.018 -0.888,0.062 -1.335,0.057 -0.893,-0.044 -1.794,-0.058 -2.685,-0.227 -0.901,-0.096 -1.774,-0.369 -2.659,-0.593 l -1.296,-0.461 c -0.438,-0.141 -0.84,-0.375 -1.263,-0.559 -3.349,-1.571 -6.241,-4.256 -8.16,-7.59 -0.933,-1.685 -1.611,-3.518 -2.037,-5.434 -0.403,-1.936 -0.809,-3.89 -1.219,-5.86 -0.82,-3.94 -1.653,-7.945 -2.499,-12.01 -1.693,-8.128 -3.435,-16.493 -5.215,-25.044 l -0.039,-0.185 -0.184,0.039 c -2.565,0.534 -5.212,1.086 -7.899,1.645 l -0.185,0.039 0.039,0.185 c 0.311,1.493 0.625,2.999 0.94,4.51 2.359,11.312 4.662,22.357 6.887,33.025 0.579,2.665 1.037,5.317 1.783,7.916 0.841,2.556 1.971,4.994 3.456,7.18 1.52,2.155 3.278,4.11 5.279,5.746 2.03,1.589 4.208,2.954 6.535,3.932 4.646,1.931 9.704,2.595 14.419,1.832 0.588,-0.1 1.18,-0.169 1.758,-0.293 l 1.963,-0.515 c 0.356,-0.113 0.712,-0.226 1.068,-0.339 l 1.607,-0.601 c 0.245,-0.104 0.489,-0.208 0.734,-0.312 1.96,-0.945 3.858,-1.979 5.489,-3.33 C 0.154,69.085 0.926,68.28 1.737,67.537 2.154,67.176 2.477,66.728 2.85,66.33 3.201,65.914 3.59,65.531 3.904,65.092 4.518,64.203 5.218,63.384 5.715,62.444 5.983,61.987 6.25,61.532 6.516,61.08 6.755,60.613 6.963,60.133 7.186,59.664 8.922,55.89 9.737,51.881 9.644,48.075 9.599,44.249 8.551,40.739 7.915,37.392 7.212,34.047 6.548,30.893 5.928,27.944 4.685,22.054 3.614,16.98 2.738,12.83 1.861,8.697 1.18,5.486 0.717,3.299 0.485,2.219 0.308,1.394 0.187,0.83 0.067,0.276 0,0 0,0"
             style="fill:#1a2e35;fill-opacity:1;fill-rule:nonzero;stroke:none"
             id="path25553" /></g><g
           id="g25555"
           transform="translate(602.4839,327.744)"><path
             d="m 0,0 -70.908,14.779 12.61,60.503 70.572,-14.709 c 2.024,-0.422 3.323,-2.405 2.901,-4.429 L 4.023,2.636 C 3.64,0.797 1.839,-0.383 0,0"
             style="fill:#375a64;fill-opacity:1;fill-rule:nonzero;stroke:none"
             id="path25557" /></g><g
           id="g25559"><g
             id="g25561" /><g
             id="g25573"
             style="fill:#1b6e6d;fill-opacity:1"><g
               clip-path="url(#clipPath25565)"
               opacity="0.300003"
               id="g25571"
               style="fill:#1b6e6d;fill-opacity:1"><g
                 transform="translate(602.1535,327.7648)"
                 id="g25569"
                 style="fill:#1b6e6d;fill-opacity:1"><path
                   d="m 0,0 -70.536,14.701 12.609,60.503 70.201,-14.631 c 2.23,-0.465 3.66,-2.649 3.196,-4.879 L 4.473,2.93 C 4.047,0.886 2.044,-0.426 0,0"
                   style="fill:#1b6e6d;fill-opacity:1;fill-rule:nonzero;stroke:none"
                   id="path25567" /></g></g></g></g><g
           id="g25575"
           transform="translate(592.196,329.8881)"><path
             d="m 0,0 -59.895,12.483 c -2.27,0.473 -3.727,2.698 -3.254,4.968 l 10.924,52.414 c 0.457,2.197 2.61,3.607 4.807,3.149 L 13.498,60.318 c 2.197,-0.458 3.608,-2.61 3.15,-4.808 L 5.881,3.852 C 5.321,1.165 2.688,-0.56 0,0"
             style="fill:#309da0;fill-opacity:1;fill-rule:nonzero;stroke:none"
             id="path25577" /></g><g
           id="g25579"><g
             id="g25581" /><g
             id="g25593"><g
               clip-path="url(#clipPath25585)"
               opacity="0.300003"
               id="g25591"><g
                 transform="translate(579.6135,369.6388)"
                 id="g25589"><path
                   d="m 0,0 c 0.99,4.751 -2.133,9.404 -6.947,10.258 -4.491,0.797 -8.965,-2.207 -9.933,-6.664 -0.844,-3.887 1.094,-7.686 4.442,-9.442 l -7.941,-10.506 14.506,-3.302 -1.956,12.847 C -4.082,-6.538 -0.805,-3.861 0,0"
                   style="fill:#000000;fill-opacity:1;fill-rule:nonzero;stroke:none"
                   id="path25587" /></g></g></g></g><g
           id="g25595"
           transform="translate(598.2905,334.5471)"><path
             d="M 0,0 C -0.102,0.022 2.056,10.566 4.82,23.548 7.584,36.535 9.908,47.041 10.01,47.019 10.112,46.998 7.954,36.456 5.19,23.469 2.426,10.487 0.102,-0.022 0,0"
             style="fill:#1a2e35;fill-opacity:1;fill-rule:nonzero;stroke:none"
             id="path25597" /></g><g
           id="g25599"
           transform="translate(593.3714,390.8617)"><path
             d="m 0,0 c -0.02,-0.103 -9.332,1.623 -20.796,3.854 -11.469,2.232 -20.746,4.124 -20.726,4.226 0.02,0.102 9.33,-1.623 20.798,-3.855 C -9.26,1.994 0.02,0.102 0,0"
             style="fill:#ffffff;fill-opacity:1;fill-rule:nonzero;stroke:none"
             id="path25601" /></g><g
           id="g25603"
           transform="translate(561.4967,368.6689)"><path
             d="m 0,0 c -0.022,-0.007 -0.118,0.202 -0.24,0.6 -0.124,0.396 -0.254,0.988 -0.318,1.732 -0.137,1.474 0.1,3.627 1.249,5.631 1.152,2.003 2.892,3.292 4.235,3.916 0.675,0.32 1.252,0.505 1.656,0.599 0.405,0.095 0.634,0.117 0.639,0.094 C 7.24,12.504 6.334,12.325 5.047,11.641 3.769,10.972 2.125,9.697 1.019,7.775 -0.084,5.851 -0.357,3.789 -0.291,2.348 -0.233,0.891 0.069,0.018 0,0"
             style="fill:#ffffff;fill-opacity:1;fill-rule:nonzero;stroke:none"
             id="path25605" /></g><g
           id="g25607"
           transform="translate(564.0007,363.9697)"><path
             d="M 0,0 C -0.071,-0.076 -0.527,0.233 -1.017,0.691 -1.508,1.149 -1.848,1.582 -1.776,1.658 -1.705,1.734 -1.25,1.425 -0.759,0.967 -0.269,0.509 0.071,0.076 0,0"
             style="fill:#ffffff;fill-opacity:1;fill-rule:nonzero;stroke:none"
             id="path25609" /></g><g
           id="g25611"
           transform="translate(585.3505,435.2632)"><path
             d="m 0,0 c -0.005,-0.033 -0.524,0.03 -1.463,0.094 -0.938,0.067 -2.303,0.092 -3.975,-0.067 -3.319,-0.292 -7.963,-1.567 -12.046,-4.693 -4.08,-3.131 -6.517,-7.285 -7.661,-10.415 -0.587,-1.573 -0.918,-2.898 -1.097,-3.821 -0.182,-0.923 -0.256,-1.441 -0.289,-1.437 -0.013,0.002 -0.008,0.132 0.014,0.38 0.029,0.247 0.045,0.617 0.13,1.083 0.135,0.937 0.429,2.284 0.991,3.887 1.091,3.188 3.53,7.436 7.682,10.623 4.155,3.181 8.891,4.433 12.253,4.66 1.694,0.125 3.071,0.06 4.011,-0.053 0.472,-0.039 0.833,-0.12 1.079,-0.156 C -0.126,0.042 0.002,0.013 0,0"
             style="fill:#ffffff;fill-opacity:1;fill-rule:nonzero;stroke:none"
             id="path25613" /></g><g
           id="g25615"
           transform="translate(557.1545,408.4634)"><path
             d="M 0,0 C -0.102,0.022 0.03,1.022 0.295,2.233 0.56,3.444 0.857,4.407 0.959,4.385 1.061,4.363 0.929,3.363 0.664,2.152 0.399,0.941 0.102,-0.022 0,0"
             style="fill:#ffffff;fill-opacity:1;fill-rule:nonzero;stroke:none"
             id="path25617" /></g></g></g></g></svg>
