<svg width="115" height="46" viewBox="0 0 115 46" fill="none" xmlns="http://www.w3.org/2000/svg">
<path d="M29.9434 10.0234H34.4972V33.9917H48.4276V38.3492H29.9464V10.0234H29.9434Z" fill="#5C5A5A"/>
<path d="M59.0096 38.7781C57.0648 38.7781 55.4039 38.4006 54.0299 37.6487C52.6559 36.8967 51.605 35.8579 50.8773 34.5352C50.1495 33.2126 49.7871 31.6936 49.7871 29.9814C49.7871 28.3477 50.2008 26.8619 51.0313 25.5272C51.8617 24.1924 52.9821 23.1294 54.3984 22.3352C55.8116 21.544 57.3759 21.1484 59.0881 21.1484C61.3439 21.1484 63.2071 21.8037 64.6717 23.1143C66.1363 24.4249 67.1178 26.2731 67.61 28.6587L54.341 33.1341L53.3293 30.682L63.7175 26.9857L62.7844 27.49C62.5247 26.7109 62.0717 26.0315 61.4224 25.4486C60.7732 24.8658 59.8793 24.5729 58.7378 24.5729C57.8289 24.5729 57.0256 24.7933 56.325 25.2342C55.6244 25.6751 55.0718 26.2791 54.6701 27.0431C54.2685 27.8101 54.0662 28.71 54.0662 29.7489C54.0662 30.839 54.2866 31.7782 54.7275 32.5694C55.1684 33.3605 55.7633 33.9705 56.5183 34.3994C57.2702 34.8282 58.1278 35.0426 59.0851 35.0426C59.7585 35.0426 60.4017 34.9248 61.0117 34.6923C61.6217 34.4598 62.2106 34.1487 62.7813 33.7592L64.7654 36.9873C63.9108 37.5309 62.9686 37.9657 61.9449 38.2919C60.9211 38.615 59.9427 38.7781 59.0096 38.7781Z" fill="#5C5A5A"/>
<path d="M74.416 38.6993C73.1719 38.6993 71.9851 38.4788 70.8557 38.0379C69.7262 37.597 68.7871 36.9478 68.0352 36.0932L69.8652 33.6411C70.5899 34.3417 71.3116 34.855 72.0243 35.1782C72.737 35.5043 73.4195 35.6644 74.0687 35.6644C74.561 35.6644 75.0079 35.607 75.4125 35.4892C75.8142 35.3714 76.1373 35.1842 76.3849 34.9245C76.6325 34.6648 76.7533 34.3145 76.7533 33.8736C76.7533 33.3542 76.5722 32.9465 76.2098 32.6476C75.8474 32.3486 75.3793 32.104 74.8086 31.9077C74.2378 31.7144 73.6278 31.5242 72.9816 31.343C71.5804 30.8749 70.5295 30.2227 69.8289 29.3771C69.1283 28.5346 68.778 27.5562 68.778 26.4388C68.778 25.5842 68.9985 24.7598 69.4394 23.9686C69.8803 23.1774 70.5537 22.5222 71.4626 22.0027C72.3716 21.4833 73.5101 21.2236 74.8871 21.2236C76.1313 21.2236 77.2154 21.3656 78.1364 21.6524C79.0575 21.9393 79.9181 22.3923 80.7244 23.0144L79.0514 25.6597C78.5834 25.1917 78.0337 24.8353 77.3966 24.5907C76.7594 24.3431 76.1826 24.2072 75.6662 24.183C75.1981 24.1589 74.7844 24.2163 74.422 24.3582C74.0597 24.5001 73.7607 24.7024 73.5282 24.9622C73.2957 25.2219 73.1779 25.5208 73.1779 25.856C73.1779 26.3754 73.3651 26.7891 73.7426 27.1002C74.117 27.4112 74.6063 27.6588 75.2012 27.84C75.7961 28.0212 76.394 28.2175 76.9919 28.4229C77.7952 28.6554 78.5018 28.9815 79.1118 29.3952C79.7218 29.812 80.208 30.3102 80.5704 30.8931C80.9328 31.4759 81.1139 32.1976 81.1139 33.0522C81.1139 34.0397 80.8663 34.9668 80.3741 35.8335C79.8819 36.7032 79.142 37.3977 78.1576 37.9141C77.1671 38.4396 75.9229 38.6993 74.416 38.6993Z" fill="#5C5A5A"/>
<path d="M82.1621 29.945C82.1621 28.2842 82.5577 26.7863 83.3489 25.4516C84.1401 24.1168 85.2363 23.0659 86.6375 22.2989C88.0387 21.5349 89.6331 21.1514 91.4239 21.1514C93.2659 21.1514 94.8664 21.5349 96.2284 22.2989C97.5903 23.0659 98.6412 24.1138 99.3811 25.4516C100.121 26.7863 100.489 28.2872 100.489 29.945C100.489 31.6059 100.121 33.1038 99.3811 34.4385C98.6412 35.7733 97.5843 36.8302 96.2103 37.6093C94.8362 38.3884 93.2267 38.778 91.3846 38.778C89.5939 38.778 88.0054 38.4217 86.6193 37.709C85.2302 36.9963 84.1431 35.9786 83.3519 34.6529C82.5547 33.3303 82.1621 31.76 82.1621 29.945ZM86.5559 29.9843C86.5559 30.9446 86.7643 31.8203 87.178 32.6115C87.5917 33.4027 88.1625 34.0308 88.8902 34.4989C89.615 34.967 90.4213 35.1995 91.3031 35.1995C92.2634 35.1995 93.0999 34.967 93.8125 34.4989C94.5252 34.0308 95.0839 33.4027 95.4855 32.6115C95.8871 31.8203 96.0895 30.9446 96.0895 29.9843C96.0895 28.9998 95.8871 28.109 95.4855 27.3178C95.0839 26.5266 94.5252 25.8985 93.8125 25.4304C93.0999 24.9624 92.2634 24.7298 91.3031 24.7298C90.3941 24.7298 89.5848 24.9684 88.8721 25.4486C88.1594 25.9287 87.5947 26.5568 87.178 27.3359C86.7643 28.115 86.5559 28.9968 86.5559 29.9843Z" fill="#5C5A5A"/>
<path d="M102.705 8H107.063V38.3491H102.705V8Z" fill="#5C5A5A"/>
<path d="M110.643 8H115V38.3491H110.643V8Z" fill="#5C5A5A"/>
<path d="M14.5636 4.18434C14.3864 2.48956 13.5971 1.11047 12.2651 0C12.1904 0.0747697 12.1294 0.135693 12.0685 0.196616C11.7888 0.476311 11.5091 0.756005 11.2294 1.0357C8.17773 4.08741 5.12602 7.13635 2.07707 10.1936C1.88045 10.393 1.70876 10.6256 1.56476 10.8665C1.53153 10.9191 1.50661 10.9635 1.48445 11.0022C1.11614 11.6558 0.916755 12.3176 0.850293 12.985C0.850293 12.9878 0.850293 12.9933 0.850293 12.9961C0.811524 13.5306 0.839216 13.9986 0.889063 14.3779C0.889063 14.3835 0.889063 14.3863 0.891832 14.389C0.894602 14.4001 0.894601 14.4112 0.89737 14.4222C0.947217 14.7518 1.02476 15.0841 1.12445 15.4164C1.18537 15.6213 1.2546 15.8235 1.32937 16.0284C1.69492 17.006 2.32353 17.8229 3.04908 18.59C2.97985 18.709 2.92169 18.8198 2.85523 18.9223C2.27646 19.8223 1.95799 20.8026 1.98846 21.8771C2.04107 23.9014 2.86908 25.5906 4.29801 26.9891C5.94571 28.6008 7.61834 30.1876 9.27989 31.7827C9.33251 31.8325 9.39343 31.8768 9.47928 31.9461C9.82266 31.5334 10.1799 31.1541 10.4817 30.7359C11.6698 29.0854 11.9771 27.3159 11.1408 25.4106C10.7531 24.5272 10.2131 23.7463 9.53743 23.0651C8.15003 21.6611 6.7488 20.2709 5.35309 18.878C5.25617 18.7811 5.15925 18.6841 5.04571 18.5706C5.0734 18.5401 5.09555 18.5152 5.12048 18.4875C5.18971 18.4072 5.2534 18.3352 5.31986 18.2715C6.88172 16.7013 8.45465 15.1395 10.0054 13.5582C10.6617 12.8881 11.3374 12.229 11.9633 11.5312C12.0325 11.4508 12.1101 11.3622 12.1904 11.2681C12.2845 11.1573 12.3787 11.0465 12.4701 10.933C12.5559 10.8278 12.6418 10.7225 12.7221 10.6228C12.8384 10.4705 12.9519 10.3155 13.0571 10.1576C13.2288 9.90007 13.3922 9.62314 13.4975 9.44868C13.5307 9.38776 13.5667 9.3296 13.5971 9.26868C14.4168 7.72621 14.7575 6.02312 14.5636 4.18434Z" fill="#D2512D"/>
<path d="M13.5963 9.27106C14.5323 7.57905 11.2425 1.06024 11.2314 1.03809C8.17968 4.0898 5.12797 7.13874 2.07902 10.196C1.88241 10.3954 1.71071 10.628 1.56671 10.8689C1.53348 10.9215 1.50856 10.9658 1.4864 11.0046C1.11809 11.6582 0.918708 12.32 0.852246 12.9874C0.852246 12.9902 0.852246 12.9957 0.852246 12.9985C0.813477 13.5329 0.841169 14.0009 0.891016 14.3803C0.891016 14.3859 0.891016 14.3886 0.893786 14.3914C0.896555 14.4025 0.896554 14.4136 0.899323 14.4246C0.94917 14.7542 1.02671 15.0865 1.1264 15.4188C1.68025 17.0416 5.04489 18.573 5.04489 18.573C5.04489 18.5702 5.07535 18.537 5.11966 18.4899C5.18889 18.4096 5.25258 18.3376 5.31905 18.2739C6.8809 16.7037 8.45383 15.1419 10.0046 13.5606C10.6609 12.8905 11.3366 12.2314 11.9625 11.5335C12.0317 11.4532 12.1092 11.3646 12.1896 11.2705C12.2837 11.1597 12.3779 11.0489 12.4692 10.9354C12.5551 10.8302 12.6409 10.7249 12.7212 10.6252C12.8376 10.4729 12.9511 10.3178 13.0563 10.16C13.228 9.90245 13.3914 9.62553 13.4966 9.45107C13.5271 9.39014 13.5631 9.33199 13.5963 9.27106Z" fill="url(#paint0_linear_2217_2371)"/>
<path d="M5.49151 41.8154C5.66874 43.5102 6.45797 44.8893 7.78998 45.9998C7.86475 45.925 7.92568 45.8641 7.9866 45.8032C8.26629 45.5235 8.54599 45.2438 8.82568 44.9641C11.8774 41.9124 14.9291 38.8634 17.9781 35.8062C18.1747 35.6068 18.3464 35.3742 18.4904 35.1332C18.5236 35.0806 18.5485 35.0363 18.5707 34.9975C18.939 34.344 19.1384 33.6822 19.2048 33.0148C19.2048 33.012 19.2048 33.0065 19.2048 33.0037C19.2436 32.4692 19.2159 32.0012 19.1661 31.6218C19.1661 31.6163 19.1661 31.6135 19.1633 31.6108C19.1605 31.5997 19.1605 31.5886 19.1578 31.5775C19.1079 31.248 19.0304 30.9157 18.9307 30.5834C18.8697 30.3784 18.8005 30.1763 18.7257 29.9714C18.3602 28.9938 17.7316 28.1769 17.006 27.4098C17.0753 27.2907 17.1334 27.18 17.1999 27.0775C17.7787 26.1775 18.0971 25.1972 18.0667 24.1227C18.0141 22.0984 17.186 20.4091 15.7571 19.0107C14.1094 17.399 12.4368 15.8122 10.7752 14.2171C10.7226 14.1673 10.6617 14.1229 10.5758 14.0537C10.2325 14.4663 9.87523 14.8457 9.57338 15.2639C8.38537 16.9143 8.07798 18.6839 8.9143 20.5891C9.30199 21.4725 9.842 22.2535 10.5177 22.9347C11.9051 24.3387 13.3063 25.7289 14.702 27.1218C14.799 27.2187 14.8959 27.3156 15.0094 27.4292C14.9817 27.4596 14.9596 27.4846 14.9346 27.5123C14.8654 27.5926 14.8017 27.6646 14.7353 27.7283C13.1734 29.2984 11.6005 30.8603 10.0497 32.4415C9.39338 33.1117 8.71768 33.7708 8.09183 34.4686C8.0226 34.5489 7.94506 34.6375 7.86475 34.7317C7.7706 34.8425 7.67644 34.9532 7.58506 35.0668C7.49921 35.172 7.41336 35.2772 7.33306 35.3769C7.21675 35.5292 7.10321 35.6843 6.99798 35.8422C6.82628 36.0997 6.6629 36.3766 6.55767 36.5511C6.52443 36.612 6.48843 36.6702 6.45797 36.7311C5.63827 38.2736 5.30043 39.9767 5.49151 41.8154Z" fill="#309DA0"/>
<path d="M6.46054 36.7287C5.52454 38.4207 8.81441 44.9395 8.82548 44.9616C11.8772 41.9099 14.9289 38.861 17.9779 35.8037C18.1745 35.6044 18.3462 35.3717 18.4902 35.1308C18.5234 35.0782 18.5483 35.0339 18.5705 34.9951C18.9388 34.3416 19.1382 33.6797 19.2046 33.0123C19.2046 33.0096 19.2046 33.004 19.2046 33.0013C19.2434 32.4668 19.2157 31.9988 19.1659 31.6194C19.1659 31.6139 19.1659 31.6111 19.1631 31.6083C19.1603 31.5972 19.1603 31.5862 19.1576 31.5751C19.1077 31.2456 19.0302 30.9132 18.9305 30.5809C18.3766 28.9582 15.012 27.4268 15.012 27.4268C15.012 27.4295 14.9815 27.4628 14.9372 27.5098C14.868 27.5901 14.8043 27.6621 14.7378 27.7258C13.176 29.296 11.603 30.8579 10.0523 32.4391C9.39595 33.1093 8.72025 33.7683 8.0944 34.4662C8.02517 34.5465 7.94763 34.6351 7.86732 34.7293C7.77317 34.84 7.67901 34.9508 7.58763 35.0643C7.50178 35.1696 7.41593 35.2748 7.33562 35.3745C7.21932 35.5268 7.10578 35.6819 7.00055 35.8397C6.82885 36.0973 6.66547 36.3742 6.56024 36.5487C6.52701 36.6068 6.49377 36.6677 6.46054 36.7287Z" fill="url(#paint1_linear_2217_2371)"/>
<defs>
<linearGradient id="paint0_linear_2217_2371" x1="0.832114" y1="9.80517" x2="13.7623" y2="9.80517" gradientUnits="userSpaceOnUse">
<stop stop-color="#992E22"/>
<stop offset="0.0505" stop-color="#A03224"/>
<stop offset="0.2427" stop-color="#B53E28"/>
<stop offset="0.4511" stop-color="#C5482B"/>
<stop offset="0.6854" stop-color="#CF4F2C"/>
<stop offset="1" stop-color="#D2512D"/>
</linearGradient>
<linearGradient id="paint1_linear_2217_2371" x1="6.29378" y1="36.1933" x2="19.224" y2="36.1933" gradientUnits="userSpaceOnUse">
<stop stop-color="#309DA0"/>
<stop offset="0.234" stop-color="#2F9A9C"/>
<stop offset="0.4572" stop-color="#2A9092"/>
<stop offset="0.676" stop-color="#228081"/>
<stop offset="0.8908" stop-color="#196C6B"/>
<stop offset="1" stop-color="#13605E"/>
</linearGradient>
</defs>
</svg>
