<svg width="146" height="172" viewBox="0 0 146 172" fill="none" xmlns="http://www.w3.org/2000/svg">
<g id="img">
<path id="Vector" d="M115.205 135.182C112.347 135.182 110.03 137.5 110.03 140.357V148.062C110.03 155.198 104.228 161 97.0923 161H23.3773C16.2416 161 10.4398 155.198 10.4398 148.062V23.2933C10.4398 16.1575 16.2416 10.3558 23.3773 10.3558C27.5461 10.3558 34.0608 9.315 35.1591 14.927L35.9641 19.0153C37.4303 26.5018 44.0313 31.9355 51.6558 31.9355H68.7506C76.3751 31.9355 82.9761 26.5018 84.4423 19.0153L85.2473 14.927C86.3513 9.3035 92.9178 10.3558 97.0923 10.3558C104.228 10.3558 110.03 16.1575 110.03 23.2933V58.3107C110.03 61.1685 112.347 63.4858 115.205 63.4858C118.063 63.4858 120.38 61.1685 120.38 58.3107V23.2933C120.38 10.4535 109.932 0 97.0923 0H23.3773C10.5376 0 0.0898438 10.4478 0.0898438 23.2933V148.068C0.0898438 160.908 10.5376 171.361 23.3773 171.361H97.0923C109.932 171.361 120.38 160.914 120.38 148.068V140.363C120.38 137.505 118.063 135.182 115.205 135.182ZM75.0928 12.9375L74.2878 17.0257C73.7703 19.6707 71.4416 21.5855 68.7506 21.5855H51.6558C48.9648 21.5855 46.6361 19.6707 46.1186 17.0257L45.3136 12.9375C45.1411 12.0463 44.8823 11.1895 44.5661 10.3615H75.8346C75.5298 11.1838 75.2711 12.0463 75.0928 12.9375Z" fill="#0F3963"/>
<g id="Group">
<path id="Vector_2" d="M134.163 76.1472H63.4836C57.0091 76.1472 51.7363 81.42 51.7363 87.9002V110.779C51.7363 117.26 57.0091 122.532 63.4836 122.532H134.163C140.637 122.532 145.91 117.26 145.91 110.779V87.9002C145.91 81.42 140.637 76.1472 134.163 76.1472ZM135.56 110.774C135.56 111.55 134.933 112.171 134.163 112.171H63.4836C62.7131 112.171 62.0863 111.55 62.0863 110.774V87.8945C62.0863 87.1182 62.7131 86.4972 63.4836 86.4972H134.163C134.933 86.4972 135.56 87.1182 135.56 87.8945V110.774Z" fill="#309DA0"/>
<path id="Vector_3" d="M77.4852 95.4788C75.352 95.4788 73.627 97.2038 73.627 99.337C73.627 101.47 75.352 103.195 77.4852 103.195C79.6185 103.195 81.3435 101.47 81.3435 99.337C81.3435 97.2038 79.6185 95.4788 77.4852 95.4788Z" fill="#309DA0"/>
<path id="Vector_4" d="M98.8231 103.195C100.954 103.195 102.681 101.468 102.681 99.337C102.681 97.2062 100.954 95.4788 98.8231 95.4788C96.6922 95.4788 94.9648 97.2062 94.9648 99.337C94.9648 101.468 96.6922 103.195 98.8231 103.195Z" fill="#309DA0"/>
<path id="Vector_5" d="M120.161 95.4788C118.028 95.4788 116.303 97.2038 116.303 99.337C116.303 101.47 118.028 103.195 120.161 103.195C122.294 103.195 124.019 101.47 124.019 99.337C124.019 97.2038 122.294 95.4788 120.161 95.4788Z" fill="#309DA0"/>
</g>
</g>
</svg>
