<?xml version="1.0" encoding="UTF-8" standalone="no"?>
<!-- Created with Inkscape (http://www.inkscape.org/) -->

<svg
   width="176.38889mm"
   height="176.3889mm"
   viewBox="0 0 176.38889 176.3889"
   version="1.1"
   id="svg5"
   xml:space="preserve"
   xmlns:inkscape="http://www.inkscape.org/namespaces/inkscape"
   xmlns:sodipodi="http://sodipodi.sourceforge.net/DTD/sodipodi-0.dtd"
   xmlns="http://www.w3.org/2000/svg"
   xmlns:svg="http://www.w3.org/2000/svg"><sodipodi:namedview
     id="namedview7"
     pagecolor="#ffffff"
     bordercolor="#000000"
     borderopacity="0.25"
     inkscape:showpageshadow="2"
     inkscape:pageopacity="0.0"
     inkscape:pagecheckerboard="0"
     inkscape:deskcolor="#d1d1d1"
     inkscape:document-units="mm"
     showgrid="false"
     inkscape:zoom="7.6257014"
     inkscape:cx="1355.7441"
     inkscape:cy="231.32298"
     inkscape:window-width="1680"
     inkscape:window-height="997"
     inkscape:window-x="1358"
     inkscape:window-y="-8"
     inkscape:window-maximized="1"
     inkscape:current-layer="svg5" /><defs
     id="defs2"><clipPath
       clipPathUnits="userSpaceOnUse"
       id="clipPath14854"><path
         d="M 0,500 H 500 V 0 H 0 Z"
         id="path14852" /></clipPath><clipPath
       clipPathUnits="userSpaceOnUse"
       id="clipPath14866"><path
         d="M 12.3394,467.772 H 486.119 V 25.2938 H 12.3394 Z"
         id="path14864" /></clipPath><clipPath
       clipPathUnits="userSpaceOnUse"
       id="clipPath14882"><path
         d="M 0,500 H 500 V 0 H 0 Z"
         id="path14880" /></clipPath><clipPath
       clipPathUnits="userSpaceOnUse"
       id="clipPath14902"><path
         d="M 0,500 H 500 V 0 H 0 Z"
         id="path14900" /></clipPath><clipPath
       clipPathUnits="userSpaceOnUse"
       id="clipPath14946"><path
         d="M 0,500 H 500 V 0 H 0 Z"
         id="path14944" /></clipPath><clipPath
       clipPathUnits="userSpaceOnUse"
       id="clipPath15010"><path
         d="M 0,500 H 500 V 0 H 0 Z"
         id="path15008" /></clipPath><clipPath
       clipPathUnits="userSpaceOnUse"
       id="clipPath15158"><path
         d="M 0,500 H 500 V 0 H 0 Z"
         id="path15156" /></clipPath><clipPath
       clipPathUnits="userSpaceOnUse"
       id="clipPath15174"><path
         d="M 0,500 H 500 V 0 H 0 Z"
         id="path15172" /></clipPath></defs><g
     id="g14848"
     transform="matrix(0.35277776,0,0,-0.35277778,1.7772152,176.38889)"><g
       id="g14850"
       clip-path="url(#clipPath14854)"><g
         id="g14856"
         transform="translate(452.2812,381.2368)"><path
           d="m 0,0 c -1.658,2.762 -3.384,5.473 -5.186,8.122 -23.997,35.26 -63.946,59.4 -102.772,70.332 -17.009,4.797 -34.472,7.306 -51.904,7.948 -114.345,4.154 -156.35,-90.124 -193.191,-114.432 -36.841,-24.308 -93.374,-65.829 -86.28,-153.05 5.382,-66.316 43.108,-129.725 112.009,-158.581 7.589,-3.187 15.563,-5.955 23.912,-8.251 15.531,-4.272 32.364,-6.955 50.499,-7.761 52.093,-2.322 94.391,10.236 135.764,41.856 9.617,7.351 19.183,15.641 31.664,16.55 9.072,0.66 17.672,-2.6 8.19,-11.366 -11.145,-10.305 1.715,-30.573 30.006,-16.492 47.251,23.518 66.688,74.257 75.846,125.851 C 39.797,-135.946 34.349,-57.188 0,0"
           style="fill:#1b6e6d;fill-opacity:1;fill-rule:nonzero;stroke:none"
           id="path14858" /></g><g
         id="g14860"
         transform="translate(-2.056662e-5,1.8156695e-5)"><g
           id="g14862" /><g
           id="g14874"><g
             clip-path="url(#clipPath14866)"
             opacity="0.699997"
             id="g14872"><g
               transform="translate(452.2812,381.2368)"
               id="g14870"><path
                 d="m 0,0 c -1.658,2.762 -3.384,5.473 -5.186,8.122 -23.997,35.26 -63.946,59.4 -102.772,70.332 -17.009,4.797 -34.472,7.306 -51.904,7.948 -114.345,4.154 -156.35,-90.124 -193.191,-114.432 -36.841,-24.308 -93.374,-65.829 -86.28,-153.05 5.382,-66.316 43.108,-129.725 112.009,-158.581 7.589,-3.187 15.563,-5.955 23.912,-8.251 15.531,-4.272 32.364,-6.955 50.499,-7.761 52.093,-2.322 94.391,10.236 135.764,41.856 9.617,7.351 19.183,15.641 31.664,16.55 9.072,0.66 17.672,-2.6 8.19,-11.366 -11.145,-10.305 1.715,-30.573 30.006,-16.492 47.251,23.518 66.688,74.257 75.846,125.851 C 39.797,-135.946 34.349,-57.188 0,0"
                 style="fill:#ffffff;fill-opacity:1;fill-rule:nonzero;stroke:none"
                 id="path14868" /></g></g></g></g></g></g><g
     id="g14876"
     transform="matrix(0.35277776,0,0,-0.35277778,-4.8487646e-6,176.38889)"><g
       id="g14878"
       clip-path="url(#clipPath14882)"><g
         id="g14884"
         transform="translate(432.7656,363.3638)"><path
           d="M 0,0 C 0,0 -5.248,21.867 -35.861,26.241 -66.476,30.614 -70.849,4.374 -76.972,0.875 c -6.123,-3.499 -9.621,6.123 -19.243,5.248 -9.621,-0.874 -14.869,-8.747 -19.243,-12.246 -4.373,-3.498 -12.245,6.998 -18.368,5.248 -6.123,-1.749 -11.371,-10.496 -11.371,-10.496 H 32.364 c 0,0 -6.123,9.622 -14.87,13.121 C 8.747,5.249 5.249,0 0,0 Z"
           style="fill:none;stroke:#1a2e35;stroke-width:1;stroke-linecap:round;stroke-linejoin:round;stroke-miterlimit:10;stroke-dasharray:none;stroke-opacity:1"
           id="path14886" /></g><g
         id="g14888"
         transform="translate(137.9863,297.6997)"><path
           d="M 0,0 C 0,0 -3.762,15.674 -25.706,18.81 -47.65,21.944 -50.786,3.135 -55.174,0.627 c -4.389,-2.508 -6.897,4.389 -13.794,3.762 -6.897,-0.627 -10.658,-6.27 -13.793,-8.778 -3.135,-2.508 -8.778,5.016 -13.167,3.762 -4.389,-1.254 -8.151,-7.524 -8.151,-7.524 H 23.198 c 0,0 -4.388,6.897 -10.658,9.405 C 6.27,3.762 3.762,0 0,0 Z"
           style="fill:none;stroke:#1a2e35;stroke-width:1;stroke-linecap:round;stroke-linejoin:round;stroke-miterlimit:10;stroke-dasharray:none;stroke-opacity:1"
           id="path14890" /></g><g
         id="g14892"
         transform="translate(195.2139,430.1514)"><path
           d="M 0,0 C 0,0 -2.384,9.932 -16.289,11.918 -30.193,13.905 -32.18,1.987 -34.961,0.397 c -2.781,-1.589 -4.37,2.781 -8.74,2.384 -4.37,-0.397 -6.754,-3.973 -8.74,-5.562 -1.986,-1.589 -5.562,3.178 -8.343,2.384 -2.781,-0.795 -5.165,-4.768 -5.165,-4.768 h 80.648 c 0,0 -2.781,4.371 -6.754,5.96 C 3.973,2.384 2.383,0 0,0 Z"
           style="fill:none;stroke:#1a2e35;stroke-width:1;stroke-linecap:round;stroke-linejoin:round;stroke-miterlimit:10;stroke-dasharray:none;stroke-opacity:1"
           id="path14894" /></g></g></g><g
     id="g14896"
     transform="matrix(0.35277776,0,0,-0.35277778,1.7772152,176.38889)"><g
       id="g14898"
       clip-path="url(#clipPath14902)"><g
         id="g14904"
         transform="translate(332.4307,432.6611)"><path
           d="m 0,0 c 0,-12.694 -10.29,-22.985 -22.984,-22.985 -12.695,0 -22.986,10.291 -22.986,22.985 0,12.694 10.291,22.985 22.986,22.985 C -10.29,22.985 0,12.694 0,0 Z"
           style="fill:none;stroke:#1a2e35;stroke-width:1;stroke-linecap:round;stroke-linejoin:round;stroke-miterlimit:10;stroke-dasharray:none;stroke-opacity:1"
           id="path14906" /></g><g
         id="g14908"
         transform="translate(309.4463,471.2295)"><path
           d="M 0,0 V -9.35"
           style="fill:none;stroke:#1a2e35;stroke-width:1;stroke-linecap:round;stroke-linejoin:round;stroke-miterlimit:10;stroke-dasharray:none;stroke-opacity:1"
           id="path14910" /></g><g
         id="g14912"
         transform="translate(309.4463,401.8848)"><path
           d="M 0,0 V -9.35"
           style="fill:none;stroke:#1a2e35;stroke-width:1;stroke-linecap:round;stroke-linejoin:round;stroke-miterlimit:10;stroke-dasharray:none;stroke-opacity:1"
           id="path14914" /></g><g
         id="g14916"
         transform="translate(337.2686,459.7046)"><path
           d="M 0,0 -6.611,-6.611"
           style="fill:none;stroke:#1a2e35;stroke-width:1;stroke-linecap:round;stroke-linejoin:round;stroke-miterlimit:10;stroke-dasharray:none;stroke-opacity:1"
           id="path14918" /></g><g
         id="g14920"
         transform="translate(288.2344,410.6709)"><path
           d="M 0,0 -6.611,-6.611"
           style="fill:none;stroke:#1a2e35;stroke-width:1;stroke-linecap:round;stroke-linejoin:round;stroke-miterlimit:10;stroke-dasharray:none;stroke-opacity:1"
           id="path14922" /></g><g
         id="g14924"
         transform="translate(348.793,431.8823)"><path
           d="M 0,0 H -9.35"
           style="fill:none;stroke:#1a2e35;stroke-width:1;stroke-linecap:round;stroke-linejoin:round;stroke-miterlimit:10;stroke-dasharray:none;stroke-opacity:1"
           id="path14926" /></g><g
         id="g14928"
         transform="translate(279.4492,431.8823)"><path
           d="M 0,0 H -9.351"
           style="fill:none;stroke:#1a2e35;stroke-width:1;stroke-linecap:round;stroke-linejoin:round;stroke-miterlimit:10;stroke-dasharray:none;stroke-opacity:1"
           id="path14930" /></g><g
         id="g14932"
         transform="translate(337.2686,404.0596)"><path
           d="M 0,0 -6.611,6.611"
           style="fill:none;stroke:#1a2e35;stroke-width:1;stroke-linecap:round;stroke-linejoin:round;stroke-miterlimit:10;stroke-dasharray:none;stroke-opacity:1"
           id="path14934" /></g><g
         id="g14936"
         transform="translate(288.2344,453.0933)"><path
           d="M 0,0 -6.611,6.611"
           style="fill:none;stroke:#1a2e35;stroke-width:1;stroke-linecap:round;stroke-linejoin:round;stroke-miterlimit:10;stroke-dasharray:none;stroke-opacity:1"
           id="path14938" /></g></g></g><g
     id="g14940"
     transform="matrix(0.35277776,0,0,-0.35277778,1.7772152,176.38889)"><g
       id="g14942"
       clip-path="url(#clipPath14946)"><g
         id="g14948"
         transform="translate(364.8672,304.7798)"><path
           d="M 0,0 C 0,0 4.616,1.154 6.001,0.693 7.386,0.231 5.083,-1.406 5.083,-1.406 c 0,0 1.149,-0.671 1.842,-2.287 0.692,-1.616 -2.301,-0.92 -2.301,-0.92 0,0 0.915,-1.158 -0.008,-2.081 C 3.693,-7.617 -0.462,-3 -0.462,-3 c 0,0 -3.001,-1.847 -5.77,-1.616 -2.771,0.231 -4.386,0.923 -6.233,3.693 -1.847,2.77 -3.231,4.155 -3.231,4.155 l -1.847,0.692 2.77,1.616 c 0,0 2.308,2.078 4.617,1.847 2.307,-0.231 3.231,-0.924 3.231,-0.924 0,0 1.385,3.694 3.462,5.079 2.077,1.385 8.541,3.231 10.618,4.385 2.077,1.155 1.616,-0.692 0.923,-1.846 C 7.386,12.927 5.309,12.003 4.386,11.542 3.462,11.08 9.232,10.849 8.31,9.695 7.386,8.541 3.924,8.079 3.924,8.079 c 0,0 3.231,-1.154 2.539,-2.077 C 5.771,5.079 3,5.079 3,5.079 3,5.079 3.924,2.77 2.539,2.77 H 1.154 C 1.154,2.77 1.847,-0.461 0,0"
           style="fill:#1b6e6d;fill-opacity:1;fill-rule:nonzero;stroke:none"
           id="path14950" /></g><g
         id="g14952"
         transform="translate(364.8672,304.7798)"><path
           d="M 0,0 C 0,0 4.616,1.154 6.001,0.693 7.386,0.231 5.083,-1.406 5.083,-1.406 c 0,0 1.149,-0.671 1.842,-2.287 0.692,-1.616 -2.301,-0.92 -2.301,-0.92 0,0 0.915,-1.158 -0.008,-2.081 C 3.693,-7.617 -0.462,-3 -0.462,-3 c 0,0 -3.001,-1.847 -5.77,-1.616 -2.771,0.231 -4.386,0.923 -6.233,3.693 -1.847,2.77 -3.231,4.155 -3.231,4.155 l -1.847,0.692 2.77,1.616 c 0,0 2.308,2.078 4.617,1.847 2.307,-0.231 3.231,-0.924 3.231,-0.924 0,0 1.385,3.694 3.462,5.079 2.077,1.385 8.541,3.231 10.618,4.385 2.077,1.155 1.616,-0.692 0.923,-1.846 C 7.386,12.927 5.309,12.003 4.386,11.542 3.462,11.08 9.232,10.849 8.31,9.695 7.386,8.541 3.924,8.079 3.924,8.079 c 0,0 3.231,-1.154 2.539,-2.077 C 5.771,5.079 3,5.079 3,5.079 3,5.079 3.924,2.77 2.539,2.77 H 1.154 C 1.154,2.77 1.847,-0.461 0,0 Z"
           style="fill:none;stroke:#1a2e35;stroke-width:1;stroke-linecap:round;stroke-linejoin:round;stroke-miterlimit:10;stroke-dasharray:none;stroke-opacity:1"
           id="path14954" /></g><g
         id="g14956"
         transform="translate(357.9424,311.2432)"><path
           d="M 0,0 C 0,0 -1.847,3.693 -0.924,6.001 0,8.31 8.54,14.311 8.31,12.003 8.079,9.695 5.771,8.31 5.771,8.31 c 0,0 3.461,1.154 3.461,0.231 V 7.617 c 0,0 -3.923,-0.923 -5.77,-2.539 C 1.615,3.462 0,0 0,0"
           style="fill:#1a2e35;fill-opacity:1;fill-rule:nonzero;stroke:none"
           id="path14958" /></g><g
         id="g14960"
         transform="translate(357.9424,311.2432)"><path
           d="M 0,0 C 0,0 -1.847,3.693 -0.924,6.001 0,8.31 8.54,14.311 8.31,12.003 8.079,9.695 5.771,8.31 5.771,8.31 c 0,0 3.461,1.154 3.461,0.231 V 7.617 c 0,0 -3.923,-0.923 -5.77,-2.539 C 1.615,3.462 0,0 0,0 Z"
           style="fill:none;stroke:#1a2e35;stroke-width:1;stroke-linecap:round;stroke-linejoin:round;stroke-miterlimit:10;stroke-dasharray:none;stroke-opacity:1"
           id="path14962" /></g><g
         id="g14964"
         transform="translate(353.2266,309.4448)"><path
           d="m 0,0 c 0,-0.379 -0.308,-0.687 -0.687,-0.687 -0.379,0 -0.687,0.308 -0.687,0.687 0,0.38 0.308,0.687 0.687,0.687 C -0.308,0.687 0,0.38 0,0"
           style="fill:#1a2e35;fill-opacity:1;fill-rule:nonzero;stroke:none"
           id="path14966" /></g><g
         id="g14968"
         transform="translate(361.8105,302.3901)"><path
           d="m 0,0 c -0.415,-1.4 -2.616,-1.981 -4.915,-1.298 -2.3,0.682 -3.827,2.37 -3.411,3.77 0.415,1.399 2.616,1.981 4.915,1.298 C -1.111,3.087 0.416,1.4 0,0"
           style="fill:#ffffff;fill-opacity:1;fill-rule:nonzero;stroke:none"
           id="path14970" /></g><g
         id="g14972"
         transform="translate(361.8105,302.3901)"><path
           d="m 0,0 c -0.415,-1.4 -2.616,-1.981 -4.915,-1.298 -2.3,0.682 -3.827,2.37 -3.411,3.77 0.415,1.399 2.616,1.981 4.915,1.298 C -1.111,3.087 0.416,1.4 0,0 Z"
           style="fill:none;stroke:#1a2e35;stroke-width:0.5;stroke-linecap:round;stroke-linejoin:round;stroke-miterlimit:10;stroke-dasharray:none;stroke-opacity:1"
           id="path14974" /></g><g
         id="g14976"
         transform="translate(135.272,363.9419)"><path
           d="m 0,0 c 0,0 -4.616,1.154 -6.001,0.692 -1.385,-0.461 0.918,-2.098 0.918,-2.098 0,0 -1.149,-0.672 -1.842,-2.287 -0.692,-1.616 2.3,-0.92 2.3,-0.92 0,0 -0.915,-1.158 0.009,-2.081 C -3.693,-7.617 0.462,-3 0.462,-3 c 0,0 3,-1.847 5.77,-1.617 2.77,0.231 4.386,0.924 6.233,3.694 1.847,2.77 3.231,4.154 3.231,4.154 l 1.847,0.693 -2.77,1.616 c 0,0 -2.308,2.077 -4.616,1.847 C 7.848,7.156 6.925,6.463 6.925,6.463 c 0,0 -1.385,3.693 -3.463,5.079 -2.077,1.384 -8.54,3.231 -10.617,4.385 -2.078,1.154 -1.616,-0.693 -0.924,-1.846 0.693,-1.155 2.77,-2.078 3.694,-2.539 0.923,-0.462 -4.848,-0.693 -3.925,-1.847 0.924,-1.154 4.386,-1.616 4.386,-1.616 0,0 -3.231,-1.154 -2.539,-2.078 C -5.771,5.078 -3,5.078 -3,5.078 c 0,0 -0.924,-2.308 0.461,-2.308 h 1.385 c 0,0 -0.692,-3.232 1.154,-2.77"
           style="fill:#1b6e6d;fill-opacity:1;fill-rule:nonzero;stroke:none"
           id="path14978" /></g><g
         id="g14980"
         transform="translate(135.272,363.9419)"><path
           d="m 0,0 c 0,0 -4.616,1.154 -6.001,0.692 -1.385,-0.461 0.918,-2.098 0.918,-2.098 0,0 -1.149,-0.672 -1.842,-2.287 -0.692,-1.616 2.3,-0.92 2.3,-0.92 0,0 -0.915,-1.158 0.009,-2.081 C -3.693,-7.617 0.462,-3 0.462,-3 c 0,0 3,-1.847 5.77,-1.617 2.77,0.231 4.386,0.924 6.233,3.694 1.847,2.77 3.231,4.154 3.231,4.154 l 1.847,0.693 -2.77,1.616 c 0,0 -2.308,2.077 -4.616,1.847 C 7.848,7.156 6.925,6.463 6.925,6.463 c 0,0 -1.385,3.693 -3.463,5.079 -2.077,1.384 -8.54,3.231 -10.617,4.385 -2.078,1.154 -1.616,-0.693 -0.924,-1.846 0.693,-1.155 2.77,-2.078 3.694,-2.539 0.923,-0.462 -4.848,-0.693 -3.925,-1.847 0.924,-1.154 4.386,-1.616 4.386,-1.616 0,0 -3.231,-1.154 -2.539,-2.078 C -5.771,5.078 -3,5.078 -3,5.078 c 0,0 -0.924,-2.308 0.461,-2.308 h 1.385 c 0,0 -0.692,-3.232 1.154,-2.77 z"
           style="fill:none;stroke:#1a2e35;stroke-width:1;stroke-linecap:round;stroke-linejoin:round;stroke-miterlimit:10;stroke-dasharray:none;stroke-opacity:1"
           id="path14982" /></g><g
         id="g14984"
         transform="translate(142.1968,370.4053)"><path
           d="M 0,0 C 0,0 1.847,3.693 0.923,6.001 0,8.31 -8.541,14.311 -8.31,12.003 -8.079,9.694 -5.771,8.31 -5.771,8.31 c 0,0 -3.462,1.154 -3.462,0.231 V 7.617 c 0,0 3.924,-0.923 5.771,-2.539 C -1.616,3.462 0,0 0,0"
           style="fill:#1a2e35;fill-opacity:1;fill-rule:nonzero;stroke:none"
           id="path14986" /></g><g
         id="g14988"
         transform="translate(142.1968,370.4053)"><path
           d="M 0,0 C 0,0 1.847,3.693 0.923,6.001 0,8.31 -8.541,14.311 -8.31,12.003 -8.079,9.694 -5.771,8.31 -5.771,8.31 c 0,0 -3.462,1.154 -3.462,0.231 V 7.617 c 0,0 3.924,-0.923 5.771,-2.539 C -1.616,3.462 0,0 0,0 Z"
           style="fill:none;stroke:#1a2e35;stroke-width:1;stroke-linecap:round;stroke-linejoin:round;stroke-miterlimit:10;stroke-dasharray:none;stroke-opacity:1"
           id="path14990" /></g><g
         id="g14992"
         transform="translate(146.9126,368.6069)"><path
           d="m 0,0 c 0,-0.379 0.308,-0.687 0.687,-0.687 0.38,0 0.688,0.308 0.688,0.687 0,0.379 -0.308,0.687 -0.688,0.687 C 0.308,0.687 0,0.379 0,0"
           style="fill:#1a2e35;fill-opacity:1;fill-rule:nonzero;stroke:none"
           id="path14994" /></g><g
         id="g14996"
         transform="translate(138.3281,361.5518)"><path
           d="m 0,0 c 0.416,-1.399 2.616,-1.981 4.916,-1.298 2.299,0.682 3.827,2.37 3.411,3.77 C 7.912,3.872 5.711,4.453 3.411,3.771 1.112,3.088 -0.416,1.4 0,0"
           style="fill:#ffffff;fill-opacity:1;fill-rule:nonzero;stroke:none"
           id="path14998" /></g><g
         id="g15000"
         transform="translate(138.3281,361.5518)"><path
           d="m 0,0 c 0.416,-1.399 2.616,-1.981 4.916,-1.298 2.299,0.682 3.827,2.37 3.411,3.77 C 7.912,3.872 5.711,4.453 3.411,3.771 1.112,3.088 -0.416,1.4 0,0 Z"
           style="fill:none;stroke:#1a2e35;stroke-width:0.5;stroke-linecap:round;stroke-linejoin:round;stroke-miterlimit:10;stroke-dasharray:none;stroke-opacity:1"
           id="path15002" /></g></g></g><g
     id="g15004"
     transform="matrix(0.35277776,0,0,-0.35277778,1.7772152,176.38889)"><g
       id="g15006"
       clip-path="url(#clipPath15010)"><g
         id="g15012"
         transform="translate(122.8765,192.0332)"><path
           d="M 0,0 C 0,0 -9.126,14.514 -25.668,23.09 -42.209,31.667 -49.262,40.137 -40.678,39.632 -30.263,39.02 -6.676,30.748 4.045,1.647 8.671,-10.908 0,0 0,0"
           style="fill:#1b6e6d;fill-opacity:1;fill-rule:nonzero;stroke:#1a2e35;stroke-width:1;stroke-linecap:round;stroke-linejoin:round;stroke-miterlimit:10;stroke-dasharray:none;stroke-opacity:1"
           id="path15014" /></g><g
         id="g15016"
         transform="translate(122.3267,195.8252)"><path
           d="M 0,0 C 0,0 -8.271,16.541 -23.893,24.506"
           style="fill:none;stroke:#1a2e35;stroke-width:1;stroke-linecap:round;stroke-linejoin:round;stroke-miterlimit:10;stroke-dasharray:none;stroke-opacity:1"
           id="path15018" /></g><g
         id="g15020"
         transform="translate(132.8237,181.998)"><path
           d="M 0,0 C 0,0 -5.216,14.591 -2.074,31.137 1.069,47.682 -1.011,57.424 -5.446,51.042 -10.827,43.298 -18.123,21.917 -3.43,-1.954 2.909,-12.254 0,0 0,0"
           style="fill:#1b6e6d;fill-opacity:1;fill-rule:nonzero;stroke:#1a2e35;stroke-width:1;stroke-linecap:round;stroke-linejoin:round;stroke-miterlimit:10;stroke-dasharray:none;stroke-opacity:1"
           id="path15022" /></g><g
         id="g15024"
         transform="translate(130.436,184.5068)"><path
           d="M 0,0 C 0,0 -7.136,15.115 -4.071,30.665"
           style="fill:none;stroke:#1a2e35;stroke-width:1;stroke-linecap:round;stroke-linejoin:round;stroke-miterlimit:10;stroke-dasharray:none;stroke-opacity:1"
           id="path15026" /></g><g
         id="g15028"
         transform="translate(123.5527,199.3311)"><path
           d="M 0,0 C 0,0 -5.216,14.591 -2.074,31.137 1.069,47.682 -1.011,57.423 -5.446,51.041 -10.827,43.298 -18.123,21.917 -3.43,-1.955 2.909,-12.254 0,0 0,0"
           style="fill:#1b6e6d;fill-opacity:1;fill-rule:nonzero;stroke:#1a2e35;stroke-width:1;stroke-linecap:round;stroke-linejoin:round;stroke-miterlimit:10;stroke-dasharray:none;stroke-opacity:1"
           id="path15030" /></g><g
         id="g15032"
         transform="translate(122.3267,195.8252)"><path
           d="M 0,0 C 0,0 -8.298,21.13 -5.232,36.68"
           style="fill:none;stroke:#1a2e35;stroke-width:1;stroke-linecap:round;stroke-linejoin:round;stroke-miterlimit:10;stroke-dasharray:none;stroke-opacity:1"
           id="path15034" /></g><g
         id="g15036"
         transform="translate(331.1963,210.1104)"><path
           d="M 0,0 C 0,0 9.127,14.513 25.668,23.09 42.21,31.667 49.262,40.137 40.678,39.632 30.263,39.019 6.676,30.748 -4.046,1.647 -8.671,-10.908 0,0 0,0"
           style="fill:#1b6e6d;fill-opacity:1;fill-rule:nonzero;stroke:#1a2e35;stroke-width:1;stroke-linecap:round;stroke-linejoin:round;stroke-miterlimit:10;stroke-dasharray:none;stroke-opacity:1"
           id="path15038" /></g><g
         id="g15040"
         transform="translate(331.7461,213.9023)"><path
           d="M 0,0 C 0,0 8.271,16.541 23.893,24.506"
           style="fill:none;stroke:#1a2e35;stroke-width:1;stroke-linecap:round;stroke-linejoin:round;stroke-miterlimit:10;stroke-dasharray:none;stroke-opacity:1"
           id="path15042" /></g><g
         id="g15044"
         transform="translate(321.249,200.0752)"><path
           d="M 0,0 C 0,0 5.217,14.591 2.073,31.137 -1.069,47.682 1.011,57.424 5.446,51.042 10.827,43.298 18.122,21.917 3.43,-1.955 -2.909,-12.254 0,0 0,0"
           style="fill:#1b6e6d;fill-opacity:1;fill-rule:nonzero;stroke:#1a2e35;stroke-width:1;stroke-linecap:round;stroke-linejoin:round;stroke-miterlimit:10;stroke-dasharray:none;stroke-opacity:1"
           id="path15046" /></g><g
         id="g15048"
         transform="translate(323.6367,202.583)"><path
           d="M 0,0 C 0,0 7.136,15.116 4.071,30.666"
           style="fill:none;stroke:#1a2e35;stroke-width:1;stroke-linecap:round;stroke-linejoin:round;stroke-miterlimit:10;stroke-dasharray:none;stroke-opacity:1"
           id="path15050" /></g><g
         id="g15052"
         transform="translate(330.5195,217.4072)"><path
           d="M 0,0 C 0,0 5.217,14.592 2.074,31.137 -1.069,47.683 1.011,57.424 5.446,51.042 10.828,43.298 18.123,21.917 3.431,-1.954 -2.909,-12.253 0,0 0,0"
           style="fill:#1b6e6d;fill-opacity:1;fill-rule:nonzero;stroke:#1a2e35;stroke-width:1;stroke-linecap:round;stroke-linejoin:round;stroke-miterlimit:10;stroke-dasharray:none;stroke-opacity:1"
           id="path15054" /></g><g
         id="g15056"
         transform="translate(331.7461,213.9023)"><path
           d="M 0,0 C 0,0 8.298,21.13 5.232,36.68"
           style="fill:none;stroke:#1a2e35;stroke-width:1;stroke-linecap:round;stroke-linejoin:round;stroke-miterlimit:10;stroke-dasharray:none;stroke-opacity:1"
           id="path15058" /></g></g></g><g
     id="g15060"
     transform="matrix(0.35277776,0,0,-0.35277778,120.08522,84.011917)"><path
       d="m 0,0 h -95.06 l -53.181,84.568 h 95.059 z"
       style="fill:#1a2e35;fill-opacity:1;fill-rule:nonzero;stroke:none"
       id="path15062" /></g><g
     id="g15064"
     transform="matrix(0.35277776,0,0,-0.35277778,120.08522,84.011917)"><path
       d="m 0,0 h -95.06 l -53.181,84.568 h 95.059 z"
       style="fill:none;stroke:#1a2e35;stroke-width:1;stroke-linecap:round;stroke-linejoin:round;stroke-miterlimit:10;stroke-dasharray:none;stroke-opacity:1"
       id="path15066" /></g><path
     d="M 81.883865,113.34786 H 47.512735 V 82.986744 h 34.37113 z"
     style="fill:#c8c8c8;fill-opacity:1;fill-rule:nonzero;stroke:#1a2e35;stroke-width:0.352778;stroke-linecap:round;stroke-linejoin:round;stroke-miterlimit:10;stroke-dasharray:none;stroke-opacity:1"
     id="path15068" /><g
     id="g15070"
     transform="matrix(0.35277776,0,0,-0.35277778,116.25497,113.34779)"><path
       d="M 0,0 H -97.43 V 86.063 L -47.902,164.819 0,86.063 Z"
       style="fill:#ffffff;fill-opacity:1;fill-rule:nonzero;stroke:none"
       id="path15072" /></g><g
     id="g15074"
     transform="matrix(0.35277776,0,0,-0.35277778,116.25497,113.34779)"><path
       d="M 0,0 H -97.43 V 86.063 L -47.902,164.819 0,86.063 Z"
       style="fill:none;stroke:#1a2e35;stroke-width:1;stroke-linecap:round;stroke-linejoin:round;stroke-miterlimit:10;stroke-dasharray:none;stroke-opacity:1"
       id="path15076" /></g><path
     d="m 89.331005,98.740389 h -3.43711 V 88.429047 h 3.43711 z"
     style="fill:#c8c8c8;fill-opacity:1;fill-rule:nonzero;stroke:#1a2e35;stroke-width:0.352778;stroke-linecap:round;stroke-linejoin:round;stroke-miterlimit:10;stroke-dasharray:none;stroke-opacity:1"
     id="path15078" /><path
     d="m 92.768125,98.740389 h -3.43712 V 88.429047 h 3.43712 z"
     style="fill:#1a2e35;fill-opacity:1;fill-rule:nonzero;stroke:#1a2e35;stroke-width:0.352778;stroke-linecap:round;stroke-linejoin:round;stroke-miterlimit:10;stroke-dasharray:none;stroke-opacity:1"
     id="path15080" /><path
     d="m 96.205235,98.740389 h -3.43711 V 88.429047 h 3.43711 z"
     style="fill:#c8c8c8;fill-opacity:1;fill-rule:nonzero;stroke:#1a2e35;stroke-width:0.352778;stroke-linecap:round;stroke-linejoin:round;stroke-miterlimit:10;stroke-dasharray:none;stroke-opacity:1"
     id="path15082" /><path
     d="m 73.577715,98.740389 h -2.8642 V 88.429047 h 2.8642 z"
     style="fill:#929292;fill-opacity:1;fill-rule:nonzero;stroke:#1a2e35;stroke-width:0.352778;stroke-linecap:round;stroke-linejoin:round;stroke-miterlimit:10;stroke-dasharray:none;stroke-opacity:1"
     id="path15084" /><path
     d="m 76.441915,98.740389 h -2.8642 V 88.429047 h 2.8642 z"
     style="fill:#1a2e35;fill-opacity:1;fill-rule:nonzero;stroke:#1a2e35;stroke-width:0.352778;stroke-linecap:round;stroke-linejoin:round;stroke-miterlimit:10;stroke-dasharray:none;stroke-opacity:1"
     id="path15086" /><path
     d="m 79.306125,98.740389 h -2.86421 V 88.429047 h 2.86421 z"
     style="fill:#929292;fill-opacity:1;fill-rule:nonzero;stroke:#1a2e35;stroke-width:0.352778;stroke-linecap:round;stroke-linejoin:round;stroke-miterlimit:10;stroke-dasharray:none;stroke-opacity:1"
     id="path15088" /><path
     d="m 52.382125,98.740389 h -2.86421 V 88.429047 h 2.86421 z"
     style="fill:#929292;fill-opacity:1;fill-rule:nonzero;stroke:#1a2e35;stroke-width:0.352778;stroke-linecap:round;stroke-linejoin:round;stroke-miterlimit:10;stroke-dasharray:none;stroke-opacity:1"
     id="path15090" /><path
     d="m 55.246325,98.740389 h -2.86456 V 88.429047 h 2.86456 z"
     style="fill:#1a2e35;fill-opacity:1;fill-rule:nonzero;stroke:#1a2e35;stroke-width:0.352778;stroke-linecap:round;stroke-linejoin:round;stroke-miterlimit:10;stroke-dasharray:none;stroke-opacity:1"
     id="path15092" /><path
     d="m 58.110525,98.740389 h -2.8642 V 88.429047 h 2.8642 z"
     style="fill:#929292;fill-opacity:1;fill-rule:nonzero;stroke:#1a2e35;stroke-width:0.352778;stroke-linecap:round;stroke-linejoin:round;stroke-miterlimit:10;stroke-dasharray:none;stroke-opacity:1"
     id="path15094" /><path
     d="m 106.80304,98.740389 h -3.43712 V 88.429047 h 3.43712 z"
     style="fill:#c8c8c8;fill-opacity:1;fill-rule:nonzero;stroke:#1a2e35;stroke-width:0.352778;stroke-linecap:round;stroke-linejoin:round;stroke-miterlimit:10;stroke-dasharray:none;stroke-opacity:1"
     id="path15096" /><path
     d="m 110.24015,98.740389 h -3.43711 V 88.429047 h 3.43711 z"
     style="fill:#1a2e35;fill-opacity:1;fill-rule:nonzero;stroke:#1a2e35;stroke-width:0.352778;stroke-linecap:round;stroke-linejoin:round;stroke-miterlimit:10;stroke-dasharray:none;stroke-opacity:1"
     id="path15098" /><path
     d="m 113.67726,98.740389 h -3.43711 V 88.429047 h 3.43711 z"
     style="fill:#c8c8c8;fill-opacity:1;fill-rule:nonzero;stroke:#1a2e35;stroke-width:0.352778;stroke-linecap:round;stroke-linejoin:round;stroke-miterlimit:10;stroke-dasharray:none;stroke-opacity:1"
     id="path15100" /><path
     d="m 98.783335,77.83125 h -2.29165 v -6.301317 h 2.29165 z"
     style="fill:#c8c8c8;fill-opacity:1;fill-rule:nonzero;stroke:#1a2e35;stroke-width:0.352778;stroke-linecap:round;stroke-linejoin:round;stroke-miterlimit:10;stroke-dasharray:none;stroke-opacity:1"
     id="path15102" /><path
     d="m 101.07463,77.83125 h -2.291295 v -6.301317 h 2.291295 z"
     style="fill:#1a2e35;fill-opacity:1;fill-rule:nonzero;stroke:#1a2e35;stroke-width:0.352778;stroke-linecap:round;stroke-linejoin:round;stroke-miterlimit:10;stroke-dasharray:none;stroke-opacity:1"
     id="path15104" /><path
     d="m 103.36592,77.83125 h -2.29129 v -6.301317 h 2.29129 z"
     style="fill:#c8c8c8;fill-opacity:1;fill-rule:nonzero;stroke:#1a2e35;stroke-width:0.352778;stroke-linecap:round;stroke-linejoin:round;stroke-miterlimit:10;stroke-dasharray:none;stroke-opacity:1"
     id="path15106" /><g
     id="g15108"
     transform="matrix(0.35277776,0,0,-0.35277778,45.599865,84.011917)"><path
       d="m 0,0 h 104.62 l 53.182,84.568 H 53.182 Z"
       style="fill:#1b6e6d;fill-opacity:1;fill-rule:nonzero;stroke:none"
       id="path15110" /></g><g
     id="g15112"
     transform="matrix(0.35277776,0,0,-0.35277778,45.599865,84.011917)"><path
       d="m 0,0 h 104.62 l 53.182,84.568 H 53.182 Z"
       style="fill:none;stroke:#1a2e35;stroke-width:1;stroke-linecap:round;stroke-linejoin:round;stroke-miterlimit:10;stroke-dasharray:none;stroke-opacity:1"
       id="path15114" /></g><path
     d="m 74.416265,67.653964 h -14.57466 v 9.644944 h 14.57466 z"
     style="fill:#c8c8c8;fill-opacity:1;fill-rule:nonzero;stroke:#1a2e35;stroke-width:0.352778;stroke-linecap:round;stroke-linejoin:round;stroke-miterlimit:10;stroke-dasharray:none;stroke-opacity:1"
     id="path15116" /><g
     id="g15118"
     transform="matrix(0.35277776,0,0,-0.35277778,74.416335,67.653929)"><path
       d="M 0,0 28.549,19.607 0,-27.34 Z"
       style="fill:#ffffff;fill-opacity:1;fill-rule:nonzero;stroke:none"
       id="path15120" /></g><g
     id="g15122"
     transform="matrix(0.35277776,0,0,-0.35277778,74.416335,67.653929)"><path
       d="M 0,0 28.549,19.607 0,-27.34 Z"
       style="fill:none;stroke:#1a2e35;stroke-width:1;stroke-linecap:round;stroke-linejoin:round;stroke-miterlimit:10;stroke-dasharray:none;stroke-opacity:1"
       id="path15124" /></g><g
     id="g15126"
     transform="matrix(0.35277776,0,0,-0.35277778,58.673635,67.98173)"><path
       d="M 0,0 H 43.272 L 73.174,20.536 H 29.909 Z"
       style="fill:#1b6e6d;fill-opacity:1;fill-rule:nonzero;stroke:none"
       id="path15128" /></g><g
     id="g15130"
     transform="matrix(0.35277776,0,0,-0.35277778,58.673635,67.98173)"><path
       d="M 0,0 H 43.272 L 73.174,20.536 H 29.909 Z"
       style="fill:none;stroke:#1a2e35;stroke-width:1;stroke-linecap:round;stroke-linejoin:round;stroke-miterlimit:10;stroke-dasharray:none;stroke-opacity:1"
       id="path15132" /></g><path
     d="m 65.701595,76.003156 h -2.29164 v -6.301317 h 2.29164 z"
     style="fill:#929292;fill-opacity:1;fill-rule:nonzero;stroke:#1a2e35;stroke-width:0.352778;stroke-linecap:round;stroke-linejoin:round;stroke-miterlimit:10;stroke-dasharray:none;stroke-opacity:1"
     id="path15134" /><path
     d="m 67.992895,76.003156 h -2.2913 v -6.301317 h 2.2913 z"
     style="fill:#1a2e35;fill-opacity:1;fill-rule:nonzero;stroke:#1a2e35;stroke-width:0.352778;stroke-linecap:round;stroke-linejoin:round;stroke-miterlimit:10;stroke-dasharray:none;stroke-opacity:1"
     id="path15136" /><path
     d="m 70.284185,76.003156 h -2.29129 v -6.301317 h 2.29129 z"
     style="fill:#929292;fill-opacity:1;fill-rule:nonzero;stroke:#1a2e35;stroke-width:0.352778;stroke-linecap:round;stroke-linejoin:round;stroke-miterlimit:10;stroke-dasharray:none;stroke-opacity:1"
     id="path15138" /><g
     id="g15140"
     transform="matrix(0.35277776,0,0,-0.35277778,92.383205,49.653478)"><path
       d="M 0,0 H -3.633 V -26.535 L 0,-20.668 Z"
       style="fill:#ffffff;fill-opacity:1;fill-rule:nonzero;stroke:none"
       id="path15142" /></g><g
     id="g15144"
     transform="matrix(0.35277776,0,0,-0.35277778,92.383205,49.653478)"><path
       d="M 0,0 H -3.633 V -26.535 L 0,-20.668 Z"
       style="fill:none;stroke:#1a2e35;stroke-width:1;stroke-linecap:round;stroke-linejoin:round;stroke-miterlimit:10;stroke-dasharray:none;stroke-opacity:1"
       id="path15146" /></g><path
     d="m 91.160515,49.653478 h -3.78778 v 9.360958 h 3.78778 z"
     style="fill:#c8c8c8;fill-opacity:1;fill-rule:nonzero;stroke:#1a2e35;stroke-width:0.352778;stroke-linecap:round;stroke-linejoin:round;stroke-miterlimit:10;stroke-dasharray:none;stroke-opacity:1"
     id="path15148" /><path
     d="m 69.109435,113.34786 h -8.82192 V 90.162244 h 8.82192 z"
     style="fill:#1a2e35;fill-opacity:1;fill-rule:nonzero;stroke:#1a2e35;stroke-width:0.352778;stroke-linecap:round;stroke-linejoin:round;stroke-miterlimit:10;stroke-dasharray:none;stroke-opacity:1"
     id="path15150" /><g
     id="g15152"
     transform="matrix(0.35277776,0,0,-0.35277778,1.7772152,176.38889)"><g
       id="g15154"
       clip-path="url(#clipPath15158)"><g
         id="g15160"
         transform="translate(189.543,211.6445)"><path
           d="m 0,0 c 0,1.223 -0.991,2.213 -2.213,2.213 -1.223,0 -2.214,-0.99 -2.214,-2.213 0,-1.223 0.991,-2.213 2.214,-2.213 C -0.991,-2.213 0,-1.223 0,0"
           style="fill:#ffffff;fill-opacity:1;fill-rule:nonzero;stroke:none"
           id="path15162" /></g><g
         id="g15164"
         transform="translate(189.543,211.6445)"><path
           d="m 0,0 c 0,1.223 -0.991,2.213 -2.213,2.213 -1.223,0 -2.214,-0.99 -2.214,-2.213 0,-1.223 0.991,-2.213 2.214,-2.213 C -0.991,-2.213 0,-1.223 0,0 Z"
           style="fill:none;stroke:#1a2e35;stroke-width:1;stroke-linecap:round;stroke-linejoin:round;stroke-miterlimit:10;stroke-dasharray:none;stroke-opacity:1"
           id="path15166" /></g></g></g><g
     id="g15168"
     transform="matrix(0.35277776,0,0,-0.35277778,-4.8487646e-6,176.38889)"><g
       id="g15170"
       clip-path="url(#clipPath15174)"
       transform="translate(5.0377838)"><g
         id="g15176"
         transform="translate(124.4868,192.4473)"><path
           d="m 0,0 c 0,0 -20.943,11.461 -40.5,13.589 -19.557,2.129 -30.872,-6.983 -30.775,-10.94 0.096,-3.956 13.67,-4.252 16.245,-4.913 2.575,-0.661 18.304,3.683 41.516,-1.832 23.212,-5.515 26.184,-6.649 26.184,-6.649 z"
           style="fill:#ffffff;fill-opacity:1;fill-rule:nonzero;stroke:none"
           id="path15178" /></g><g
         id="g15180"
         transform="translate(124.4868,192.4473)"><path
           d="m 0,0 c 0,0 -20.943,11.461 -40.5,13.589 -19.557,2.129 -30.872,-6.983 -30.775,-10.94 0.096,-3.956 13.67,-4.252 16.245,-4.913 2.575,-0.661 18.304,3.683 41.516,-1.832 23.212,-5.515 26.184,-6.649 26.184,-6.649 z"
           style="fill:none;stroke:#1a2e35;stroke-width:1;stroke-linecap:round;stroke-linejoin:round;stroke-miterlimit:10;stroke-dasharray:none;stroke-opacity:1"
           id="path15182" /></g><g
         id="g15184"
         transform="translate(115.7266,192.709)"><path
           d="m 0,0 c 0,0 -21.852,9.615 -41.519,10.052 -19.668,0.437 -30.157,-9.615 -29.719,-13.549 0.437,-3.933 13.985,-3.059 16.607,-3.496 2.623,-0.437 17.919,5.245 41.52,1.748 23.6,-3.496 26.66,-4.37 26.66,-4.37 z"
           style="fill:#ffffff;fill-opacity:1;fill-rule:nonzero;stroke:none"
           id="path15186" /></g><g
         id="g15188"
         transform="translate(115.7266,192.709)"><path
           d="m 0,0 c 0,0 -21.852,9.615 -41.519,10.052 -19.668,0.437 -30.157,-9.615 -29.719,-13.549 0.437,-3.933 13.985,-3.059 16.607,-3.496 2.623,-0.437 17.919,5.245 41.52,1.748 23.6,-3.496 26.66,-4.37 26.66,-4.37 z"
           style="fill:none;stroke:#1a2e35;stroke-width:1;stroke-linecap:round;stroke-linejoin:round;stroke-miterlimit:10;stroke-dasharray:none;stroke-opacity:1"
           id="path15190" /></g><g
         id="g15192"
         transform="translate(395.0654,200.7979)"><path
           d="m 0,0 -30.345,8.218 c 0,0 -21.494,17.069 -47.413,15.173 -25.92,-1.897 -49.31,-12.012 -56.896,-17.702 -7.587,-5.689 -17.07,-11.378 -18.966,-12.643 -1.897,-1.265 -27.816,5.689 -41.724,0 -13.908,-5.69 -24.656,-17.069 -24.656,-17.069 0,0 -58.792,17.701 -73.333,20.23 -14.54,2.528 -31.609,1.264 -43.62,-7.587 -12.012,-8.849 -9.483,-14.54 -3.161,-15.804 6.322,-1.264 7.586,5.057 42.356,-4.425 34.77,-9.483 77.127,-34.138 94.196,-43.62 17.068,-9.484 45.517,-22.759 64.482,-17.07 18.966,5.69 70.805,25.287 82.816,25.287 12.011,0 50.575,-2.528 50.575,-2.528 z"
           style="fill:#ffffff;fill-opacity:1;fill-rule:nonzero;stroke:none"
           id="path15194" /></g><g
         id="g15196"
         transform="translate(395.0654,200.7979)"><path
           d="m 0,0 -30.345,8.218 c 0,0 -21.494,17.069 -47.413,15.173 -25.92,-1.897 -49.31,-12.012 -56.896,-17.702 -7.587,-5.689 -17.07,-11.378 -18.966,-12.643 -1.897,-1.265 -27.816,5.689 -41.724,0 -13.908,-5.69 -24.656,-17.069 -24.656,-17.069 0,0 -58.792,17.701 -73.333,20.23 -14.54,2.528 -31.609,1.264 -43.62,-7.587 -12.012,-8.849 -9.483,-14.54 -3.161,-15.804 6.322,-1.264 7.586,5.057 42.356,-4.425 34.77,-9.483 77.127,-34.138 94.196,-43.62 17.068,-9.484 45.517,-22.759 64.482,-17.07 18.966,5.69 70.805,25.287 82.816,25.287 12.011,0 50.575,-2.528 50.575,-2.528 z"
           style="fill:none;stroke:#1a2e35;stroke-width:1;stroke-linecap:round;stroke-linejoin:round;stroke-miterlimit:10;stroke-dasharray:none;stroke-opacity:1"
           id="path15198" /></g><g
         id="g15200"
         transform="translate(378.5625,158.9766)"><path
           d="m 0,0 -26.079,-25.036 36.892,-2.683 z"
           style="fill:#1a2e35;fill-opacity:1;fill-rule:nonzero;stroke:none"
           id="path15202" /></g><g
         id="g15204"
         transform="translate(378.5625,158.9766)"><path
           d="m 0,0 -26.079,-25.036 36.892,-2.683 z"
           style="fill:none;stroke:#1a2e35;stroke-width:1;stroke-linecap:round;stroke-linejoin:round;stroke-miterlimit:10;stroke-dasharray:none;stroke-opacity:1"
           id="path15206" /></g><g
         id="g15208"
         transform="translate(175.0659,176.7744)"><path
           d="m 0,0 c 0,0 -5.872,-7.717 -3.397,-17.718 1.528,-6.178 8.741,-4.807 21.852,-2.185 13.112,2.622 0.875,4.37 31.468,4.807 30.593,0.437 63.371,1.311 65.119,1.311"
           style="fill:none;stroke:#1a2e35;stroke-width:1;stroke-linecap:round;stroke-linejoin:round;stroke-miterlimit:10;stroke-dasharray:none;stroke-opacity:1"
           id="path15210" /></g><g
         id="g15212"
         transform="translate(174.8452,155.333)"><path
           d="m 0,0 c 0,0 0.583,3.992 4.844,6.459 0,0 7.266,3.768 11.841,3.768 4.575,0 8.342,-4.844 6.997,-6.459"
           style="fill:none;stroke:#1a2e35;stroke-width:1;stroke-linecap:round;stroke-linejoin:round;stroke-miterlimit:10;stroke-dasharray:none;stroke-opacity:1"
           id="path15214" /></g><g
         id="g15216"
         transform="translate(214.1353,162.8682)"><path
           d="M 0,0 V 5.383"
           style="fill:none;stroke:#1a2e35;stroke-width:1;stroke-linecap:round;stroke-linejoin:round;stroke-miterlimit:10;stroke-dasharray:none;stroke-opacity:1"
           id="path15218" /></g><g
         id="g15220"
         transform="translate(216.8267,173.3633)"><path
           d="M 0,0 C 0,0 0.807,-2.96 0.269,-7.535"
           style="fill:none;stroke:#1a2e35;stroke-width:1;stroke-linecap:round;stroke-linejoin:round;stroke-miterlimit:10;stroke-dasharray:none;stroke-opacity:1"
           id="path15222" /></g><g
         id="g15224"
         transform="translate(421.6611,102.0996)"><path
           d="m 0,0 h -40.773 c -2.48,0 -4.489,2.01 -4.489,4.488 v 102.296 c 0,2.48 2.009,4.489 4.489,4.489 H 0 Z"
           style="fill:#1b6e6d;fill-opacity:1;fill-rule:nonzero;stroke:none"
           id="path15226" /></g><g
         id="g15228"
         transform="translate(421.6611,102.0996)"><path
           d="m 0,0 h -40.773 c -2.48,0 -4.489,2.01 -4.489,4.488 v 102.296 c 0,2.48 2.009,4.489 4.489,4.489 H 0 Z"
           style="fill:none;stroke:#1a2e35;stroke-width:1;stroke-linecap:round;stroke-linejoin:round;stroke-miterlimit:10;stroke-dasharray:none;stroke-opacity:1"
           id="path15230" /></g><g
         id="g15232"
         transform="translate(494.1875,93.4072)"><path
           d="m 0,0 h -72.188 c -1.886,0 -3.415,1.528 -3.415,3.414 v 118.85 c 0,1.885 1.529,3.414 3.415,3.414 H 0 Z"
           style="fill:#1b6e6d;fill-opacity:1;fill-rule:nonzero;stroke:none"
           id="path15234" /></g><g
         id="g15236"
         transform="translate(494.1875,93.4072)"><path
           d="m 0,0 h -72.188 c -1.886,0 -3.415,1.528 -3.415,3.414 v 118.85 c 0,1.885 1.529,3.414 3.415,3.414 H 0 Z"
           style="fill:none;stroke:#1a2e35;stroke-width:1;stroke-linecap:round;stroke-linejoin:round;stroke-miterlimit:10;stroke-dasharray:none;stroke-opacity:1"
           id="path15238" /></g><g
         id="g15240"
         transform="translate(382.6738,203.1777)"><path
           d="M 0,0 H 33.649"
           style="fill:#5ae4a7;fill-opacity:1;fill-rule:nonzero;stroke:#1a2e35;stroke-width:1;stroke-linecap:round;stroke-linejoin:round;stroke-miterlimit:10;stroke-dasharray:none;stroke-opacity:1"
           id="path15242" /></g><g
         id="g15244"
         transform="translate(415.8662,189.9736)"><path
           d="M 0,0 H -34.21"
           style="fill:#5ae4a7;fill-opacity:1;fill-rule:nonzero;stroke:#1a2e35;stroke-width:1;stroke-linecap:round;stroke-linejoin:round;stroke-miterlimit:10;stroke-dasharray:none;stroke-opacity:1"
           id="path15246" /></g><g
         id="g15248"
         transform="translate(380.4561,165.9668)"><path
           d="M 0,0 H 23.407"
           style="fill:#5ae4a7;fill-opacity:1;fill-rule:nonzero;stroke:#1a2e35;stroke-width:1;stroke-linecap:round;stroke-linejoin:round;stroke-miterlimit:10;stroke-dasharray:none;stroke-opacity:1"
           id="path15250" /></g><g
         id="g15252"
         transform="translate(408.0645,165.9668)"><path
           d="M 0,0 H 7.802"
           style="fill:#5ae4a7;fill-opacity:1;fill-rule:nonzero;stroke:#1a2e35;stroke-width:1;stroke-linecap:round;stroke-linejoin:round;stroke-miterlimit:10;stroke-dasharray:none;stroke-opacity:1"
           id="path15254" /></g></g></g></svg>
