<svg width="301" height="233" viewBox="0 0 301 233" fill="none" xmlns="http://www.w3.org/2000/svg">
<g clip-path="url(#clip0_4915_12990)">
<path d="M195.207 102.388H202.247V98.1537H195.207V97.2366H199.847V93.6494H195.936V83.1846H194.479V93.6494H190.568V98.1537H188.168V103.305H195.207V102.388Z" fill="#F2F8F9"/>
<path d="M184.094 103.305V221.493H206.318V103.305H184.094Z" fill="url(#paint0_linear_4915_12990)"/>
<path d="M183.31 138.341V130.384H159.495V129.467H165.968V112.664H163.298V99.7988H162.03V112.664H159.522L147.52 124.639V221.494H183.31V183.734H159.495V182.79H183.31V174.833H159.495V173.916H183.31V165.933H159.495V165.016H183.31V157.059H159.495V156.115H183.31V148.158H159.495V147.241H183.31V139.258H159.495V138.341H183.31Z" fill="url(#paint1_linear_4915_12990)"/>
<path d="M104.315 129.953V129.036H116.64V120.108H104.315V119.191H107.686V113.932H102.13V103.035H100.997V113.932H95.441V120.108H93.1484V129.953H90.8828V221.52H120.632V129.953H104.315Z" fill="url(#paint2_linear_4915_12990)"/>
<path d="M139.214 125.691L125.674 139.258V142.198H114.238V221.494H144.419V125.691H139.214Z" fill="url(#paint3_linear_4915_12990)"/>
<path d="M88.2388 114.175V221.494H49.2383V86.5292L52.4479 89.7388H55.3068V78.8154H56.5475V89.7388H61.0517V92.1393H55.6575V93.0563H61.0517V98.3427L70.5456 107.837V113.258H64.4771V114.175H88.2388Z" fill="url(#paint4_linear_4915_12990)"/>
<path d="M132.882 55.4251H55.6356C55.6356 55.4251 50.565 31.7982 69.0673 30.5575C87.5697 29.3168 100.273 48.5743 100.273 48.5743C100.273 48.5743 102.35 40.0784 113.381 40.9954C124.332 41.9124 131.533 53.1595 132.882 55.4251Z" fill="url(#paint5_linear_4915_12990)"/>
<path d="M285.977 185.893H243.309C243.309 185.893 239.937 180.876 243.767 177.316C248.595 172.865 259.006 180.417 259.006 180.417C259.006 180.417 258.467 172.434 263.969 171.841C273.571 170.789 285.977 185.893 285.977 185.893Z" fill="url(#paint6_linear_4915_12990)"/>
<path d="M233.814 33.8821H175.179C175.179 33.8821 170.54 27.0044 175.799 22.1226C182.407 16.0001 196.756 26.3571 196.756 26.3571C196.756 26.3571 196.001 15.3798 203.553 14.5706C216.768 13.1412 233.814 33.8821 233.814 33.8821Z" fill="url(#paint7_linear_4915_12990)"/>
<g clip-path="url(#clip1_4915_12990)">
<path d="M287.582 185.148H17.0547V216.302H287.582V185.148Z" fill="white"/>
<path d="M245.147 33.3164H143.336V92.2002H245.147V33.3164Z" fill="white"/>
<path d="M292.034 73.543H232.145V200.896H292.034V73.543Z" fill="white"/>
<path d="M279.551 99.2734H244.504V119.543H279.551V99.2734Z" fill="#DEEDFF"/>
<path d="M267.269 127.079H232.223V147.349H267.269V127.079Z" fill="#F9CA75"/>
<path d="M111.533 174.535H48.9062V216.302H111.533V174.535Z" fill="#9FC4FF"/>
<path d="M184.596 143.382H121.969V216.302H184.596V143.382Z" fill="#9FC4FF"/>
<path d="M257.662 72.8584H195.035V216.302H257.662V72.8584Z" fill="#9FC4FF"/>
<path d="M187.667 87.4177L156.363 56.1027C179.709 52.0486 201.435 49.6147 224.537 45.8053C227.317 45.347 229.723 47.754 229.264 50.5347C225.698 72.1803 223.337 92.6193 219.722 114.313C219.423 116.113 217.218 116.826 215.925 115.539C206.505 106.165 197.086 96.7915 187.667 87.4177Z" fill="#404040"/>
<path d="M108.202 196.288L77.0039 165.078L172.468 69.5791L206.589 103.712L114.046 196.288C112.433 197.902 109.816 197.902 108.202 196.288Z" fill="#404040"/>
<path d="M105.489 193.575L77.3329 165.409C75.6859 163.761 75.6859 161.09 77.3329 159.442L166.833 69.9095C168.48 68.2619 171.15 68.2619 172.797 69.9095L200.953 98.0755C202.6 99.7231 202.6 102.395 200.953 104.042L111.453 193.575C109.806 195.222 107.136 195.222 105.489 193.575Z" fill="#F9CA75"/>
<path d="M108.473 195.051C107.331 195.051 106.189 194.616 105.319 193.746L77.1636 165.58C75.4246 163.841 75.4246 161.01 77.1636 159.271L166.663 69.7383C167.506 68.8956 168.626 68.4316 169.817 68.4316C171.008 68.4316 172.128 68.8958 172.971 69.7383L201.127 97.9044C202.866 99.644 202.866 102.475 201.127 104.214L111.627 193.747C110.757 194.616 109.615 195.051 108.473 195.051ZM169.817 68.9163C168.755 68.9163 167.757 69.33 167.006 70.081L77.5062 159.613C75.9563 161.164 75.9563 163.687 77.5062 165.237L105.662 193.403C107.212 194.954 109.734 194.954 111.284 193.403L200.784 103.871C202.334 102.32 202.334 99.7975 200.784 98.2468L172.628 70.0809C171.877 69.33 170.879 68.9163 169.817 68.9163Z" fill="#404040"/>
<path d="M182.52 86.0384C188.337 93.7413 194.155 101.444 199.973 109.147C202.853 107.578 205.734 106.009 208.614 104.44C204.45 97.8359 200.287 91.2325 196.123 84.6289L182.52 86.0384Z" fill="#404040"/>
<path d="M184.074 87.9318L155.028 58.8757C154.079 57.9265 154.599 56.3004 155.922 56.0771C179.213 52.149 201.008 49.7166 224.335 45.7515C225.455 45.561 226.429 46.5352 226.238 47.6555C222.275 70.9912 219.843 92.7943 215.917 116.093C215.694 117.417 214.068 117.937 213.119 116.988L184.074 87.9318Z" fill="#F9CA75"/>
<path d="M214.283 117.715C213.789 117.715 213.309 117.521 212.947 117.159L182.668 86.8693C182.573 86.7746 182.573 86.621 182.668 86.5264C182.762 86.4317 182.916 86.4317 183.01 86.5264L213.29 116.817C213.67 117.197 214.203 117.326 214.715 117.162C215.228 116.998 215.587 116.584 215.677 116.053C217.616 104.549 219.216 93.2218 220.764 82.2673C222.351 71.0392 223.992 59.4289 225.999 47.6153C226.076 47.1599 225.933 46.7112 225.606 46.384C225.279 46.0568 224.83 45.9134 224.375 45.9911C212.565 47.9985 200.959 49.6399 189.734 51.2273C178.784 52.776 167.462 54.3772 155.962 56.3166C155.432 56.4062 155.017 56.7659 154.853 57.2788C154.689 57.7914 154.819 58.3246 155.199 58.7048L169.642 73.153C169.737 73.2478 169.737 73.4012 169.642 73.4959C169.547 73.5906 169.394 73.5906 169.299 73.4959L154.856 59.0477C154.353 58.5443 154.175 57.8098 154.391 57.1312C154.608 56.4522 155.179 55.9568 155.882 55.8384C167.387 53.8979 178.714 52.296 189.667 50.747C200.888 49.16 212.491 47.519 224.294 45.5128C224.906 45.4093 225.509 45.6012 225.949 46.0409C226.388 46.4806 226.581 47.084 226.477 47.6965C224.471 59.5032 222.831 71.1103 221.245 82.3352C219.696 93.2928 218.095 104.623 216.155 116.134C216.037 116.836 215.541 117.407 214.863 117.624C214.672 117.685 214.476 117.715 214.283 117.715Z" fill="#404040"/>
<path d="M211.992 109.333C212.512 109.333 212.513 108.524 211.992 108.524C211.472 108.524 211.471 109.333 211.992 109.333Z" fill="white"/>
<path d="M222.129 51.6433C222.648 51.6433 222.649 50.835 222.129 50.835C221.609 50.835 221.608 51.6433 222.129 51.6433Z" fill="white"/>
<path d="M108.539 190.797C109.059 190.797 109.06 189.988 108.539 189.988C108.019 189.988 108.018 190.797 108.539 190.797Z" fill="white"/>
<path d="M79.5308 162.476C80.0507 162.476 80.0517 161.668 79.5308 161.668C79.011 161.668 79.0102 162.476 79.5308 162.476Z" fill="white"/>
<path d="M167.89 61.7149C171.09 61.4224 173.576 60.0023 173.442 58.543C173.309 57.0837 170.607 56.1379 167.407 56.4304C164.207 56.7228 161.721 58.1429 161.855 59.6022C161.988 61.0615 164.69 62.0074 167.89 61.7149Z" fill="white"/>
<path d="M179.92 57.775C179.977 58.3948 179.308 58.9627 178.426 59.0432C177.544 59.1238 176.783 58.6866 176.726 58.0668C176.669 57.447 177.338 56.8791 178.22 56.7986C179.102 56.7181 179.863 57.1552 179.92 57.775Z" fill="white"/>
<path d="M149.522 110.653L142.448 111.923L141.151 104.693L140.503 101.079L139.926 97.868L147 96.5996L149.522 110.653Z" fill="#F78771"/>
<path d="M136.684 214.41L143.314 214.734L143.639 208.143L143.658 207.77L144.006 200.649L137.375 200.324L137.096 205.997L137.064 206.663L136.684 214.41Z" fill="#F78771"/>
<path d="M137.066 206.663C138.167 207.075 139.469 207.437 140.951 207.63C141.917 207.757 142.828 207.793 143.661 207.77L144.008 200.649L137.378 200.324L137.099 205.997L137.066 206.663Z" fill="#404040"/>
<path d="M143.594 208.839C144.409 208.872 143.789 215.355 143.586 216.449C136.829 216.4 130.073 216.351 123.316 216.302C123.585 215.444 124.145 214.119 125.37 213.05C126.458 212.1 127.589 211.8 128.605 211.497C130.6 210.901 133.203 210.177 136.336 209.437C137.497 209.486 138.046 210.636 139.949 210.515C139.771 210.647 142.626 210.152 143.594 208.839Z" fill="#404040"/>
<path d="M134.636 212.041C134.589 212.1 134.525 212.132 134.458 212.143C134.384 212.154 134.305 212.135 134.243 212.084L132.334 210.542C132.285 210.502 132.252 210.449 132.238 210.391C132.436 210.341 132.64 210.291 132.847 210.241L134.594 211.65C134.713 211.746 134.733 211.922 134.636 212.041Z" fill="#9FC4FF"/>
<path d="M135.705 210.946C135.66 211.003 135.595 211.037 135.528 211.046C135.454 211.057 135.376 211.038 135.314 210.989L134.051 209.969C134.28 209.918 134.515 209.869 134.756 209.822L135.664 210.555C135.783 210.651 135.801 210.826 135.705 210.946Z" fill="#9FC4FF"/>
<path d="M158.68 200.259L159.607 205.863L160.981 214.172L167.531 213.087L166.455 206.577L165.23 199.176L158.68 200.259Z" fill="#F78771"/>
<path d="M158.68 200.259L159.607 205.864C160.887 206.228 162.389 206.519 164.075 206.603C164.915 206.644 165.711 206.63 166.455 206.577L165.23 199.176L158.68 200.259Z" fill="#404040"/>
<path d="M166.191 210.089C166.689 209.782 167.343 210.047 167.485 210.614C167.606 211.094 167.724 211.583 167.838 212.08C168.179 213.56 168.461 214.989 168.694 216.36C163.903 216.417 159.111 216.474 154.32 216.531C154.52 215.723 154.936 214.503 155.86 213.278C157.148 211.573 158.775 210.716 159.852 210.297C160.304 210.121 160.806 210.15 161.243 210.362C161.758 210.612 162.492 210.867 163.389 210.882C164.574 210.902 165.531 210.496 166.191 210.089Z" fill="#404040"/>
<path d="M144.876 106.065C143.294 106.383 140.889 107 138.203 108.291C131.341 111.587 129.507 115.981 124.172 119.588C121.452 121.427 117.141 123.523 110.483 124.039C110.757 125.237 111.06 127.251 110.654 129.687C110.211 132.348 109.128 134.281 108.43 135.336C116.756 133.706 122.739 131.552 126.396 130.03C129.24 128.846 131.448 127.723 133.754 126.093C136.655 124.042 138.726 121.884 140.085 120.273C141.682 115.537 143.279 110.801 144.876 106.065Z" fill="white"/>
<path d="M154.544 142.44C154.542 142.817 154.539 143.195 154.537 143.572C154.525 145.45 154.513 147.329 154.503 149.207C154.488 151.602 154.474 153.996 154.459 156.391C153.309 159.068 152.156 161.747 151.006 164.424C150.634 165.287 150.265 166.148 149.893 167.011C148.213 172.053 147.32 177.327 147.248 182.642C147.171 188.265 147.094 193.89 147.017 199.515C146.988 201.631 146.959 203.744 146.93 205.86C145.643 206.343 143.826 206.843 141.625 206.887C136.932 206.98 133.47 204.939 132.043 203.977C132.394 201.916 132.743 199.855 133.094 197.794C134.23 191.103 135.366 184.412 136.502 177.723C137.009 174.744 137.349 171.74 137.522 168.724L138.027 159.958L138.734 147.651L138.821 146.129L138.973 143.467L139.177 143.454L140.06 143.396L154.544 142.44Z" fill="#4A7DCE"/>
<path d="M171.571 206.202C169.445 206.353 166.897 206.365 164.043 206.031C160.083 205.569 156.782 204.588 154.289 203.635L153.786 197.628L151.007 164.424L149.926 151.512L150.129 149.378L150.61 144.323L154.539 143.572L165.812 141.418L165.839 141.413L165.834 141.519L165.564 146.704L164.42 168.621C164.114 174.525 164.729 180.439 166.246 186.153C167.249 189.93 168.253 193.71 169.258 197.489C170.03 200.394 170.8 203.298 171.571 206.202Z" fill="#4A7DCE"/>
<path d="M144.021 154.165C142.377 157.154 139.973 158.931 138.027 159.958L138.734 147.65L138.821 146.129L138.974 143.467L139.177 143.453C141.362 144.343 143.547 145.232 145.732 146.12C145.839 147.535 145.883 150.781 144.021 154.165Z" fill="#DEEDFF"/>
<path d="M138.734 147.651C141.269 148.397 144.347 149.052 147.872 149.287C148.638 149.338 149.391 149.368 150.129 149.378C151.652 149.397 153.113 149.331 154.504 149.207C158.999 148.794 162.77 147.726 165.563 146.704L165.833 141.519C165.825 141.485 165.818 141.452 165.811 141.418L154.538 143.571C154.54 143.195 154.543 142.816 154.545 142.44L140.06 143.395L138.821 146.129L138.734 147.651Z" fill="#404040"/>
<path d="M191.76 121.129C189.06 122.505 182.164 125.55 173.28 124.381C171.704 124.174 170.237 123.856 168.889 123.472C167.022 122.942 165.38 122.286 163.98 121.619C163.913 121.586 163.85 121.555 163.785 121.524C164.18 124.097 164.575 126.67 164.972 129.243C165.077 129.933 165.184 130.622 165.291 131.312C165.453 132.374 165.616 133.435 165.78 134.496C166.03 136.121 166.28 137.745 166.529 139.369C166.726 140.65 166.923 141.93 167.12 143.211C164.721 144.839 160.195 147.437 153.944 148.346C145.647 149.553 139.131 147.084 136.405 145.864C136.272 145.188 136.147 144.518 136.03 143.86C135.827 142.713 135.649 141.591 135.495 140.496C135.281 138.981 135.11 137.518 134.978 136.105C134.915 135.422 134.86 134.753 134.812 134.094C134.703 132.555 134.638 131.085 134.609 129.683C134.516 125.261 134.778 121.526 135.122 118.562C135.213 117.781 135.307 117.059 135.415 116.388C135.902 113.313 136.63 111.281 138.202 109.489C143.888 103.009 155.541 105.472 157.538 105.895C163.691 107.196 168.218 110.354 171.109 112.966C172.708 114.412 174.878 115.054 177 114.672L191.589 112.057C191.185 113.016 190.567 114.852 190.733 117.192C190.856 118.923 191.361 120.278 191.76 121.129Z" fill="white"/>
<path d="M137.914 95.6868C139.321 92.4261 142.318 90.3013 145.483 90.3175C149.807 90.3395 152.152 94.3447 152.778 95.4115C153.102 95.9653 156.393 101.761 153.19 105.462C150.97 108.028 146.446 108.642 144.933 106.976C142.958 104.802 147.135 99.8715 145.071 97.0636C143.682 95.175 140.277 95.3442 137.914 95.6868Z" fill="#404040"/>
<path d="M192.845 116.678C192.845 116.959 192.84 117.235 192.828 117.502C192.738 119.662 192.293 121.3 191.761 121.3C191.268 121.3 190.852 119.9 190.72 117.981C190.691 117.568 190.676 117.13 190.676 116.678C190.676 115.908 190.72 115.184 190.799 114.547C190.979 113.067 191.342 112.057 191.761 112.057C192.117 112.057 192.433 112.788 192.63 113.916C192.765 114.686 192.845 115.641 192.845 116.678Z" fill="#404040"/>
<path d="M195.183 116.849C194.329 117.259 193.504 117.435 192.828 117.502C192.404 117.544 192.038 117.544 191.761 117.534C191.413 117.683 191.068 117.832 190.72 117.981C190.691 117.568 190.676 117.13 190.676 116.678C190.676 115.908 190.72 115.184 190.799 114.547C191.569 114.325 192.165 114.112 192.63 113.916C192.892 113.804 193.113 113.698 193.301 113.597C193.72 113.37 195.007 112.818 197.579 111.714C198.852 111.168 199.139 111.057 199.29 111.201C199.844 111.726 198.265 115.369 195.183 116.849Z" fill="#F78771"/>
<path d="M147.215 185.345C147.212 185.345 147.21 185.345 147.207 185.345C147.073 185.341 146.968 185.228 146.973 185.095C147.121 180.649 147.631 176.187 148.49 171.835C148.517 171.697 148.545 171.559 148.572 171.422C149.575 166.473 151.73 161.741 154.804 157.737L155.294 157.099C155.376 156.992 155.528 156.973 155.634 157.054C155.741 157.136 155.76 157.288 155.679 157.394L155.189 158.033C152.159 161.979 150.035 166.642 149.048 171.519C149.02 171.655 148.993 171.791 148.965 171.929C148.112 176.256 147.604 180.691 147.457 185.111C147.453 185.242 147.345 185.345 147.215 185.345Z" fill="#404040"/>
<path d="M147.017 199.514C146.988 201.63 146.959 203.744 146.93 205.86C145.643 206.342 143.826 206.842 141.625 206.887C136.932 206.979 133.47 204.939 132.043 203.977C132.394 201.916 132.743 199.855 133.094 197.794C135.049 198.739 137.941 199.783 141.54 199.954C143.637 200.055 145.492 199.836 147.017 199.514Z" fill="#DEEDFF"/>
<path d="M171.571 206.202C169.444 206.353 166.896 206.365 164.042 206.031C160.082 205.569 156.781 204.588 154.288 203.634L153.785 197.628L153.902 197.539C155.825 198.253 159.582 199.347 164.281 198.744C166.203 198.497 167.874 198.02 169.257 197.489C170.029 200.394 170.799 203.297 171.571 206.202Z" fill="#DEEDFF"/>
<path d="M111.175 127.492C111.138 128.233 111.052 129.05 110.915 129.904C110.85 130.306 110.778 130.698 110.7 131.075C110.156 133.664 109.3 135.539 108.648 135.434C108.089 135.345 107.84 133.824 107.965 131.73C108.006 131.03 108.09 130.268 108.217 129.472C108.296 128.974 108.388 128.492 108.491 128.036C109.035 125.585 109.856 123.841 110.484 123.942C111.03 124.027 111.28 125.479 111.175 127.492Z" fill="#404040"/>
<path d="M111.176 127.491C111.139 128.232 111.053 129.049 110.916 129.903C110.851 130.305 110.78 130.697 110.701 131.074C109.888 131.214 108.964 131.421 107.966 131.729C107.347 131.919 106.7 132.149 106.034 132.426C103.362 133.537 102.137 134.679 101.757 134.309C101.237 133.804 102.624 130.776 105.179 129.174C106.337 128.448 107.522 128.148 108.492 128.036C108.998 127.976 109.445 127.967 109.799 127.976C110.258 127.815 110.718 127.654 111.176 127.491Z" fill="#F78771"/>
<path d="M127.422 129.711C127.326 129.711 127.234 129.653 127.197 129.558C127.148 129.433 127.209 129.292 127.333 129.243C129.592 128.352 131.734 127.197 133.699 125.81C133.986 125.606 134.242 125.42 134.479 125.239C136.742 123.531 138.763 121.501 140.488 119.207C141.028 118.49 141.542 117.74 142.018 116.978C142.089 116.865 142.238 116.83 142.352 116.901C142.465 116.972 142.5 117.122 142.429 117.235C141.946 118.009 141.423 118.771 140.875 119.498C139.124 121.829 137.07 123.891 134.772 125.626C134.53 125.81 134.271 125.999 133.979 126.206C131.982 127.616 129.806 128.789 127.511 129.695C127.482 129.706 127.452 129.711 127.422 129.711Z" fill="#404040"/>
<path d="M140.681 119.353C139.843 121.8 138.481 124.755 136.234 127.72C135.7 128.423 135.156 129.077 134.609 129.683C134.578 128.187 134.586 126.768 134.626 125.433C137.285 123.425 139.256 121.249 140.681 119.353Z" fill="#404040"/>
<path d="M166.531 139.369C163.22 141.359 158.612 143.479 152.833 144.494C145.891 145.715 139.986 144.861 136.032 143.859C135.828 142.713 135.65 141.591 135.496 140.496C140.296 141.3 147.26 141.667 155.058 139.359C159.4 138.074 162.982 136.261 165.781 134.496C166.031 136.121 166.281 137.745 166.531 139.369Z" fill="#DEEDFF"/>
<path d="M165.291 131.312C161.959 133.352 157.249 135.574 151.292 136.62C144.629 137.791 138.923 137.053 134.978 136.105L134.812 134.093C138.75 135.019 144.386 135.719 150.95 134.566C156.92 133.516 161.639 131.288 164.973 129.242C165.077 129.932 165.185 130.622 165.291 131.312Z" fill="#9FC4FF"/>
<path d="M167.12 143.281C167.002 143.281 166.898 143.195 166.88 143.074L163.116 117.398C163.096 117.265 163.188 117.142 163.321 117.123C163.454 117.103 163.576 117.195 163.596 117.328L167.36 143.004C167.38 143.136 167.288 143.259 167.155 143.279C167.143 143.281 167.131 143.281 167.12 143.281Z" fill="#404040"/>
<path d="M168.89 123.473C167.023 122.942 165.38 122.286 163.98 121.619L163.648 119.359C164.377 120.048 165.192 120.759 166.094 121.472C167.059 122.233 167.998 122.896 168.89 123.473Z" fill="#404040"/>
<path d="M143.079 102.854L141.152 104.692L140.504 101.079L143.079 102.854Z" fill="#404040"/>
<path d="M145.794 100.871C144.032 103.526 139.916 104.866 137.82 103.12C136.07 101.663 136.219 98.4639 137.538 96.1924C137.699 95.9152 137.877 95.6533 138.07 95.4084C138.084 95.3913 138.096 95.3759 138.109 95.3588C139.756 93.3303 143.161 91.8429 145.332 93.3988C147.493 94.9446 147.262 98.6608 145.794 100.871Z" fill="#F78771"/>
<path d="M141.719 91.9322C140.331 92.5709 139.754 94.8397 140.24 96.5058C140.9 98.7685 143.661 100.404 146.963 100.003C147.237 99.4237 147.947 97.7224 147.367 95.8333C146.566 93.2245 143.56 91.0854 141.719 91.9322Z" fill="#404040"/>
<path d="M139.468 97.4066C139.41 97.6119 139.231 97.7409 139.066 97.695C138.902 97.649 138.816 97.4454 138.873 97.2401C138.931 97.0347 139.11 96.9057 139.275 96.9517C139.439 96.9976 139.525 97.2013 139.468 97.4066Z" fill="#404040"/>
<path d="M137.742 100.022L139.006 99.4688C139.158 99.8155 138.997 100.226 138.651 100.378C138.304 100.529 137.894 100.369 137.742 100.022Z" fill="white"/>
<path d="M140.084 95.6238C139.717 95.5517 139.259 95.7271 139.228 95.9662C139.2 96.1804 139.521 96.3947 139.742 96.4798C140.141 96.6335 140.695 96.5496 140.768 96.3086C140.838 96.0802 140.479 95.7016 140.084 95.6238Z" fill="#404040"/>
<path d="M137.091 97.7641C136.763 97.6535 136.447 97.8585 136.407 98.1065C136.375 98.3011 136.511 98.5281 136.749 98.6201L137.091 97.7641Z" fill="#F78771"/>
<path d="M146.667 99.0044C147.068 99.7003 146.631 100.705 145.69 101.249C144.749 101.792 143.66 101.669 143.259 100.973C142.857 100.277 143.294 99.2723 144.235 98.7286C145.177 98.185 146.265 98.3085 146.667 99.0044Z" fill="#F78771"/>
<path d="M144.364 100.659C144.283 100.659 144.204 100.619 144.158 100.545C144.087 100.432 144.121 100.282 144.235 100.211L145.604 99.3552C145.717 99.2843 145.867 99.3189 145.938 99.4323C146.009 99.546 145.975 99.6955 145.861 99.7665L144.492 100.622C144.452 100.647 144.408 100.659 144.364 100.659Z" fill="#404040"/>
<path d="M142.203 175.908C142.723 175.908 142.724 175.1 142.203 175.1C141.683 175.1 141.682 175.908 142.203 175.908Z" fill="white"/>
<path d="M161.996 159.825C162.516 159.825 162.517 159.017 161.996 159.017C161.476 159.017 161.475 159.825 161.996 159.825Z" fill="white"/>
<path d="M48.3765 101.682H35.6172V114.696H48.3765V101.682Z" fill="white"/>
<path d="M28.0846 166.275C25.7785 166.275 23.9023 164.398 23.9023 162.091C23.9023 159.784 25.7785 157.907 28.0846 157.907C30.3906 157.907 32.2668 159.784 32.2668 162.091C32.2668 164.398 30.3906 166.275 28.0846 166.275ZM28.0846 158.421C26.0615 158.421 24.4157 160.067 24.4157 162.091C24.4157 164.115 26.0615 165.761 28.0846 165.761C30.1076 165.761 31.7534 164.114 31.7534 162.091C31.7535 160.067 30.1076 158.421 28.0846 158.421Z" fill="#404040"/>
<path d="M103.174 57.8557C100.868 57.8557 98.9922 55.9789 98.9922 53.672C98.9922 51.3651 100.868 49.4883 103.174 49.4883C105.48 49.4883 107.356 51.3651 107.356 53.672C107.356 55.9789 105.48 57.8557 103.174 57.8557ZM103.174 50.0019C101.151 50.0019 99.5054 51.6482 99.5054 53.672C99.5054 55.6958 101.151 57.3421 103.174 57.3421C105.197 57.3421 106.843 55.6957 106.843 53.672C106.843 51.6482 105.197 50.0019 103.174 50.0019Z" fill="#404040"/>
<path d="M279.526 113.973C277.22 113.973 275.344 112.096 275.344 109.789C275.344 107.482 277.22 105.605 279.526 105.605C281.832 105.605 283.708 107.482 283.708 109.789C283.708 112.096 281.832 113.973 279.526 113.973ZM279.526 106.119C277.503 106.119 275.857 107.765 275.857 109.789C275.857 111.813 277.503 113.459 279.526 113.459C281.549 113.459 283.195 111.813 283.195 109.789C283.195 107.766 281.549 106.119 279.526 106.119Z" fill="#404040"/>
<path d="M115.38 59.709C115.38 60.239 114.951 60.6689 114.421 60.6689C113.891 60.6689 113.461 60.239 113.461 59.709C113.461 59.1787 113.891 58.749 114.421 58.749C114.951 58.749 115.38 59.1787 115.38 59.709Z" fill="#F78771"/>
<path d="M270.939 91.207C270.939 91.7371 270.509 92.1669 269.979 92.1669C269.449 92.1669 269.02 91.7371 269.02 91.207C269.02 90.6768 269.449 90.2471 269.979 90.2471C270.509 90.2471 270.939 90.6769 270.939 91.207Z" fill="#6397FF"/>
<path d="M19.0051 155.681C19.0051 156.211 18.5754 156.641 18.0455 156.641C17.5156 156.641 17.0859 156.211 17.0859 155.681C17.0859 155.15 17.5156 154.721 18.0455 154.721C18.5756 154.721 19.0051 155.15 19.0051 155.681Z" fill="#F9CA75"/>
<path d="M70.1496 139.856C70.1496 140.386 69.7199 140.816 69.19 140.816C68.6602 140.816 68.2305 140.386 68.2305 139.856C68.2305 139.326 68.6602 138.896 69.19 138.896C69.7199 138.896 70.1496 139.326 70.1496 139.856Z" fill="white"/>
<path d="M107.353 76.3523C94.293 76.3523 83.668 65.7234 83.668 52.659C83.668 39.5946 94.293 28.9658 107.353 28.9658C120.412 28.9658 131.037 39.5946 131.037 52.659C131.037 65.7234 120.412 76.3523 107.353 76.3523ZM107.353 29.4506C94.5601 29.4506 84.1528 39.8618 84.1528 52.6588C84.1528 65.4561 94.5601 75.8672 107.353 75.8672C120.145 75.8672 130.552 65.4561 130.552 52.6588C130.552 39.8619 120.145 29.4506 107.353 29.4506Z" fill="white"/>
<path d="M298.002 216.544H8.56662C8.43281 216.544 8.32422 216.435 8.32422 216.301C8.32422 216.167 8.43281 216.059 8.56662 216.059H298.002C298.136 216.059 298.244 216.167 298.244 216.301C298.244 216.435 298.136 216.544 298.002 216.544Z" fill="#404040"/>
<g clip-path="url(#clip2_4915_12990)">
<path d="M268.133 50.0792V73.5907C268.133 75.3867 269.594 76.847 271.39 76.847H292.088C293.884 76.847 295.344 75.3867 295.344 73.5907V45.4086C295.344 43.6125 293.884 42.1523 292.088 42.1523H276.06L268.133 50.0792Z" fill="#CCE0F1"/>
<path d="M281.404 58.3326C281.404 58.6989 281.699 58.994 282.07 58.994H290.107C290.478 58.994 290.773 58.6989 290.773 58.3326C290.773 57.9611 290.478 57.666 290.107 57.666H282.07C281.699 57.6661 281.404 57.9612 281.404 58.3326Z" fill="#41B3E7"/>
<path d="M284.746 62.6744C284.746 63.0407 285.041 63.3358 285.412 63.3358H290.107C290.478 63.3358 290.773 63.0407 290.773 62.6744C290.773 62.3029 290.478 62.0078 290.107 62.0078H285.412C285.041 62.0079 284.746 62.303 284.746 62.6744Z" fill="#41B3E7"/>
<path d="M282.537 67.0162C282.537 67.3825 282.832 67.6776 283.203 67.6776H290.107C290.478 67.6776 290.773 67.3825 290.773 67.0162C290.773 66.6447 290.478 66.3496 290.107 66.3496H283.203C282.832 66.3497 282.537 66.6448 282.537 67.0162Z" fill="#41B3E7"/>
<path d="M268.132 50.0793H272.802C274.598 50.0793 276.059 48.6191 276.059 46.8231V42.1523L268.132 50.0793Z" fill="#41B3E7"/>
<path opacity="0.1" d="M268.133 57.3651V73.5906C268.133 75.3866 269.593 76.8469 271.389 76.8469H283.377C283.494 76.6179 283.555 76.3534 283.555 76.0786C283.555 75.8038 283.494 75.5393 283.377 75.3002C283.392 75.2544 283.402 75.2035 283.412 75.1526C283.59 74.2164 283.224 73.2853 282.481 72.7358C282.384 71.8505 281.825 71.0517 280.995 70.6548C280.96 70.6396 280.924 70.6244 280.894 70.6091V65.7705C280.929 65.7755 280.96 65.7755 280.995 65.7755C281.698 65.7755 282.359 65.4346 282.766 64.8648C283.107 64.3967 283.244 63.8166 283.153 63.2418C283.061 62.6668 282.746 62.1631 282.272 61.8222L280.227 60.3517V58.2962C280.578 58.0163 280.802 57.5889 280.802 57.1056V56.7341C280.802 55.8895 280.115 55.2027 279.271 55.2027H276.391C275.623 55.2027 274.987 55.7725 274.88 56.5103L273.374 55.4316C272.987 55.1619 272.549 55.0195 272.097 55.0195C271.634 55.0195 271.196 55.162 270.825 55.4316L268.133 57.3651Z" fill="black"/>
<path d="M283.921 46.2125C283.921 46.5788 284.216 46.8739 284.587 46.8739H290.107C290.478 46.8739 290.773 46.5788 290.773 46.2125C290.773 45.841 290.478 45.5459 290.107 45.5459H284.587C284.216 45.546 283.921 45.8411 283.921 46.2125Z" fill="#41B3E7"/>
<path d="M280.552 49.4176C280.552 49.7839 280.847 50.0789 281.218 50.0789H290.107C290.478 50.0789 290.773 49.7839 290.773 49.4176C290.773 49.0461 290.478 48.751 290.107 48.751H281.218C280.847 48.751 280.552 49.0461 280.552 49.4176Z" fill="#41B3E7"/>
<path d="M272.715 53.9908C272.715 54.3571 273.01 54.6522 273.382 54.6522H290.107C290.478 54.6522 290.773 54.3571 290.773 53.9908C290.773 53.6194 290.478 53.3242 290.107 53.3242H273.381C273.01 53.3243 272.715 53.6194 272.715 53.9908Z" fill="#41B3E7"/>
<path d="M277.35 74.4727C277.471 75.0554 277.963 75.5134 278.549 75.6043C279.017 75.6785 279.438 75.537 279.751 75.2709C279.896 75.5875 280.159 75.8435 280.482 75.9816C280.721 76.0861 280.997 76.1231 281.287 76.0725C281.849 75.9715 282.311 75.5167 282.415 74.9543C282.537 74.3177 282.223 73.735 281.721 73.4555C281.567 73.3713 281.476 73.2164 281.479 73.0412V73.0075C281.479 72.3844 281.095 71.8286 280.553 71.5726C280.371 71.485 280.172 71.4346 279.963 71.4245C279.212 71.3907 278.566 71.8826 278.367 72.5663C278.336 72.674 278.256 72.765 278.155 72.8121C277.569 73.0918 277.195 73.7486 277.35 74.4727Z" fill="#3EB655"/>
<path d="M261.836 75.4521C262.048 75.9034 262.533 76.1864 263.028 76.1459C263.264 76.1291 263.469 76.0516 263.641 75.9337C263.759 75.8563 263.86 75.7552 263.944 75.6441C264.055 75.7889 264.197 75.9034 264.359 75.9809C264.652 76.1257 265.005 76.146 265.345 76.0011C265.359 75.9944 265.372 75.991 265.382 75.9809C265.804 75.7855 266.073 75.341 266.049 74.8762C266.026 74.3339 265.659 73.923 265.197 73.7883C265.056 73.7478 264.951 73.6402 264.921 73.4986C264.918 73.4885 264.918 73.4818 264.914 73.4717C264.776 72.8789 264.231 72.4613 263.641 72.4512C263.554 72.4512 263.466 72.4579 263.378 72.4747C262.762 72.5893 262.328 73.1146 262.297 73.7074C262.294 73.8017 262.247 73.8893 262.173 73.95C261.751 74.29 261.573 74.8964 261.836 75.4521Z" fill="#3EB655"/>
<path opacity="0.1" d="M277.352 74.4726C277.473 75.0553 277.965 75.5133 278.551 75.6042C279.019 75.6783 279.44 75.5368 279.753 75.2708C279.898 75.5873 280.161 75.8434 280.484 75.9815H280.555V71.5726C280.373 71.485 280.174 71.4346 279.965 71.4245C279.214 71.3907 278.568 71.8826 278.369 72.5663C278.338 72.674 278.258 72.765 278.157 72.8121C277.571 73.0917 277.197 73.7484 277.352 74.4726Z" fill="black"/>
<path opacity="0.1" d="M263.641 72.4512V75.9809H265.382C265.804 75.7855 266.073 75.341 266.049 74.8762C266.026 74.3339 265.659 73.923 265.197 73.7883C265.056 73.7478 264.951 73.6402 264.921 73.4986C264.918 73.4885 264.918 73.4818 264.914 73.4717C264.776 72.8789 264.231 72.4613 263.641 72.4512Z" fill="black"/>
<path d="M264.318 64.2195V75.3076H279.879V64.2195L272.1 58.6348L264.318 64.2195Z" fill="#FAE5CA"/>
<path opacity="0.1" d="M264.318 64.2195V64.9384L272.1 59.3506L279.879 64.9384V64.2195L272.1 58.6348L264.318 64.2195Z" fill="black"/>
<path d="M262.253 64.2704C262.623 64.79 263.353 64.9136 263.876 64.5365L272.097 58.6322L280.319 64.5365C280.841 64.9136 281.569 64.7925 281.946 64.2704C282.32 63.7484 282.202 63.0209 281.68 62.647L272.778 56.2543C272.37 55.9647 271.825 55.9647 271.421 56.2543C270.112 57.1959 263.852 61.6894 262.519 62.647C261.996 63.0209 261.875 63.7484 262.253 64.2704Z" fill="#F9CA75"/>
<path d="M261.657 76.0789C261.657 76.2914 261.744 76.4834 261.884 76.6231C262.024 76.7599 262.216 76.8472 262.428 76.8472H281.768C282.193 76.8472 282.539 76.5038 282.539 76.0789C282.539 75.8636 282.452 75.6714 282.312 75.5317C282.172 75.392 281.98 75.3076 281.768 75.3076H262.428C262.003 75.3077 261.657 75.6511 261.657 76.0789Z" fill="#F9CA75"/>
<path d="M276.459 57.6152V58.8985L279.211 60.8756V57.6152H276.459Z" fill="#FAE5CA"/>
<path opacity="0.1" d="M279.211 57.6152H276.459V58.3304H279.211V57.6152Z" fill="black"/>
<path d="M275.882 56.7336V57.1041C275.882 57.387 276.111 57.616 276.394 57.616H279.273C279.556 57.616 279.785 57.387 279.785 57.1041V56.7336C279.785 56.4507 279.556 56.2217 279.273 56.2217H276.394C276.111 56.2217 275.882 56.4507 275.882 56.7336Z" fill="#F9CA75"/>
<path d="M267.968 64.2621V70.7793C267.968 71.2651 268.361 71.6576 268.843 71.6576H275.356C275.842 71.6576 276.234 71.2651 276.234 70.7793V64.2621C276.234 63.7802 275.842 63.3877 275.356 63.3877H268.843C268.361 63.3877 267.968 63.7802 267.968 64.2621Z" fill="#36474F"/>
<path d="M275.354 71.269C275.624 71.269 275.844 71.0495 275.844 70.7794V64.2621C275.844 63.9942 275.624 63.7764 275.354 63.7764H268.841C268.573 63.7764 268.355 63.9942 268.355 64.2621V70.7794C268.355 71.0495 268.573 71.269 268.841 71.269H275.354Z" fill="#DF7F19"/>
<path opacity="0.1" d="M268.367 64.1766C268.394 64.1688 268.421 64.165 268.452 64.165H274.965C275.234 64.165 275.455 64.3826 275.455 64.6508V71.168C275.455 71.1991 275.451 71.2302 275.443 71.2574C275.669 71.2185 275.844 71.0164 275.844 70.7793V64.2621C275.844 63.994 275.622 63.7764 275.354 63.7764H268.841C268.604 63.7764 268.402 63.9474 268.367 64.1766Z" fill="black"/>
<path d="M272.281 63.3877H271.819V71.6576H272.281V63.3877Z" fill="#36474F"/>
<path d="M276.234 67.291H267.964V67.7534H276.234V67.291Z" fill="#36474F"/>
</g>
</g>
</g>
<defs>
<linearGradient id="paint0_linear_4915_12990" x1="-119.379" y1="215.55" x2="-119.379" y2="121.258" gradientUnits="userSpaceOnUse">
<stop stop-color="white"/>
<stop offset="1" stop-color="#E6F4FF"/>
</linearGradient>
<linearGradient id="paint1_linear_4915_12990" x1="-41.5902" y1="215.468" x2="-41.5902" y2="121.245" gradientUnits="userSpaceOnUse">
<stop stop-color="white"/>
<stop offset="1" stop-color="#E6F4FF"/>
</linearGradient>
<linearGradient id="paint2_linear_4915_12990" x1="-130.217" y1="215.468" x2="-130.217" y2="121.245" gradientUnits="userSpaceOnUse">
<stop stop-color="white"/>
<stop offset="1" stop-color="#E6F4FF"/>
</linearGradient>
<linearGradient id="paint3_linear_4915_12990" x1="-22.6769" y1="215.468" x2="-22.6769" y2="121.245" gradientUnits="userSpaceOnUse">
<stop stop-color="white"/>
<stop offset="1" stop-color="#E6F4FF"/>
</linearGradient>
<linearGradient id="paint4_linear_4915_12990" x1="-192.238" y1="215.469" x2="-192.238" y2="121.246" gradientUnits="userSpaceOnUse">
<stop stop-color="white"/>
<stop offset="1" stop-color="#E6F4FF"/>
</linearGradient>
<linearGradient id="paint5_linear_4915_12990" x1="89.9626" y1="61.9683" x2="89.9626" y2="36.2999" gradientUnits="userSpaceOnUse">
<stop stop-color="white"/>
<stop offset="1" stop-color="#E6F4FF"/>
</linearGradient>
<linearGradient id="paint6_linear_4915_12990" x1="261.706" y1="189.576" x2="261.706" y2="175.059" gradientUnits="userSpaceOnUse">
<stop stop-color="white"/>
<stop offset="1" stop-color="#E6F4FF"/>
</linearGradient>
<linearGradient id="paint7_linear_4915_12990" x1="200.449" y1="38.9587" x2="200.449" y2="19.0023" gradientUnits="userSpaceOnUse">
<stop stop-color="white"/>
<stop offset="1" stop-color="#E6F4FF"/>
</linearGradient>
<clipPath id="clip0_4915_12990">
<rect width="301" height="232" fill="white" transform="translate(0 0.5)"/>
</clipPath>
<clipPath id="clip1_4915_12990">
<rect width="404" height="269" fill="white" transform="translate(-51 0.5)"/>
</clipPath>
<clipPath id="clip2_4915_12990">
<rect width="35" height="35" fill="white" transform="matrix(-1 0 0 1 296 42)"/>
</clipPath>
</defs>
</svg>
