<svg width="101" height="101" viewBox="0 0 101 101" fill="none" xmlns="http://www.w3.org/2000/svg">
<path fill-rule="evenodd" clip-rule="evenodd" d="M67.5895 85.5817C68.0693 85.5817 68.5222 85.3639 68.822 84.9883C69.1219 84.6143 69.2339 84.1235 69.1282 83.6548C68.9325 82.7916 68.8299 81.8921 68.8299 80.9689C68.8299 74.2697 74.2697 68.8299 80.9704 68.8299C81.8921 68.8299 82.7916 68.9325 83.6548 69.1282C84.1235 69.2339 84.6143 69.1219 84.9883 68.822C85.3639 68.5222 85.5817 68.0693 85.5817 67.5895V18.5793C85.5817 10.9332 79.3828 4.73438 71.7368 4.73438H18.5793C10.9332 4.73438 4.73438 10.9332 4.73438 18.5793V71.7368C4.73438 79.3828 10.9332 85.5817 18.5793 85.5817H67.5895Z" fill="#EDF4FE"/>
<path fill-rule="evenodd" clip-rule="evenodd" d="M67.5894 85.5815C68.0691 85.5815 68.5221 85.3637 68.8219 84.9881C69.1218 84.6141 69.2338 84.1233 69.1281 83.6546C68.9324 82.7914 68.8298 81.8918 68.8298 80.9686C68.8298 74.2695 74.2696 68.8297 80.9703 68.8297C81.2796 68.8297 81.5858 68.8407 81.8904 68.8644C82.5027 68.9102 83.0866 68.5961 83.3864 68.0596C83.6863 67.523 83.6468 66.8602 83.2854 66.3631L73.4316 52.7912C70.8277 49.2041 66.6615 47.0815 62.2285 47.0815C57.794 47.0815 53.6293 49.2041 51.0238 52.7912L36.0174 73.4615C35.6166 74.0154 35.6166 74.7634 36.0174 75.3158L42.9975 84.9313C43.2942 85.34 43.7692 85.5815 44.2742 85.5815H67.5894Z" fill="#00912C"/>
<path fill-rule="evenodd" clip-rule="evenodd" d="M39.2447 69.0176L36.0174 73.4616C35.6166 74.0155 35.6166 74.7635 36.0174 75.3159L42.9975 84.9314C43.2942 85.3401 43.7692 85.5816 44.2742 85.5816H48.7387C49.2532 84.125 49.0291 82.4932 48.1059 81.2212L39.2447 69.0176Z" fill="#008127"/>
<path fill-rule="evenodd" clip-rule="evenodd" d="M5.0358 69.1126C4.84011 69.3824 4.73438 69.7059 4.73438 70.0389V71.737C4.73438 79.383 10.9332 85.5819 18.5793 85.5819H44.2743C44.8677 85.5819 45.4121 85.2489 45.6804 84.7202C45.9503 84.1915 45.9013 83.5571 45.5526 83.0758L31.4284 63.6223C28.8229 60.0352 24.6582 57.9126 20.2252 57.9126C15.7907 57.9126 11.626 60.0352 9.02056 63.6223L5.0358 69.1126Z" fill="#309DA0"/>
<path fill-rule="evenodd" clip-rule="evenodd" d="M76.615 45.1579V42.0017C76.615 41.5661 76.2615 41.2126 75.8259 41.2126C75.3903 41.2126 75.0368 41.5661 75.0368 42.0017V45.1579C75.0368 45.5935 75.3903 45.947 75.8259 45.947C76.2615 45.947 76.615 45.5935 76.615 45.1579ZM76.615 38.8454V35.6892C76.615 35.2536 76.2615 34.9001 75.8259 34.9001C75.3903 34.9001 75.0368 35.2536 75.0368 35.6892V38.8454C75.0368 39.281 75.3903 39.6345 75.8259 39.6345C76.2615 39.6345 76.615 39.281 76.615 38.8454ZM76.615 32.5329V29.3767C76.615 28.9411 76.2615 28.5876 75.8259 28.5876C75.3903 28.5876 75.0368 28.9411 75.0368 29.3767V32.5329C75.0368 32.9685 75.3903 33.322 75.8259 33.322C76.2615 33.322 76.615 32.9685 76.615 32.5329ZM76.615 26.2204V23.252C76.615 23.1841 76.6134 23.1163 76.6134 23.0468C76.6039 22.6128 76.2425 22.2657 75.807 22.2751C75.3714 22.2846 75.0258 22.646 75.0353 23.0815C75.0368 23.1384 75.0368 23.1952 75.0368 23.252V26.2204C75.0368 26.656 75.3903 27.0095 75.8259 27.0095C76.2615 27.0095 76.615 26.656 76.615 26.2204ZM75.9301 19.6933C75.4977 18.6186 74.8759 17.6402 74.1057 16.799C73.8106 16.4787 73.312 16.4566 72.99 16.7517C72.6697 17.0452 72.6476 17.5455 72.9411 17.8658C73.585 18.5681 74.1042 19.384 74.4656 20.282C74.6281 20.686 75.0873 20.8832 75.4913 20.7207C75.8953 20.5581 76.0926 20.0989 75.9301 19.6933ZM71.3803 14.7301C70.3751 14.2204 69.2688 13.8827 68.0978 13.7564C67.6654 13.7106 67.2756 14.0231 67.2299 14.4571C67.1825 14.8895 67.4966 15.2793 67.929 15.3251C68.9058 15.4308 69.829 15.7133 70.6654 16.1378C71.0552 16.3351 71.5302 16.1788 71.7275 15.7906C71.9232 15.4024 71.7685 14.9274 71.3803 14.7301ZM58.547 13.7012H55.3908C54.9552 13.7012 54.6017 14.0547 54.6017 14.4902C54.6017 14.9258 54.9552 15.2793 55.3908 15.2793H58.547C58.9826 15.2793 59.3361 14.9258 59.3361 14.4902C59.3361 14.0547 58.9826 13.7012 58.547 13.7012ZM64.8595 13.7012H61.7033C61.2677 13.7012 60.9142 14.0547 60.9142 14.4902C60.9142 14.9258 61.2677 15.2793 61.7033 15.2793H64.8595C65.2951 15.2793 65.6486 14.9258 65.6486 14.4902C65.6486 14.0547 65.2951 13.7012 64.8595 13.7012ZM52.2345 13.7012H49.0783C48.6427 13.7012 48.2892 14.0547 48.2892 14.4902C48.2892 14.9258 48.6427 15.2793 49.0783 15.2793H52.2345C52.6701 15.2793 53.0236 14.9258 53.0236 14.4902C53.0236 14.0547 52.6701 13.7012 52.2345 13.7012ZM44.7037 14.2078C44.5017 13.9884 44.3691 14.2235 44.3691 14.4902C44.3691 14.9258 44.7226 15.2793 45.1582 15.2793H45.922C46.3576 15.2793 46.7111 14.9258 46.7111 14.4902C46.7111 14.0547 46.3576 13.7012 45.922 13.7012H45.1661C44.77 13.7012 44.6721 13.9268 44.7037 14.2078Z" fill="#309DA0"/>
<path d="M28.1448 37.0244C33.0491 37.0244 37.0249 33.0486 37.0249 28.1443C37.0249 23.2399 33.0491 19.2642 28.1448 19.2642C23.2404 19.2642 19.2646 23.2399 19.2646 28.1443C19.2646 33.0486 23.2404 37.0244 28.1448 37.0244Z" fill="#F8BC38"/>
<path d="M80.9706 96.2654C89.4188 96.2654 96.2674 89.4168 96.2674 80.9686C96.2674 72.5205 89.4188 65.6719 80.9706 65.6719C72.5224 65.6719 65.6738 72.5205 65.6738 80.9686C65.6738 89.4168 72.5224 96.2654 80.9706 96.2654Z" fill="#55A1FF"/>
<path fill-rule="evenodd" clip-rule="evenodd" d="M79.3926 75.4453V86.4922C79.3926 87.3633 80.0996 88.0719 80.9707 88.0703C81.8403 88.0703 82.5488 87.3633 82.5488 86.4922V75.4453C82.5488 74.5758 81.8403 73.8688 80.9707 73.8672C80.0996 73.8672 79.3926 74.5758 79.3926 75.4453Z" fill="#EEF6FF"/>
<path fill-rule="evenodd" clip-rule="evenodd" d="M75.4473 82.5469H86.4926C87.3637 82.5485 88.0707 81.8399 88.0723 80.9703C88.0723 80.0992 87.3637 79.3922 86.4941 79.3906H75.4457C74.5761 79.3922 73.8676 80.0992 73.8691 80.9703C73.8691 81.8399 74.5761 82.5485 75.4473 82.5469Z" fill="#EEF6FF"/>
</svg>
