<svg width="135" height="111" viewBox="0 0 135 111" fill="none" xmlns="http://www.w3.org/2000/svg">
<path d="M65.9663 100.418C88.8955 100.418 107.483 81.5992 107.483 58.3851C107.483 35.171 88.8955 16.3523 65.9663 16.3523C43.037 16.3523 24.4492 35.171 24.4492 58.3851C24.4492 81.5992 43.037 100.418 65.9663 100.418Z" fill="#BEDFE6"/>
<path d="M54.2246 40.7456C65.2635 40.7456 74.2442 31.6533 74.2442 20.4773C74.2442 9.30131 65.2635 0.208923 54.2246 0.208923C43.1857 0.208923 34.2049 9.30131 34.2049 20.4772C34.2049 31.6532 43.1857 40.7456 54.2246 40.7456ZM54.2246 3.46892C63.4875 3.46892 71.0242 11.0992 71.0242 20.4772C71.0242 29.8553 63.4875 37.4856 54.2246 37.4856C44.9616 37.4856 37.4249 29.8554 37.4249 20.4773C37.4249 11.0993 44.9615 3.46892 54.2246 3.46892Z" fill="#0A0A0A"/>
<path d="M48.4598 28.4968C49.8508 28.9729 51.4185 29.5026 53.1098 29.5997V32.4142C53.1098 33.3144 53.8307 34.0442 54.7198 34.0442C55.6089 34.0442 56.3298 33.3144 56.3298 32.4142V29.1488C57.1966 28.8278 57.9675 28.3518 58.5813 27.7368C60.4059 25.9094 60.6308 22.9734 59.1166 20.7544C58.0058 19.126 56.3581 18.5012 54.9045 17.9504C53.7851 17.5262 52.819 17.1593 52.2238 16.4263C51.8535 15.9695 51.7451 15.5253 51.8929 15.0677C52.0965 14.4366 52.7561 13.8771 53.5351 13.6749C55.028 13.2857 57.0648 13.5165 58.8494 14.2774C59.6685 14.6268 60.6126 14.2368 60.9577 13.4066C61.302 12.5773 60.9177 11.6215 60.0977 11.2721C58.8827 10.7554 57.5899 10.4265 56.3297 10.2959V7.43579C56.3297 6.53562 55.6088 5.80579 54.7197 5.80579C53.8306 5.80579 53.1097 6.53562 53.1097 7.43579V10.4397C52.9847 10.466 52.8554 10.4852 52.7339 10.5167C50.8755 10.9999 49.3811 12.3553 48.8323 14.0553C48.3442 15.5683 48.6735 17.1864 49.7356 18.4956C50.8795 19.9051 52.4179 20.4885 53.7756 21.0034C54.932 21.4412 55.9304 21.82 56.4674 22.6072C57.0924 23.5232 57.0294 24.706 56.3172 25.4191C55.6922 26.0447 54.6742 26.3829 53.4981 26.3598C52.1766 26.3272 50.8111 25.86 49.4912 25.4087C48.6445 25.1183 47.7351 25.5783 47.4504 26.4307C47.1658 27.2838 47.6178 28.2087 48.4598 28.4968Z" fill="#309DA0"/>
<path d="M37.5475 44.6049C36.8267 43.8743 35.8676 43.4724 34.848 43.4724C33.8284 43.4724 32.8693 43.8744 32.1484 44.6049L1.62835 75.5049C0.139426 77.0115 0.139426 79.4645 1.62835 80.9711L3.59601 82.9632C4.31689 83.6939 5.27597 84.0958 6.29558 84.0958C7.26979 84.0958 8.18266 83.7197 8.89139 83.0496V107.531H2.80985C1.92073 107.531 1.19985 108.261 1.19985 109.161C1.19985 110.061 1.92073 110.791 2.80985 110.791H25.9945H43.7014H64.6463C65.5355 110.791 66.2563 110.061 66.2563 109.161C66.2563 108.261 65.5355 107.531 64.6463 107.531H60.8045V83.0495C61.5132 83.7196 62.4261 84.0958 63.4003 84.0958C64.4199 84.0958 65.379 83.6938 66.0998 82.9632L68.0691 80.9703C69.5557 79.4637 69.5557 77.0124 68.0683 75.5048L37.5475 44.6049ZM27.6045 107.531V85.3948C27.6045 84.8186 28.0675 84.3498 28.6375 84.3498H41.0584C41.6283 84.3498 42.0914 84.8186 42.0914 85.3948V107.531H27.6045ZM65.7917 78.6662L63.8232 80.6583C63.6707 80.8128 63.493 80.8358 63.4003 80.8358C63.3075 80.8358 63.1299 80.8128 62.9773 80.6583L37.5467 54.9118C36.0601 53.4068 33.6381 53.406 32.1483 54.9126L22.8775 64.2995C22.2486 64.9362 22.2486 65.9677 22.8775 66.6044C23.5063 67.2411 24.5252 67.2411 25.1541 66.6044L34.4249 57.2184C34.6577 56.9812 35.0381 56.982 35.2708 57.2175L57.5845 79.8084V107.531H45.3114V85.3948C45.3114 83.0206 43.4034 81.0898 41.0584 81.0898H28.6375C26.2924 81.0898 24.3845 83.0206 24.3845 85.3948V107.531H12.1114V79.8086L17.1112 74.7472C17.74 74.1105 17.74 73.079 17.1112 72.4423C16.4823 71.8056 15.4634 71.8056 14.8345 72.4423L6.71853 80.6584C6.56598 80.8129 6.38832 80.8359 6.29558 80.8359C6.20285 80.8359 6.02518 80.8129 5.87264 80.6584L3.90497 78.6663C3.67225 78.43 3.67225 78.0463 3.90497 77.8099L34.425 46.9099C34.5776 46.7555 34.7552 46.7324 34.848 46.7324C34.9407 46.7324 35.1184 46.7555 35.2709 46.9099L65.791 77.8091C66.0244 78.0454 66.0244 78.4306 65.7917 78.6662Z" fill="#0A0A0A"/>
<path d="M21.4758 68.8982C21.4357 68.8003 21.3877 68.7031 21.3311 68.6212C21.2745 68.5321 21.2022 68.4422 21.1299 68.3689C20.534 67.7576 19.4476 67.7656 18.8517 68.3689C18.5537 68.6705 18.3847 69.0939 18.3847 69.5261C18.3847 69.9583 18.5537 70.3658 18.8517 70.6754C19.1575 70.9851 19.56 71.1482 19.9947 71.1482C20.0992 71.1482 20.2045 71.1395 20.3091 71.1235C20.4137 71.0988 20.5104 71.0662 20.607 71.0256C20.7029 70.985 20.7997 70.9357 20.8885 70.8792C20.9773 70.8219 21.0575 70.7486 21.1298 70.6754C21.4356 70.3658 21.6046 69.9583 21.6046 69.5261C21.6046 69.4202 21.5889 69.3057 21.5724 69.1998C21.549 69.1019 21.5167 68.996 21.4758 68.8982Z" fill="#0A0A0A"/>
<path d="M32.0988 93.1898C31.2097 93.1898 30.4888 93.9196 30.4888 94.8198V100.574C30.4888 101.474 31.2097 102.204 32.0988 102.204C32.9879 102.204 33.7088 101.474 33.7088 100.574V94.8198C33.7088 93.9196 32.9879 93.1898 32.0988 93.1898Z" fill="#0A0A0A"/>
<path d="M18.1324 85.0883C17.2432 85.0883 16.5224 85.8182 16.5224 86.7183V99.2999C16.5224 100.2 17.2432 100.93 18.1324 100.93C19.0215 100.93 19.7424 100.2 19.7424 99.2999V86.7183C19.7424 85.8182 19.0215 85.0883 18.1324 85.0883Z" fill="#0A0A0A"/>
<path d="M51.3253 100.93C52.2144 100.93 52.9353 100.2 52.9353 99.2999V86.7183C52.9353 85.8182 52.2144 85.0883 51.3253 85.0883C50.4361 85.0883 49.7153 85.8182 49.7153 86.7183V99.2999C49.7153 100.2 50.4361 100.93 51.3253 100.93Z" fill="#0A0A0A"/>
<path d="M126.126 78.8413C126.03 78.8007 125.925 78.7681 125.82 78.7521C125.305 78.6454 124.741 78.8166 124.371 79.2002C124.073 79.5018 123.896 79.9173 123.896 80.3495C123.896 80.7809 124.065 81.1971 124.371 81.498C124.524 81.6532 124.701 81.7757 124.895 81.8569C125.088 81.9381 125.297 81.9795 125.514 81.9795C125.941 81.9795 126.344 81.8083 126.649 81.498C126.955 81.1972 127.116 80.7809 127.116 80.3495C127.116 79.9173 126.947 79.5019 126.649 79.2002C126.577 79.1182 126.488 79.0529 126.4 78.9964C126.311 78.9312 126.223 78.8819 126.126 78.8413Z" fill="#0A0A0A"/>
<path d="M132.893 107.531H127.119V87.4577C127.119 86.5575 126.399 85.8277 125.509 85.8277C124.62 85.8277 123.899 86.5575 123.899 87.4577V107.531H105.103V33.066V18.1469H123.899V72.7232C123.899 73.6234 124.62 74.3532 125.509 74.3532C126.399 74.3532 127.119 73.6234 127.119 72.7232V16.5169C127.119 15.6167 126.399 14.8869 125.509 14.8869H103.493C102.604 14.8869 101.883 15.6167 101.883 16.5169V31.436H81.4774C80.5883 31.436 79.8674 32.1659 79.8674 33.066V47.584H59.461C58.5719 47.584 57.851 48.3139 57.851 49.214V58.0684C57.851 58.9686 58.5719 59.6984 59.461 59.6984C60.3501 59.6984 61.071 58.9686 61.071 58.0684V50.844H79.8674V107.531H71.1028C70.2137 107.531 69.4928 108.261 69.4928 109.161C69.4928 110.061 70.2137 110.791 71.1028 110.791H81.4774H92.4857H98.8062H103.493H125.51H132.893C133.782 110.791 134.503 110.061 134.503 109.161C134.503 108.261 133.782 107.531 132.893 107.531ZM92.4857 107.531H83.0874V49.214V34.696H101.883V107.531H98.8061H92.4857Z" fill="#0A0A0A"/>
</svg>
