<svg width="139" height="122" viewBox="0 0 139 122" fill="none" xmlns="http://www.w3.org/2000/svg">
<path d="M85.6875 75C99.7823 75 111.208 59.33 111.208 40C111.208 20.67 99.7823 5 85.6875 5C71.5928 5 60.1667 20.67 60.1667 40C60.1667 59.33 71.5928 75 85.6875 75Z" fill="#BEDFE6"/>
<path d="M132.272 105.288H128.542V45.1951C130.066 44.7413 131.419 43.8201 132.42 42.5189C134.881 39.3191 134.432 34.7269 131.409 32.074L114.691 17.1927C111.517 14.3674 107.429 12.8117 103.18 12.8117H86.014C84.8997 12.8117 83.9963 13.715 83.9963 14.8293C83.9963 15.9436 84.8997 16.847 86.014 16.847H103.18C106.439 16.847 109.574 18.0404 112.008 20.2071L128.736 35.0981C130.176 36.3615 130.389 38.5406 129.221 40.0592C128.526 40.9634 127.472 41.4815 126.329 41.4815H126.326C126.09 41.4818 100.705 41.4882 87.0989 41.4901C88.7779 38.395 88.142 34.4519 85.4221 32.0603L68.3318 16.8473H77.9433C79.0575 16.8473 79.9609 15.9439 79.9609 14.8296C79.9609 13.7153 79.0575 12.8119 77.9433 12.8119H63.8375C63.8249 12.8119 63.813 12.8135 63.8004 12.8138L53.1697 3.34982C48.0795 -1.11678 40.4026 -1.11652 35.3124 3.35009L2.60852 32.0544C-0.425796 34.7169 -0.874527 39.3092 1.58677 42.5089C2.87513 44.1839 4.82017 45.2629 6.92286 45.4695C7.96048 45.5712 9.00134 45.4563 9.98112 45.1478V105.288H6.63796C3.30018 105.288 0.584927 108.004 0.584927 111.341V115.601C0.584927 118.939 3.30018 121.654 6.63796 121.654H33.8987C35.013 121.654 35.9164 120.75 35.9164 119.636C35.9164 118.522 35.013 117.618 33.8987 117.618H6.63796C5.52528 117.618 4.62028 116.713 4.62028 115.601V111.341C4.62028 110.229 5.52528 109.324 6.63796 109.324H132.272C133.385 109.324 134.29 110.229 134.29 111.341V115.601C134.29 116.713 133.385 117.618 132.272 117.618H41.9694C40.8551 117.618 39.9517 118.522 39.9517 119.636C39.9517 120.75 40.8551 121.654 41.9694 121.654H132.272C135.61 121.654 138.325 118.939 138.325 115.601V111.341C138.325 108.004 135.61 105.288 132.272 105.288ZM124.507 45.5166V105.288H119.037V70.8756C119.037 67.5381 116.322 64.8226 112.984 64.8226H89.4892C86.1514 64.8226 83.4362 67.5381 83.4362 70.8756V105.288H78.0439V45.1475C78.7893 45.3826 79.5703 45.5058 80.3585 45.5058C80.5643 45.5058 80.7707 45.4953 80.9768 45.4787C81.1156 45.5085 123.421 45.5169 124.507 45.5166ZM87.4715 82.3465H115.002V91.7997H87.4715V82.3465ZM115.002 78.3111H87.4715V70.8756C87.4715 69.7632 88.3765 68.8579 89.4892 68.8579H112.984C114.097 68.8579 115.002 69.7632 115.002 70.8756V78.3111ZM87.4715 95.8351H115.002V105.288H87.4715V95.8351ZM14.0162 42.4812L43.077 17.0539C43.7401 16.4728 44.7414 16.4725 45.3943 17.0445L74.0082 42.4643V83.2063H63.0797V74.4929C63.0797 69.8035 59.2647 65.9888 54.5756 65.9888H33.1139C28.4246 65.9888 24.6098 69.8038 24.6098 74.4929V83.2063H14.0162V42.4812ZM28.6449 74.4926C28.6449 72.0286 30.6497 70.0239 33.1137 70.0239H54.5756C57.0398 70.0239 59.0443 72.0286 59.0443 74.4926V105.288H28.6446L28.6449 74.4926ZM63.08 87.2411H74.0085V105.288H63.08V87.2411ZM7.31725 41.4533C6.30464 41.3537 5.40529 40.855 4.78519 40.0484C3.61709 38.5301 3.83016 36.351 5.27024 35.0874L37.9741 6.38306C41.547 3.24813 46.9356 3.24813 50.4972 6.37364L82.744 35.0782C82.7475 35.0814 82.7513 35.0847 82.7547 35.0876C84.1946 36.351 84.4076 38.5303 83.2395 40.0487C82.6192 40.8552 81.7198 41.354 80.7072 41.4535C79.6943 41.5528 78.7153 41.2386 77.9607 40.5776L48.0639 14.018C46.974 13.0635 45.6074 12.5862 44.241 12.5862C42.8747 12.5862 41.5083 13.0632 40.4193 14.0171L10.0745 40.5679C9.3091 41.2383 8.32958 41.5525 7.31725 41.4533ZM14.0162 87.2411H24.6096V105.288H14.0162V87.2411Z" fill="#0A0A0A"/>
<path d="M44.0124 59.9107C51.8103 59.9107 58.1544 53.5665 58.1544 45.7686C58.1544 37.9707 51.8103 31.6266 44.0124 31.6266C36.2145 31.6266 29.8706 37.9707 29.8706 45.7686C29.8703 53.5668 36.2145 59.9107 44.0124 59.9107ZM54.1191 45.7689C54.1191 50.6509 50.6395 54.7352 46.0301 55.6727V35.8648C50.6392 36.8026 54.1191 40.8867 54.1191 45.7689ZM41.9947 35.8648V55.6725C37.3855 54.7349 33.906 50.6506 33.906 45.7686C33.9057 40.8867 37.3852 36.8026 41.9947 35.8648Z" fill="#309DA0"/>
<path d="M43.8447 74.597C39.5675 74.597 36.088 78.0768 36.088 82.3537C36.088 86.6309 39.5678 90.1105 43.8447 90.1105C48.1217 90.1105 51.6015 86.6307 51.6015 82.3537C51.6015 78.0768 48.1219 74.597 43.8447 74.597ZM43.8447 86.0754C41.7926 86.0754 40.1233 84.4059 40.1233 82.354C40.1233 80.3019 41.7929 78.6326 43.8447 78.6326C45.8966 78.6326 47.5661 80.3022 47.5661 82.354C47.5661 84.4059 45.8968 86.0754 43.8447 86.0754Z" fill="#309DA0"/>
</svg>
