<svg width="125" height="125" viewBox="0 0 125 125" fill="none" xmlns="http://www.w3.org/2000/svg">
<g clip-path="url(#clip0_503_7072)">
<path d="M76.6875 74C90.7823 74 102.208 58.33 102.208 39C102.208 19.67 90.7823 4 76.6875 4C62.5928 4 51.1667 19.67 51.1667 39C51.1667 58.33 62.5928 74 76.6875 74Z" fill="#BEDFE6"/>
<path d="M51.5137 88.3789H73.4863C74.4978 88.3789 75.3174 87.5593 75.3174 86.5479V57.4951C75.3174 49.8181 70.4094 42.9424 63.105 40.386C62.7134 40.249 62.2866 40.249 61.8953 40.386C54.5906 42.9424 49.6829 49.8181 49.6829 57.4951V86.5479C49.6826 87.5593 50.5022 88.3789 51.5137 88.3789ZM53.3447 59.3262H57.0068V84.7168H53.3447V59.3262ZM64.3311 59.3262V84.7168H60.6689V59.3262H64.3311ZM67.9932 84.7168V59.3262H71.6553V84.7168H67.9932ZM62.5 44.0693C67.427 46.0395 70.8686 50.5085 71.5352 55.6641H53.4648C54.1313 50.5085 57.573 46.0395 62.5 44.0693Z" fill="#309DA0"/>
<path d="M117.676 46.2646V40.5872C121.85 39.7366 125 36.0376 125 31.6162V16.9678C125 15.9563 124.18 15.1367 123.169 15.1367C122.157 15.1367 121.338 15.9563 121.338 16.9678V31.6162C121.338 34.0032 119.807 36.0386 117.676 36.7944V9.64355C117.676 8.63208 116.856 7.8125 115.845 7.8125C114.833 7.8125 114.014 8.63208 114.014 9.64355V46.2646C114.014 48.6516 112.483 50.687 110.352 51.4429V1.83105C110.352 0.81958 109.532 0 108.521 0C107.509 0 106.689 0.81958 106.689 1.83105V44.1187C104.558 43.3628 103.027 41.3274 103.027 38.9404V9.64355C103.027 8.63208 102.208 7.8125 101.196 7.8125C100.185 7.8125 99.3652 8.63208 99.3652 9.64355V33.1323C97.2341 32.3765 95.7031 30.3411 95.7031 27.9541V16.9678C95.7031 15.9563 94.8835 15.1367 93.8721 15.1367C92.8606 15.1367 92.041 15.9563 92.041 16.9678V27.9541C92.041 32.3755 95.1914 36.0745 99.3652 36.925V38.9404C99.3652 43.3618 102.516 47.0608 106.689 47.9114V82.5708C104.558 81.8149 103.027 79.7795 103.027 77.3926V62.7441C103.027 61.7327 102.208 60.9131 101.196 60.9131C100.185 60.9131 99.3652 61.7327 99.3652 62.7441V77.3926C99.3652 81.814 102.516 85.5129 106.689 86.3635V99.3652H93.6279V63.4587C93.6279 61.0132 92.6758 58.7139 90.9465 56.9846L82.6416 48.6799V34.79C82.6416 31.7612 80.1772 29.2969 77.1484 29.2969H47.8516C44.8228 29.2969 42.3584 31.7612 42.3584 34.79V41.3557L34.0535 49.6606C32.3242 51.3899 31.3721 53.6892 31.3721 56.1348V99.3652H18.3105V86.3635C22.4844 85.5129 25.6348 81.814 25.6348 77.3926V62.7441C25.6348 61.7327 24.8152 60.9131 23.8037 60.9131C22.7922 60.9131 21.9727 61.7327 21.9727 62.7441V77.3926C21.9727 79.7795 20.4417 81.8149 18.3105 82.5708V47.9114C22.4844 47.0608 25.6348 43.3618 25.6348 38.9404V36.925C29.8086 36.0745 32.959 32.3755 32.959 27.9541V16.9678C32.959 15.9563 32.1394 15.1367 31.1279 15.1367C30.1165 15.1367 29.2969 15.9563 29.2969 16.9678V27.9541C29.2969 30.3411 27.7659 32.3765 25.6348 33.1323V9.64355C25.6348 8.63208 24.8152 7.8125 23.8037 7.8125C22.7922 7.8125 21.9727 8.63208 21.9727 9.64355V38.9404C21.9727 41.3274 20.4417 43.3628 18.3105 44.1187V1.83105C18.3105 0.81958 17.491 0 16.4795 0C15.468 0 14.6484 0.81958 14.6484 1.83105V51.4429C12.5173 50.687 10.9863 48.6516 10.9863 46.2646V9.64355C10.9863 8.63208 10.1667 7.8125 9.15527 7.8125C8.1438 7.8125 7.32422 8.63208 7.32422 9.64355V36.7944C5.19312 36.0386 3.66211 34.0032 3.66211 31.6162V16.9678C3.66211 15.9563 2.84253 15.1367 1.83105 15.1367C0.81958 15.1367 0 15.9563 0 16.9678V31.6162C0 36.0376 3.15039 39.7366 7.32422 40.5872V46.2646C7.32422 50.686 10.4746 54.385 14.6484 55.2356V75.2463C12.5173 74.4905 10.9863 72.4551 10.9863 70.0681V59.0818C10.9863 58.0703 10.1667 57.2507 9.15527 57.2507C8.1438 57.2507 7.32422 58.0706 7.32422 59.082V70.0684C7.32422 74.4897 10.4746 78.1887 14.6484 79.0393V99.3652H10.9863V82.8857C10.9863 81.8743 10.1667 81.0547 9.15527 81.0547C8.1438 81.0547 7.32422 81.8743 7.32422 82.8857V99.3652H1.83105C0.81958 99.3652 0 100.185 0 101.196V123.169C0 124.18 0.81958 125 1.83105 125H123.169C124.18 125 125 124.18 125 123.169V101.196C125 100.185 124.18 99.3652 123.169 99.3652H117.676V82.8857C117.676 81.8743 116.856 81.0547 115.845 81.0547C114.833 81.0547 114.014 81.8743 114.014 82.8857V99.3652H110.352V79.0393C114.525 78.1887 117.676 74.4897 117.676 70.0684V59.082C117.676 58.0706 116.856 57.251 115.845 57.251C114.833 57.251 114.014 58.0706 114.014 59.082V70.0684C114.014 72.4553 112.483 74.4907 110.352 75.2466V55.2358C114.525 54.385 117.676 50.686 117.676 46.2646ZM88.3567 59.5745C89.3943 60.6118 89.9658 61.9915 89.9658 63.4587V99.3652H82.6416V53.8591L88.3567 59.5745ZM35.0342 56.1345C35.0342 54.6672 35.6057 53.2876 36.6433 52.2502L42.3584 46.5352V55.106C42.3584 56.1174 43.178 56.937 44.1895 56.937C45.2009 56.937 46.0205 56.1174 46.0205 55.106V34.79C46.0205 33.7803 46.8418 32.959 47.8516 32.959H77.1484C78.1582 32.959 78.9795 33.7803 78.9795 34.79V99.3652H46.0205V61.1572C46.0205 60.1458 45.2009 59.3262 44.1895 59.3262C43.178 59.3262 42.3584 60.1458 42.3584 61.1572V99.3652H35.0342V56.1345ZM121.338 121.338H3.66211V103.027H43.9626C44.0371 103.037 44.1125 103.043 44.1895 103.043C44.2664 103.043 44.3418 103.036 44.4163 103.027H121.338V121.338Z" fill="#0A0A0A"/>
<path d="M55.1758 106.769C54.1643 106.769 53.3447 107.589 53.3447 108.6V112.262C53.3447 113.274 54.1643 114.093 55.1758 114.093C56.1873 114.093 57.0068 113.274 57.0068 112.262V108.6C57.0068 107.589 56.1873 106.769 55.1758 106.769Z" fill="#309DA0"/>
<path d="M9.15527 110.352C8.1438 110.352 7.32422 111.171 7.32422 112.183V115.845C7.32422 116.856 8.1438 117.676 9.15527 117.676C10.1667 117.676 10.9863 116.856 10.9863 115.845V112.183C10.9863 111.171 10.1667 110.352 9.15527 110.352Z" fill="#309DA0"/>
<path d="M16.4795 110.352C15.468 110.352 14.6484 111.171 14.6484 112.183V115.845C14.6484 116.856 15.468 117.676 16.4795 117.676C17.491 117.676 18.3105 116.856 18.3105 115.845V112.183C18.3105 111.171 17.491 110.352 16.4795 110.352Z" fill="#309DA0"/>
<path d="M47.8516 110.431C46.8401 110.431 46.0205 111.251 46.0205 112.262V115.924C46.0205 116.936 46.8401 117.755 47.8516 117.755C48.863 117.755 49.6826 116.936 49.6826 115.924V112.262C49.6826 111.251 48.863 110.431 47.8516 110.431Z" fill="#309DA0"/>
<path d="M40.5273 106.769C39.5159 106.769 38.6963 107.589 38.6963 108.6V112.262C38.6963 113.274 39.5159 114.093 40.5273 114.093C41.5388 114.093 42.3584 113.274 42.3584 112.262V108.6C42.3584 107.589 41.5388 106.769 40.5273 106.769Z" fill="#309DA0"/>
<path d="M114.014 108.521V112.183C114.014 113.194 114.833 114.014 115.845 114.014C116.856 114.014 117.676 113.194 117.676 112.183V108.521C117.676 107.509 116.856 106.689 115.845 106.689C114.833 106.689 114.014 107.509 114.014 108.521Z" fill="#309DA0"/>
<path d="M108.521 110.352C107.509 110.352 106.689 111.171 106.689 112.183V115.845C106.689 116.856 107.509 117.676 108.521 117.676C109.532 117.676 110.352 116.856 110.352 115.845V112.183C110.352 111.171 109.532 110.352 108.521 110.352Z" fill="#309DA0"/>
</g>
<defs>
<clipPath id="clip0_503_7072">
<rect width="125" height="125" fill="white"/>
</clipPath>
</defs>
</svg>
