<svg width="130" height="130" viewBox="0 0 130 130" fill="none" xmlns="http://www.w3.org/2000/svg">
<g clip-path="url(#clip0_581_6011)">
<path d="M97.5 130H67.7087C66.213 130 65 128.787 65 127.292V73.1252C65 71.6295 66.213 70.4165 67.7087 70.4165H83.9587V75.8338H70.4163V124.584H97.5V130Z" fill="#455D76"/>
<path d="M105.625 97.5C94.8241 97.506 85.3085 90.3986 82.2488 80.039C79.189 69.6805 83.316 58.5443 92.3872 52.6796C87.5868 45.9372 88.6222 36.6637 94.7904 31.1452C100.959 25.6267 110.291 25.6267 116.46 31.1452C122.628 36.6637 123.663 45.9372 118.863 52.6796C127.934 58.5443 132.061 69.6805 129.001 80.039C125.941 90.3986 116.426 97.506 105.625 97.5ZM105.625 32.5C99.6423 32.5 94.7914 37.3501 94.7914 43.3337C94.7914 46.4242 96.1293 49.364 98.4611 51.3932C99.1454 52.0022 99.4757 52.9157 99.3389 53.8202C99.203 54.7258 98.6178 55.5014 97.7847 55.8812C89.6587 59.5718 85.2074 68.4308 87.0958 77.1528C88.9842 85.8759 96.7006 92.1006 105.625 92.1006C114.549 92.1006 122.266 85.8759 124.154 77.1528C126.043 68.4308 121.591 59.5718 113.465 55.8812C112.632 55.5014 112.047 54.7258 111.911 53.8202C111.774 52.9157 112.105 52.0022 112.789 51.3932C115.121 49.364 116.459 46.4242 116.459 43.3337C116.459 37.3501 111.608 32.5 105.625 32.5Z" fill="#309DA0"/>
<path d="M55.2504 34.6673L35.2087 19.6353L15.1669 34.6673L11.9167 30.333L33.5831 14.083C34.5461 13.361 35.8702 13.361 36.8333 14.083L58.4996 30.333L55.2504 34.6673Z" fill="#455D76"/>
<path d="M59.5837 46.0413H54.1664V20.3125L35.2087 6.09375L16.25 20.3125V46.0413H10.8337V18.9587C10.8337 18.1057 11.2344 17.3033 11.9167 16.7915L33.5831 0.541534C34.5461 -0.180511 35.8702 -0.180511 36.8333 0.541534L58.4996 16.7915C59.182 17.3033 59.5837 18.1057 59.5837 18.9587V46.0413Z" fill="#309DA0"/>
<path d="M67.7087 130H2.70866C1.213 130 0 128.787 0 127.291V46.0412C0 44.5455 1.213 43.3335 2.70866 43.3335H67.7087C69.2043 43.3335 70.4163 44.5455 70.4163 46.0412V127.291C70.4163 128.787 69.2043 130 67.7087 130ZM5.41634 124.583H65V48.7498H5.41634V124.583Z" fill="#0A0A0A"/>
<path d="M108.334 127.291H102.916V78.5412C102.916 77.8231 103.202 77.1348 103.71 76.627L111.835 68.502L115.665 72.3314L108.334 79.6629V127.291Z" fill="#455D76"/>
<path d="M95.5858 72.3324L99.4152 68.502L107.541 76.6279L103.711 80.4574L95.5858 72.3324Z" fill="#455D76"/>
<path d="M27.0836 73.125H16.25C14.7543 73.125 13.5413 71.912 13.5413 70.4163V59.5837C13.5413 58.088 14.7543 56.875 16.25 56.875H27.0836C28.5793 56.875 29.7913 58.088 29.7913 59.5837V70.4163C29.7913 71.912 28.5793 73.125 27.0836 73.125ZM18.9586 67.7087H24.375V62.2913H18.9586V67.7087Z" fill="#455D76"/>
<path d="M10.8337 67.7085H32.5V73.1248H10.8337V67.7085Z" fill="#309DA0"/>
<path d="M54.1663 73.125H43.3337C41.838 73.125 40.625 71.912 40.625 70.4163V59.5837C40.625 58.088 41.838 56.875 43.3337 56.875H54.1663C55.662 56.875 56.875 58.088 56.875 59.5837V70.4163C56.875 71.912 55.662 73.125 54.1663 73.125ZM46.0413 67.7087H51.4587V62.2913H46.0413V67.7087Z" fill="#455D76"/>
<path d="M37.9163 67.7085H59.5836V73.1248H37.9163V67.7085Z" fill="#309DA0"/>
<path d="M27.0836 94.7915H16.25C14.7543 94.7915 13.5413 93.5795 13.5413 92.0838V81.2502C13.5413 79.7545 14.7543 78.5415 16.25 78.5415H27.0836C28.5793 78.5415 29.7913 79.7545 29.7913 81.2502V92.0838C29.7913 93.5795 28.5793 94.7915 27.0836 94.7915ZM18.9586 89.3752H24.375V83.9588H18.9586V89.3752Z" fill="#455D76"/>
<path d="M10.8337 89.375H32.5V94.7913H10.8337V89.375Z" fill="#309DA0"/>
<path d="M54.1663 94.7915H43.3337C41.838 94.7915 40.625 93.5795 40.625 92.0838V81.2502C40.625 79.7545 41.838 78.5415 43.3337 78.5415H54.1663C55.662 78.5415 56.875 79.7545 56.875 81.2502V92.0838C56.875 93.5795 55.662 94.7915 54.1663 94.7915ZM46.0413 89.3752H51.4587V83.9588H46.0413V89.3752Z" fill="#455D76"/>
<path d="M37.9163 89.375H59.5836V94.7913H37.9163V89.375Z" fill="#309DA0"/>
<path d="M27.0836 116.458H16.25C14.7543 116.458 13.5413 115.245 13.5413 113.75V102.916C13.5413 101.421 14.7543 100.208 16.25 100.208H27.0836C28.5793 100.208 29.7913 101.421 29.7913 102.916V113.75C29.7913 115.245 28.5793 116.458 27.0836 116.458ZM18.9586 111.041H24.375V105.625H18.9586V111.041Z" fill="#455D76"/>
<path d="M10.8337 111.042H32.5V116.459H10.8337V111.042Z" fill="#309DA0"/>
<path d="M54.1663 116.458H43.3337C41.838 116.458 40.625 115.245 40.625 113.75V102.916C40.625 101.421 41.838 100.208 43.3337 100.208H54.1663C55.662 100.208 56.875 101.421 56.875 102.916V113.75C56.875 115.245 55.662 116.458 54.1663 116.458ZM46.0413 111.041H51.4587V105.625H46.0413V111.041Z" fill="#455D76"/>
<path d="M37.9163 111.042H59.5836V116.459H37.9163V111.042Z" fill="#309DA0"/>
<path d="M127.291 130H113.75V124.584H124.584V94.7915H130V127.292C130 128.787 128.787 130 127.291 130Z" fill="#0A0A0A"/>
<path d="M27.0837 32.5H43.3337V37.9163H27.0837V32.5Z" fill="#455D76"/>
</g>
<defs>
<clipPath id="clip0_581_6011">
<rect width="130" height="130" fill="white"/>
</clipPath>
</defs>
</svg>
