<svg width="143" height="142" viewBox="0 0 143 142" fill="none" xmlns="http://www.w3.org/2000/svg">
<circle cx="71.4999" cy="70.3652" r="19.2936" fill="#BEDFE6"/>
<path d="M0 137.041H143V141.041H0V137.041Z" fill="#0A0A0A"/>
<path d="M2.97913 116.187H11.9168V120.187H2.97913V116.187Z" fill="#0A0A0A"/>
<path d="M20.8541 116.187H29.7918V120.187H20.8541V116.187Z" fill="#0A0A0A"/>
<path d="M38.729 116.187H47.6666V120.187H38.729V116.187Z" fill="#0A0A0A"/>
<path d="M56.604 116.187H65.5416V120.187H56.604V116.187Z" fill="#0A0A0A"/>
<path d="M74.4792 116.187H83.4169V120.187H74.4792V116.187Z" fill="#0A0A0A"/>
<path d="M92.3542 116.187H101.292V120.187H92.3542V116.187Z" fill="#0A0A0A"/>
<path d="M110.229 116.187H119.167V120.187H110.229V116.187Z" fill="#0A0A0A"/>
<path d="M128.104 116.187H137.042V120.187H128.104V116.187Z" fill="#0A0A0A"/>
<path d="M98.3125 38.7291H116.187V42.7291H98.3125V38.7291Z" fill="#0A0A0A"/>
<path d="M26.8126 38.7291H44.6876V42.7291H26.8126V38.7291Z" fill="#0A0A0A"/>
<path d="M17.011 101.292H0V96.9999H14L28 57.4999H20.8541V53.6249H34.0221L17.011 101.292Z" fill="#0A0A0A"/>
<path d="M110.944 101.292H32.0559L42.2743 53.6249H53.6249V56.4999H45.5002L37.0002 97.9999H106L102 75.9999L98.0002 56.4999H89.3748V53.6249H100.725L110.944 101.292Z" fill="#0A0A0A"/>
<path d="M143 101.292H125.989L108.978 53.6249H122.146V56.9999H113.5L128.5 96.9999H143V101.292Z" fill="#0A0A0A"/>
<path d="M71.4998 70.2787L69.1761 67.4186C68.3122 66.3164 47.6666 40.5465 47.6666 23.3864C47.6666 10.4867 58.3619 6.10352e-05 71.4998 6.10352e-05C84.6378 6.10352e-05 95.333 10.4867 95.333 23.3864C95.333 40.5762 74.6875 66.3458 73.8235 67.4186L71.4998 70.2787ZM71.4998 5.95828C61.6388 5.95828 53.6248 13.7636 53.6248 23.3864C53.6248 35.3329 66.197 53.5056 71.4998 60.6556C76.8026 53.5056 89.3748 35.3326 89.3748 23.3864C89.3748 13.7639 81.3609 5.95828 71.4998 5.95828Z" fill="#309DA0"/>
<path d="M71.4998 32.7709C66.5843 32.7709 62.5621 28.7491 62.5621 23.8333C62.5621 18.9175 66.584 14.8956 71.4998 14.8956C76.4156 14.8956 80.4374 18.9175 80.4374 23.8333C80.4374 28.7491 76.4156 32.7709 71.4998 32.7709ZM71.4998 18.5C68.4994 18.5 66.0001 20.5 66.0001 23.8333C66.0001 27.1665 67.4994 29.5 71.4998 29.5C75.5001 29.5 77.0001 27.6665 77.0001 23.8333C77.0001 20 74.5001 18.5 71.4998 18.5Z" fill="#0A0A0A"/>
</svg>
