<svg width="137" height="129" viewBox="0 0 137 129" fill="none" xmlns="http://www.w3.org/2000/svg">
<path d="M95.5 128.311C118.42 128.311 137 110.036 137 87.4918C137 64.9477 118.42 46.6721 95.5 46.6721C72.5802 46.6721 54 64.9477 54 87.4918C54 110.036 72.5802 128.311 95.5 128.311Z" fill="#BEDFE6"/>
<path d="M77.3856 46.1696C76.3825 46.1696 75.5692 46.9696 75.5692 47.9562V66.8621C75.5692 67.7326 76.2069 68.476 77.0788 68.623C77.2071 68.6447 77.3302 68.6654 79.4471 68.6654C80.4691 68.6654 81.9559 68.6607 84.132 68.6487C85.1351 68.6433 85.9438 67.8388 85.9382 66.8521C85.9327 65.8688 85.1206 65.0755 84.1221 65.0755C84.1184 65.0755 84.1153 65.0755 84.1116 65.0755C82.3848 65.085 80.5229 65.0914 79.2134 65.0914C79.2095 65.0914 79.2057 65.0914 79.2018 65.0914V47.9562C79.202 46.9696 78.389 46.1696 77.3856 46.1696Z" fill="#309DA0"/>
<path d="M88.5193 67.8662C88.8593 68.1985 89.3195 68.3848 89.7988 68.3848H89.8055C89.9652 68.3843 93.7319 68.37 95.2344 68.3441C100.547 68.2528 104.403 63.6574 104.403 57.417C104.403 50.857 100.644 46.4493 95.0479 46.4493H89.7607C89.2786 46.4493 88.816 46.6379 88.475 46.9738C88.1345 47.3097 87.9434 47.765 87.9443 48.2392C87.9443 48.2395 87.9579 55.3031 87.9579 57.3968C87.9579 59.9209 87.9821 66.5379 87.9824 66.6046C87.9841 67.0787 88.1773 67.5325 88.5193 67.8662ZM100.771 57.4173C100.771 60.9129 99.0184 64.7055 95.1712 64.7715C94.4023 64.7846 92.9884 64.7951 91.8029 64.8018V50.0228H95.0482C99.2673 50.0228 100.771 53.8426 100.771 57.4173Z" fill="#309DA0"/>
<path d="M73.2953 57.4173C73.2953 51.2153 68.1655 46.1696 61.8604 46.1696C55.5551 46.1696 50.4253 51.2153 50.4253 57.4173C50.4253 63.6193 55.5551 68.6647 61.8604 68.6647C68.1658 68.6647 73.2953 63.619 73.2953 57.4173ZM54.0583 57.4173C54.0583 53.1856 57.5584 49.7429 61.8607 49.7429C66.1629 49.7429 69.6627 53.1856 69.6627 57.4173C69.6627 61.649 66.1629 65.0914 61.8607 65.0914C57.5584 65.0914 54.0583 61.6487 54.0583 57.4173Z" fill="#309DA0"/>
<path d="M41.7194 65.0914C39.6555 65.0914 37.663 64.2713 36.3826 62.8963C35.7318 62.1973 34.6127 62.0887 33.867 62.689C33.0566 63.3415 32.975 64.519 33.6696 65.273C35.6262 67.3969 38.6357 68.6647 41.7194 68.6647C45.4273 68.6647 48.6583 66.2687 49.235 63.0911C49.6721 60.6835 48.5312 57.5273 44.0183 55.8901C41.8592 55.1066 39.8364 54.2604 38.9725 53.8919C38.7158 53.7823 38.4787 53.6249 38.3065 53.4078C37.989 53.0076 37.8512 52.4952 37.9307 51.9519C38.0656 51.0276 38.7919 50.2846 39.8732 49.9639C42.9047 49.0659 45.653 51.2289 45.71 51.2746C46.4779 51.903 47.6186 51.8039 48.2621 51.0509C48.9076 50.2955 48.8085 49.1685 48.0405 48.5337C47.8688 48.3919 43.7785 45.075 38.8253 46.5427C36.3911 47.264 34.6703 49.1421 34.3344 51.4442C34.1351 52.8111 34.4553 54.2254 35.2579 55.3622C36.2126 56.7141 37.6747 57.2503 39.1566 57.8511C39.9817 58.1858 42.3871 59.1069 42.7606 59.2425C44.8369 59.9957 45.8933 61.1697 45.6584 62.4632C45.4244 63.7553 43.8868 65.0914 41.7194 65.0914Z" fill="#309DA0"/>
<path d="M118.551 107.918H104.397L104.376 104.305C104.376 101.788 106.459 99.7394 109.018 99.7394C110.021 99.7394 110.834 98.9395 110.834 97.9528C110.834 96.9661 110.021 96.1662 109.018 96.1662C107.299 96.1662 105.701 96.685 104.376 97.5712V91.918C104.376 90.9313 103.563 90.1314 102.56 90.1314C101.556 90.1314 100.743 90.9313 100.743 91.918V97.5714C99.4187 96.6852 97.8205 96.1664 96.1015 96.1664C95.0983 96.1664 94.285 96.9663 94.285 97.953C94.285 98.9397 95.0983 99.7397 96.1015 99.7397C98.6609 99.7397 100.743 101.788 100.743 104.316V107.918H89.7373V107.078V97.0002C89.7373 96.0135 88.9242 95.2135 87.9208 95.2135C86.9177 95.2135 86.1044 96.0135 86.1044 97.0002V101.004C85.086 100.444 83.9141 100.123 82.6668 100.123C81.6634 100.123 80.8504 100.923 80.8504 101.91C80.8504 102.897 81.6634 103.696 82.6668 103.696C84.5624 103.696 86.1044 105.213 86.1044 107.078V107.918H27.6094V82.8384C28.1778 83.0368 28.7891 83.1457 29.4258 83.1457H49.9982C51.0015 83.1457 51.8146 82.3458 51.8146 81.3591C51.8146 80.3724 51.0015 79.5724 49.9982 79.5724H29.4258C28.4241 79.5724 27.6094 78.7708 27.6094 77.7858V37.0488C27.6094 36.0637 28.4241 35.2621 29.4258 35.2621H108.177C109.179 35.2621 109.993 36.0637 109.993 37.0488V77.7858C109.993 78.7708 109.179 79.5724 108.177 79.5724H57.2638C56.2604 79.5724 55.4474 80.3724 55.4474 81.3591C55.4474 82.3458 56.2604 83.1457 57.2638 83.1457H108.177C111.181 83.1457 113.626 80.7411 113.626 77.7858V37.0488C113.626 34.0934 111.181 31.6889 108.177 31.6889H102.945V24.4335H113.344C116.348 24.4335 118.793 22.0289 118.793 19.0736V16.0563C118.793 13.1008 116.348 10.6964 113.344 10.6964H102.945V9.49488C102.945 8.50819 102.132 7.70825 101.128 7.70825C100.125 7.70825 99.3119 8.50819 99.3119 9.49488V10.6964H79.0444C78.0411 10.6964 77.228 11.4964 77.228 12.4831C77.228 13.4698 78.0411 14.2697 79.0444 14.2697H99.3119V20.8602H38.2906V14.2697H71.7788C72.7822 14.2697 73.5952 13.4698 73.5952 12.4831C73.5952 11.4964 72.7822 10.6964 71.7788 10.6964H38.2906V9.49488C38.2906 8.50819 37.4775 7.70825 36.4742 7.70825C35.4708 7.70825 34.6578 8.50819 34.6578 9.49488V10.6964H27.6094V5.80251C27.6094 2.84719 25.1647 0.442627 22.1602 0.442627H19.0924C16.0875 0.442627 13.6431 2.84719 13.6431 5.80251V10.6964H10.6565C7.65167 10.6964 5.20727 13.1008 5.20727 16.0563V19.0736C5.20727 22.0289 7.65167 24.4335 10.6565 24.4335H13.6431V107.918H5.44922C2.4444 107.918 0 110.323 0 113.278V117.05C0 120.005 2.44464 122.41 5.44922 122.41H118.551C121.555 122.41 124 120.005 124 117.05V113.278C124 110.323 121.555 107.918 118.551 107.918ZM27.6094 31.9962V24.4335H34.658V31.6886H29.4258C28.7891 31.6889 28.1778 31.7977 27.6094 31.9962ZM102.945 14.2697H113.344C114.345 14.2697 115.16 15.0711 115.16 16.0563V19.0736C115.16 20.0586 114.345 20.8602 113.344 20.8602H102.945V14.2697ZM99.3119 24.4335V31.6886H38.2906V24.4335H99.3119ZM34.6578 14.2697V20.8602H27.6094V14.2697H34.6578ZM10.6565 20.8602C9.6548 20.8602 8.84009 20.0586 8.84009 19.0736V16.0563C8.84009 15.0711 9.6548 14.2697 10.6565 14.2697H13.6431V20.8602H10.6565ZM17.276 5.80251C17.276 4.81749 18.0909 4.01589 19.0924 4.01589H22.1602C23.1618 4.01589 23.9766 4.81749 23.9766 5.80251V107.918H17.276V5.80251ZM120.367 117.05C120.367 118.035 119.552 118.837 118.551 118.837H5.44922C4.44777 118.837 3.63281 118.035 3.63281 117.05V113.278C3.63281 112.293 4.44777 111.492 5.44922 111.492H118.551C119.552 111.492 120.367 112.293 120.367 113.278V117.05Z" fill="#0A0A0A"/>
</svg>
