<svg width="115" height="114" viewBox="0 0 115 114" fill="none" xmlns="http://www.w3.org/2000/svg">
<path d="M66.5 98C87.2107 98 104 81.2107 104 60.5C104 39.7893 87.2107 23 66.5 23C45.7893 23 29 39.7893 29 60.5C29 81.2107 45.7893 98 66.5 98Z" fill="#BEDFE6"/>
<path d="M20.5623 72.5261H25.582H40.3102H45.3299C48.812 72.5261 51.6445 69.6935 51.6445 66.2118V46.4401C51.6445 44.2665 50.5486 42.2732 48.7124 41.108L35.6677 32.8307C33.5148 31.4657 30.7729 31.523 28.6805 32.9784L16.9577 41.1287C15.2609 42.3087 14.2477 44.2466 14.2477 46.3132V66.2118C14.2477 69.6935 17.0803 72.5261 20.5623 72.5261ZM27.212 69.2661V63.5317C27.212 60.37 29.7844 57.7976 32.9465 57.7976C36.1078 57.7976 38.6802 60.37 38.6802 63.5317V69.2661H27.212ZM17.5077 46.3132C17.5077 45.3135 17.998 44.3759 18.8185 43.8053L30.5421 35.6545C31.0659 35.29 31.6747 35.1069 32.2844 35.1069C32.8518 35.1069 33.4193 35.2653 33.9215 35.5833L46.9663 43.8606C47.8545 44.4245 48.3846 45.3887 48.3846 46.44V66.2118C48.3846 67.8959 47.0141 69.2661 45.33 69.2661H41.9402V63.5317C41.9402 58.5724 37.9058 54.5376 32.9466 54.5376C27.9873 54.5376 23.952 58.5724 23.952 63.5317V69.2661H20.5623C18.8782 69.2661 17.5077 67.8959 17.5077 66.2118V46.3132Z" fill="#309DA0"/>
<path d="M3.00084 63.454C3.05813 63.5436 3.12341 63.6335 3.1966 63.7068C3.27777 63.7799 3.35894 63.8452 3.44892 63.9105C3.5389 63.9674 3.62798 64.0164 3.72586 64.0574C3.82374 64.098 3.92961 64.1306 4.03548 64.1469C4.14216 64.1712 4.24795 64.1795 4.35382 64.1795C4.45968 64.1795 4.56555 64.1711 4.67134 64.1469C4.77721 64.1306 4.87509 64.098 4.97297 64.0574C5.07085 64.0164 5.16873 63.9674 5.25789 63.9105C5.34787 63.8452 5.42904 63.7799 5.50305 63.7068C5.80386 63.4051 5.98374 62.9813 5.98374 62.5495C5.98374 62.1257 5.80386 61.7019 5.50305 61.4002C5.12815 61.0174 4.56547 60.8463 4.03539 60.9521C3.92953 60.9764 3.82366 61.009 3.72578 61.05C3.6279 61.0906 3.53873 61.1396 3.44884 61.1965C3.35886 61.2538 3.27769 61.327 3.19651 61.4002C2.89496 61.7019 2.72382 62.1257 2.72382 62.5495C2.72382 62.6553 2.7318 62.7695 2.75642 62.8674C2.77231 62.9733 2.80499 63.0791 2.84558 63.177C2.88698 63.2749 2.93555 63.3724 3.00084 63.454Z" fill="#0A0A0A"/>
<path d="M112.907 110.344H92.6978V95.6004H99.9707C106.757 95.6004 112.277 90.0797 112.277 83.2938V21.0804C112.277 14.2946 106.757 8.77423 99.9707 8.77423H92.5682C92.6515 8.57847 92.6977 8.36322 92.6977 8.13714V7.20315C92.6977 3.3685 89.5778 0.248596 85.7432 0.248596C81.9085 0.248596 78.7886 3.3685 78.7886 7.20315V8.13714C78.7886 8.36331 78.8349 8.57855 78.9181 8.77423H36.0818C36.1651 8.57847 36.2113 8.36322 36.2113 8.13714V7.20315C36.2113 3.3685 33.0914 0.248596 29.2567 0.248596C25.4221 0.248596 22.3022 3.3685 22.3022 7.20315V8.13714C22.3022 8.36331 22.3485 8.57855 22.4317 8.77423H15.0292C8.24335 8.77423 2.72303 14.2946 2.72303 21.0804V55.6534C2.72303 56.5536 3.45286 57.2834 4.35303 57.2834C5.2532 57.2834 5.98303 56.5536 5.98303 55.6534V21.0804C5.98303 16.0925 10.0413 12.0342 15.0292 12.0342H99.9707C104.959 12.0342 109.017 16.0925 109.017 21.0804V83.2938C109.017 88.282 104.959 92.3403 99.9707 92.3403H15.0293C10.0414 92.3403 5.98311 88.282 5.98311 83.2938V69.2247C5.98311 68.3245 5.25328 67.5947 4.35311 67.5947C3.45294 67.5947 2.72311 68.3245 2.72311 69.2247V83.2938C2.72311 90.0796 8.24343 95.6003 15.0293 95.6003H22.3022V110.344H2.09271C1.19254 110.344 0.462708 111.073 0.462708 111.974C0.462708 112.874 1.19254 113.604 2.09271 113.604H60.6533C61.5535 113.604 62.2833 112.874 62.2833 111.974C62.2833 111.073 61.5535 110.344 60.6533 110.344H36.2113V95.6003H78.7887V110.344H72.1883C71.2882 110.344 70.5583 111.073 70.5583 111.974C70.5583 112.874 71.2882 113.604 72.1883 113.604H112.907C113.807 113.604 114.537 112.874 114.537 111.974C114.537 111.073 113.807 110.344 112.907 110.344ZM82.0487 8.13706V7.20307C82.0487 5.16598 83.7057 3.50852 85.7432 3.50852C87.7807 3.50852 89.4378 5.16598 89.4378 7.20307V8.13706C89.4378 8.36323 89.4841 8.57847 89.5673 8.77415H81.9191C82.0024 8.57847 82.0487 8.36323 82.0487 8.13706ZM25.5622 8.13706V7.20307C25.5622 5.16598 27.2192 3.50852 29.2567 3.50852C31.2942 3.50852 32.9513 5.16598 32.9513 7.20307V8.13706C32.9513 8.36323 32.9976 8.57847 33.0808 8.77415H25.4326C25.5159 8.57847 25.5622 8.36323 25.5622 8.13706ZM32.9513 110.344H25.5622V95.6004H32.9513V110.344ZM82.0487 95.6003H89.4378V110.344H82.0487V95.6003Z" fill="#0A0A0A"/>
<path d="M68.0457 111.352C68.0051 111.254 67.9565 111.156 67.8913 111.066C67.834 110.977 67.7687 110.895 67.6955 110.822C67.6143 110.749 67.5323 110.675 67.4432 110.618C67.3532 110.561 67.2633 110.512 67.1654 110.471C67.0684 110.431 66.9617 110.398 66.8558 110.373C66.6521 110.333 66.4324 110.333 66.2207 110.373C66.114 110.398 66.0169 110.431 65.9191 110.471C65.8212 110.512 65.7233 110.561 65.6333 110.618C65.5441 110.675 65.4622 110.749 65.389 110.822C65.3158 110.895 65.2425 110.977 65.1852 111.066C65.1279 111.156 65.0714 111.254 65.0308 111.352C64.9894 111.449 64.9655 111.547 64.9408 111.653C64.9161 111.759 64.9082 111.865 64.9082 111.971C64.9082 112.077 64.9162 112.183 64.9408 112.289C64.9655 112.395 64.9894 112.501 65.0308 112.599C65.0714 112.696 65.1278 112.794 65.1852 112.876C65.2425 112.965 65.3158 113.047 65.389 113.128C65.6906 113.43 66.1061 113.601 66.5383 113.601C66.6442 113.601 66.75 113.593 66.8558 113.569C66.9617 113.552 67.0683 113.52 67.1654 113.479C67.2633 113.438 67.3533 113.389 67.4432 113.332C67.5323 113.267 67.6143 113.202 67.6955 113.128C67.7687 113.047 67.834 112.965 67.8913 112.876C67.9565 112.786 68.005 112.696 68.0457 112.599C68.0871 112.501 68.1197 112.395 68.1357 112.289C68.1604 112.183 68.1683 112.077 68.1683 111.971C68.1683 111.865 68.1603 111.759 68.1357 111.653C68.1197 111.547 68.087 111.449 68.0457 111.352Z" fill="#0A0A0A"/>
<path d="M71.906 41.3223C67.977 41.3223 65.287 44.154 65.287 47.7819C65.287 51.4987 67.9769 54.4008 71.906 54.4008C75.8351 54.4008 78.525 51.4987 78.525 47.7819C78.525 44.154 75.8351 41.3223 71.906 41.3223ZM71.906 51.5692C69.9062 51.5692 68.4899 49.941 68.4899 47.7819C68.4899 45.7112 69.9062 44.154 71.906 44.154C73.9058 44.154 75.3212 45.7112 75.3212 47.7819C75.3213 49.941 73.9059 51.5692 71.906 51.5692Z" fill="#0A0A0A"/>
<path d="M78.0077 59.3318V70.0396C78.0077 70.6765 78.3445 71.0125 78.9814 71.0125H80.1312C80.7689 71.0125 81.1049 70.6765 81.1049 70.0396V66.4037V65.1197V63.4411L81.7485 64.5507C81.852 64.7504 81.9575 64.9465 82.0605 65.1197L82.6552 66.114L85.1929 70.3576C85.4584 70.8182 85.8125 71.0124 86.3437 71.0124H87.7238C88.3615 71.0124 88.6976 70.6764 88.6976 70.0396V59.3317C88.6976 58.6944 88.3614 58.3584 87.7238 58.3584H86.5739C85.9363 58.3584 85.6003 58.6944 85.6003 59.3317V63.4613V64.2697V65.9271L84.881 64.6933C84.802 64.5451 84.7226 64.4005 84.6446 64.2697L81.5294 59.0132C81.2639 58.5531 80.9106 58.3584 80.3615 58.3584H78.9813C78.3446 58.3585 78.0077 58.6945 78.0077 59.3318Z" fill="#0A0A0A"/>
<path d="M63.5553 44.1891C64.1931 44.1891 64.5291 43.8527 64.5291 43.2158V42.5077C64.5291 41.8709 64.193 41.5344 63.5553 41.5344H57.7502C57.1134 41.5344 56.7775 41.8709 56.7775 42.5077V53.2153C56.7775 53.8521 57.1134 54.1886 57.7502 54.1886H58.9009C59.5379 54.1886 59.8747 53.8522 59.8747 53.2153V49.4985H63.5553C64.1931 49.4985 64.5291 49.1625 64.5291 48.5252V47.8171C64.5291 47.1803 64.193 46.8438 63.5553 46.8438H59.8747V44.9116L58.8899 44.1539H61.3522L61.3431 44.1891H63.5553Z" fill="#0A0A0A"/>
<path d="M89.5105 45.5165C89.5105 43.6761 88.6081 42.3841 87.1746 41.8354C86.6256 41.6231 86.0059 41.5345 84.7143 41.5345H81.281C80.6444 41.5345 80.3074 41.871 80.3074 42.5078V53.2154C80.3074 53.8521 80.6443 54.1886 81.281 54.1886H82.4309C83.0687 54.1886 83.4046 53.8522 83.4046 53.2154V49.9235H84.8561L86.7322 53.4985C86.9977 53.9763 87.3518 54.1886 87.882 54.1886H89.2269C89.9883 54.1886 90.2891 53.6931 89.8998 53.0207L88.0943 49.764C87.7935 49.2334 87.6164 49.003 87.6164 49.003V48.9678C88.8737 48.3306 89.5105 46.8615 89.5105 45.5165ZM84.7496 47.2688H83.4046V45.2295L82.1501 44.1892H83.4046H84.197H84.4487C84.9618 44.1892 85.3339 44.2425 85.6167 44.3662C86.201 44.5961 86.36 45.0738 86.36 45.7112C86.36 46.7201 85.7413 47.2688 84.7496 47.2688Z" fill="#0A0A0A"/>
<path d="M56.7775 70.0397C56.7775 70.6765 57.1134 71.0125 57.7502 71.0125H58.9009C59.5379 71.0125 59.8747 70.6765 59.8747 70.0397V66.7474H61.3252L63.2014 70.3224C63.4669 70.8002 63.821 71.0125 64.3521 71.0125H65.6969C66.4584 71.0125 66.7593 70.5174 66.3699 69.8446L64.5644 66.5884C64.2636 66.0573 64.0865 65.8269 64.0865 65.8269V65.7917C65.343 65.1549 65.9797 63.6854 65.9797 62.3405C65.9797 60.5001 65.0773 59.208 63.6439 58.6593C63.0957 58.447 62.476 58.3585 61.1844 58.3585H57.7503C57.1135 58.3585 56.7775 58.6945 56.7775 59.3318L56.7775 70.0397ZM59.8747 61.0187V61.0131H60.9188C60.9879 61.0131 61.0482 61.0166 61.1124 61.0187H61.1461L61.1455 61.0197C61.5411 61.0342 61.8479 61.086 62.0867 61.1902C62.6703 61.42 62.8301 61.8978 62.8301 62.5356C62.8301 63.5444 62.2104 64.0927 61.2195 64.0927H59.8747V61.7913L58.7388 61.0186L59.8747 61.0187Z" fill="#0A0A0A"/>
<path d="M71.197 61.0131H75.0557C75.6924 61.0131 76.0285 60.6771 76.0285 60.0398V59.3317C76.0285 58.6944 75.6924 58.3584 75.0557 58.3584H69.0735C68.4367 58.3584 68.0999 58.6944 68.0999 59.3317V70.0396C68.0999 70.6764 68.4367 71.0124 69.0735 71.0124H75.3032C75.9399 71.0124 76.2768 70.6764 76.2768 70.0396V69.3314C76.2768 68.6937 75.94 68.3577 75.3032 68.3577H71.197V65.9686H74.8344C75.4711 65.9686 75.808 65.6326 75.808 64.9949V64.2877C75.808 63.65 75.4712 63.314 74.8344 63.314H71.197V61.7862L70.0684 61.0186H71.197V61.0131Z" fill="#0A0A0A"/>
<path d="M96.958 61.0131H99.8257C100.463 61.0131 100.799 60.6771 100.799 60.0398V59.3317C100.799 58.6944 100.463 58.3584 99.8257 58.3584H90.9938C90.3571 58.3584 90.0202 58.6944 90.0202 59.3317V60.0398C90.0202 60.6771 90.357 61.0131 90.9938 61.0131H93.8607V70.0396C93.8607 70.6765 94.1977 71.0125 94.8344 71.0125H95.9851C96.622 71.0125 96.958 70.6765 96.958 70.0396V61.9052L95.6546 61.0186H96.958V61.0131Z" fill="#0A0A0A"/>
</svg>
