<svg width="100" height="129" viewBox="0 0 100 129" fill="none" xmlns="http://www.w3.org/2000/svg">
<path d="M71.875 124C85.9698 124 97.3959 108.33 97.3959 89C97.3959 69.67 85.9698 54 71.875 54C57.7803 54 46.3542 69.67 46.3542 89C46.3542 108.33 57.7803 124 71.875 124Z" fill="#BEDFE6"/>
<path d="M98.1069 50.6196C99.1451 50.6196 99.9863 49.7782 99.9863 48.7402V8.14425C99.9863 3.65364 96.3329 0 91.8421 0H40.2201C35.7292 0 32.0758 3.65364 32.0758 8.14425V22.1774H8.14425C3.65339 22.1774 0 25.8311 0 30.3217V86.9716C0 88.0095 0.841238 88.851 1.87944 88.851C2.91765 88.851 3.75888 88.0095 3.75888 86.9716V48.1137H7.19125C12.7752 48.1137 18.2351 47.0622 23.4194 44.9883L29.7491 42.4563C38.1013 39.1157 46.8974 37.4217 55.8929 37.4217H64.1516V102.367H60.7193C55.1356 102.367 49.6757 103.418 44.4912 105.492L38.1617 108.024C29.8095 111.365 21.0134 113.059 12.0177 113.059H3.75888V94.4891C3.75888 93.4511 2.91765 92.6096 1.87944 92.6096C0.841238 92.6096 0 93.4511 0 94.4891V120.159C0 124.65 3.65339 128.303 8.14425 128.303H59.7663C64.2571 128.303 67.9105 124.65 67.9105 120.159V106.126H91.8421C96.3329 106.126 99.9863 102.472 99.9863 97.9816V56.258C99.9863 55.22 99.1451 54.3785 98.1069 54.3785C97.0687 54.3785 96.2275 55.22 96.2275 56.258V97.9816C96.2275 100.4 94.26 102.367 91.8421 102.367H67.9105V87.1492H84.2577C85.2959 87.1492 86.1371 86.3077 86.1371 85.2698C86.1371 84.2318 85.2959 83.3904 84.2577 83.3904H67.9105V77.4596H84.2577C85.2959 77.4596 86.1371 76.6181 86.1371 75.5801C86.1371 74.5422 85.2959 73.7007 84.2577 73.7007H67.9105V67.7702H84.2577C85.2959 67.7702 86.1371 66.9287 86.1371 65.8907C86.1371 64.8528 85.2959 64.0113 84.2577 64.0113H67.9105V58.0805H84.2577C85.2959 58.0805 86.1371 57.239 86.1371 56.2011C86.1371 55.1631 85.2959 54.3216 84.2577 54.3216H67.9105V48.3909H84.2577C85.2959 48.3909 86.1371 47.5494 86.1371 46.5114C86.1371 45.4735 85.2959 44.632 84.2577 44.632H67.9105V30.3217C67.9105 27.1442 66.0802 24.3874 63.4194 23.046L63.4204 23.0445L37.7069 10.174C36.6972 9.66935 36.0221 8.71886 35.8683 7.62527C36.1264 5.45139 37.978 3.75888 40.2201 3.75888H91.8421C94.26 3.75888 96.2275 5.72628 96.2275 8.14425V48.7402C96.2275 49.7782 97.0687 50.6196 98.1069 50.6196ZM64.1516 120.159C64.1516 122.577 62.1842 124.544 59.7663 124.544H8.14425C5.72629 124.544 3.75888 122.577 3.75888 120.159V116.818H12.0177C21.4941 116.818 30.7597 115.033 39.5578 111.514L45.8872 108.982C50.6257 107.087 55.616 106.126 60.7193 106.126H64.1516V120.159ZM64.1516 33.6628H55.8929C46.417 33.6628 37.1511 35.4473 28.3533 38.9666L22.0236 41.4986C17.2854 43.3938 12.2948 44.3548 7.19125 44.3548H3.75888V30.3217C3.75888 27.9037 5.72629 25.9363 8.14425 25.9363H59.7663C62.1842 25.9363 64.1516 27.9037 64.1516 30.3217V33.6628ZM53.29 22.1774H35.8347V13.4295C35.8989 13.4641 35.9595 13.5029 36.0249 13.5357L53.29 22.1774Z" fill="#0A0A0A"/>
<path d="M43.4703 79.3229C46.0772 79.3229 48.1982 77.2022 48.1982 74.595V63.3076C48.1982 61.6141 47.4309 60.0471 46.0927 59.0089L37.2909 52.1795C35.3278 50.6557 32.5841 50.6554 30.6199 52.1795L21.8184 59.0089C20.4802 60.0474 19.7129 61.6141 19.7129 63.3076V74.595C19.7129 77.2019 21.8337 79.3229 24.4406 79.3229H43.4703ZM23.4715 74.595V63.3076C23.4715 62.7841 23.7088 62.2997 24.1226 61.9785L32.9241 55.1491C33.2278 54.9135 33.5914 54.7957 33.9553 54.7957C34.3192 54.7957 34.683 54.9135 34.9865 55.1491L43.7883 61.9785C44.2018 62.2995 44.4393 62.7839 44.4393 63.3076V74.595C44.4393 75.1293 44.0048 75.5641 43.4703 75.5641H35.8347V69.3313C35.8347 68.2934 34.9935 67.4519 33.9553 67.4519C32.9171 67.4519 32.0759 68.2934 32.0759 69.3313V75.5641H24.4403C23.9061 75.5641 23.4715 75.1295 23.4715 74.595Z" fill="#309DA0"/>
<path d="M16.7047 87.133C16.7047 88.1709 17.5459 89.0124 18.5842 89.0124H49.3266C50.3645 89.0124 51.206 88.1709 51.206 87.133C51.206 86.095 50.3645 85.2535 49.3266 85.2535H18.5842C17.5462 85.2535 16.7047 86.095 16.7047 87.133Z" fill="#0A0A0A"/>
<path d="M27.1043 94.9431C26.0661 94.9431 25.2249 95.7846 25.2249 96.8226C25.2249 97.8605 26.0661 98.702 27.1043 98.702H40.8062C41.8444 98.702 42.6856 97.8605 42.6856 96.8226C42.6856 95.7846 41.8444 94.9431 40.8062 94.9431H27.1043Z" fill="#0A0A0A"/>
<path d="M84.2577 24.6147H79.6135C78.5752 24.6147 77.734 25.4562 77.734 26.4941C77.734 27.5321 78.5752 28.3736 79.6135 28.3736H84.2577C85.2959 28.3736 86.1371 27.5321 86.1371 26.4941C86.1371 25.4562 85.2959 24.6147 84.2577 24.6147Z" fill="#0A0A0A"/>
<path d="M84.2576 14.9669H73.7165C72.6783 14.9669 71.837 15.8083 71.837 16.8463C71.837 17.8843 72.6783 18.7257 73.7165 18.7257H84.2576C85.2958 18.7257 86.1371 17.8843 86.1371 16.8463C86.1371 15.8083 85.2958 14.9669 84.2576 14.9669Z" fill="#0A0A0A"/>
</svg>
