<svg width="134" height="134" viewBox="0 0 134 134" fill="none" xmlns="http://www.w3.org/2000/svg">
<g clip-path="url(#clip0_503_7024)">
<circle cx="100.5" cy="96.5" r="23.5" fill="#BEDFE6"/>
<path d="M64.3048 59.0116C63.8584 59.0116 63.4095 58.8601 63.0413 58.5499C58.1571 54.4354 55.3559 48.4164 55.3559 42.036C55.3559 39.1484 55.9175 36.3439 57.0251 33.7002C57.4439 32.7002 58.5941 32.2289 59.5942 32.6484C60.5939 33.0674 61.0648 34.2174 60.646 35.2174C59.741 37.3779 59.2819 39.6716 59.2819 42.036C59.2819 47.2557 61.5743 52.1807 65.5708 55.5472C66.3999 56.2457 66.5056 57.4839 65.8074 58.3131C65.419 58.7742 64.8639 59.0116 64.3048 59.0116Z" fill="#0A0A0A"/>
<path d="M89.5753 59.0108C89.0163 59.0108 88.4615 58.7734 88.0733 58.3125C87.3748 57.4836 87.4805 56.2454 88.3097 55.5469C92.3056 52.1802 94.5972 47.2557 94.5972 42.0365C94.5972 39.9859 94.2494 37.9777 93.5634 36.0675C93.197 35.0473 93.727 33.9232 94.7472 33.5565C95.7673 33.1906 96.8914 33.7201 97.2581 34.7403C98.0974 37.0777 98.523 39.5321 98.523 42.0362C98.523 48.4159 95.7223 54.4346 90.8389 58.5488C90.4709 58.8592 90.0218 59.0108 89.5753 59.0108Z" fill="#0A0A0A"/>
<path d="M72.8664 35.996C71.7824 35.996 70.9035 35.1174 70.9035 34.0331C70.9035 32.9488 71.7824 32.0703 72.8664 32.0703C75.09 32.0703 76.899 30.2613 76.899 28.0377C76.899 25.8141 75.09 24.0051 72.8664 24.0051H52.4819C51.3979 24.0051 50.519 23.1265 50.519 22.0422C50.519 20.9579 51.3979 20.0793 52.4819 20.0793H72.8664C77.2549 20.0793 80.8248 23.6494 80.8248 28.0377C80.8248 32.4259 77.2549 35.996 72.8664 35.996Z" fill="#0A0A0A"/>
<path d="M26.4297 39.7488H22.2903C19.0432 39.7488 16.4017 37.107 16.4017 33.8601V5.88867C16.4017 2.64179 19.0432 0 22.2903 0H26.4297C29.6766 0 32.3184 2.64179 32.3184 5.88867V33.8601C32.3184 37.107 29.6768 39.7488 26.4297 39.7488ZM22.2903 3.92578C21.2079 3.92578 20.3275 4.8062 20.3275 5.88867V33.8601C20.3275 34.9426 21.2079 35.823 22.2903 35.823H26.4297C27.5122 35.823 28.3926 34.9426 28.3926 33.8601V5.88867C28.3926 4.8062 27.5122 3.92578 26.4297 3.92578H22.2903Z" fill="#0A0A0A"/>
<path d="M97.8836 37.7357C95.4766 37.7357 93.0591 36.906 91.1006 35.2127L82.1163 27.4444C81.6471 27.0392 81.1537 26.6673 80.6403 26.33C80.7612 26.8804 80.8248 27.4514 80.8248 28.0374C80.8248 32.4259 77.2547 35.9958 72.8664 35.9958H52.4463C48.7378 35.9958 45.0551 35.4611 41.5002 34.4069L30.2324 31.0652C29.1932 30.7569 28.6006 29.6648 28.9087 28.6252C29.217 27.5862 30.3089 26.9939 31.3487 27.3015L42.6164 30.6431C45.8086 31.59 49.116 32.07 52.4463 32.07H72.8664C75.09 32.07 76.899 30.261 76.899 28.0374C76.899 25.8141 75.0902 24.0051 72.8669 24.0049C71.7826 24.0046 70.9043 23.126 70.9043 22.0417C70.9043 20.9577 71.7832 20.0791 72.8672 20.0791H72.8675H72.868C77.2041 20.0793 81.4003 21.64 84.6828 24.4733L93.6684 32.2427C96.3588 34.5691 100.441 34.275 102.77 31.5871C103.355 30.9124 103.282 29.8872 102.608 29.3023L79.8441 9.55144C78.1081 8.04682 75.8859 7.21796 73.5875 7.21796H56.1764C55.0921 7.21796 54.2135 6.33937 54.2135 5.25507C54.2135 4.17077 55.0921 3.29218 56.1764 3.29218H73.5875C76.8304 3.29218 79.9658 4.4618 82.416 6.58538L105.18 26.337C107.489 28.34 107.739 31.8488 105.737 34.1585C103.688 36.5231 100.793 37.7357 97.8836 37.7357Z" fill="#0A0A0A"/>
<path d="M48.3246 7.21796H31.0006C29.9163 7.21796 29.0377 6.33937 29.0377 5.25507C29.0377 4.17077 29.9163 3.29218 31.0006 3.29218H48.3246C49.4089 3.29218 50.2875 4.17077 50.2875 5.25507C50.2875 6.33937 49.4086 7.21796 48.3246 7.21796Z" fill="#0A0A0A"/>
<path d="M50.8538 121.816C50.6201 121.816 50.3822 121.774 50.1508 121.685C47.8843 120.815 46.3614 118.599 46.3614 116.171V85.525C46.3614 84.4407 47.24 83.5621 48.3243 83.5621C49.4086 83.5621 50.2872 84.4407 50.2872 85.525V116.171C50.2872 116.985 50.7975 117.728 51.5576 118.02C52.5696 118.408 53.0753 119.543 52.6866 120.555C52.3872 121.336 51.6429 121.816 50.8538 121.816Z" fill="#0A0A0A"/>
<path d="M103.86 121.566C103.177 121.566 102.512 121.208 102.151 120.57C101.616 119.627 101.948 118.429 102.891 117.895C103.512 117.543 103.897 116.883 103.897 116.171V85.525C103.897 84.4407 104.776 83.5621 105.86 83.5621C106.945 83.5621 107.823 84.4407 107.823 85.525V116.171C107.823 118.294 106.675 120.264 104.826 121.311C104.52 121.484 104.188 121.566 103.86 121.566Z" fill="#0A0A0A"/>
<path d="M109.476 88.1168C107.929 88.117 106.414 87.5538 105.243 86.5276L77.7546 62.2631C77.3795 61.9347 76.8053 61.9344 76.425 62.2681L48.9739 86.5221C47.6391 87.6912 45.8688 88.2604 44.113 88.0867C42.356 87.9142 40.731 87.0126 39.6551 85.6134C37.5988 82.94 37.9738 79.1037 40.5088 76.8793L49.1597 69.2199C49.9715 68.5012 51.2121 68.5771 51.9305 69.3884C52.6492 70.2003 52.5738 71.4406 51.7622 72.1593L43.1043 79.8242C42.114 80.6931 41.9684 82.1823 42.7667 83.22C43.1904 83.7707 43.8047 84.1117 44.4964 84.1797C45.1881 84.2467 45.8576 84.0329 46.3808 83.5746L73.8316 59.3209C75.6925 57.6904 78.4913 57.6899 80.3466 59.3154L107.835 83.5799C108.352 84.0332 109.022 84.2478 109.713 84.18C110.405 84.1119 111.02 83.7712 111.444 83.22C112.241 82.1826 112.096 80.6936 111.112 79.8305L81.7667 53.8709C79.1042 51.5342 75.0795 51.5345 72.4116 53.8761L56.9709 67.547C56.1593 68.2654 54.9188 68.19 54.2001 67.3784C53.4814 66.5666 53.5568 65.3263 54.3684 64.6076L69.8156 50.931C73.9667 47.2881 80.2176 47.2884 84.3622 50.925L113.707 76.8848C116.236 79.1037 116.611 82.9402 114.555 85.6137C113.478 87.0134 111.853 87.9147 110.096 88.0869C109.89 88.1068 109.682 88.1168 109.476 88.1168Z" fill="#309DA0"/>
<path d="M105.691 107.638H86.8655C85.7812 107.638 84.9026 106.76 84.9026 105.675C84.9026 104.591 85.7812 103.713 86.8655 103.713H105.691C106.775 103.713 107.654 104.591 107.654 105.675C107.654 106.76 106.775 107.638 105.691 107.638Z" fill="#0A0A0A"/>
<path d="M68.4714 107.638H48.4936C47.4093 107.638 46.5307 106.76 46.5307 105.675C46.5307 104.591 47.4093 103.713 48.4936 103.713H68.4714C69.5557 103.713 70.4343 104.591 70.4343 105.675C70.4343 106.76 69.5557 107.638 68.4714 107.638Z" fill="#0A0A0A"/>
<path d="M77.0921 89.8972C71.713 89.8972 67.3371 85.5208 67.3371 80.1419C67.3371 74.7628 71.7133 70.3869 77.0921 70.3869C82.4712 70.3869 86.8472 74.7631 86.8472 80.1419C86.8475 85.521 82.4712 89.8972 77.0921 89.8972ZM77.0921 74.3124C73.878 74.3124 71.2629 76.9275 71.2629 80.1417C71.2629 83.3561 73.878 85.9712 77.0921 85.9712C80.3063 85.9712 82.9214 83.3561 82.9214 80.1417C82.9217 76.9278 80.3066 74.3124 77.0921 74.3124Z" fill="#0A0A0A"/>
<path d="M84.6605 121.146C83.5762 121.146 82.6977 120.268 82.6977 119.184V105.005C82.6977 102.594 80.7358 100.632 78.3246 100.632H75.8597C73.4485 100.632 71.4869 102.594 71.4869 105.005V119.184C71.4869 120.268 70.6083 121.146 69.524 121.146C68.44 121.146 67.5612 120.268 67.5612 119.184V105.005C67.5612 100.429 71.2841 96.7064 75.8597 96.7064H78.3246C82.9005 96.7064 86.6234 100.429 86.6234 105.005V119.184C86.6234 120.268 85.7449 121.146 84.6605 121.146Z" fill="#0A0A0A"/>
<path d="M111.71 134H22.2903C19.0432 134 16.4017 131.358 16.4017 128.111V123.919C16.4017 120.672 19.0432 118.03 22.2903 118.03H111.71C114.957 118.03 117.598 120.672 117.598 123.919V128.111C117.598 131.358 114.957 134 111.71 134ZM22.2903 121.956C21.2079 121.956 20.3275 122.836 20.3275 123.919V128.111C20.3275 129.194 21.2079 130.074 22.2903 130.074H111.71C112.792 130.074 113.673 129.194 113.673 128.111V123.919C113.673 122.836 112.792 121.956 111.71 121.956H22.2903Z" fill="#0A0A0A"/>
</g>
<defs>
<clipPath id="clip0_503_7024">
<rect width="134" height="134" fill="white"/>
</clipPath>
</defs>
</svg>
