<svg width="128" height="128" viewBox="0 0 128 128" fill="none" xmlns="http://www.w3.org/2000/svg">
<g clip-path="url(#clip0_581_5991)">
<path d="M18.667 21.333H2.66699V16H16V5.33301H21.333V18.667C21.333 20.1396 20.1396 21.333 18.667 21.333Z" fill="#455D76"/>
<path d="M88 128H8C3.58203 128 0 124.418 0 120V18.667C0 17.96 0.28125 17.2812 0.78125 16.7812L16.7812 0.78125C17.2812 0.28125 17.96 0 18.667 0H88C92.418 0 96 3.58203 96 8V53.333H90.667V8C90.667 6.52734 89.4727 5.33301 88 5.33301H19.7705L5.33301 19.7705V120C5.33301 121.473 6.52734 122.667 8 122.667H88C89.4727 122.667 90.667 121.473 90.667 120V101.333H96V120C96 124.418 92.418 128 88 128Z" fill="#0A0A0A"/>
<path d="M34.667 53.333H18.667C17.1943 53.333 16 52.1396 16 50.667V34.667C16 33.1943 17.1943 32 18.667 32H34.667C36.1396 32 37.333 33.1943 37.333 34.667V50.667C37.333 52.1396 36.1396 53.333 34.667 53.333ZM21.333 48H32V37.333H21.333V48Z" fill="#309DA0"/>
<path d="M34.667 82.667H18.667C17.1943 82.667 16 81.4727 16 80V64C16 62.5273 17.1943 61.333 18.667 61.333H34.667C36.1396 61.333 37.333 62.5273 37.333 64V80C37.333 81.4727 36.1396 82.667 34.667 82.667ZM21.333 77.333H32V66.667H21.333V77.333Z" fill="#309DA0"/>
<path d="M34.667 112H18.667C17.1943 112 16 110.806 16 109.333V93.333C16 91.8604 17.1943 90.667 18.667 90.667H34.667C36.1396 90.667 37.333 91.8604 37.333 93.333V109.333C37.333 110.806 36.1396 112 34.667 112ZM21.333 106.667H32V96H21.333V106.667Z" fill="#309DA0"/>
<path d="M45.333 34.667H80V40H45.333V34.667Z" fill="#0A0A0A"/>
<path d="M45.333 45.333H80V50.667H45.333V45.333Z" fill="#455D76"/>
<path d="M45.333 64H80V69.333H45.333V64Z" fill="#0A0A0A"/>
<path d="M45.333 74.667H69.333V80H45.333V74.667Z" fill="#455D76"/>
<path d="M45.333 93.333H56V98.667H45.333V93.333Z" fill="#0A0A0A"/>
<path d="M45.333 104H56V109.333H45.333V104Z" fill="#455D76"/>
<path d="M76.7764 90.1221L111.431 55.4678L115.201 59.2393L80.5479 93.8936L76.7764 90.1221Z" fill="#0A0A0A"/>
<path d="M105.653 53.4629L109.425 49.6914L120.977 61.2422L117.205 65.0137L105.653 53.4629Z" fill="#309DA0"/>
<path d="M78.667 106.223C77.96 106.223 77.2812 105.942 76.7812 105.442L65.2295 93.8904C64.1885 92.8494 64.1885 91.1609 65.2295 90.1199L109.51 45.8533C113.74 41.6218 120.601 41.6218 124.832 45.8533C129.056 50.0876 129.056 56.9412 124.832 61.1755L80.5518 105.442C80.0518 105.942 79.374 106.223 78.667 106.223ZM70.8799 91.9998L78.667 99.7869L121.066 57.3865C123.21 55.2351 123.21 51.7556 121.066 49.6052C118.889 47.53 115.466 47.53 113.288 49.6052L70.8799 91.9998Z" fill="#455D76"/>
<path d="M61.333 112C60.4766 111.999 59.6728 111.587 59.1719 110.892C58.6709 110.197 58.5342 109.304 58.8057 108.49L64.581 91.1572L69.6484 92.8457L65.5596 105.112L77.8271 101.021L79.5117 106.088L62.1787 111.864C61.9062 111.954 61.6201 112 61.333 112Z" fill="#455D76"/>
</g>
<defs>
<clipPath id="clip0_581_5991">
<rect width="128" height="128" fill="white"/>
</clipPath>
</defs>
</svg>
