<svg xmlns="http://www.w3.org/2000/svg" xmlns:xlink="http://www.w3.org/1999/xlink" width="429.158" height="465.266" viewBox="0 0 429.158 465.266">
  <defs>
    <clipPath id="clip-path">
      <rect id="Rectangle_26" data-name="Rectangle 26" width="334.985" height="334.985" rx="40" fill="#a63626" opacity="0.4"/>
    </clipPath>
  </defs>
  <g id="Group_10690" data-name="Group 10690" transform="translate(-2.393 -37.742)">
    <g id="Element_2" data-name="Element 2" transform="translate(5.747 44.45)">
      <path id="Vector_1" data-name="Vector 1" d="M-8.5,688.5c12.407,6.2,37.593,64.02,168.609,64.02,139.2,0,232.256,31.265,237.839,195.036" transform="translate(8.5 -688.5)" fill="none" stroke="#d1512d" stroke-width="15"/>
    </g>
    <g id="Image" transform="translate(96.565 168.023)">
      <g id="Image_double_click_to_edit_" data-name="Image (double click to edit)" transform="translate(0 0)">
        <g id="Rectangle_26-2" data-name="Rectangle 26" transform="translate(0)">
          <g id="Clip" clip-path="url(#clip-path)">
            <rect id="Rectangle_1561" data-name="Rectangle 1561" width="334.994" height="411.194" transform="translate(-0.42 -0.329)" fill="#1b6e6d"/>
            <g id="Group_10686" data-name="Group 10686" transform="translate(24.807 78.192)">
              <path id="Path_7307" data-name="Path 7307" d="M2777.786-667.47a25.194,25.194,0,0,1-24.99-21.236,6.841,6.841,0,0,0-7.844-5.661,6.841,6.841,0,0,0-5.662,7.844,38.821,38.821,0,0,0,38.5,32.735,6.841,6.841,0,0,0,6.84-6.841A6.841,6.841,0,0,0,2777.786-667.47Z" transform="translate(-2710.43 759.53)" fill="#fff"/>
              <path id="Path_7308" data-name="Path 7308" d="M2746.984-722.555a6.822,6.822,0,0,0,2.5.478,6.843,6.843,0,0,0,6.367-4.336l.166-.411a6.84,6.84,0,0,0-3.715-8.932,6.84,6.84,0,0,0-8.933,3.715q-.127.307-.249.616A6.841,6.841,0,0,0,2746.984-722.555Z" transform="translate(-2712.066 779.381)" fill="#d1512d"/>
              <circle id="Ellipse_30" data-name="Ellipse 30" cx="13.832" cy="13.832" r="13.832" transform="translate(53.524 52.913)" fill="#d1512d"/>
              <path id="Path_7309" data-name="Path 7309" d="M2840.572-641.114a4.737,4.737,0,0,0,6.7,0l14.29-14.29a4.736,4.736,0,0,0,0-6.7l-28.449-28.544a4.738,4.738,0,0,0-6.7,0l-1.9,1.9-21.288-21.288a66.365,66.365,0,0,0,14.61-41.59,66.777,66.777,0,0,0-66.7-66.7,66.777,66.777,0,0,0-66.7,66.7,66.778,66.778,0,0,0,66.7,66.7,66.364,66.364,0,0,0,41.6-14.617l21.287,21.287-1.9,1.9a4.737,4.737,0,0,0,0,6.7ZM2699.929-751.583a51.919,51.919,0,0,1,51.86-51.86,51.918,51.918,0,0,1,51.86,51.86,51.918,51.918,0,0,1-51.86,51.86A51.919,51.919,0,0,1,2699.929-751.583Z" transform="translate(-2684.433 818.328)" fill="#fff"/>
              <circle id="Ellipse_31" data-name="Ellipse 31" cx="13.832" cy="13.832" r="13.832" transform="translate(204.003 52.913)" fill="#d1512d"/>
              <path id="Path_7310" data-name="Path 7310" d="M2972.169-753.149c.026.5.037,1.024.037,1.576a66.675,66.675,0,0,0,66.67,66.675c.489,0,.951.016,1.392.042a66.779,66.779,0,0,0,65.283-66.686,66.778,66.778,0,0,0-66.7-66.7A66.776,66.776,0,0,0,2972.169-753.149Zm14.82,1.608A51.916,51.916,0,0,1,3038.85-803.4a51.915,51.915,0,0,1,51.855,51.861,51.918,51.918,0,0,1-51.855,51.861A51.919,51.919,0,0,1,2986.989-751.541Z" transform="translate(-2821.012 818.288)" fill="#fff"/>
              <path id="Path_7311" data-name="Path 7311" d="M2957.919-712.608v20.992a28.286,28.286,0,0,0-42.432,0v-20.992A45.3,45.3,0,0,1,2957.919-712.608Z" transform="translate(-2794.107 770.65)" fill="#fff"/>
            </g>
          </g>
        </g>
      </g>
    </g>
  </g>
</svg>
