<svg xmlns="http://www.w3.org/2000/svg" xmlns:xlink="http://www.w3.org/1999/xlink" width="425.917" height="447.735" viewBox="0 0 425.917 447.735">
  <defs>
    <clipPath id="clip-path">
      <rect id="Rectangle_26" data-name="Rectangle 26" width="322.179" height="322.179" rx="40" fill="#5c5a5a"/>
    </clipPath>
  </defs>
  <g id="Group_10689" data-name="Group 10689" transform="translate(-608.84 -677.978)">
    <g id="Element_2" data-name="Element 2" transform="translate(640.492 684.687)">
      <path id="Vector_1" data-name="Vector 1" d="M382.41,688.5c-11.933,5.966-36.156,61.572-162.163,61.572C86.364,750.072-3.131,780.142-8.5,937.651" transform="translate(8.5 -688.5)" fill="none" stroke="#309da0" stroke-width="15"/>
    </g>
    <g id="Image" transform="translate(608.84 803.535)">
      <g id="Image_double_click_to_edit_" data-name="Image (double click to edit)" transform="translate(0 0)">
        <g id="Rectangle_26-2" data-name="Rectangle 26" transform="translate(0)">
          <g id="Clip" clip-path="url(#clip-path)">
            <rect id="Rectangle_1560" data-name="Rectangle 1560" width="322.996" height="322.179" transform="translate(-0.158 -0.316)" fill="#1b6e6d"/>
            <g id="Group_10685" data-name="Group 10685" transform="translate(46.814 43.911)">
              <path id="Path_7305" data-name="Path 7305" d="M920.768-671.026l-12.057-12.051,12.057-12.043a7.553,7.553,0,0,0,1.631-8.219,7.534,7.534,0,0,0-6.964-4.654H864.828v-2.022a7.54,7.54,0,0,0-7.54-7.54,7.536,7.536,0,0,0-7.54,7.54v9.514c0,.013-.007.034-.007.048v34.759c0,.013.007.034.007.048v32.319l-30.64,43.409L829.6-578.641l27.836-39.441L891.41-572.39l9.1-13.037-35.684-48v-24.731h50.607a7.535,7.535,0,0,0,6.964-4.654A7.553,7.553,0,0,0,920.768-671.026Zm-30.255-12.051a7.557,7.557,0,0,0,2.207,5.333l4.511,4.51h-32.4v-19.679h32.394l-4.5,4.5A7.545,7.545,0,0,0,890.512-683.076Z" transform="translate(-755.101 717.554)" fill="#309da0"/>
              <path id="Path_7306" data-name="Path 7306" d="M918-435.148l-48.118-59.538a7.562,7.562,0,0,0-6.128-2.8,7.536,7.536,0,0,0-5.922,3.222L803.718-416.7,737.49-487.824a7.546,7.546,0,0,0-6.08-2.386,7.548,7.548,0,0,0-5.662,3.263L691.942-437.54a7.544,7.544,0,0,0,1.967,10.481,7.5,7.5,0,0,0,4.25,1.316,7.523,7.523,0,0,0,6.231-3.283l28.487-41.627,62.012,66.6-13.119,18.8a7.55,7.55,0,0,0,1.871,10.5,7.543,7.543,0,0,0,4.3,1.357,7.519,7.519,0,0,0,6.189-3.228l70.327-100.782,38.254,47.335-31.273,44.817a7.55,7.55,0,0,0,1.871,10.5,7.543,7.543,0,0,0,4.3,1.357,7.519,7.519,0,0,0,6.189-3.228l34.49-49.424,0-.022A7.538,7.538,0,0,0,918-435.148Z" transform="translate(-690.626 607.12)" fill="#fff"/>
            </g>
          </g>
        </g>
      </g>
    </g>
  </g>
</svg>
