<svg xmlns="http://www.w3.org/2000/svg" xmlns:xlink="http://www.w3.org/1999/xlink" width="250" height="469" viewBox="0 0 250 469">
  <defs>
    <clipPath id="clip-path">
      <rect id="Rectangle_1537" data-name="Rectangle 1537" width="250" height="469" transform="translate(280.29 0.209)" fill="#fff" stroke="#5c5a5a" stroke-width="1"/>
    </clipPath>
  </defs>
  <g id="Element_2" data-name="Element 2" transform="translate(-280.29 -0.209)">
    <g id="Mask_Group_9" data-name="Mask Group 9" clip-path="url(#clip-path)">
      <path id="bg" d="M439.127,12.256c33.882,40.568,40,110.38,10.527,147.732A61.013,61.013,0,0,1,432.93,174.3c-29.4,18.208-75.829,20.015-102.045,32.038a251.759,251.759,0,0,0-25.7,13.653c-31.1,19.066-52.092,41.108-58.213,52.539-27.977,52.246,1.023,113.363-32.291,155.448a75.623,75.623,0,0,1-20.527,17.882c-21.289,13.172-50.872,18.351-87.018,16.911L-61.73,178.717q12.934-16.067,26.476-31.15C50.886,48.483,154.293-30.667,271.568-42.65a248.575,248.575,0,0,1,25.282-1.305C373-43.954,422.519-7.629,439.127,12.256Z" transform="translate(61.73 43.955)" fill="#1b6e6d"/>
      <g id="House_for_rent" data-name="House for rent" transform="translate(-13.677 -296.084)">
        <g id="Group_10556" data-name="Group 10556" transform="translate(305.667 341.753)">
          <g id="Group_10543" data-name="Group 10543" transform="translate(7.751 37.759)">
            <path id="Rectangle_1546" data-name="Rectangle 1546" d="M50.927,0h74.662a51.864,51.864,0,0,1,51.864,51.864V74.722a20.759,20.759,0,0,1-20.759,20.759H29.739A29.739,29.739,0,0,1,0,65.743V50.927A50.927,50.927,0,0,1,50.927,0Z" transform="translate(0.238 0.238)" fill="#1b6e6d"/>
            <path id="Path_7059" data-name="Path 7059" d="M556.4,862.713H384.154a3.307,3.307,0,0,1-3.3-3.3V772.244a5.494,5.494,0,0,1,5.488-5.488H553.194a5.591,5.591,0,0,1,5.585,5.585v87.994A2.381,2.381,0,0,1,556.4,862.713ZM386.338,767.231a5.018,5.018,0,0,0-5.013,5.013v87.165a2.831,2.831,0,0,0,2.828,2.828H556.4a1.9,1.9,0,0,0,1.9-1.9V772.341a5.115,5.115,0,0,0-5.109-5.109Z" transform="translate(-380.85 -766.756)" fill="#fff"/>
          </g>
          <g id="Group_10544" data-name="Group 10544" transform="translate(153.477 76.739)">
            <path id="Path_7060" data-name="Path 7060" d="M1804.464,1160.794h-9.127a1,1,0,0,1-1-1v-13.961a1,1,0,0,1,1-1h9.127a1,1,0,0,1,1,1V1159.8A1,1,0,0,1,1804.464,1160.794Zm-9.127-15.476a.52.52,0,0,0-.52.52V1159.8a.52.52,0,0,0,.52.52h9.127a.521.521,0,0,0,.52-.52v-13.961a.521.521,0,0,0-.52-.52Z" transform="translate(-1794.342 -1144.843)" fill="#fff"/>
            <path id="Path_7061" data-name="Path 7061" d="M1925.481,1160.794h-8.974a1.073,1.073,0,0,1-1.072-1.072v-13.808a1.073,1.073,0,0,1,1.072-1.072h8.974a1.073,1.073,0,0,1,1.072,1.072v13.808A1.073,1.073,0,0,1,1925.481,1160.794Zm-8.974-15.476a.6.6,0,0,0-.6.6v13.808a.6.6,0,0,0,.6.6h8.974a.6.6,0,0,0,.6-.6v-13.808a.6.6,0,0,0-.6-.6Z" transform="translate(-1902.951 -1144.843)" fill="#fff"/>
            <path id="Path_7062" data-name="Path 7062" d="M1804.683,1327.581h-9.559a.78.78,0,0,1-.779-.779v-14.393a.78.78,0,0,1,.779-.779h9.559a.78.78,0,0,1,.779.779V1326.8A.78.78,0,0,1,1804.683,1327.581Zm-9.559-15.476a.3.3,0,0,0-.3.3V1326.8a.3.3,0,0,0,.3.3h9.559a.3.3,0,0,0,.3-.3v-14.393a.3.3,0,0,0-.3-.3Z" transform="translate(-1794.345 -1294.435)" fill="#fff"/>
            <path id="Path_7063" data-name="Path 7063" d="M1925.462,1327.581h-8.931a1.094,1.094,0,0,1-1.093-1.093v-13.765a1.094,1.094,0,0,1,1.093-1.093h8.931a1.094,1.094,0,0,1,1.093,1.093v13.765A1.094,1.094,0,0,1,1925.462,1327.581Zm-8.931-15.476a.618.618,0,0,0-.618.618v13.765a.618.618,0,0,0,.618.618h8.931a.619.619,0,0,0,.618-.618v-13.765a.618.618,0,0,0-.618-.618Z" transform="translate(-1902.953 -1294.435)" fill="#fff"/>
          </g>
          <path id="Path_7064" data-name="Path 7064" d="M384.131,508.073l-76.993-.385a1.476,1.476,0,0,1-1.331-2.1l22.626-30.84a2.588,2.588,0,0,1,2.137-1.059c9.065.178,62.284-1.3,62.284-1.3Z" transform="translate(-305.667 -464.978)" fill="#fff"/>
          <path id="Path_7065" data-name="Path 7065" d="M1357.38,505.507l76.993-.385a1.476,1.476,0,0,0,1.331-2.1l-22.626-30.84a2.588,2.588,0,0,0-2.137-1.059c-9.065.178-62.284-1.3-62.284-1.3Z" transform="translate(-1241.128 -462.677)" fill="#fff"/>
          <g id="Group_10545" data-name="Group 10545" transform="translate(14.085 76.475)">
            <path id="Path_7066" data-name="Path 7066" d="M573.5,1158.235h-9.127a1,1,0,0,1-.995-1v-13.961a1,1,0,0,1,.995-1H573.5a1,1,0,0,1,1,1v13.961A1,1,0,0,1,573.5,1158.235Zm-9.127-15.476a.52.52,0,0,0-.52.52v13.961a.52.52,0,0,0,.52.52H573.5a.52.52,0,0,0,.52-.52v-13.961a.52.52,0,0,0-.52-.52Z" transform="translate(-550.898 -1142.284)" fill="#fff"/>
            <path id="Path_7067" data-name="Path 7067" d="M452.335,1158.235h-8.974a1.073,1.073,0,0,1-1.072-1.072v-13.808a1.073,1.073,0,0,1,1.072-1.072h8.974a1.073,1.073,0,0,1,1.072,1.072v13.808A1.073,1.073,0,0,1,452.335,1158.235Zm-8.974-15.476a.6.6,0,0,0-.6.6v13.808a.6.6,0,0,0,.6.6h8.974a.6.6,0,0,0,.6-.6v-13.808a.6.6,0,0,0-.6-.6Z" transform="translate(-442.289 -1142.284)" fill="#fff"/>
            <path id="Path_7068" data-name="Path 7068" d="M573.718,1325.022h-9.56a.78.78,0,0,1-.779-.779V1309.85a.78.78,0,0,1,.779-.779h9.56a.78.78,0,0,1,.779.779v14.393A.78.78,0,0,1,573.718,1325.022Zm-9.56-15.476a.3.3,0,0,0-.3.3v14.393a.3.3,0,0,0,.3.3h9.56a.3.3,0,0,0,.3-.3V1309.85a.3.3,0,0,0-.3-.3Z" transform="translate(-550.896 -1291.876)" fill="#fff"/>
            <rect id="Rectangle_1547" data-name="Rectangle 1547" width="10.642" height="15.476" rx="5.321" transform="translate(10.879 32.909) rotate(180)" fill="#1b6e6d"/>
          </g>
          <g id="Group_10555" data-name="Group 10555" transform="translate(39.678 0)">
            <g id="Group_10546" data-name="Group 10546" transform="translate(4.249 6.618)">
              <path id="Path_7069" data-name="Path 7069" d="M734.589,590.625l-.534-97.283L785.764,467l50.672,27.274.392,98.317c-.03,1.331-3.682,1.948-4.908,1.936l-94.59-.9A2.9,2.9,0,0,1,734.589,590.625Z" transform="translate(-733.816 -466.762)" fill="#1b6e6d"/>
              <path id="Path_7070" data-name="Path 7070" d="M829.879,592.7h-.029l-94.59-.9a3.142,3.142,0,0,1-2.977-3.242l-.534-97.283a.238.238,0,0,1,.13-.213l51.71-26.342a.238.238,0,0,1,.221,0L834.481,492a.238.238,0,0,1,.125.208L835,590.523C834.961,592.153,830.96,592.7,829.879,592.7ZM732.225,491.42l.534,97.136h0a2.667,2.667,0,0,0,2.506,2.768l94.59.9c1.331.013,4.644-.653,4.667-1.7l-.391-98.169L783.693,465.2Z" transform="translate(-731.749 -464.695)" fill="#fff"/>
            </g>
            <g id="Group_10547" data-name="Group 10547" transform="translate(76.588 76.517)">
              <path id="Path_7071" data-name="Path 7071" d="M1564.624,1158.615H1555.5a1,1,0,0,1-1-1v-13.937a1,1,0,0,1,1-1h9.127a1,1,0,0,1,1,1v13.937A1,1,0,0,1,1564.624,1158.615Zm-9.127-15.452a.52.52,0,0,0-.52.52v13.937a.52.52,0,0,0,.52.52h9.127a.52.52,0,0,0,.52-.52v-13.937a.52.52,0,0,0-.52-.52Z" transform="translate(-1542.017 -1142.687)" fill="#fff"/>
              <path id="Path_7072" data-name="Path 7072" d="M1443.455,1158.615h-8.974a1.073,1.073,0,0,1-1.072-1.072v-13.784a1.073,1.073,0,0,1,1.072-1.072h8.974a1.073,1.073,0,0,1,1.072,1.072v13.784A1.073,1.073,0,0,1,1443.455,1158.615Zm-8.974-15.452a.6.6,0,0,0-.6.6v13.784a.6.6,0,0,0,.6.6h8.974a.6.6,0,0,0,.6-.6v-13.784a.6.6,0,0,0-.6-.6Z" transform="translate(-1433.409 -1142.687)" fill="#fff"/>
              <path id="Path_7073" data-name="Path 7073" d="M1564.838,1325.15h-9.559a.78.78,0,0,1-.779-.779V1310a.78.78,0,0,1,.779-.779h9.559a.78.78,0,0,1,.779.779v14.37A.78.78,0,0,1,1564.838,1325.15Zm-9.559-15.452a.3.3,0,0,0-.3.3v14.37a.3.3,0,0,0,.3.3h9.559a.3.3,0,0,0,.3-.3V1310a.3.3,0,0,0-.3-.3Z" transform="translate(-1542.016 -1292.053)" fill="#fff"/>
              <path id="Path_7074" data-name="Path 7074" d="M1443.431,1325.15H1434.5a1.094,1.094,0,0,1-1.093-1.093v-13.742a1.094,1.094,0,0,1,1.093-1.093h8.931a1.094,1.094,0,0,1,1.093,1.093v13.742A1.094,1.094,0,0,1,1443.431,1325.15ZM1434.5,1309.7a.618.618,0,0,0-.618.618v13.742a.619.619,0,0,0,.618.618h8.931a.619.619,0,0,0,.618-.618v-13.742a.618.618,0,0,0-.618-.618Z" transform="translate(-1433.407 -1292.053)" fill="#fff"/>
            </g>
            <g id="Group_10548" data-name="Group 10548" transform="translate(43.585 28.501)">
              <path id="Path_7075" data-name="Path 7075" d="M1244.5,689.936h-9.127a1,1,0,0,1-.995-1V677.952a1,1,0,0,1,.995-1h9.127a1,1,0,0,1,1,1v10.989A1,1,0,0,1,1244.5,689.936Zm-9.127-12.5a.52.52,0,0,0-.52.52v10.989a.52.52,0,0,0,.52.52h9.127a.52.52,0,0,0,.52-.52V677.952a.52.52,0,0,0-.52-.52Z" transform="translate(-1221.896 -676.957)" fill="#fff"/>
              <path id="Path_7076" data-name="Path 7076" d="M1123.334,689.936h-8.974a1.073,1.073,0,0,1-1.072-1.072V678.029a1.073,1.073,0,0,1,1.072-1.072h8.974a1.073,1.073,0,0,1,1.072,1.072v10.836A1.073,1.073,0,0,1,1123.334,689.936Zm-8.974-12.5a.6.6,0,0,0-.6.6v10.836a.6.6,0,0,0,.6.6h8.974a.6.6,0,0,0,.6-.6V678.029a.6.6,0,0,0-.6-.6Z" transform="translate(-1113.288 -676.957)" fill="#fff"/>
              <path id="Path_7077" data-name="Path 7077" d="M1244.718,824.7h-9.559a.78.78,0,0,1-.779-.779V812.495a.78.78,0,0,1,.779-.779h9.559a.78.78,0,0,1,.779.779v11.422A.78.78,0,0,1,1244.718,824.7Zm-9.559-12.5a.3.3,0,0,0-.3.3v11.422a.3.3,0,0,0,.3.3h9.559a.3.3,0,0,0,.3-.3V812.495a.3.3,0,0,0-.3-.3Z" transform="translate(-1221.895 -797.823)" fill="#fff"/>
              <path id="Path_7078" data-name="Path 7078" d="M1123.311,824.7h-8.932a1.094,1.094,0,0,1-1.093-1.093V812.809a1.094,1.094,0,0,1,1.093-1.093h8.932a1.094,1.094,0,0,1,1.093,1.093V823.6A1.094,1.094,0,0,1,1123.311,824.7Zm-8.932-12.5a.618.618,0,0,0-.618.618V823.6a.618.618,0,0,0,.618.618h8.932a.618.618,0,0,0,.618-.618V812.809a.618.618,0,0,0-.618-.618Z" transform="translate(-1113.286 -797.823)" fill="#fff"/>
            </g>
            <g id="Group_10549" data-name="Group 10549" transform="translate(11.146 76.467)">
              <path id="Path_7079" data-name="Path 7079" d="M929.856,1158.156h-9.127a1,1,0,0,1-1-1V1143.2a1,1,0,0,1,1-1h9.127a1,1,0,0,1,.995,1v13.961A1,1,0,0,1,929.856,1158.156Zm-9.127-15.476a.521.521,0,0,0-.52.52v13.961a.521.521,0,0,0,.52.52h9.127a.52.52,0,0,0,.52-.52V1143.2a.52.52,0,0,0-.52-.52Z" transform="translate(-907.25 -1142.205)" fill="#fff"/>
              <path id="Path_7080" data-name="Path 7080" d="M808.689,1158.156h-8.974a1.073,1.073,0,0,1-1.072-1.072v-13.808a1.073,1.073,0,0,1,1.072-1.072h8.974a1.073,1.073,0,0,1,1.072,1.072v13.808A1.073,1.073,0,0,1,808.689,1158.156Zm-8.974-15.476a.6.6,0,0,0-.6.6v13.808a.6.6,0,0,0,.6.6h8.974a.6.6,0,0,0,.6-.6v-13.808a.6.6,0,0,0-.6-.6Z" transform="translate(-798.643 -1142.205)" fill="#fff"/>
              <rect id="Rectangle_1548" data-name="Rectangle 1548" width="10.642" height="15.476" rx="5.249" transform="translate(12.722 17.433)" fill="#1b6e6d"/>
              <rect id="Rectangle_1549" data-name="Rectangle 1549" width="10.642" height="15.476" rx="5.321" transform="translate(0.237 17.433)" fill="#1b6e6d"/>
            </g>
            <g id="Group_10550" data-name="Group 10550">
              <path id="Path_7081" data-name="Path 7081" d="M749.5,403.042l54.31,28.985a1.6,1.6,0,0,1,.47,2.693l-4.566,4.209-50.61-25.979a1.2,1.2,0,0,0-1.05,0l-51.6,26.037-2.954-3.52c-1.215-1.448-.715-3.382,1.125-4.356l53.034-28.07A2.028,2.028,0,0,1,749.5,403.042Z" transform="translate(-692.601 -402.581)" fill="#fff"/>
              <path id="Path_7082" data-name="Path 7082" d="M694.387,437.146a.237.237,0,0,1-.182-.085l-2.954-3.52a2.849,2.849,0,0,1-.669-2.4,3.453,3.453,0,0,1,1.865-2.314l53.034-28.07a2.257,2.257,0,0,1,2.065,0l54.31,28.985a2.048,2.048,0,0,1,1.138,1.511,1.8,1.8,0,0,1-.618,1.567l-4.566,4.209a.237.237,0,0,1-.27.037l-50.611-25.979a.962.962,0,0,0-.835,0l-51.6,26.037A.237.237,0,0,1,694.387,437.146Zm52.124-36.165a1.739,1.739,0,0,0-.807.192l-53.034,28.07a2.982,2.982,0,0,0-1.62,1.985,2.382,2.382,0,0,0,.566,2.008l2.833,3.375,51.433-25.952a1.439,1.439,0,0,1,1.266,0l50.463,25.9,4.443-4.1a1.333,1.333,0,0,0,.469-1.157,1.583,1.583,0,0,0-.89-1.152l-54.31-28.985A1.738,1.738,0,0,0,746.51,400.981Z" transform="translate(-690.531 -400.504)" fill="#1b6e6d"/>
            </g>
            <g id="Group_10554" data-name="Group 10554" transform="translate(36.984 75.311)">
              <rect id="Rectangle_1550" data-name="Rectangle 1550" width="28.353" height="58.462" rx="13.832" transform="translate(4.478)" fill="#1b6e6d"/>
              <g id="Group_10551" data-name="Group 10551" transform="translate(5.686 1.392)">
                <rect id="Rectangle_1551" data-name="Rectangle 1551" width="25.351" height="54.767" rx="9.221" transform="translate(25.588 55.005) rotate(180)" fill="#1b6e6d"/>
                <path id="Path_7083" data-name="Path 7083" d="M1129.052,1199.741H1105.6a1.19,1.19,0,0,1-1.188-1.188v-52.866a1.19,1.19,0,0,1,1.188-1.188h23.449a1.19,1.19,0,0,1,1.188,1.188v52.866A1.19,1.19,0,0,1,1129.052,1199.741Zm-23.449-54.767a.714.714,0,0,0-.713.713v52.866a.714.714,0,0,0,.713.713h23.449a.714.714,0,0,0,.713-.713v-52.866a.714.714,0,0,0-.713-.713Z" transform="translate(-1104.414 -1144.498)" fill="#fff"/>
              </g>
              <g id="Group_10552" data-name="Group 10552" transform="translate(0 54.245)">
                <rect id="Rectangle_1552" data-name="Rectangle 1552" width="36.713" height="5.098" rx="2.549" transform="translate(36.951 5.335) rotate(180)" fill="#1b6e6d"/>
                <path id="Path_7084" data-name="Path 7084" d="M1085.539,1662.726h-35.367a.912.912,0,0,1-.911-.911v-3.752a.912.912,0,0,1,.911-.911h35.367a.912.912,0,0,1,.911.911v3.752A.912.912,0,0,1,1085.539,1662.726Zm-35.367-5.1a.436.436,0,0,0-.435.435v3.752a.436.436,0,0,0,.435.435h35.367a.436.436,0,0,0,.435-.435v-3.752a.436.436,0,0,0-.435-.435Z" transform="translate(-1049.262 -1657.153)" fill="#fff"/>
              </g>
              <g id="Group_10553" data-name="Group 10553" transform="translate(10.092 8.14)">
                <path id="Path_7085" data-name="Path 7085" d="M1153.87,1221a.238.238,0,0,1-.129-.438l16.439-10.567a.238.238,0,0,1,.257.4L1154,1220.96A.238.238,0,0,1,1153.87,1221Z" transform="translate(-1152.964 -1209.955)" fill="#fff"/>
                <path id="Path_7086" data-name="Path 7086" d="M1147.387,1295.8a.238.238,0,0,1-.129-.438l15.292-9.83a.238.238,0,0,1,.257.4l-15.292,9.83A.237.237,0,0,1,1147.387,1295.8Z" transform="translate(-1147.149 -1277.71)" fill="#fff"/>
              </g>
            </g>
            <path id="Path_7087" data-name="Path 7087" d="M756.751,1014.187a.238.238,0,0,1,0-.475l97.289-.158h0a.238.238,0,0,1,0,.475l-97.289.158Z" transform="translate(-749.71 -950.35)" fill="#fff"/>
          </g>
        </g>
        <g id="Group_10562" data-name="Group 10562" transform="translate(322.571 335)">
          <g id="Group_10558" data-name="Group 10558" transform="translate(0 1.009)">
            <g id="Group_10557" data-name="Group 10557" transform="translate(14.04)">
              <path id="Path_7088" data-name="Path 7088" d="M638.1,346.99a.238.238,0,0,1-.223-.319l.633-1.732a.238.238,0,1,1,.447.163l-.633,1.732A.238.238,0,0,1,638.1,346.99Z" transform="translate(-634.554 -344.783)" fill="#fff"/>
              <path id="Path_7089" data-name="Path 7089" d="M623.79,386.118a.238.238,0,0,1-.223-.319l.633-1.732a.238.238,0,0,1,.447.163l-.633,1.732A.238.238,0,0,1,623.79,386.118Z" transform="translate(-621.724 -379.876)" fill="#fff"/>
              <path id="Path_7090" data-name="Path 7090" d="M607.784,363.63a.238.238,0,0,1-.082-.014l-1.732-.633a.238.238,0,1,1,.163-.446l1.731.633a.238.238,0,0,1-.082.461Z" transform="translate(-605.814 -360.692)" fill="#fff"/>
              <path id="Path_7091" data-name="Path 7091" d="M646.912,377.936a.239.239,0,0,1-.082-.014l-1.732-.633a.238.238,0,0,1,.163-.447l1.732.633a.238.238,0,0,1-.082.461Z" transform="translate(-640.908 -373.524)" fill="#fff"/>
            </g>
            <path id="Path_7092" data-name="Path 7092" d="M472.359,402.167a2.692,2.692,0,0,1-1.788-.676,2.76,2.76,0,0,1-.935-1.933,2.833,2.833,0,0,1,2.6-2.99,2.7,2.7,0,0,1,1.987.669,2.76,2.76,0,0,1,.935,1.933,2.834,2.834,0,0,1-2.6,2.99C472.491,402.164,472.425,402.167,472.359,402.167Zm.072-5.131c-.055,0-.109,0-.164.006a2.356,2.356,0,0,0-2.156,2.489,2.29,2.29,0,0,0,.774,1.6,2.222,2.222,0,0,0,1.639.552,2.356,2.356,0,0,0,2.157-2.489,2.29,2.29,0,0,0-.774-1.6A2.221,2.221,0,0,0,472.431,397.036Z" transform="translate(-469.631 -391.222)" fill="#fff"/>
          </g>
          <g id="Group_10560" data-name="Group 10560" transform="translate(146.628 0)">
            <g id="Group_10559" data-name="Group 10559" transform="translate(13.022)">
              <path id="Path_7093" data-name="Path 7093" d="M2048.19,337.319a.237.237,0,0,1-.238-.238v-1.844a.238.238,0,1,1,.475,0v1.844A.238.238,0,0,1,2048.19,337.319Z" transform="translate(-2044.883 -335)" fill="#fff"/>
              <path id="Path_7094" data-name="Path 7094" d="M2048.19,378.981a.238.238,0,0,1-.238-.238V376.9a.238.238,0,1,1,.475,0v1.844A.238.238,0,0,1,2048.19,378.981Z" transform="translate(-2044.883 -372.367)" fill="#fff"/>
              <path id="Path_7095" data-name="Path 7095" d="M2020.259,365.248h-1.844a.238.238,0,0,1,0-.475h1.844a.238.238,0,1,1,0,.475Z" transform="translate(-2018.178 -361.704)" fill="#fff"/>
              <path id="Path_7096" data-name="Path 7096" d="M2061.921,365.248h-1.844a.238.238,0,0,1,0-.475h1.844a.238.238,0,0,1,0,.475Z" transform="translate(-2055.544 -361.704)" fill="#fff"/>
            </g>
            <path id="Path_7097" data-name="Path 7097" d="M1894.582,359.348a2.665,2.665,0,0,1-.966-.182,2.71,2.71,0,0,1-1.514-1.467,2.781,2.781,0,0,1,1.386-3.633,2.646,2.646,0,0,1,2.058-.053,2.71,2.71,0,0,1,1.513,1.467,2.782,2.782,0,0,1-1.386,3.633A2.661,2.661,0,0,1,1894.582,359.348Zm0-5.042a2.184,2.184,0,0,0-.9.194h0a2.3,2.3,0,0,0-1.145,3.011,2.239,2.239,0,0,0,1.25,1.212,2.174,2.174,0,0,0,1.691-.044,2.3,2.3,0,0,0,1.145-3.011,2.239,2.239,0,0,0-1.249-1.212A2.188,2.188,0,0,0,1894.58,354.306Zm-.994-.023h0Z" transform="translate(-1891.873 -351.889)" fill="#fff"/>
            <path id="Path_7098" data-name="Path 7098" d="M2072.643,508.689a1.835,1.835,0,0,1-.666-.126,1.864,1.864,0,0,1-1.042-1.009,1.913,1.913,0,0,1,.954-2.5,1.822,1.822,0,0,1,1.417-.037,1.864,1.864,0,0,1,1.041,1.009,1.913,1.913,0,0,1-.954,2.5A1.833,1.833,0,0,1,2072.643,508.689Zm0-3.32a1.359,1.359,0,0,0-.557.12,1.435,1.435,0,0,0-.713,1.876,1.394,1.394,0,0,0,.777.755,1.352,1.352,0,0,0,1.051-.027,1.436,1.436,0,0,0,.712-1.876,1.392,1.392,0,0,0-.777-.755A1.359,1.359,0,0,0,2072.642,505.369Z" transform="translate(-2052.334 -487.378)" fill="#fff"/>
          </g>
          <g id="Group_10561" data-name="Group 10561" transform="translate(85.1 160.495)">
            <path id="Path_7099" data-name="Path 7099" d="M1295.308,1908.688a.238.238,0,0,1-.041-.472,96.6,96.6,0,0,0,39.069-16.428.238.238,0,0,1,.276.387,97.077,97.077,0,0,1-39.263,16.509A.241.241,0,0,1,1295.308,1908.688Z" transform="translate(-1295.071 -1891.744)" fill="#fff"/>
            <path id="Path_7100" data-name="Path 7100" d="M1489.935,2009.44a.238.238,0,0,1-.085-.46,96.431,96.431,0,0,0,15.611-7.651.238.238,0,1,1,.247.406,96.916,96.916,0,0,1-15.688,7.689A.237.237,0,0,1,1489.935,2009.44Z" transform="translate(-1469.632 -1990)" fill="#fff"/>
          </g>
        </g>
        <g id="Group_10586" data-name="Group 10586" transform="translate(347.438 407.25)">
          <g id="Group_10572" data-name="Group 10572" transform="translate(10.384 43.217)">
            <g id="Group_10566" data-name="Group 10566" transform="translate(0 57.966)">
              <g id="Group_10563" data-name="Group 10563" transform="translate(2.992)">
                <path id="Path_7101" data-name="Path 7101" d="M846.783,2019.544l-.764,7.318-3.009-.054-.127-7.211Z" transform="translate(-842.645 -2019.306)" fill="#1b6e6d"/>
                <path id="Path_7102" data-name="Path 7102" d="M843.95,2025.033h0l-3.009-.054a.238.238,0,0,1-.234-.233l-.127-7.211a.238.238,0,0,1,.234-.242l3.9-.054a.246.246,0,0,1,.179.077.237.237,0,0,1,.061.185l-.764,7.318A.238.238,0,0,1,843.95,2025.033Zm-2.776-.525,2.562.046.713-6.835-3.394.047Z" transform="translate(-840.576 -2017.239)" fill="#fff"/>
              </g>
              <g id="Group_10565" data-name="Group 10565" transform="translate(0 5.599)">
                <g id="Group_10564" data-name="Group 10564">
                  <path id="Path_7103" data-name="Path 7103" d="M819.784,2082.6a18.382,18.382,0,0,1-4.959-.164,1.155,1.155,0,0,1-.927-1.45c.522-1.84,1.378-5.426,2.794-7.011l.579,1,.422-.89a.415.415,0,0,1,.316-.2l1.1-.023a.413.413,0,0,1,.446.337l.137.773,1.023-1,.1,7.374A1.155,1.155,0,0,1,819.784,2082.6Z" transform="translate(-813.617 -2073.617)" fill="#1b6e6d"/>
                  <path id="Path_7104" data-name="Path 7104" d="M815.859,2080.856a18.725,18.725,0,0,1-3.136-.264,1.413,1.413,0,0,1-.955-.635,1.384,1.384,0,0,1-.161-1.115c.06-.213.125-.449.2-.7.542-1.974,1.361-4.958,2.65-6.4a.235.235,0,0,1,.2-.078.238.238,0,0,1,.181.117l.352.606.229-.482.011-.021a.656.656,0,0,1,.5-.311l1.117-.024a.651.651,0,0,1,.685.533l.058.329.7-.688a.238.238,0,0,1,.4.167l.1,7.374a1.391,1.391,0,0,1-1.243,1.5A17.914,17.914,0,0,1,815.859,2080.856Zm1.863-.334h0Zm-3.126-8.211c-1.1,1.445-1.836,4.136-2.335,5.953-.07.256-.136.493-.2.708a.9.9,0,0,0,.106.731.932.932,0,0,0,.633.42,18.114,18.114,0,0,0,4.894.163.92.92,0,0,0,.819-1l-.092-6.838-.626.615a.237.237,0,0,1-.4-.128l-.137-.772a.177.177,0,0,0-.191-.142l-1.117.023a.174.174,0,0,0-.113.075l-.416.876a.238.238,0,0,1-.2.135.227.227,0,0,1-.215-.118Z" transform="translate(-811.555 -2071.542)" fill="#fff"/>
                </g>
                <path id="Path_7105" data-name="Path 7105" d="M825.955,2143.3a9.86,9.86,0,0,1-2.48-.32.238.238,0,0,1,.12-.46,8.6,8.6,0,0,0,4.425.041.238.238,0,1,1,.148.451A7.66,7.66,0,0,1,825.955,2143.3Z" transform="translate(-822.087 -2135.197)" fill="#fff"/>
                <path id="Path_7106" data-name="Path 7106" d="M837.686,2117.8H835.24a.238.238,0,1,1,0-.475h2.446a.238.238,0,0,1,0,.475Z" transform="translate(-832.585 -2112.608)" fill="#fff"/>
              </g>
            </g>
            <g id="Group_10570" data-name="Group 10570" transform="translate(25.581 57.899)">
              <g id="Group_10567" data-name="Group 10567" transform="translate(0.663)">
                <path id="Path_7107" data-name="Path 7107" d="M1068.421,2019.613l.949,8.545,3.627.753-.221-10.02Z" transform="translate(-1068.183 -2018.654)" fill="#1b6e6d"/>
                <path id="Path_7108" data-name="Path 7108" d="M1070.928,2027.081a.231.231,0,0,1-.048-.005l-3.627-.753a.237.237,0,0,1-.188-.207l-.949-8.545a.238.238,0,0,1,.2-.261l4.355-.722a.238.238,0,0,1,.276.229l.221,10.02a.238.238,0,0,1-.238.243Zm-3.41-1.188,3.166.657-.208-9.447-3.862.64Z" transform="translate(-1066.115 -2016.586)" fill="#fff"/>
              </g>
              <g id="Group_10569" data-name="Group 10569" transform="translate(0 7.698)">
                <g id="Group_10568" data-name="Group 10568">
                  <path id="Path_7109" data-name="Path 7109" d="M1062.009,2098.757c-.06-1.307-.033-3.793.9-5.136l2.9,1.024v-.614a.36.36,0,0,1,.324-.371l1.618-.092a3.547,3.547,0,0,1,1.757.358c1.7.829,5.343,2.8,6.116,4.852a.746.746,0,0,1-.617.988,59.683,59.683,0,0,1-12.1-.085A.974.974,0,0,1,1062.009,2098.757Z" transform="translate(-1061.752 -2093.324)" fill="#1b6e6d"/>
                  <path id="Path_7110" data-name="Path 7110" d="M1068.215,2098.187c-1.889,0-4.32-.086-7.394-.335a1.214,1.214,0,0,1-1.116-1.149c-.063-1.376-.025-3.89.939-5.283a.238.238,0,0,1,.275-.089l2.585.912v-.278a.6.6,0,0,1,.548-.609l1.618-.092a3.8,3.8,0,0,1,1.875.382c1.993.971,5.452,2.909,6.234,4.982a.95.95,0,0,1-.077.827,1,1,0,0,1-.731.481A36.637,36.637,0,0,1,1068.215,2098.187Zm-7.278-6.345c-.789,1.308-.815,3.573-.757,4.839h0a.738.738,0,0,0,.68.7,59.375,59.375,0,0,0,12.049.086.527.527,0,0,0,.386-.253.472.472,0,0,0,.04-.416c-.751-1.99-4.444-3.965-6-4.722a3.326,3.326,0,0,0-1.64-.335l-1.618.092a.125.125,0,0,0-.1.134v.614a.238.238,0,0,1-.317.224Z" transform="translate(-1059.685 -2091.258)" fill="#fff"/>
                </g>
                <path id="Path_7111" data-name="Path 7111" d="M1078.377,2137.431a54.652,54.652,0,0,1-6.221-.362.238.238,0,0,1,.054-.472,46.611,46.611,0,0,0,10.436.146.238.238,0,0,1,.064.471A36.135,36.135,0,0,1,1078.377,2137.431Z" transform="translate(-1070.681 -2131.921)" fill="#fff"/>
                <path id="Path_7112" data-name="Path 7112" d="M1117.791,2103.678a.236.236,0,0,1-.138-.044l-2.793-1.991a.238.238,0,1,1,.276-.387l2.793,1.991a.238.238,0,0,1-.138.431Z" transform="translate(-1109.083 -2100.186)" fill="#fff"/>
              </g>
            </g>
            <g id="Group_10571" data-name="Group 10571" transform="translate(1.566)">
              <path id="Path_7113" data-name="Path 7113" d="M852.795,1458.4s5.41,35.8,4.3,59.386l-5.785.148s-6.426-36.2-9.521-42.147c0,0-8.642,33.163-8.967,41.8l-5.234-.159s-.8-18.341-.836-23.755c-.115-15.5,1.38-22.535,2.2-25.874.752-3.066,1.56-5.558,2.149-7.243l1.969-5.565Z" transform="translate(-826.748 -1454.991)" fill="#fff"/>
              <path id="Path_7114" data-name="Path 7114" d="M969.829,1615.954a.238.238,0,0,1-.231-.3l.981-3.932a3.023,3.023,0,0,1,2.311-2.195l.622-.132a.238.238,0,1,1,.1.465l-.622.132a2.549,2.549,0,0,0-1.95,1.847l-.98,3.929A.238.238,0,0,1,969.829,1615.954Z" transform="translate(-954.864 -1593.475)" fill="#1b6e6d"/>
            </g>
          </g>
          <g id="Group_10580" data-name="Group 10580" transform="translate(0 0.264)">
            <path id="Path_7115" data-name="Path 7115" d="M876.644,1453.052s9.759-.693,8.911-5.914-7.539-8.452-12.257-9.3-19.643,4.42-13.381,9.86S876.644,1453.052,876.644,1453.052Z" transform="translate(-843.192 -1396.571)" fill="#fff"/>
            <g id="Group_10575" data-name="Group 10575" transform="translate(48.888)">
              <g id="Group_10573" data-name="Group 10573" transform="translate(3.286)">
                <path id="Path_7116" data-name="Path 7116" d="M1220.542,1046.127s.7-3.935.952-4.99c.283-1.2-1.606-.1-2.292,3.609Z" transform="translate(-1218.965 -1040.434)" fill="#1b6e6d"/>
                <path id="Path_7117" data-name="Path 7117" d="M1218.476,1044.293a.238.238,0,0,1-.171-.072l-1.34-1.381a.238.238,0,0,1-.063-.209c.5-2.719,1.611-4.042,2.191-4.237a.433.433,0,0,1,.455.071.642.642,0,0,1,.111.654c-.245,1.037-.942,4.938-.949,4.977a.237.237,0,0,1-.164.185A.241.241,0,0,1,1218.476,1044.293Zm-1.084-1.7.932.96c.193-1.071.672-3.7.872-4.547a.709.709,0,0,0,.023-.161C1218.871,1038.974,1217.874,1040.127,1217.392,1042.6Z" transform="translate(-1216.898 -1038.363)" fill="#fff"/>
              </g>
              <g id="Group_10574" data-name="Group 10574" transform="translate(0 3.248)">
                <path id="Path_7118" data-name="Path 7118" d="M1191.832,1073.792c.1.11.21.218.321.321a1.5,1.5,0,0,1,.546,1.153,19.839,19.839,0,0,1-1.258,3.137,2.3,2.3,0,0,0-.216.908c-.012.435.209,3.022.209,3.022l-3.179.195a15.248,15.248,0,0,0,.254-2.419c.126-1.978-.215-1.132-.9-3.117s.114-3.775.506-3.993,1.012.38,1.012.38.321-1.171,1.025-1.205c.369-.018.463.353.706.6Z" transform="translate(-1187.105 -1071.934)" fill="#1b6e6d"/>
                <path id="Path_7119" data-name="Path 7119" d="M1186.178,1080.7a.238.238,0,0,1-.228-.3,15.682,15.682,0,0,0,.245-2.368c.072-1.131,0-1.252-.227-1.61a6.079,6.079,0,0,1-.66-1.414c-.708-2.056.079-3.98.615-4.278a1,1,0,0,1,1.015.192c.168-.4.521-1.017,1.126-1.047a.811.811,0,0,1,.72.455,1.622,1.622,0,0,0,.166.211l.976,1.028c.1.106.2.211.31.31a1.732,1.732,0,0,1,.621,1.353,18.27,18.27,0,0,1-1.279,3.212,2.047,2.047,0,0,0-.194.814c-.009.333.133,2.1.209,2.995a.237.237,0,0,1-.222.257l-3.18.195Zm.057-9.577a.166.166,0,0,0-.081.018,3.992,3.992,0,0,0-.4,3.708,5.659,5.659,0,0,0,.613,1.318c.282.452.376.671.3,1.892-.074,1.17-.151,1.814-.2,2.148l2.633-.161c-.055-.659-.2-2.439-.19-2.806a2.527,2.527,0,0,1,.238-1,17.77,17.77,0,0,0,1.237-3.063,1.276,1.276,0,0,0-.471-.952c-.115-.106-.224-.218-.332-.332h0l-.972-1.023a2,2,0,0,1-.215-.269c-.143-.2-.194-.258-.308-.253-.434.021-.736.77-.807,1.031a.238.238,0,0,1-.394.109A1.26,1.26,0,0,0,1186.235,1071.12Z" transform="translate(-1185.027 -1069.867)" fill="#fff"/>
              </g>
              <path id="Path_7120" data-name="Path 7120" d="M1202.364,1084.923a1.659,1.659,0,0,1-1.231-.723c-.862-1.056-.3-3.1-.271-3.19a.238.238,0,1,1,.457.129c-.005.019-.523,1.9.182,2.76.393.481.785.61,1,.525a.331.331,0,0,0,.18-.355,1.645,1.645,0,0,0-.411-.981.238.238,0,0,1,.332-.34,2.1,2.1,0,0,1,.553,1.289.791.791,0,0,1-.48.829A.847.847,0,0,1,1202.364,1084.923Z" transform="translate(-1199.045 -1076.458)" fill="#fff"/>
            </g>
            <g id="Group_10576" data-name="Group 10576" transform="translate(6.041 12.467)">
              <path id="Path_7121" data-name="Path 7121" d="M819.864,1161.775l-5.361-.182a116.422,116.422,0,0,1-2.143,12.684,30.493,30.493,0,0,0-5.424-6.541c-5.056-4.5-18.952-4.5-24.307-.351-3.609,2.795-10.492,10.059-10.894,18.678a.913.913,0,0,0,.487.851,5.486,5.486,0,0,0,5.394-.166l2.044-1.241s-2.8,9.958-2.613,11.559,5.108,4.324,11.256,2.09,17.717-2.865,19.574.919l-1.418-13.06a7.17,7.17,0,0,0,6.792,3.326C824.834,1189.617,819.864,1161.775,819.864,1161.775Z" transform="translate(-771.497 -1161.355)" fill="#fff"/>
              <path id="Path_7122" data-name="Path 7122" d="M805.81,1198.246a.237.237,0,0,1-.213-.133c-1.763-3.593-13.1-3.047-19.279-.8-4.287,1.557-7.992.772-10.029-.482a2.919,2.919,0,0,1-1.544-1.8c-.169-1.419,1.858-8.9,2.459-11.072l-1.531.93a5.746,5.746,0,0,1-5.628.173,1.155,1.155,0,0,1-.614-1.073c.4-8.475,7.092-15.839,10.986-18.855,5.563-4.307,19.593-4.1,24.61.362a30.228,30.228,0,0,1,5.169,6.126,121.965,121.965,0,0,0,2-12.118.239.239,0,0,1,.244-.211l5.361.182a.238.238,0,0,1,.226.2c.14.787,3.378,19.354-2.077,26.3a6.35,6.35,0,0,1-4.755,2.547,7.413,7.413,0,0,1-6.476-2.716l1.324,12.187a.237.237,0,0,1-.17.254A.234.234,0,0,1,805.81,1198.246ZM777.593,1183.2a.238.238,0,0,1,.229.3c-.966,3.429-2.753,10.237-2.606,11.466a2.584,2.584,0,0,0,1.321,1.455c1.943,1.2,5.49,1.94,9.618.44,5.379-1.954,16.233-2.94,19.321.266l-1.321-12.158a.238.238,0,0,1,.434-.157,6.911,6.911,0,0,0,6.58,3.22,5.893,5.893,0,0,0,4.411-2.366c5.037-6.412,2.348-23.725,2.015-25.732l-4.948-.168a114.529,114.529,0,0,1-2.123,12.5.238.238,0,0,1-.431.068,30.172,30.172,0,0,0-5.382-6.49c-4.89-4.35-18.574-4.545-24-.341-3.83,2.966-10.415,10.2-10.8,18.5a.679.679,0,0,0,.36.63,5.27,5.27,0,0,0,5.16-.158l2.045-1.241A.236.236,0,0,1,777.593,1183.2Z" transform="translate(-769.429 -1159.289)" fill="#1b6e6d"/>
            </g>
            <g id="Group_10579" data-name="Group 10579" transform="translate(0 25.737)">
              <g id="Group_10577" data-name="Group 10577" transform="translate(0.383)">
                <path id="Path_7123" data-name="Path 7123" d="M717.485,1290.305h13.156a.933.933,0,0,1,.877.771l2.986,18.265a.63.63,0,0,1-.625.771H720.723a.933.933,0,0,1-.877-.771l-2.986-18.265A.63.63,0,0,1,717.485,1290.305Z" transform="translate(-716.612 -1290.067)" fill="#1b6e6d"/>
                <path id="Path_7124" data-name="Path 7124" d="M731.814,1308.281H718.658a1.165,1.165,0,0,1-1.112-.97l-2.986-18.265a.92.92,0,0,1,.193-.748.858.858,0,0,1,.667-.3h13.156a1.165,1.165,0,0,1,1.112.97l2.986,18.266a.92.92,0,0,1-.193.748A.858.858,0,0,1,731.814,1308.281Zm-16.394-19.807a.391.391,0,0,0-.3.131.441.441,0,0,0-.086.363l2.986,18.266a.7.7,0,0,0,.643.571h13.156a.39.39,0,0,0,.3-.132.441.441,0,0,0,.086-.363l-2.986-18.265a.7.7,0,0,0-.643-.571Z" transform="translate(-714.547 -1287.999)" fill="#fff"/>
              </g>
              <g id="Group_10578" data-name="Group 10578" transform="translate(0 7.842)">
                <path id="Path_7125" data-name="Path 7125" d="M714.679,1366.367l.311,1.829,4.938-.857a1.3,1.3,0,0,1,1.518,1.121,1.777,1.777,0,0,1-.784,1.695,17.17,17.17,0,0,1-5.384,1.892c-2.277.419-2.445-2.875-1.882-4.521C713.835,1366.243,714.679,1366.367,714.679,1366.367Z" transform="translate(-712.888 -1366.127)" fill="#1b6e6d"/>
                <path id="Path_7126" data-name="Path 7126" d="M712.845,1370.257a1.676,1.676,0,0,1-1.316-.595c-.917-1.063-.789-3.181-.414-4.277.5-1.453,1.5-1.323,1.543-1.317a.238.238,0,0,1,.2.2l.271,1.594,4.7-.817a1.583,1.583,0,0,1,1.21.3,1.483,1.483,0,0,1,.584,1.028,2.023,2.023,0,0,1-.879,1.911,17.5,17.5,0,0,1-5.483,1.935A2.3,2.3,0,0,1,712.845,1370.257Zm-.42-5.7c-.219.049-.606.244-.859.986-.407,1.188-.374,3,.324,3.813a1.268,1.268,0,0,0,1.29.4,16.822,16.822,0,0,0,5.285-1.849,1.551,1.551,0,0,0,.69-1.478,1.014,1.014,0,0,0-.4-.7,1.1,1.1,0,0,0-.843-.21l-4.935.857a.238.238,0,0,1-.275-.194Z" transform="translate(-710.832 -1364.062)" fill="#fff"/>
              </g>
            </g>
            <path id="Path_7127" data-name="Path 7127" d="M1033.755,1293.16a1.241,1.241,0,0,1-.438-.08l-1.5-.568a1.231,1.231,0,0,1-.795-1.144v-3.617a.6.6,0,0,1,.6-.6h1.6a.238.238,0,0,1,0,.475h-1.6a.124.124,0,0,0-.126.122v3.617a.753.753,0,0,0,.487.7l1.5.568a.764.764,0,0,0,.539,0l1.68-.629a.753.753,0,0,0,.489-.7v-3.556a.124.124,0,0,0-.126-.122h-1.461a.238.238,0,1,1,0-.475h1.461a.6.6,0,0,1,.6.6v3.556a1.23,1.23,0,0,1-.8,1.145l-1.68.629A1.24,1.24,0,0,1,1033.755,1293.16Z" transform="translate(-998.007 -1261.504)" fill="#1b6e6d"/>
            <path id="Path_7128" data-name="Path 7128" d="M1086.952,1537.733a.238.238,0,0,1-.235-.206l-.53-3.878a.238.238,0,0,1,.471-.064l.53,3.878a.238.238,0,0,1-.2.268Z" transform="translate(-1047.486 -1482.345)" fill="#1b6e6d"/>
          </g>
          <g id="Group_10585" data-name="Group 10585" transform="translate(22.006)">
            <g id="Group_10583" data-name="Group 10583">
              <g id="Group_10581" data-name="Group 10581" transform="translate(2.779 7.877)">
                <path id="Path_7129" data-name="Path 7129" d="M961.182,1115.673l.644,6.6a1.67,1.67,0,0,0,1.244,1.41l.8.206a.476.476,0,0,1,.115.878,9.4,9.4,0,0,1-10.212-.4.551.551,0,0,1,.216-.98l1.124-.249a1.672,1.672,0,0,0,1.287-1.33l.261-7.3Z" transform="translate(-953.313 -1114.268)" fill="#1b6e6d"/>
                <path id="Path_7130" data-name="Path 7130" d="M957.037,1124.246a9.6,9.6,0,0,1-5.468-1.754.789.789,0,0,1,.3-1.409l1.124-.249a1.431,1.431,0,0,0,1.1-1.124l.26-7.282a.238.238,0,0,1,.3-.222l4.523,1.168a.238.238,0,0,1,.177.207l.644,6.6a1.423,1.423,0,0,0,1.067,1.2l.8.206a.714.714,0,0,1,.172,1.316A10.385,10.385,0,0,1,957.037,1124.246Zm-2.22-11.5-.25,7a.227.227,0,0,1,0,.034,1.906,1.906,0,0,1-1.47,1.519l-1.124.249a.311.311,0,0,0-.243.242.306.306,0,0,0,.119.316,9.1,9.1,0,0,0,9.952.384.238.238,0,0,0-.058-.441l-.8-.206a1.9,1.9,0,0,1-1.421-1.611l-.629-6.437Z" transform="translate(-951.244 -1112.2)" fill="#1b6e6d"/>
              </g>
              <path id="Path_7131" data-name="Path 7131" d="M926.394,1037.039c1.455-.334-.141,1.476,5.028-1.017,2.058-.993,1.384,1.692,1.919,1.436,1.974-.946,2.516-1.184,3.573-1.093.7.06,2.339,1.131,2.268,2.064-.233,3.044-1.674,2.495-2.136,5.194-.325,1.9-.741,2.527-1.422,2.911s-1.393-.492-2.178-.124c-1.015.477-.5,2.264-1.407,3.2-.573.588-2.056,1.068-4.69.309a.914.914,0,0,1-.658-.973c.059-.564.138-1.277.27-1.952.631-3.216,1.6-4.085,1.078-4.8-.805-1.1-2.984-.019-3.529-.939C923.942,1040.294,924.4,1037.5,926.394,1037.039Z" transform="translate(-924.284 -1035.8)" fill="#fff"/>
              <g id="Group_10582" data-name="Group 10582" transform="translate(1.846 4.388)">
                <path id="Path_7132" data-name="Path 7132" d="M950.527,1081.656l-.29.848a9.1,9.1,0,0,0-.325,1.221c-.15.776-.46,2.1-.625,2.846-.532,2.4-3.735.407-3.735.407l-.3-.585-.4-.088a.455.455,0,0,1-.21-.1.432.432,0,0,1-.1-.5,15.725,15.725,0,0,0,1.425-4.674A4.816,4.816,0,0,1,950.527,1081.656Z" transform="translate(-944.262 -1080.472)" fill="#1b6e6d"/>
                <path id="Path_7133" data-name="Path 7133" d="M945.8,1085.881a5.532,5.532,0,0,1-2.443-.81.237.237,0,0,1-.086-.094l-.247-.484-.29-.063a.7.7,0,0,1-.32-.159.67.67,0,0,1-.159-.779,15.662,15.662,0,0,0,1.4-4.594.238.238,0,0,1,.14-.2,5.013,5.013,0,0,1,4.8.655.238.238,0,0,1,.085.269l-.29.848a8.917,8.917,0,0,0-.317,1.189c-.109.565-.3,1.43-.463,2.125-.061.271-.118.521-.164.727a1.614,1.614,0,0,1-.928,1.235A1.853,1.853,0,0,1,945.8,1085.881Zm-2.137-1.181c.3.176,1.78.987,2.674.61a1.152,1.152,0,0,0,.648-.9c.046-.207.1-.458.164-.729.157-.692.352-1.552.46-2.11a9.378,9.378,0,0,1,.333-1.253l.232-.679a4.55,4.55,0,0,0-4.056-.554,16.158,16.158,0,0,1-1.433,4.606.194.194,0,0,0,.048.228.224.224,0,0,0,.1.047l.4.087a.238.238,0,0,1,.161.124Z" transform="translate(-942.192 -1078.363)" fill="#fff"/>
              </g>
              <path id="Path_7134" data-name="Path 7134" d="M1001.621,1103.076s.694-2.039,1.559-1.532S1003.223,1104.278,1001.621,1103.076Z" transform="translate(-993.648 -1094.694)" fill="#1b6e6d"/>
            </g>
            <g id="Group_10584" data-name="Group 10584" transform="translate(1.456 6.417)">
              <path id="Path_7135" data-name="Path 7135" d="M954.99,1102.962a.846.846,0,0,1-.488-.149,1.851,1.851,0,0,1-.6-1.4c-.062-.569.053-.939.352-1.131a.913.913,0,0,1,.7-.133.7.7,0,0,1,.443.3,2.336,2.336,0,0,1,.3,2.02.7.7,0,0,1-.424.448A1.1,1.1,0,0,1,954.99,1102.962Zm-.229-2.356a.465.465,0,0,0-.253.08c-.13.083-.176.312-.136.68.076.7.26.96.4,1.057a.436.436,0,0,0,.376.043.535.535,0,0,0,.138-.265,1.932,1.932,0,0,0-.3-1.5.229.229,0,0,0-.144-.086A.374.374,0,0,0,954.761,1100.606Zm-.382-.12h0Z" transform="translate(-952.287 -1099.916)" fill="#fff"/>
              <path id="Path_7136" data-name="Path 7136" d="M960.5,1098.724a.238.238,0,0,1-.01-.475l4.69-.2a.238.238,0,1,1,.02.475l-4.69.2Z" transform="translate(-958.008 -1098.045)" fill="#fff"/>
              <path id="Path_7137" data-name="Path 7137" d="M939.15,1103.647a.242.242,0,0,1-.062-.008c-.144-.039-.288-.2-.425-.466a2.14,2.14,0,0,1-.155-1.64.707.707,0,0,1,.42-.429,1.565,1.565,0,0,1,1.113.172.238.238,0,0,1-.226.418,1.14,1.14,0,0,0-.722-.144.23.23,0,0,0-.14.152,1.675,1.675,0,0,0,.289,1.488.238.238,0,0,1-.091.457Z" transform="translate(-938.402 -1100.743)" fill="#fff"/>
            </g>
          </g>
        </g>
        <g id="Group_10606" data-name="Group 10606" transform="translate(308.584 405.983)">
          <g id="Group_10597" data-name="Group 10597" transform="translate(0.848 14.17)">
            <g id="Group_10594" data-name="Group 10594" transform="translate(0.162 27.323)">
              <g id="Group_10589" data-name="Group 10589" transform="translate(0 61.134)">
                <g id="Group_10587" data-name="Group 10587" transform="translate(2.925)">
                  <path id="Path_7138" data-name="Path 7138" d="M378.2,2021.263l-1.026,7.2-2.625.01-.124-7.085Z" transform="translate(-374.191 -2021.026)" fill="#1b6e6d"/>
                  <path id="Path_7139" data-name="Path 7139" d="M372.484,2026.647a.238.238,0,0,1-.238-.233l-.124-7.085a.238.238,0,0,1,.23-.242l3.775-.129a.244.244,0,0,1,.185.079.238.238,0,0,1,.058.192l-1.026,7.2a.238.238,0,0,1-.234.2l-2.625.01Zm.118-7.093.116,6.617,2.185-.008.957-6.719Z" transform="translate(-372.123 -2018.958)" fill="#fff"/>
                </g>
                <g id="Group_10588" data-name="Group 10588" transform="translate(0 5.473)">
                  <path id="Path_7140" data-name="Path 7140" d="M351.819,2082.918a24.311,24.311,0,0,1-4.614-.026,1.266,1.266,0,0,1-1.132-1.47c.318-1.955,1.207-5.4,2.607-6.986l.692.986.411-1.018c.066-.11,1.806-.183,1.842.024l.106.995.988-1.107-.054,3.634a5.507,5.507,0,0,0,.113,1.2l.259,1.256a2.391,2.391,0,0,1-.565,2.121A1.145,1.145,0,0,1,351.819,2082.918Z" transform="translate(-345.819 -2074.063)" fill="#1b6e6d"/>
                  <path id="Path_7141" data-name="Path 7141" d="M347.759,2081.235c-.738,0-1.616-.033-2.641-.123a1.476,1.476,0,0,1-1.047-.571,1.52,1.52,0,0,1-.3-1.174c.084-.514.869-5.077,2.664-7.1a.238.238,0,0,1,.372.021l.44.627.247-.613a.226.226,0,0,1,.017-.034c.185-.307,1.745-.207,1.9-.178.094.018.344.064.382.284l.051.478.631-.707a.238.238,0,0,1,.415.162l-.054,3.635a5.257,5.257,0,0,0,.108,1.144l.259,1.256a2.625,2.625,0,0,1-.625,2.331,1.356,1.356,0,0,1-.8.471A19.111,19.111,0,0,1,347.759,2081.235Zm1.994-.333h0Zm-3.154-8.09c-1.274,1.657-2.076,4.9-2.357,6.632a1.044,1.044,0,0,0,.2.806,1.007,1.007,0,0,0,.713.389,23.9,23.9,0,0,0,4.568.027.94.94,0,0,0,.5-.323,2.15,2.15,0,0,0,.506-1.91l-.259-1.256a5.738,5.738,0,0,1-.118-1.247l.045-3-.563.631a.238.238,0,0,1-.414-.133l-.093-.877a6.018,6.018,0,0,0-1.437.017l-.372.923a.237.237,0,0,1-.415.048Zm1.236-.224Z" transform="translate(-343.753 -2072.047)" fill="#fff"/>
                </g>
                <path id="Path_7142" data-name="Path 7142" d="M359.148,2142.563a15.262,15.262,0,0,1-2.631-.233.238.238,0,1,1,.082-.468,13.012,13.012,0,0,0,4.353.087.238.238,0,0,1,.094.466A10.347,10.347,0,0,1,359.148,2142.563Z" transform="translate(-355.025 -2129.188)" fill="#fff"/>
                <path id="Path_7143" data-name="Path 7143" d="M369.1,2117.772h-2.381a.238.238,0,1,1,0-.475H369.1a.238.238,0,1,1,0,.475Z" transform="translate(-364.136 -2107.159)" fill="#fff"/>
              </g>
              <g id="Group_10592" data-name="Group 10592" transform="translate(24.941 61.068)">
                <g id="Group_10590" data-name="Group 10590" transform="translate(0.601)">
                  <path id="Path_7144" data-name="Path 7144" d="M593.8,2021.331l.924,8.4,3.531.74-.215-9.844Z" transform="translate(-593.567 -2020.384)" fill="#1b6e6d"/>
                  <path id="Path_7145" data-name="Path 7145" d="M596.191,2028.636a.238.238,0,0,1-.049-.005l-3.531-.74a.238.238,0,0,1-.187-.206l-.924-8.4a.238.238,0,0,1,.2-.26l4.24-.709a.238.238,0,0,1,.277.229l.215,9.844a.238.238,0,0,1-.238.243Zm-3.314-1.174,3.07.643-.2-9.271-3.748.627Z" transform="translate(-591.498 -2018.317)" fill="#fff"/>
                </g>
                <g id="Group_10591" data-name="Group 10591" transform="translate(0 7.564)">
                  <path id="Path_7146" data-name="Path 7146" d="M588,2099.53c-.078-1.471-.08-4.18.816-5.486l2.825,1.006v-.6a.352.352,0,0,1,.316-.365l1.576-.09a3.425,3.425,0,0,1,1.711.352c1.584.779,6.4,2.776,7.071,5.022a1.066,1.066,0,0,1-1.012,1.344c-1.586.046-5.4.1-12.242-.139A1.1,1.1,0,0,1,588,2099.53Z" transform="translate(-587.734 -2093.748)" fill="#1b6e6d"/>
                  <path id="Path_7147" data-name="Path 7147" d="M596.079,2098.92c-2.1,0-5.075-.04-9.089-.177a1.33,1.33,0,0,1-1.29-1.266c-.08-1.52-.075-4.273.858-5.634a.238.238,0,0,1,.276-.089l2.508.893v-.267a.59.59,0,0,1,.54-.6l1.576-.09a3.68,3.68,0,0,1,1.829.376c.189.093.424.2.692.329,2.056.965,5.883,2.76,6.5,4.838a1.253,1.253,0,0,1-.192,1.1,1.34,1.34,0,0,1-1.041.551C598.566,2098.9,597.529,2098.92,596.079,2098.92Zm-9.227-6.654c-.756,1.3-.752,3.784-.678,5.186h0a.857.857,0,0,0,.832.816c6.769.231,10.566.186,12.227.139a.862.862,0,0,0,.669-.355.779.779,0,0,0,.122-.685c-.558-1.875-4.4-3.677-6.248-4.544-.272-.127-.509-.239-.7-.333a3.2,3.2,0,0,0-1.592-.328l-1.576.09a.12.12,0,0,0-.092.127v.6a.238.238,0,0,1-.317.224Z" transform="translate(-585.668 -2091.682)" fill="#fff"/>
                </g>
                <path id="Path_7148" data-name="Path 7148" d="M607.462,2140.48a67.525,67.525,0,0,1-7.672-.431.238.238,0,0,1,.055-.472,65.081,65.081,0,0,0,11.037.331.238.238,0,0,1,.036.474C610.891,2140.383,609.564,2140.48,607.462,2140.48Z" transform="translate(-598.145 -2127.074)" fill="#fff"/>
                <path id="Path_7149" data-name="Path 7149" d="M641.817,2103.893a.236.236,0,0,1-.139-.045l-2.72-1.956a.238.238,0,0,1,.278-.386l2.72,1.956a.238.238,0,0,1-.139.431Z" transform="translate(-633.376 -2092.889)" fill="#fff"/>
              </g>
              <g id="Group_10593" data-name="Group 10593" transform="translate(1.521)">
                <path id="Path_7150" data-name="Path 7150" d="M383.864,1429.335s5.062,38.913,3.984,62.09l-1.579.158a17.084,17.084,0,0,1-2.556.063l-1.5-.075s-6.037-39.395-9.051-45.242c0,0-8.2,35.5-8.513,43.979,0,0-3.644.366-5.1-.156-.78-8.186-1.005-20.847-1.044-26.166-.112-15.225,1.343-22.141,2.141-25.422.732-3.012,1.518-5.461,2.092-7.117l1.917-5.468Z" transform="translate(-358.504 -1425.981)" fill="#fff"/>
                <path id="Path_7151" data-name="Path 7151" d="M499.478,1588.712a.239.239,0,0,1-.234-.28l.47-2.618a2.509,2.509,0,0,1,1.92-1.816l.788-.163a.238.238,0,1,1,.1.466l-.788.163a2.03,2.03,0,0,0-1.553,1.456l-.465,2.6A.238.238,0,0,1,499.478,1588.712Z" transform="translate(-484.731 -1567.556)" fill="#1b6e6d"/>
                <path id="Path_7152" data-name="Path 7152" d="M398.724,1545.673a.238.238,0,0,1-.039-.472c4.37-.728,5.236-4.051,5.271-4.192a.238.238,0,0,1,.462.112,6.731,6.731,0,0,1-5.655,4.549A.238.238,0,0,1,398.724,1545.673Z" transform="translate(-394.364 -1528.988)" fill="#1b6e6d"/>
                <path id="Path_7153" data-name="Path 7153" d="M582.533,1522.505a.236.236,0,0,1-.094-.02,4.249,4.249,0,0,1-2.683-3.833.238.238,0,0,1,.475.018,3.71,3.71,0,0,0,2.4,3.379.238.238,0,0,1-.095.456Z" transform="translate(-556.945 -1508.893)" fill="#1b6e6d"/>
              </g>
            </g>
            <path id="Path_7154" data-name="Path 7154" d="M367.582,1490.234c-.46,1.574-1.182,3.752-.383,4.8,1.452,1.9,2.657,1.6,4.449.942,3.585-1.307,9.305-3.371,10.975-2.224l.074-3.515Z" transform="translate(-364.298 -1456.287)" fill="#fff"/>
            <g id="Group_10595" data-name="Group 10595">
              <path id="Path_7155" data-name="Path 7155" d="M368.084,1163.264a7.749,7.749,0,0,1,7,4.329c1.509,3.081,3.639,11.144,3.722,14.666.145,6.155-5.247,6.5-5.407,6.511a0,0,0,0,0,0,0c.017.178.647,6.866.7,8.053.091,2.171-3.936,5.56-8.562,3.891-4.6-1.661-17.177-4.97-18.454-2.153,0,0-.008,0-.006,0l5.275-19.569a0,0,0,0,0,0,0l-4.33.209h0l-3.527-2.039a0,0,0,0,1,0,0l.893-3.955c1.7-6.758,6.235-9.859,12.092-9.886Z" transform="translate(-344.243 -1163.027)" fill="#fff"/>
              <path id="Path_7156" data-name="Path 7156" d="M365.97,1199.33a7.618,7.618,0,0,1-2.587-.456c-5.755-2.077-17.064-4.689-18.157-2.278a.241.241,0,0,1-.453-.161l5.192-19.26-4.009.194a.249.249,0,0,1-.12-.025L342.3,1175.3a.245.245,0,0,1-.118-.245l.9-3.973c1.623-6.467,6-10.042,12.323-10.071l10.617-.049h.037a8.03,8.03,0,0,1,7.178,4.462c1.474,3.011,3.661,11.155,3.746,14.765.134,5.682-4.281,6.592-5.389,6.731.147,1.564.631,6.781.676,7.833a4.187,4.187,0,0,1-1.987,3.181A7.263,7.263,0,0,1,365.97,1199.33Zm-17.644-4.166a28.075,28.075,0,0,1,4.7.5,71.481,71.481,0,0,1,10.514,2.766,6.91,6.91,0,0,0,6.451-.879,3.788,3.788,0,0,0,1.793-2.778c-.047-1.126-.628-7.321-.694-8.024a.288.288,0,0,1,.054-.2.246.246,0,0,1,.171-.085c.217-.012,5.322-.365,5.182-6.268-.084-3.56-2.242-11.6-3.7-14.567a7.552,7.552,0,0,0-6.751-4.2h-.034v0l-10.617.049c-6.086.028-10.3,3.475-11.863,9.706l-.854,3.782,3.318,1.919,4.261-.206a.241.241,0,0,1,.244.307l-5.042,18.7A5.894,5.894,0,0,1,348.326,1195.164Z" transform="translate(-342.177 -1160.959)" fill="#1b6e6d"/>
            </g>
            <g id="Group_10596" data-name="Group 10596" transform="translate(1.544 9.879)">
              <path id="Path_7157" data-name="Path 7157" d="M367.629,1264.3c-.81-.15-.588-1.088-3.432-1.257-8.206-.489-4.229-4.655.472-3.862,1.558.263,2.171,1.271,2.757,1.527C372.345,1262.849,369.242,1264.593,367.629,1264.3Z" transform="translate(-359.219 -1258.839)" fill="#1b6e6d"/>
              <path id="Path_7158" data-name="Path 7158" d="M365.956,1262.511a2.4,2.4,0,0,1-.432-.038,1.432,1.432,0,0,1-.723-.4c-.36-.313-.853-.742-2.679-.851-2.75-.164-4.432-.749-4.862-1.693a1.221,1.221,0,0,1,.206-1.287c.745-.97,2.887-1.741,5.181-1.353a4.486,4.486,0,0,1,2.265,1.148,2.689,2.689,0,0,0,.548.4c2.641,1.152,2.956,2.174,2.756,2.829A2.374,2.374,0,0,1,365.956,1262.511Zm-4.557-5.254a4.715,4.715,0,0,0-3.556,1.272.75.75,0,0,0-.151.8c.162.355.922,1.2,4.458,1.416,1.988.118,2.552.609,2.963.967a1,1,0,0,0,.5.294c.776.143,1.958-.261,2.15-.887.2-.654-.708-1.476-2.491-2.254a2.955,2.955,0,0,1-.663-.467,4.018,4.018,0,0,0-2.039-1.043A7.035,7.035,0,0,0,361.4,1257.257Z" transform="translate(-357.157 -1256.784)" fill="#1b6e6d"/>
            </g>
          </g>
          <g id="Group_10603" data-name="Group 10603" transform="translate(11.695)">
            <g id="Group_10602" data-name="Group 10602">
              <g id="Group_10600" data-name="Group 10600">
                <g id="Group_10598" data-name="Group 10598" transform="translate(0 6.184)">
                  <path id="Path_7159" data-name="Path 7159" d="M458.9,1094.942a.416.416,0,0,0-.229-.725l-.556-.067a1.56,1.56,0,0,1-1.291-1.02l-.917-6.769-1.88.672-2.487-1.23.222,7.233a1.548,1.548,0,0,1-1.037,1.405l-.727.26a.437.437,0,0,0-.03.817C451.448,1096.164,457.465,1096.169,458.9,1094.942Z" transform="translate(-449.463 -1085.566)" fill="#1b6e6d"/>
                  <path id="Path_7160" data-name="Path 7160" d="M451.548,1094.12a11.692,11.692,0,0,1-3.742-.45.675.675,0,0,1,.044-1.259l.727-.26a1.3,1.3,0,0,0,.88-1.188l-.222-7.219a.238.238,0,0,1,.343-.22l2.4,1.185,1.785-.638a.238.238,0,0,1,.316.192l.913,6.743a1.314,1.314,0,0,0,1.087.841l.556.067a.652.652,0,0,1,.553.464.637.637,0,0,1-.2.677C456.1,1093.814,453.711,1094.12,451.548,1094.12Zm-1.826-9.994.21,6.837a1.779,1.779,0,0,1-1.195,1.636l-.727.26a.2.2,0,0,0-.14.184.2.2,0,0,0,.125.191c1.355.591,7.31.635,8.682-.54h0a.164.164,0,0,0,.051-.178.181.181,0,0,0-.155-.13l-.556-.067a1.786,1.786,0,0,1-1.487-1.177.25.25,0,0,1-.011-.047l-.877-6.478-1.6.573a.238.238,0,0,1-.185-.011Z" transform="translate(-447.395 -1083.499)" fill="#1b6e6d"/>
                </g>
                <g id="Group_10599" data-name="Group 10599" transform="translate(1.477 0.848)">
                  <path id="Path_7161" data-name="Path 7161" d="M469.614,1034.549c3.2,1.179,2.652,3.252,2.652,3.252a8.786,8.786,0,0,0,.043,1.993c.088.312.6.9.624,1.073s-.253.529-.807.656c0,0-.21,2.77-.937,3.224s-3.523-.417-3.523-.417l-.471-.189a4.932,4.932,0,0,1-2.883-3.435S462.274,1031.847,469.614,1034.549Z" transform="translate(-463.813 -1033.8)" fill="#1b6e6d"/>
                  <path id="Path_7162" data-name="Path 7162" d="M468.4,1043.055a11.849,11.849,0,0,1-2.9-.557l-.488-.2a5.162,5.162,0,0,1-3.023-3.591c-.045-.194-1.009-4.5.984-6.256,1.005-.886,2.562-.949,4.627-.189,3.162,1.164,2.86,3.24,2.806,3.508a8.543,8.543,0,0,0,.036,1.9,2.873,2.873,0,0,0,.333.563,1.538,1.538,0,0,1,.3.541c.042.3-.274.692-.82.873-.065.722-.314,2.791-1.034,3.241A1.607,1.607,0,0,1,468.4,1043.055Zm-3.328-10.84a2.606,2.606,0,0,0-1.786.6c-1.782,1.57-.847,5.74-.837,5.781a4.7,4.7,0,0,0,2.739,3.268l.47.189c1.024.318,2.847.724,3.308.436.43-.269.742-1.94.826-3.041a.238.238,0,0,1,.184-.214.874.874,0,0,0,.621-.395,3.551,3.551,0,0,0-.214-.335,2.851,2.851,0,0,1-.4-.7,9.139,9.139,0,0,1-.052-2.073.263.263,0,0,1,.007-.044c.019-.075.439-1.884-2.5-2.968A7,7,0,0,0,465.074,1032.215Z" transform="translate(-461.718 -1031.74)" fill="#fff"/>
                </g>
                <path id="Path_7163" data-name="Path 7163" d="M459.575,1023.61c.842.206,1.665.731,2.1.778.7.075,1.208-.826,2.095-.5a2.065,2.065,0,0,1,1.328,1.7,1.685,1.685,0,0,1,.012.4,2.308,2.308,0,0,1-1.828,2.378,23.916,23.916,0,0,0-3.324-.126,2.713,2.713,0,0,0-1.528,2.035.34.34,0,0,1-.666-.016c-.093-.539-.347-1.617-.894-1.648a1.2,1.2,0,0,0-.617,2.015.5.5,0,0,1-.157.819.93.93,0,0,1-.986-.184s-1.647-2.886-.861-5.323S458.454,1023.336,459.575,1023.61Z" transform="translate(-453.352 -1023.512)" fill="#fff"/>
              </g>
              <g id="Group_10601" data-name="Group 10601" transform="translate(4.53 4.985)">
                <path id="Path_7164" data-name="Path 7164" d="M542.119,1075.167a.237.237,0,0,1-.162-.412,1.524,1.524,0,0,0,.329-.969,1.919,1.919,0,0,0-.117-.812c-.072-.172-.16-.251-.214-.254h0c-.109,0-.31.249-.4.709a.238.238,0,0,1-.467-.089c.131-.686.48-1.116.893-1.095a.765.765,0,0,1,.628.543,2.377,2.377,0,0,1,.154,1.021,1.939,1.939,0,0,1-.48,1.293A.237.237,0,0,1,542.119,1075.167Z" transform="translate(-535.952 -1072.205)" fill="#fff"/>
                <path id="Path_7165" data-name="Path 7165" d="M521.015,1075.01h-.039a.94.94,0,0,1-.761-.543,2.052,2.052,0,0,1-.223-1.083h0c.046-.881.557-1.546,1.147-1.517a.941.941,0,0,1,.761.543,2.052,2.052,0,0,1,.223,1.083C522.077,1074.354,521.595,1075.01,521.015,1075.01Zm-.549-1.6a1.6,1.6,0,0,0,.164.829c.059.107.186.289.369.3.283.012.614-.42.648-1.067a1.6,1.6,0,0,0-.164-.829c-.059-.107-.186-.289-.369-.3C520.824,1072.324,520.5,1072.761,520.466,1073.408Z" transform="translate(-517.033 -1071.865)" fill="#fff"/>
                <path id="Path_7166" data-name="Path 7166" d="M494.624,1076.8H494.6l-3.056-.274a.238.238,0,0,1,.042-.474l3.056.274a.238.238,0,0,1-.021.474Z" transform="translate(-491.33 -1075.619)" fill="#fff"/>
              </g>
            </g>
          </g>
          <g id="Group_10604" data-name="Group 10604" transform="translate(14.409 10.413)">
            <path id="Path_7167" data-name="Path 7167" d="M476.022,1135.459s1.19,1.867,2.262,1.537c.563-.173,1.113-2.014,1.338-2.08a4.373,4.373,0,0,0,2.927-2.052c.785-1.4.614-2.151.411-2.5a.474.474,0,0,1,.012-.508.933.933,0,0,0,.144-.9.48.48,0,0,1,0-.381c.2-.464.569-1.533-.149-1.743a.481.481,0,0,0-.523.179,5.18,5.18,0,0,1-1.292,1.281c-.831.529-1.33.891-1.747,1.129-.358.2-.547-1.582-1.407-2.253-.763-.6-1.023-.294-1.1-.014s.4.391.666,1.722a9.509,9.509,0,0,1-.11,3.571A14.242,14.242,0,0,1,476.022,1135.459Z" transform="translate(-475.784 -1126.579)" fill="#1b6e6d"/>
            <path id="Path_7168" data-name="Path 7168" d="M475.959,1135.2c-1.115,0-2.156-1.611-2.2-1.686a.237.237,0,0,1,0-.251,13.3,13.3,0,0,0,1.4-2.918c.016-.115.038-.247.062-.393a8.224,8.224,0,0,0,.051-3.1,3.231,3.231,0,0,0-.511-1.3.62.62,0,0,1-.152-.532.648.648,0,0,1,.408-.474c.283-.094.632.024,1.067.363a3.917,3.917,0,0,1,1.012,1.671,4.724,4.724,0,0,0,.221.511c.206-.123.439-.278.725-.467.258-.172.559-.371.923-.6a4.933,4.933,0,0,0,1.227-1.22.719.719,0,0,1,.782-.268.774.774,0,0,1,.5.419,2.234,2.234,0,0,1-.2,1.646.243.243,0,0,0,0,.192,1.14,1.14,0,0,1-.165,1.13.236.236,0,0,0,0,.254c.262.445.4,1.28-.409,2.732a4.542,4.542,0,0,1-2.979,2.138l-.046.013a5.149,5.149,0,0,0-.285.562c-.367.789-.68,1.4-1.093,1.529A1.106,1.106,0,0,1,475.959,1135.2Zm-1.723-1.821c.368.529,1.233,1.526,1.911,1.317.244-.075.607-.856.8-1.276.259-.557.358-.752.539-.805l.091-.026a4.062,4.062,0,0,0,2.7-1.913c.739-1.321.577-1.982.414-2.258a.707.707,0,0,1,.02-.761.684.684,0,0,0,.123-.673.721.721,0,0,1,0-.571,1.829,1.829,0,0,0,.206-1.256.3.3,0,0,0-.2-.165.243.243,0,0,0-.264.091,5.408,5.408,0,0,1-1.356,1.342c-.361.23-.659.428-.915.6-.335.223-.6.4-.842.537a.342.342,0,0,1-.287.028c-.228-.081-.339-.363-.522-.831a3.581,3.581,0,0,0-.862-1.469c-.328-.255-.537-.316-.624-.287-.057.019-.087.1-.1.148a1.332,1.332,0,0,0,.09.145,3.7,3.7,0,0,1,.58,1.467,8.64,8.64,0,0,1-.048,3.271c-.024.141-.045.267-.06.379A12.817,12.817,0,0,1,474.236,1133.384Z" transform="translate(-473.717 -1124.511)" fill="#1b6e6d"/>
          </g>
          <path id="Path_7169" data-name="Path 7169" d="M354.735,1198.68l-3.6-2.3s-4.872,7.878-8.562,10.552c-1.8,1.3-5.281-.229-5.281-.229s-3.346,12.858,3.112,14.7C351.157,1224.464,354.735,1198.68,354.735,1198.68Z" transform="translate(-336.167 -1178.561)" fill="#fff"/>
          <path id="Path_7170" data-name="Path 7170" d="M339.927,1219.824a6.574,6.574,0,0,1-1.8-.261c-6.605-1.88-3.416-14.451-3.277-14.985a.238.238,0,0,1,.325-.158c.034.015,3.382,1.46,5.046.254,3.61-2.616,8.451-10.406,8.5-10.484a.238.238,0,0,1,.33-.075l3.6,2.3a.238.238,0,0,1,.108.233c-.1.718-2.518,17.63-9.387,22.109A6.223,6.223,0,0,1,339.927,1219.824Zm-4.685-14.861c-.425,1.829-2.649,12.532,3.011,14.143a5.7,5.7,0,0,0,4.859-.75c6.355-4.144,8.9-19.911,9.154-21.626l-3.272-2.085c-.807,1.282-5.1,7.953-8.5,10.415C338.885,1206.226,336.109,1205.3,335.242,1204.963Z" transform="translate(-333.955 -1176.493)" fill="#1b6e6d"/>
          <g id="Group_10605" data-name="Group 10605" transform="translate(15.438 24.82)">
            <path id="Path_7171" data-name="Path 7171" d="M497.673,1356.651c-4.06,0-9.746-3.138-13.88-6.217a.238.238,0,0,1,.284-.381c4.129,3.076,10.354,6.515,14.307,6.086a.238.238,0,0,1,.051.473A7.059,7.059,0,0,1,497.673,1356.651Z" transform="translate(-483.698 -1341.165)" fill="#1b6e6d"/>
            <path id="Path_7172" data-name="Path 7172" d="M507.413,1269.831c-2.279,0-6.444-1.95-6.638-2.041a.238.238,0,0,1,.2-.43c.051.024,5.113,2.4,6.965,1.942,3.083-.755,2.37-4.6,2.339-4.766a.238.238,0,1,1,.467-.091c.009.044.826,4.457-2.692,5.318A2.727,2.727,0,0,1,507.413,1269.831Z" transform="translate(-498.893 -1264.253)" fill="#1b6e6d"/>
          </g>
        </g>
      </g>
    </g>
  </g>
</svg>
