<svg xmlns="http://www.w3.org/2000/svg" xmlns:xlink="http://www.w3.org/1999/xlink" width="434.719" height="456.922" viewBox="0 0 434.719 456.922">
  <defs>
    <clipPath id="clip-path">
      <rect id="Rectangle_26" data-name="Rectangle 26" width="328.889" height="328.889" rx="40" fill="#5c5a5a"/>
    </clipPath>
  </defs>
  <g id="Group_10691" data-name="Group 10691" transform="translate(-608.84 1038.32)">
    <g id="Element_2" data-name="Element 2" transform="translate(641.152 -1031.611)">
      <path id="Vector_1" data-name="Vector 1" d="M390.552,688.5c-12.181,6.09-36.909,62.855-165.541,62.855-136.672,0-228.03,30.7-233.511,191.487" transform="translate(8.5 -688.5)" fill="none" stroke="#309da0" stroke-width="15"/>
    </g>
    <g id="Image" transform="translate(608.84 -910.287)">
      <g id="Image_double_click_to_edit_" data-name="Image (double click to edit)" transform="translate(0 0)">
        <g id="Rectangle_26-2" data-name="Rectangle 26">
          <g id="Clip" clip-path="url(#clip-path)">
            <rect id="Rectangle_1560" data-name="Rectangle 1560" width="329.724" height="328.889" transform="translate(-0.162 -0.323)" fill="#1b6e6d"/>
            <g id="Group_10688" data-name="Group 10688" transform="translate(31.638 76.597)">
              <g id="Group_10687" data-name="Group 10687">
                <path id="Path_7312" data-name="Path 7312" d="M1991.021-796.235l-16.461,4.628c1.212,12.438-.331,24.166-5.759,35.209-4.967,10.1-12.087,18.341-22.512,22.907-19.607,8.587-37.325,4.12-52.984-9.357-11.146-9.592-18.058-21.971-20.986-36.472-3.34-16.55-1.488-32.277,7.433-46.876a45.526,45.526,0,0,1,47.041-21.358c14.081,2.518,25.015,10.155,33.595,21.28,3.21,4.162,5.789,8.809,8.765,13.4l15.884-4.048a16.256,16.256,0,0,0-.661-1.9c-2.565-4.961-4.827-10.114-7.791-14.825A87.442,87.442,0,0,0,1942.1-865.68a70.956,70.956,0,0,0-27.836-7.854c-16.722-1.124-31.926,3.184-45.191,13.323-20.23,15.462-29.548,36.735-31.049,61.636a99.607,99.607,0,0,0,14.5,58.419c9.021,15,21.076,26.9,37.007,34.513,16,7.65,32.621,9.919,49.9,5.107,19.6-5.457,33.33-18.078,42.747-35.681,8.583-16.045,11.3-33.33,9.991-51.336C1991.969-790.388,1991.433-793.2,1991.021-796.235Z" transform="translate(-1837.831 873.708)" fill="#309da0"/>
                <path id="Path_7313" data-name="Path 7313" d="M2175.752-807.046c-.91.151-2.637-.276-2.8-.806-.5-1.6,1.031-1.823,2.2-2.132q14.773-3.906,29.545-7.821c3.53-.939,7.044-1.934,10.762-2.958a6.327,6.327,0,0,0-.7-1.262c-4.482-4.491-8.888-9.066-13.518-13.4-2.5-2.341-5.714-2.822-9.038-1.957-5.436,1.415-10.949,2.618-16.243,4.449a14.423,14.423,0,0,0-6.509,4.584c-3.955,5.245-7.438,10.855-10.967,16.409a5.3,5.3,0,0,1-3.5,2.523q-23.249,5.777-46.471,11.663c-8.864,2.231-17.733,4.438-26.589,6.7-3.764.962-5.441,3.788-4.467,7.308.934,3.38,3.765,4.757,7.833,3.659,4.956-1.339,9.853-2.908,14.833-4.146,3.687-.917,6.631-2.193,6.07-6.8a1.231,1.231,0,0,1,.727-.977,1.511,1.511,0,0,1,1.077.67,4.665,4.665,0,0,1,.456,1.359c.949,3.137.945,3.123,4.126,2.227q22.585-6.359,45.183-12.668a4.612,4.612,0,0,1,2.974.107q8.676,4.182,17.227,8.622c2.811,1.459,5.708,2.3,8.809,1.527,5.891-1.472,11.785-2.967,17.593-4.729a9.529,9.529,0,0,0,6.565-7.115c.369-1.4.8-2.774,1.168-4.17.612-2.332,1.192-4.673,1.88-7.38-2.422.388-4.314.671-6.2,1C2197.1-810.711,2186.438-808.817,2175.752-807.046Z" transform="translate(-1949.33 856.973)" fill="#fff"/>
                <path id="Path_7314" data-name="Path 7314" d="M1984.378-742.455a34.058,34.058,0,0,1,4.708-2.413c4.177-1.622,8.41-3.1,13.089-4.81a86.445,86.445,0,0,0-6.047-6.314,17.774,17.774,0,0,0-25.884,2.578c-9.4,11.836-3.9,32.271,10.117,37.913,14.17,5.7,25.993-6.512,25.246-19.373-.792.166-1.549.377-2.32.477-5.476.707-10.941,1.56-16.439,2.011a4.629,4.629,0,0,1-5.126-3.513A5.321,5.321,0,0,1,1984.378-742.455Z" transform="translate(-1897.337 820.937)" fill="#309da0"/>
                <path id="Path_7315" data-name="Path 7315" d="M2149.1-724.8l.322,1.208a239.769,239.769,0,0,0,51.877-13.845q-.156-.589-.314-1.178A237.7,237.7,0,0,0,2149.1-724.8Z" transform="translate(-1982.834 810.776)" fill="#fff"/>
                <path id="Path_7316" data-name="Path 7316" d="M2041.089-739.774c-11.993,3.909-24.39,5.272-35.158,11.677,12.623.183,24.122-4.816,36.382-7.392Z" transform="translate(-1916.138 811.316)" fill="#fff"/>
                <path id="Path_7317" data-name="Path 7317" d="M2177.795-820.51c-12.252,1.976-23.735,5.07-35.078,10.955C2148.9-807.854,2175.946-816.29,2177.795-820.51Z" transform="translate(-1979.859 848.926)" fill="#fff"/>
              </g>
            </g>
          </g>
        </g>
      </g>
    </g>
  </g>
</svg>
