<svg xmlns="http://www.w3.org/2000/svg" xmlns:xlink="http://www.w3.org/1999/xlink" width="450" height="450" viewBox="0 0 450 450">
  <defs>
    <clipPath id="clip-path">
      <rect id="Rectangle_26" data-name="Rectangle 26" width="450" height="450" rx="40" fill="#5c5a5a"/>
    </clipPath>
  </defs>
  <g id="Image" transform="translate(32.22)">
    <g id="Image_double_click_to_edit_" data-name="Image (double click to edit)" transform="translate(0)">
      <g id="Rectangle_26-2" data-name="Rectangle 26" transform="translate(0 0)">
        <g id="Clip" transform="translate(-32.22)" clip-path="url(#clip-path)">
          <rect id="Rectangle_1560" data-name="Rectangle 1560" width="451.142" height="450" transform="translate(-0.221 -0.442)" fill="#1b6e6d"/>
          <g id="Group_10688" data-name="Group 10688" transform="translate(-1794.542 978.511)">
            <g id="Group_10687" data-name="Group 10687" transform="translate(1837.831 -873.708)">
              <path id="Path_7312" data-name="Path 7312" d="M2047.431-767.707l-22.522,6.332c1.658,17.019-.453,33.066-7.88,48.174-6.8,13.821-16.538,25.1-30.8,31.342-26.827,11.749-51.07,5.636-72.495-12.8-15.25-13.125-24.708-30.062-28.713-49.9-4.57-22.644-2.036-44.163,10.17-64.137a62.29,62.29,0,0,1,64.363-29.223c19.266,3.445,34.227,13.894,45.966,29.117,4.392,5.695,7.921,12.053,11.993,18.338l21.733-5.538a22.247,22.247,0,0,0-.9-2.6c-3.509-6.787-6.6-13.838-10.66-20.284-11.8-18.759-27.345-33.668-47.185-43.829a97.087,97.087,0,0,0-38.087-10.746c-22.88-1.538-43.682,4.357-61.832,18.229-27.679,21.155-40.428,50.263-42.483,84.333-1.725,28.6,5.067,55.365,19.843,79.931,12.344,20.522,28.837,36.8,50.635,47.222,21.894,10.467,44.633,13.572,68.282,6.987,26.816-7.466,45.6-24.735,58.488-48.821,11.744-21.953,15.458-45.6,13.67-70.239C2048.729-759.707,2048-763.554,2047.431-767.707Z" transform="translate(-1837.831 873.708)" fill="#309da0"/>
              <path id="Path_7313" data-name="Path 7313" d="M2212.049-795.727c-1.246.207-3.608-.378-3.836-1.1-.689-2.194,1.411-2.494,3.009-2.917q20.214-5.344,40.424-10.7c4.83-1.285,9.639-2.646,14.726-4.047a8.66,8.66,0,0,0-.956-1.727c-6.133-6.145-12.161-12.4-18.5-18.336-3.42-3.2-7.818-3.862-12.366-2.678-7.437,1.937-14.981,3.582-22.225,6.088a19.734,19.734,0,0,0-8.905,6.272c-5.411,7.177-10.177,14.852-15,22.451a7.248,7.248,0,0,1-4.79,3.453q-31.81,7.9-63.583,15.958c-12.128,3.052-24.264,6.072-36.38,9.169-5.15,1.317-7.444,5.183-6.112,10,1.278,4.625,5.152,6.509,10.717,5.006,6.782-1.832,13.481-3.979,20.295-5.672,5.045-1.255,9.073-3,8.305-9.31a1.685,1.685,0,0,1,.995-1.337,2.068,2.068,0,0,1,1.474.917,6.385,6.385,0,0,1,.623,1.86c1.3,4.292,1.293,4.273,5.646,3.048q30.9-8.7,61.822-17.333a6.309,6.309,0,0,1,4.069.147q11.871,5.721,23.57,11.8c3.846,2,7.811,3.149,12.053,2.09,8.061-2.013,16.124-4.059,24.072-6.47,4.691-1.423,7.7-4.9,8.982-9.734.506-1.909,1.1-3.8,1.6-5.706.837-3.191,1.631-6.394,2.573-10.1-3.314.531-5.9.918-8.48,1.365C2241.263-800.741,2226.67-798.15,2212.049-795.727Z" transform="translate(-1902.25 864.039)" fill="#fff"/>
              <path id="Path_7314" data-name="Path 7314" d="M1991.3-735.837a46.6,46.6,0,0,1,6.442-3.3c5.715-2.22,11.507-4.245,17.908-6.581-2.853-3.009-5.32-6.109-8.274-8.639-10.894-9.333-26.5-7.7-35.416,3.527-12.867,16.2-5.337,44.155,13.843,51.874,19.388,7.8,35.564-8.911,34.543-26.507-1.084.227-2.12.516-3.175.653-7.493.967-14.97,2.135-22.492,2.751a6.334,6.334,0,0,1-7.014-4.807C1986.642-730.8,1987.8-733.8,1991.3-735.837Z" transform="translate(-1872.21 843.219)" fill="#309da0"/>
              <path id="Path_7315" data-name="Path 7315" d="M2149.1-719.711l.441,1.652A328.058,328.058,0,0,0,2220.525-737q-.214-.806-.43-1.612A325.229,325.229,0,0,0,2149.1-719.711Z" transform="translate(-1921.607 837.349)" fill="#fff"/>
              <path id="Path_7316" data-name="Path 7316" d="M2054.035-739.774c-16.41,5.348-33.372,7.213-48.1,15.977,17.271.251,33.005-6.589,49.78-10.114C2055.1-736.053,2054.634-737.68,2054.035-739.774Z" transform="translate(-1883.073 837.661)" fill="#fff"/>
              <path id="Path_7317" data-name="Path 7317" d="M2190.712-820.51c-16.764,2.7-32.475,6.937-47.995,14.989C2151.172-803.194,2188.182-814.736,2190.712-820.51Z" transform="translate(-1919.888 859.39)" fill="#fff"/>
            </g>
          </g>
        </g>
      </g>
    </g>
  </g>
</svg>
