<svg xmlns="http://www.w3.org/2000/svg" xmlns:xlink="http://www.w3.org/1999/xlink" width="450" height="450" viewBox="0 0 450 450">
  <defs>
    <clipPath id="clip-path">
      <rect id="Rectangle_26" data-name="Rectangle 26" width="450" height="450" rx="40" fill="#5c5a5a"/>
    </clipPath>
  </defs>
  <g id="Image" transform="translate(32.22)">
    <g id="Image_double_click_to_edit_" data-name="Image (double click to edit)" transform="translate(0)">
      <g id="Rectangle_26-2" data-name="Rectangle 26" transform="translate(0 0)">
        <g id="Clip" transform="translate(-32.22)" clip-path="url(#clip-path)">
          <rect id="Rectangle_1560" data-name="Rectangle 1560" width="451.142" height="450" transform="translate(-0.221 -0.442)" fill="#1b6e6d"/>
          <g id="Group_10685" data-name="Group 10685" transform="translate(-625.239 778.886)">
            <path id="Path_7305" data-name="Path 7305" d="M961.1-652.566,944.259-669.4l16.84-16.822a10.549,10.549,0,0,0,2.279-11.479,10.524,10.524,0,0,0-9.727-6.5H882.967v-2.824a10.532,10.532,0,0,0-10.531-10.531A10.525,10.525,0,0,0,861.9-707.023v13.289c0,.019-.01.047-.01.067v48.549c0,.019.01.048.01.067v45.141l-42.8,60.632,14.658,15.749,38.879-55.089,47.449,63.82,12.714-18.209-49.841-67.037v-34.543h70.684a10.525,10.525,0,0,0,9.727-6.5A10.549,10.549,0,0,0,961.1-652.566ZM918.841-669.4a10.555,10.555,0,0,0,3.083,7.449l6.3,6.3H882.967v-27.487h45.246l-6.29,6.29A10.538,10.538,0,0,0,918.841-669.4Z" transform="translate(-39.081)" fill="#309da0"/>
            <path id="Path_7306" data-name="Path 7306" d="M1008.213-410.415,941-493.574a10.562,10.562,0,0,0-8.559-3.906,10.526,10.526,0,0,0-8.272,4.5L848.587-384.651l-92.5-99.339a10.54,10.54,0,0,0-8.492-3.332,10.543,10.543,0,0,0-7.908,4.558l-47.219,69.009a10.537,10.537,0,0,0,2.748,14.639,10.479,10.479,0,0,0,5.936,1.838,10.507,10.507,0,0,0,8.7-4.586l39.789-58.143,86.615,93.02-18.325,26.261a10.546,10.546,0,0,0,2.614,14.667,10.536,10.536,0,0,0,6.013,1.9,10.5,10.5,0,0,0,8.645-4.509l98.229-140.766,53.431,66.114-43.681,62.6a10.546,10.546,0,0,0,2.614,14.667,10.536,10.536,0,0,0,6.013,1.9,10.5,10.5,0,0,0,8.645-4.509l48.173-69.033.007-.031A10.529,10.529,0,0,0,1008.213-410.415Z" transform="translate(0 -66.938)" fill="#fff"/>
          </g>
        </g>
      </g>
    </g>
  </g>
</svg>
