<svg xmlns="http://www.w3.org/2000/svg" xmlns:xlink="http://www.w3.org/1999/xlink" width="450" height="450" viewBox="0 0 450 450">
  <defs>
    <clipPath id="clip-path">
      <rect id="Rectangle_26" data-name="Rectangle 26" width="450" height="450" rx="40" fill="#a63626" opacity="0.4"/>
    </clipPath>
  </defs>
  <g id="Image" transform="translate(38)">
    <g id="Image_double_click_to_edit_" data-name="Image (double click to edit)" transform="translate(0 0)">
      <g id="Rectangle_26-2" data-name="Rectangle 26">
        <g id="Clip" transform="translate(-38)" clip-path="url(#clip-path)">
          <rect id="Rectangle_1561" data-name="Rectangle 1561" width="450.011" height="552.375" transform="translate(-0.565 -0.442)" fill="#1b6e6d"/>
          <g id="Group_10686" data-name="Group 10686" transform="translate(-2651.109 923.367)">
            <path id="Path_7307" data-name="Path 7307" d="M2791.033-658.2a33.844,33.844,0,0,1-33.57-28.527,9.19,9.19,0,0,0-10.538-7.605,9.189,9.189,0,0,0-7.605,10.538,52.149,52.149,0,0,0,51.713,43.974,9.19,9.19,0,0,0,9.189-9.19A9.189,9.189,0,0,0,2791.033-658.2Z" transform="translate(-16.118 -36.455)" fill="#fff"/>
            <path id="Path_7308" data-name="Path 7308" d="M2748.473-717.844a9.163,9.163,0,0,0,3.365.641,9.192,9.192,0,0,0,8.552-5.825l.223-.553a9.189,9.189,0,0,0-4.99-12,9.188,9.188,0,0,0-12,4.99q-.171.413-.334.827A9.19,9.19,0,0,0,2748.473-717.844Z" transform="translate(-17.133 -24.148)" fill="#d1512d"/>
            <circle id="Ellipse_30" data-name="Ellipse 30" cx="18.582" cy="18.582" r="18.582" transform="translate(2756.334 -747.248)" fill="#d1512d"/>
            <path id="Path_7309" data-name="Path 7309" d="M2894.181-580.269a6.363,6.363,0,0,0,9,0l19.2-19.2a6.363,6.363,0,0,0,0-9l-38.216-38.344a6.365,6.365,0,0,0-9,0l-2.549,2.55-28.6-28.6a89.152,89.152,0,0,0,19.626-55.869,89.7,89.7,0,0,0-89.6-89.6,89.7,89.7,0,0,0-89.6,89.6,89.705,89.705,0,0,0,89.6,89.6,89.148,89.148,0,0,0,55.881-19.636l28.6,28.6-2.55,2.549a6.364,6.364,0,0,0,0,9Zm-188.932-148.4a69.746,69.746,0,0,1,69.667-69.666,69.745,69.745,0,0,1,69.666,69.666A69.744,69.744,0,0,1,2774.916-659,69.745,69.745,0,0,1,2705.249-728.666Z" fill="#fff"/>
            <circle id="Ellipse_31" data-name="Ellipse 31" cx="18.582" cy="18.582" r="18.582" transform="translate(2958.479 -747.248)" fill="#d1512d"/>
            <path id="Path_7310" data-name="Path 7310" d="M2972.169-730.8c.035.67.049,1.376.049,2.117a89.567,89.567,0,0,0,89.561,89.568c.656,0,1.277.021,1.87.056a89.706,89.706,0,0,0,87.7-89.582,89.706,89.706,0,0,0-89.6-89.6A89.7,89.7,0,0,0,2972.169-730.8Zm19.908,2.159a69.741,69.741,0,0,1,69.667-69.667,69.739,69.739,0,0,1,69.66,69.667,69.744,69.744,0,0,1-69.66,69.667A69.745,69.745,0,0,1,2992.077-728.64Z" transform="translate(-84.68 -0.025)" fill="#fff"/>
            <path id="Path_7311" data-name="Path 7311" d="M2972.488-710.8v28.2a38,38,0,0,0-57,0v-28.2A60.848,60.848,0,0,1,2972.488-710.8Z" transform="translate(-67.999 -29.561)" fill="#fff"/>
          </g>
        </g>
      </g>
    </g>
  </g>
</svg>
