<svg width="55" height="55" viewBox="0 0 55 55" fill="none" xmlns="http://www.w3.org/2000/svg">
<path d="M27.5 51.6699C40.8487 51.6699 51.6699 40.8487 51.6699 27.5C51.6699 14.1513 40.8487 3.33008 27.5 3.33008C14.1513 3.33008 3.33008 14.1513 3.33008 27.5C3.33008 40.8487 14.1513 51.6699 27.5 51.6699Z" fill="url(#paint0_linear_2006_10762)"/>
<path d="M32.6357 14.0723H22.377C17.8008 14.0723 14.084 17.7891 14.084 22.3652V32.624C14.084 37.2002 17.8008 40.917 22.377 40.917H32.6357C37.2119 40.917 40.9287 37.2002 40.9287 32.624V22.3652C40.9287 17.7891 37.2119 14.0723 32.6357 14.0723ZM37.9316 32.6348C37.9316 35.5566 35.5576 37.9414 32.625 37.9414H22.3662C19.4443 37.9414 17.0596 35.5674 17.0596 32.6348V22.376C17.0596 19.4541 19.4336 17.0693 22.3662 17.0693H32.625C35.5469 17.0693 37.9316 19.4434 37.9316 22.376V32.6348Z" fill="white"/>
<path d="M27.501 20.6357C23.7197 20.6357 20.6367 23.7187 20.6367 27.5C20.6367 31.2812 23.7197 34.3643 27.501 34.3643C31.2822 34.3643 34.3652 31.2812 34.3652 27.5C34.3652 23.7187 31.2822 20.6357 27.501 20.6357ZM27.501 31.668C25.2021 31.668 23.333 29.7988 23.333 27.5C23.333 25.2012 25.2021 23.332 27.501 23.332C29.7998 23.332 31.6689 25.2012 31.6689 27.5C31.6689 29.7988 29.7998 31.668 27.501 31.668Z" fill="white"/>
<path d="M34.8874 21.3882C35.5198 21.2857 35.9494 20.6899 35.8469 20.0575C35.7443 19.4251 35.1486 18.9955 34.5162 19.0981C33.8838 19.2006 33.4542 19.7964 33.5567 20.4288C33.6592 21.0612 34.255 21.4907 34.8874 21.3882Z" fill="white"/>
<defs>
<linearGradient id="paint0_linear_2006_10762" x1="9.09638" y1="45.9036" x2="43.4445" y2="11.5555" gradientUnits="userSpaceOnUse">
<stop stop-color="#FEE411"/>
<stop offset="0.0518459" stop-color="#FEDB16"/>
<stop offset="0.1381" stop-color="#FEC125"/>
<stop offset="0.2481" stop-color="#FE983D"/>
<stop offset="0.3762" stop-color="#FE5F5E"/>
<stop offset="0.5" stop-color="#FE2181"/>
<stop offset="1" stop-color="#9000DC"/>
</linearGradient>
</defs>
</svg>
