<svg width="48" height="48" viewBox="0 0 48 48" fill="none" xmlns="http://www.w3.org/2000/svg">
<g clip-path="url(#clip0_2006_10769)">
<path d="M24 47.9993C37.2548 47.9993 48 37.2541 48 23.9993C48 10.7444 37.2548 -0.000732422 24 -0.000732422C10.7452 -0.000732422 0 10.7444 0 23.9993C0 37.2541 10.7452 47.9993 24 47.9993Z" fill="#007AB9"/>
<path d="M38.3395 25.9307V35.8254H32.6029V26.5938C32.6029 24.2759 31.7746 22.6929 29.6975 22.6929C28.1124 22.6929 27.1708 23.7586 26.7549 24.7905C26.6039 25.1593 26.565 25.6714 26.565 26.1887V35.8249H20.8279C20.8279 35.8249 20.9049 20.1897 20.8279 18.5713H26.5654V21.0163C26.5539 21.0355 26.5376 21.0544 26.5273 21.0727H26.5654V21.0163C27.3278 19.8432 28.6874 18.1661 31.7357 18.1661C35.5099 18.1661 38.3395 20.6321 38.3395 25.9307ZM14.8264 10.2544C12.864 10.2544 11.5801 11.5426 11.5801 13.235C11.5801 14.8916 12.8268 16.217 14.7511 16.217H14.7883C16.7892 16.217 18.0334 14.8916 18.0334 13.235C17.9953 11.5426 16.7892 10.2544 14.8264 10.2544ZM11.9211 35.8254H17.656V18.5713H11.9211V35.8254Z" fill="#F1F2F2"/>
</g>
<defs>
<clipPath id="clip0_2006_10769">
<rect width="48" height="48" fill="white"/>
</clipPath>
</defs>
</svg>
