<svg width="48" height="48" viewBox="0 0 48 48" fill="none" xmlns="http://www.w3.org/2000/svg">
<g clip-path="url(#clip0_2006_10774)">
<path d="M24 0C37.2544 0 48 10.7456 48 24C48 37.2544 37.2544 48 24 48C10.7456 48 -3.8147e-06 37.2544 -3.8147e-06 24C-3.8147e-06 10.7456 10.7456 0 24 0Z" fill="black"/>
<path d="M21.3741 21.8281L11.1 9.88525H13.5346L22.4556 20.2551L29.5808 9.88525H37.7988L27.0242 25.5662L37.7988 38.0901H35.3641L25.9432 27.1392L18.4185 38.0901H10.2005L21.3747 21.8281H21.3741ZM34.4868 11.7181H30.7471L13.5335 36.3406H17.2731L34.4868 11.7181Z" fill="white"/>
</g>
<defs>
<clipPath id="clip0_2006_10774">
<rect width="48" height="48" fill="white" transform="matrix(-1 0 0 1 48 0)"/>
</clipPath>
</defs>
</svg>
